%TF.GenerationSoftware,KiCad,Pcbnew,8.0.8*%
%TF.CreationDate,2025-02-13T16:32:42+11:00*%
%TF.ProjectId,jetson-orin-baseboard,6a657473-6f6e-42d6-9f72-696e2d626173,1.3.0*%
%TF.SameCoordinates,PX1c5f2f0PY7ac91b0*%
%TF.FileFunction,Copper,L4,Inr*%
%TF.FilePolarity,Positive*%
%FSLAX46Y46*%
G04 Gerber Fmt 4.6, Leading zero omitted, Abs format (unit mm)*
G04 Created by KiCad (PCBNEW 8.0.8) date 2025-02-13 16:32:42*
%MOMM*%
%LPD*%
G01*
G04 APERTURE LIST*
%TA.AperFunction,ComponentPad*%
%ADD10C,6.000000*%
%TD*%
%TA.AperFunction,ComponentPad*%
%ADD11C,0.650000*%
%TD*%
%TA.AperFunction,ComponentPad*%
%ADD12O,1.000000X1.600000*%
%TD*%
%TA.AperFunction,ComponentPad*%
%ADD13R,2.540000X2.540000*%
%TD*%
%TA.AperFunction,ComponentPad*%
%ADD14C,2.540000*%
%TD*%
%TA.AperFunction,ComponentPad*%
%ADD15C,1.397000*%
%TD*%
%TA.AperFunction,ComponentPad*%
%ADD16C,1.524000*%
%TD*%
%TA.AperFunction,ComponentPad*%
%ADD17C,2.100000*%
%TD*%
%TA.AperFunction,ComponentPad*%
%ADD18C,2.108200*%
%TD*%
%TA.AperFunction,ComponentPad*%
%ADD19O,1.200000X1.900000*%
%TD*%
%TA.AperFunction,ComponentPad*%
%ADD20O,1.200000X1.700000*%
%TD*%
%TA.AperFunction,ComponentPad*%
%ADD21O,1.000000X2.000000*%
%TD*%
%TA.AperFunction,ComponentPad*%
%ADD22O,1.050000X2.100000*%
%TD*%
%TA.AperFunction,ComponentPad*%
%ADD23C,0.450000*%
%TD*%
%TA.AperFunction,ViaPad*%
%ADD24C,0.450000*%
%TD*%
%TA.AperFunction,Conductor*%
%ADD25C,0.160000*%
%TD*%
%TA.AperFunction,Conductor*%
%ADD26C,0.150000*%
%TD*%
%TA.AperFunction,Conductor*%
%ADD27C,0.130000*%
%TD*%
%TA.AperFunction,Conductor*%
%ADD28C,0.125000*%
%TD*%
%TA.AperFunction,Conductor*%
%ADD29C,0.300000*%
%TD*%
%TA.AperFunction,Conductor*%
%ADD30C,0.155000*%
%TD*%
G04 APERTURE END LIST*
D10*
%TO.N,GND*%
%TO.C,H2*%
X94775000Y10637500D03*
%TD*%
%TO.N,GND*%
%TO.C,SP7*%
X49500000Y33600000D03*
%TD*%
D11*
%TO.N,GND*%
%TO.C,J5*%
X86450080Y9300000D03*
%TO.N,/USB3/USBC1_CONN_TX2_N*%
X86050080Y8600000D03*
%TO.N,/USB3/USBC1_CONN_TX2_P*%
X85250080Y8600000D03*
%TO.N,/USB3/USBC1_VBUS*%
X84850080Y9300000D03*
%TO.N,/USB3/USBC1_CC2*%
X84450080Y8600000D03*
%TO.N,USB0_D_P*%
X84050080Y9300000D03*
%TO.N,USB0_D_N*%
X83250080Y9300000D03*
%TO.N,unconnected-(J5-SBU_{2}-PadB8)*%
X82850080Y8600000D03*
%TO.N,/USB3/USBC1_VBUS*%
X82450080Y9300000D03*
%TO.N,/USB3/USBC1_RX1_N*%
X82050080Y8600000D03*
%TO.N,/USB3/USBC1_RX1_P*%
X81250080Y8600000D03*
%TO.N,GND*%
X80850080Y9300000D03*
D12*
X79380080Y8150000D03*
X79380080Y3420000D03*
D11*
X81650080Y9300000D03*
X85650080Y9300000D03*
D12*
X87920080Y8150000D03*
X87920080Y3420000D03*
%TD*%
D13*
%TO.N,/Ethernet/VDD*%
%TO.C,U23*%
X4298000Y29258855D03*
D14*
%TO.N,/Ethernet/ULS-12_CTRL*%
X11918000Y29258855D03*
%TO.N,GNDD*%
X19538000Y29258855D03*
%TO.N,GND*%
X19538000Y57198855D03*
X15728000Y57198855D03*
%TO.N,Net-(U23-TRIM)*%
X11918000Y57198855D03*
%TO.N,POE_OUTPUT*%
X8108000Y57198855D03*
X4298000Y57198855D03*
%TD*%
D10*
%TO.N,GND*%
%TO.C,H1*%
X31175000Y10650000D03*
%TD*%
D15*
%TO.N,GBE_MDI0_P*%
%TO.C,J6*%
X3685000Y20133603D03*
%TO.N,GBE_MDI0_N*%
X4954000Y17594603D03*
%TO.N,GBE_MDI1_P*%
X6224000Y20133603D03*
%TO.N,Net-(J6-P4)*%
X7494000Y17594603D03*
X8763000Y20133603D03*
%TO.N,GBE_MDI1_N*%
X10034000Y17594603D03*
%TO.N,GBE_MDI2_P*%
X11303000Y20133603D03*
%TO.N,GBE_MDI2_N*%
X12575000Y17594603D03*
%TO.N,GBE_MDI3_P*%
X13844000Y20133603D03*
%TO.N,GBE_MDI3_N*%
X15114000Y17594603D03*
%TO.N,/Ethernet/PAIR_12*%
X3685000Y15055603D03*
%TO.N,/Ethernet/PAIR_36*%
X6224000Y13794603D03*
%TO.N,/Ethernet/PAIR_78*%
X12575000Y13794603D03*
%TO.N,/Ethernet/PAIR_910*%
X15114000Y15063603D03*
D16*
%TO.N,+3V3*%
X2758000Y7175603D03*
%TO.N,Net-(J6-LED_GRN-)*%
X5299000Y7175603D03*
%TO.N,+3V3*%
X13499000Y7175603D03*
%TO.N,Net-(J6-LED_YEL-)*%
X16040000Y7175603D03*
D17*
%TO.N,Net-(C78-Pad1)*%
X1549000Y14283603D03*
D18*
X17248000Y14283603D03*
%TD*%
D19*
%TO.N,GND*%
%TO.C,J13*%
X58765000Y5790000D03*
D20*
X58765000Y1290000D03*
D19*
X69614000Y5790000D03*
D20*
X69614000Y1290000D03*
%TD*%
D11*
%TO.N,GND*%
%TO.C,J4*%
X47800000Y9385000D03*
%TO.N,/USB Debug\u002C DP/USBC0_CONN_TX2_P*%
X47400000Y8685000D03*
%TO.N,/USB Debug\u002C DP/USBC0_CONN_TX2_N*%
X46600000Y8685000D03*
%TO.N,/USB Debug\u002C DP/USBC0_VBUS*%
X46200000Y9385000D03*
%TO.N,/USB Debug\u002C DP/USBC0_CC2*%
X45800000Y8685000D03*
%TO.N,USB2_D_P*%
X45400000Y9385000D03*
%TO.N,USB2_D_N*%
X44600000Y9385000D03*
%TO.N,/USB Debug\u002C DP/USBC0_SBU_P*%
X44200000Y8685000D03*
%TO.N,/USB Debug\u002C DP/USBC0_VBUS*%
X43800000Y9385000D03*
%TO.N,/USB Debug\u002C DP/USBC0_RX1_N*%
X43400000Y8685000D03*
%TO.N,/USB Debug\u002C DP/USBC0_RX1_P*%
X42600000Y8685000D03*
%TO.N,GND*%
X42200000Y9385000D03*
D12*
X40730000Y8235000D03*
X40730000Y3505000D03*
D11*
X43000000Y9385000D03*
X47000000Y9385000D03*
D12*
X49270000Y8235000D03*
X49270000Y3505000D03*
%TD*%
D10*
%TO.N,GND*%
%TO.C,H3*%
X115000000Y5000000D03*
%TD*%
%TO.N,GND*%
%TO.C,H4*%
X10000000Y5000000D03*
%TD*%
%TO.N,GND*%
%TO.C,H5*%
X115000000Y56500000D03*
%TD*%
D21*
%TO.N,GND*%
%TO.C,J3*%
X28161000Y2755000D03*
D22*
X28161000Y6936000D03*
D21*
X19520000Y2755000D03*
D22*
X19520000Y6936000D03*
%TD*%
D10*
%TO.N,GND*%
%TO.C,SP8*%
X11000000Y42000000D03*
%TD*%
%TO.N,GND*%
%TO.C,H6*%
X7500000Y52500000D03*
%TD*%
D23*
%TO.N,/USB Debug\u002C DP/DRAIN1*%
%TO.C,U6*%
X37126000Y23299000D03*
X38000000Y23299000D03*
X38877000Y23299000D03*
X37127000Y24249000D03*
X38000000Y24249000D03*
X38877000Y24249000D03*
%TO.N,/USB Debug\u002C DP/DRAIN2*%
X34200000Y23299000D03*
X35075000Y23299000D03*
X35952000Y23299000D03*
X34201000Y24249000D03*
X35075000Y24249000D03*
X35952000Y24249000D03*
%TO.N,GND*%
X35228000Y25498000D03*
X36550000Y25500000D03*
X37871000Y25500000D03*
X34054000Y26698000D03*
X35228000Y26698000D03*
X37877000Y26698000D03*
X39054000Y26698000D03*
X36550000Y26700000D03*
X35228000Y27898000D03*
X36551000Y27898000D03*
X37877000Y27898000D03*
%TD*%
D24*
%TO.N,GND*%
X93490000Y43750000D03*
X63370000Y52160000D03*
X93150000Y3700000D03*
X51759753Y54210001D03*
X90200000Y1000000D03*
X42550000Y55450000D03*
X56575000Y17975000D03*
X84340000Y57940000D03*
X110900000Y15900000D03*
X23190000Y45720000D03*
X93350000Y55500000D03*
X47900000Y54200000D03*
X46200000Y38400000D03*
X74600000Y27150000D03*
X93230000Y25290000D03*
X54150000Y53750000D03*
X35680000Y34920000D03*
X108900000Y43150000D03*
X112600000Y40800000D03*
X45261244Y28955392D03*
X8150000Y10350000D03*
X54750000Y31260000D03*
X84650000Y22400000D03*
X57220000Y27120000D03*
X93500000Y39260000D03*
X21700000Y12100000D03*
X18550000Y45750000D03*
X53750000Y54500000D03*
X33710000Y42690000D03*
X50664208Y47250000D03*
X41290000Y38500000D03*
X68750000Y50000000D03*
X31930000Y32780000D03*
X79115438Y24960062D03*
X32150000Y40010000D03*
X67000000Y51700000D03*
X112950000Y17650000D03*
X119274500Y15450000D03*
X115475000Y40000000D03*
X1550000Y57150000D03*
X58260000Y47400000D03*
X26649282Y32716875D03*
X77325000Y27225000D03*
X68350000Y57925000D03*
X93260000Y27890000D03*
X28630000Y45170000D03*
X45240000Y55451498D03*
X32100000Y38500000D03*
X21950000Y9350000D03*
X54572500Y12160000D03*
X33300000Y54900000D03*
X117150000Y45640000D03*
X85790000Y57950000D03*
X54160000Y2022500D03*
X44450000Y47050000D03*
X46740000Y7260000D03*
X26520000Y15362000D03*
X40290000Y38500000D03*
X96060000Y30740000D03*
X71450000Y34050000D03*
X93450000Y37800000D03*
X51860000Y58030000D03*
X95750000Y43680000D03*
X96200000Y49780000D03*
X65602278Y28992812D03*
X115237667Y25262667D03*
X98600000Y34600000D03*
X42675000Y51050000D03*
X118850000Y39340000D03*
X93000000Y47200000D03*
X32580000Y32140000D03*
X118875000Y43000000D03*
X115250000Y21475500D03*
X98210000Y36230000D03*
X88728081Y47222960D03*
X28325167Y56975167D03*
X59550000Y9850000D03*
X62195769Y10927994D03*
X43750000Y38500000D03*
X83800000Y13800000D03*
X107575000Y24700000D03*
X54850000Y58050000D03*
X82475536Y47288684D03*
X32600000Y39000000D03*
X57300000Y6250000D03*
X102190000Y43810000D03*
X73500000Y20550000D03*
X77960000Y47300000D03*
X33590000Y45050000D03*
X110775000Y45600000D03*
X94840000Y57860000D03*
X43250000Y38500000D03*
X91920000Y36310000D03*
X43750000Y39000000D03*
X71950000Y5850000D03*
X27410000Y43780000D03*
X48900000Y25800000D03*
X71103485Y50047289D03*
X82350000Y45750000D03*
X46700000Y38400000D03*
X28950000Y32940000D03*
X32600000Y40500000D03*
X20150000Y10550000D03*
X96330000Y55410000D03*
X93530000Y40750000D03*
X61970000Y53440000D03*
X110750000Y38300000D03*
X65000000Y42100000D03*
X32520000Y46950000D03*
X52875000Y43250000D03*
X55250000Y54500000D03*
X38100000Y15450000D03*
X32110000Y38980000D03*
X112660000Y31740000D03*
X58850000Y52470000D03*
X51055000Y3425000D03*
X43740000Y7090000D03*
X23150000Y52550000D03*
X50350000Y58000000D03*
X118760000Y37760000D03*
X109610000Y31880000D03*
X114625000Y48550000D03*
X26440000Y32300000D03*
X40790000Y39000000D03*
X95990000Y28090000D03*
X32500000Y47437500D03*
X79733979Y55127100D03*
X21950000Y8800000D03*
X53375000Y51675000D03*
X21350000Y8800000D03*
X93310000Y58100000D03*
X32630000Y39490000D03*
X110775000Y43200000D03*
X94600000Y47400000D03*
X85946953Y39200462D03*
X47850000Y26950000D03*
X75970000Y42860000D03*
X77850000Y43430000D03*
X31550000Y18550000D03*
X46700000Y38900000D03*
X73750000Y36300000D03*
X40790000Y38500000D03*
X25150000Y38650000D03*
X93400000Y34800000D03*
X27010000Y45690000D03*
X93400000Y36150000D03*
X110800000Y31200000D03*
X59450000Y13750000D03*
X99750000Y5000000D03*
X27700000Y45950000D03*
X110800000Y35500000D03*
X55100000Y47390000D03*
X40290000Y39000000D03*
X95820000Y42750000D03*
X75330000Y57980000D03*
X83450000Y37759062D03*
X90090000Y47290000D03*
X107500000Y15050000D03*
X50573000Y14623000D03*
X46431746Y52266590D03*
X60950000Y38925000D03*
X87100000Y47510000D03*
X26423952Y51922714D03*
X57850000Y57950000D03*
X62594303Y50738537D03*
X71400000Y44750000D03*
X103000000Y42600000D03*
X32130000Y39470000D03*
X47700000Y38900000D03*
X18625000Y4805000D03*
X31350000Y21050000D03*
X62000000Y19950000D03*
X118900000Y41975000D03*
X93350000Y33309000D03*
X58900000Y56509000D03*
X115300000Y34900000D03*
X20750000Y9350000D03*
X74600000Y700000D03*
X95760000Y36200000D03*
X27940000Y32740000D03*
X52990000Y58000000D03*
X104150000Y14625500D03*
X91940000Y34700000D03*
X78926468Y17862500D03*
X65400000Y5900000D03*
X108100000Y46750000D03*
X96058002Y47358002D03*
X96100000Y51150000D03*
X31420000Y33530000D03*
X35450000Y54450000D03*
X70250000Y52800000D03*
X54625000Y28760000D03*
X63900167Y49999833D03*
X94850000Y55490000D03*
X90118506Y50089063D03*
X21350000Y9950000D03*
X19762500Y15775999D03*
X93140585Y49859415D03*
X46580000Y15500000D03*
X28150000Y22350000D03*
X27780000Y32300000D03*
X107450000Y20724500D03*
X95920000Y37400000D03*
X78360000Y55371000D03*
X95830000Y31920000D03*
X104320000Y43480000D03*
X46200000Y38900000D03*
X118875000Y40425000D03*
X65212501Y11043325D03*
X104700000Y9400000D03*
X46988028Y50599881D03*
X103940000Y57860000D03*
X84110000Y47290000D03*
X75300000Y40510000D03*
X82770000Y42450000D03*
X73030000Y28187500D03*
X67375500Y43321500D03*
X91840000Y58100000D03*
X53700000Y44200000D03*
X74193830Y39525000D03*
X98550000Y43750000D03*
X32800000Y55400000D03*
X103778500Y37670000D03*
X115450000Y42375000D03*
X33800000Y55400000D03*
X53700000Y42050000D03*
X112670000Y42260000D03*
X64200000Y5900000D03*
X117120000Y44410000D03*
X57590000Y42870000D03*
X117150000Y34950000D03*
X32590000Y32780000D03*
X98470000Y37910000D03*
X33710000Y43190000D03*
X93450000Y45250000D03*
X61425500Y50850000D03*
X75900000Y10025000D03*
X20150000Y9350000D03*
X101700000Y33550000D03*
X62476064Y58450000D03*
X112700000Y37750000D03*
X102800000Y38600000D03*
X46570000Y54170000D03*
X99250000Y33600000D03*
X51580000Y53750000D03*
X40950000Y45362500D03*
X28650000Y49750000D03*
X117125000Y42475000D03*
X46400000Y27600000D03*
X33710000Y43690000D03*
X92340000Y39250000D03*
X33300000Y55400000D03*
X95880000Y39590000D03*
X44150000Y20850000D03*
X45324048Y22483115D03*
X84015584Y25065584D03*
X56330000Y57980000D03*
X98050000Y3700000D03*
X79290000Y41730000D03*
X92720000Y42410000D03*
X53565000Y29670000D03*
X86850000Y52809000D03*
X84170000Y45780000D03*
X37210356Y31089644D03*
X42390000Y12200000D03*
X95810000Y45190000D03*
X117100000Y37575000D03*
X55970000Y52920000D03*
X76850000Y58020000D03*
X27410000Y44320000D03*
X41125000Y51825000D03*
X110675000Y40775000D03*
X23700000Y8650000D03*
X110650000Y21600000D03*
X48150000Y19300000D03*
X76970000Y730000D03*
X57050000Y35030000D03*
X33800000Y54400000D03*
X52191624Y47379000D03*
X93380000Y41360000D03*
X96100000Y51720000D03*
X98200000Y32250000D03*
X111750000Y3790000D03*
X108789000Y43775000D03*
X44350000Y58950000D03*
X63000000Y5900000D03*
X37112500Y47000000D03*
X20150000Y9950000D03*
X79710000Y47310000D03*
X60400000Y58050000D03*
X60950000Y43075000D03*
X98500000Y45212500D03*
X28509800Y38642267D03*
X98100000Y47727000D03*
X51020000Y54230000D03*
X115425000Y37625000D03*
X36175500Y19604500D03*
X58100000Y49850000D03*
X60850000Y10150000D03*
X40950000Y52500000D03*
X48590000Y17100000D03*
X92449484Y29372216D03*
X20750000Y9950000D03*
X85770000Y49850000D03*
X107400000Y37667000D03*
X107450000Y35843902D03*
X55460000Y40060000D03*
X57850000Y20515500D03*
X10950000Y46550000D03*
X87390000Y58010000D03*
X90900000Y30280000D03*
X95900000Y23950000D03*
X40200000Y21920000D03*
X37315000Y1995000D03*
X104440000Y38440000D03*
X93570000Y30320000D03*
X36850000Y17450000D03*
X31930000Y32140000D03*
X48000000Y11650000D03*
X32800000Y54400000D03*
X14900000Y8150000D03*
X55581979Y4766979D03*
X80840000Y49930000D03*
X76985891Y49853340D03*
X95850000Y34760000D03*
X90390000Y58340000D03*
X95880000Y40650000D03*
X102600000Y43000000D03*
X75970000Y37800000D03*
X91470000Y50190000D03*
X114950000Y15550000D03*
X92170000Y43910000D03*
X46525000Y53675000D03*
X25855356Y25014644D03*
X91364209Y47356942D03*
X39800000Y19315000D03*
X93490000Y42270000D03*
X82750000Y35650000D03*
X66900000Y57900000D03*
X21850000Y57850000D03*
X33500000Y47437500D03*
X84590000Y53520000D03*
X54390000Y51910000D03*
X117125000Y39975000D03*
X84010000Y50150000D03*
X68749833Y26100167D03*
X33000000Y47437500D03*
X45690000Y16550000D03*
X48250000Y14125000D03*
X91390000Y39990000D03*
X115390000Y45400000D03*
X54375000Y40350000D03*
X79357954Y49964987D03*
X98700000Y42300000D03*
X109000000Y40850000D03*
X81770000Y55190000D03*
X20750000Y10550000D03*
X91500000Y46000000D03*
X35650000Y2550000D03*
X28080000Y43730000D03*
X21350000Y9350000D03*
X56525000Y43725000D03*
X100050000Y1750000D03*
X37625000Y51300000D03*
X83100000Y50400000D03*
X39750000Y38500000D03*
X42700000Y43850000D03*
X22807388Y50118383D03*
X117950000Y8750000D03*
X57279000Y54210001D03*
X3550000Y49150000D03*
X88800000Y58050000D03*
X53602866Y47402866D03*
X26050167Y20049833D03*
X56539091Y38833589D03*
X34730000Y33430000D03*
X82850000Y57960000D03*
X18350000Y6450000D03*
X30570000Y33530000D03*
X110025000Y28325000D03*
X107950000Y6750000D03*
X58300000Y36900000D03*
X83400000Y55250000D03*
X71450000Y14025000D03*
X58920000Y43590000D03*
X45000000Y8650000D03*
X19812500Y18396250D03*
X91950000Y37650000D03*
X72300000Y9500000D03*
X107950000Y10750000D03*
X50315000Y22487000D03*
X56590000Y49810000D03*
X42462000Y26100000D03*
X115350000Y31100000D03*
X25150000Y12900000D03*
X60100000Y44125000D03*
X69850000Y57975000D03*
X109940000Y34480000D03*
X8550000Y14250000D03*
X90027000Y31191000D03*
X105900000Y5950000D03*
X44749514Y22470031D03*
X98750000Y39250000D03*
X32800000Y54900000D03*
X33020000Y46950000D03*
X33300000Y54400000D03*
X45250000Y14150000D03*
X38000000Y19550000D03*
X60000000Y47450000D03*
X93570000Y53290000D03*
X96350000Y58100000D03*
X52200000Y42150000D03*
X98700000Y40700000D03*
X32600000Y38500000D03*
X76890585Y42490585D03*
X55690000Y42630000D03*
X25150000Y21050000D03*
X63685323Y47400000D03*
X82500000Y55151000D03*
X117200000Y31110000D03*
X61150000Y33850000D03*
X85445585Y47085585D03*
X17244565Y15820591D03*
X114392909Y24900519D03*
X96100000Y52275000D03*
X82750000Y36150000D03*
X81100000Y47290000D03*
X115350000Y17650000D03*
X95840000Y33440000D03*
X47200000Y38900000D03*
X53600000Y49800000D03*
X33800000Y54900000D03*
X55080000Y49810000D03*
X68450000Y52850000D03*
X46900000Y52000000D03*
X32640000Y40000000D03*
X103900000Y625000D03*
X102850000Y41200000D03*
X91980000Y33240000D03*
X79100000Y37310000D03*
X115200000Y39250000D03*
X104400000Y40550000D03*
X36840000Y55480000D03*
X47200000Y38400000D03*
X58690000Y31880000D03*
X53550167Y31249833D03*
X44650000Y20850000D03*
X88600000Y49830000D03*
X61430619Y36450000D03*
X83600000Y33030000D03*
X60850000Y52400000D03*
X43250000Y39000000D03*
X74920000Y49980000D03*
X91482792Y30463085D03*
X65350000Y58380000D03*
X85860000Y55340000D03*
X112630000Y33230000D03*
X33520000Y46950000D03*
X36450000Y52550000D03*
X102000000Y37500000D03*
X96150000Y1050000D03*
X102800000Y20040000D03*
X5050000Y59350000D03*
X76480000Y46930000D03*
X28500000Y55200000D03*
X82450000Y49850000D03*
X52120000Y49850000D03*
X10550000Y10350000D03*
X21950000Y9950000D03*
X118900000Y44575000D03*
X66600000Y5900000D03*
X79550000Y45550000D03*
X41290000Y39000000D03*
X64450000Y58355000D03*
X104700000Y10700000D03*
X47700000Y38400000D03*
X48387131Y15421394D03*
X28650000Y17300000D03*
%TO.N,CSI1_D0_N*%
X92140000Y53990000D03*
%TO.N,CSI0_D0_N*%
X97682006Y47218741D03*
%TO.N,CSI1_D0_P*%
X92270000Y53420000D03*
%TO.N,CSI0_D0_P*%
X98025011Y46754989D03*
%TO.N,CSI1_CLK_N*%
X55470000Y57980000D03*
X94440000Y58280000D03*
%TO.N,CSI0_CLK_N*%
X101610000Y44697000D03*
%TO.N,CSI1_CLK_P*%
X55330000Y58540000D03*
X93860000Y58270000D03*
%TO.N,CSI0_CLK_P*%
X101610000Y44103000D03*
%TO.N,CSI1_D1_N*%
X91180000Y55090000D03*
%TO.N,CSI0_D1_N*%
X92644323Y50160000D03*
%TO.N,CSI1_D1_P*%
X91010000Y54540000D03*
%TO.N,CSI0_D1_P*%
X92050323Y50160000D03*
%TO.N,CSI3_D0_N*%
X81290000Y53220000D03*
%TO.N,CSI2_D0_N*%
X109840000Y40570000D03*
X91144323Y49710134D03*
%TO.N,CSI3_D0_P*%
X81050000Y53750000D03*
%TO.N,CSI2_D0_P*%
X90550323Y49710134D03*
X109380000Y40220000D03*
%TO.N,CSI3_CLK_N*%
X61377890Y53392110D03*
X87360000Y51933000D03*
%TO.N,CSI2_CLK_N*%
X109290000Y33020000D03*
X91460011Y45385011D03*
%TO.N,CSI3_CLK_P*%
X60962110Y53807890D03*
X87360000Y52527000D03*
%TO.N,CSI2_CLK_P*%
X91039989Y44964989D03*
X109240000Y32440000D03*
%TO.N,CSI3_D1_N*%
X81225000Y54300000D03*
%TO.N,CSI2_D1_N*%
X114370000Y34984000D03*
X90210000Y46004000D03*
%TO.N,CSI3_D1_P*%
X81225000Y54875000D03*
%TO.N,CSI2_D1_P*%
X90210000Y45416000D03*
X114370000Y34396000D03*
%TO.N,DP1_TXD0_N*%
X58893294Y37046706D03*
X47920000Y26340000D03*
%TO.N,DP1_TXD1_P*%
X57123294Y38693294D03*
X47420000Y27360000D03*
%TO.N,DP1_TXD3_N*%
X54973794Y40596706D03*
X42741000Y25548000D03*
%TO.N,DP1_TXD3_P*%
X43363000Y25548000D03*
X54567206Y41003294D03*
%TO.N,SPIO_MOSI*%
X98050000Y56650000D03*
X104700000Y34550000D03*
%TO.N,SPIO_SCK*%
X98630000Y56410000D03*
X103840000Y34380000D03*
%TO.N,SPIO_MISO*%
X99120000Y56780000D03*
X103870000Y35270000D03*
%TO.N,~{SPI0_CS0}*%
X72850000Y59370000D03*
X100120000Y55780000D03*
X104450000Y35470000D03*
%TO.N,~{SPI0_CS1}*%
X103790000Y36160000D03*
X99680000Y56230000D03*
X72170000Y59370000D03*
%TO.N,DP1_AUX_N*%
X54288649Y22161351D03*
X40725000Y21546531D03*
%TO.N,DP1_AUX_P*%
X40725000Y22218531D03*
X53811351Y22638649D03*
%TO.N,SPI1_MOSI*%
X119280000Y25150000D03*
X100449498Y15350502D03*
%TO.N,SPI1_SCK*%
X99987146Y14888856D03*
X119310000Y25740000D03*
%TO.N,SPI1_MISO*%
X101049749Y15350418D03*
X119250000Y24540000D03*
%TO.N,USB0_D_N*%
X83496500Y17900862D03*
X71344000Y31550000D03*
X69944000Y50150000D03*
X84050000Y11450000D03*
%TO.N,~{SPI1_CS0}*%
X119150000Y22500000D03*
X101649833Y15350167D03*
%TO.N,~{SPI1_CS1}*%
X119150000Y21850000D03*
X102250000Y15050000D03*
%TO.N,GPIO01*%
X65500000Y40931500D03*
X106250000Y33450000D03*
X104475500Y27750000D03*
%TO.N,USER_LED1*%
X58950000Y47378500D03*
X70050000Y17900000D03*
X53725499Y19498500D03*
%TO.N,USER_BTN0*%
X66350000Y15774500D03*
X90400000Y7250000D03*
X90800000Y1000000D03*
%TO.N,USER_BTN1*%
X65850000Y15350000D03*
X96850000Y1050000D03*
X90400000Y7950000D03*
%TO.N,PCIE0_RX0_N*%
X92112567Y42703000D03*
X63500000Y58720000D03*
%TO.N,PCIE0_RX0_P*%
X63050000Y58320000D03*
X92112567Y43297000D03*
%TO.N,PCIE0_RX1_N*%
X62850000Y51847000D03*
X91930000Y39703000D03*
%TO.N,PCIE0_RX1_P*%
X91930000Y40297000D03*
X62850000Y51253000D03*
%TO.N,PCIE0_RX2_N*%
X59556000Y56525000D03*
X91450000Y36712500D03*
%TO.N,PCIE0_RX2_P*%
X91450000Y37287500D03*
X60144000Y56570000D03*
%TO.N,PCIE0_RX3_N*%
X91450000Y33650000D03*
X54650000Y53453000D03*
%TO.N,PCIE0_RX3_P*%
X54650000Y54047000D03*
X91450000Y34350000D03*
%TO.N,PCIE0_CLK_N*%
X53970011Y51500011D03*
X92000000Y45703000D03*
%TO.N,USBSS0_RX_N*%
X53853000Y31750000D03*
X53970000Y58600000D03*
%TO.N,PCIE0_CLK_P*%
X92000000Y46297000D03*
X53549989Y51079989D03*
%TO.N,USBSS0_RX_P*%
X54447000Y31750000D03*
X53530000Y58220000D03*
%TO.N,USBSS0_TX_N*%
X54175000Y29800000D03*
X46500000Y51497000D03*
%TO.N,PCIE1_RX0_N*%
X91007890Y30892110D03*
X50702110Y53747890D03*
%TO.N,PCIE1_RX0_P*%
X51117890Y53332110D03*
X90592110Y31307890D03*
%TO.N,PCIE1_CLK_N*%
X91840088Y29320067D03*
X46592110Y52942110D03*
%TO.N,PCIE1_CLK_P*%
X47007890Y53357890D03*
X91420066Y29740089D03*
%TO.N,PCIE1_CLKREQ\u002A*%
X50050000Y46550000D03*
X93928015Y19818677D03*
%TO.N,PCIE1_RST\u002A*%
X93450000Y19500000D03*
X47250000Y59300000D03*
%TO.N,GBE_MDI0_N*%
X47210000Y46060000D03*
%TO.N,GBE_MDI0_P*%
X47800000Y46090000D03*
%TO.N,GBE_MDI1_N*%
X47100000Y47025000D03*
%TO.N,GBE_MDI1_P*%
X46550000Y46850000D03*
%TO.N,I2S0_SDOUT*%
X46350000Y58950000D03*
X118025000Y27375000D03*
%TO.N,I2S0_SDIN*%
X45850000Y59300000D03*
X106560000Y27250000D03*
%TO.N,GBE_MDI2_N*%
X42910000Y44994000D03*
%TO.N,I2S0_LRCK*%
X45350000Y58950000D03*
X106130000Y26690000D03*
%TO.N,GBE_MDI2_P*%
X42910000Y45666000D03*
%TO.N,I2S0_SCLK*%
X118075000Y27950000D03*
X44850000Y59300000D03*
%TO.N,GBE_MDI3_N*%
X41350000Y45800000D03*
%TO.N,GBE_MDI3_P*%
X41350000Y46487500D03*
%TO.N,GPIO09*%
X106480000Y31840000D03*
X107850000Y28220000D03*
X41850000Y58800000D03*
%TO.N,SDA_CAM*%
X40840000Y55500000D03*
X65200000Y26675000D03*
%TO.N,/SoM/~{FORCE_RECOVERY}*%
X57025500Y12200000D03*
X52414182Y36314182D03*
X72400000Y4800000D03*
X41150000Y49975000D03*
%TO.N,SCL_CAM*%
X65775000Y26650000D03*
X40505523Y55007622D03*
%TO.N,GPIO11*%
X119250000Y29400000D03*
X41396000Y43830000D03*
%TO.N,GPIO12*%
X36160000Y42560000D03*
X119225000Y30000000D03*
%TO.N,GPIO13*%
X36580000Y43070000D03*
X119075000Y32075000D03*
%TO.N,/SoM/PMIC_BBAT*%
X25974500Y47150000D03*
X81200000Y58525500D03*
X35850000Y58650000D03*
%TO.N,~{RESET}*%
X29325000Y41825000D03*
X16660000Y12910000D03*
X16870000Y8887990D03*
X42890000Y54510000D03*
X34800000Y58274500D03*
X48420000Y44430000D03*
%TO.N,+3V3*%
X65050000Y42750000D03*
X38600000Y38900000D03*
X108837500Y31587500D03*
X67050000Y14750000D03*
X98200000Y30650000D03*
X89250000Y25050000D03*
X39140000Y39930000D03*
X88748213Y41403316D03*
X38640000Y39920000D03*
X111550000Y2750000D03*
X48450000Y22487000D03*
X37400000Y21577083D03*
X89127023Y41029146D03*
X37662500Y34850000D03*
X38600000Y38400000D03*
X104550000Y18950000D03*
X37950000Y37800000D03*
X67050000Y13550000D03*
X38630000Y39390000D03*
X77290000Y41690000D03*
X39700000Y43270000D03*
X40450000Y14450000D03*
X38075000Y38375000D03*
X104550000Y19550000D03*
X111250000Y6550000D03*
X75800000Y7050000D03*
X67050000Y14150000D03*
X56750000Y22638000D03*
X88650000Y24750000D03*
X90080000Y24780000D03*
X40095000Y2290000D03*
X74125500Y37650000D03*
X104150000Y19250000D03*
X65550000Y43321500D03*
X103250000Y10362500D03*
X48750000Y19500000D03*
X39120000Y39400000D03*
X76850000Y34950000D03*
X35815315Y49766913D03*
X77200000Y21150000D03*
X40600000Y19350000D03*
X66550000Y14750000D03*
X104150000Y18650000D03*
X76850000Y17862000D03*
X104601293Y32945258D03*
X39100000Y38900000D03*
X65550000Y42750000D03*
X65050000Y43321500D03*
X84150000Y39250000D03*
X42500000Y24930000D03*
X66550000Y14150000D03*
X75950000Y12250000D03*
X39100000Y38400000D03*
X84100000Y32575000D03*
X88650000Y25350000D03*
X66550000Y13550000D03*
X58200000Y13900000D03*
X89800000Y25300000D03*
X88400000Y41800000D03*
X81050000Y44050000D03*
X103850000Y10362500D03*
X64350000Y36700000D03*
X81550000Y20700000D03*
X102650000Y10362500D03*
X57250000Y19880500D03*
%TO.N,EEPROM_PWR*%
X53900000Y17550000D03*
X52020000Y15370000D03*
%TO.N,+5V*%
X28950000Y36550000D03*
X70500000Y10150000D03*
X40250000Y10480000D03*
X70500000Y11150000D03*
X39650000Y9980000D03*
X30249258Y21038000D03*
X28950000Y35750000D03*
X40840000Y27080000D03*
X71000000Y10150000D03*
X30750000Y20550000D03*
X40250000Y9980000D03*
X107150000Y10350000D03*
X67362000Y42200000D03*
X29550000Y35750000D03*
X30250000Y20550000D03*
X105350000Y10350000D03*
X75950000Y25615000D03*
X67375000Y42700000D03*
X29550000Y36545000D03*
X29850000Y36150000D03*
X33884503Y15531724D03*
X39650000Y10980000D03*
X56300000Y10200000D03*
X40250000Y10980000D03*
X28250000Y20950000D03*
X39650000Y10480000D03*
X71000000Y11150000D03*
X106550000Y10350000D03*
X30150000Y36545000D03*
X105950000Y10350000D03*
X31560000Y26510000D03*
X70750000Y10650000D03*
X30150000Y35750000D03*
X30750000Y21050000D03*
X29250000Y36150000D03*
%TO.N,CAN_RX*%
X60150000Y5150000D03*
X49624793Y37121999D03*
X57850000Y51450000D03*
X50430000Y44030000D03*
X56150000Y12050000D03*
X119325000Y18275000D03*
%TO.N,CAN_TX*%
X60850000Y5150000D03*
X49010244Y37090814D03*
X56700000Y11700000D03*
X49830000Y44020000D03*
X57275000Y51925000D03*
X118700000Y16650000D03*
%TO.N,GPIO07*%
X43450000Y49850000D03*
X101750000Y18500000D03*
X40550000Y15750000D03*
X35308564Y50102926D03*
X104450000Y33500000D03*
%TO.N,PCIE2_RST\u002A*%
X39850000Y58750000D03*
X104900000Y34000000D03*
X106340000Y24860000D03*
%TO.N,PCIE2_CLKREQ\u002A*%
X107020000Y24850000D03*
X39350000Y59150000D03*
X105250167Y33500167D03*
%TO.N,/Ethernet/VDD*%
X6650000Y24550000D03*
X5450000Y26950000D03*
X4250000Y24550000D03*
X23300000Y38500000D03*
X5450000Y25750000D03*
X6650000Y25750000D03*
X4250000Y25750000D03*
X6650000Y26950000D03*
X23760000Y39400000D03*
X5450000Y24550000D03*
X23760000Y38800000D03*
X23300000Y39100000D03*
X23750000Y38200000D03*
X4250000Y26950000D03*
%TO.N,GNDD*%
X5025000Y33525000D03*
X26650000Y28600000D03*
%TO.N,USBSS1_RX_N*%
X114578000Y35525000D03*
X86894323Y58320000D03*
%TO.N,+1V8*%
X108975000Y27810000D03*
X58750000Y13500000D03*
X106100000Y15950000D03*
X35124499Y46893788D03*
X76835000Y27615000D03*
X70000000Y12750000D03*
X28400000Y24625500D03*
X35860000Y43070000D03*
X50315000Y10840000D03*
X66781153Y29750515D03*
X74350000Y25150000D03*
%TO.N,PCIE2_RX0_N*%
X80480011Y44799989D03*
X118550000Y41497000D03*
%TO.N,USBSS1_RX_P*%
X115172000Y35525000D03*
X86300323Y58320000D03*
%TO.N,VCC*%
X22100000Y51452500D03*
X21200000Y50300000D03*
X44200000Y42300000D03*
X43200000Y42800000D03*
X34525000Y34825000D03*
X21750000Y50300000D03*
X22100000Y50852500D03*
X111260000Y9850000D03*
X34350000Y37250000D03*
X37150000Y8100000D03*
X34850000Y37250000D03*
X43700000Y42300000D03*
X43700000Y41800000D03*
X43700000Y42800000D03*
X21630000Y48010000D03*
X21500000Y51452500D03*
X24730000Y47437500D03*
X21080000Y48010000D03*
X111260000Y9350000D03*
X34350000Y36750000D03*
X21500000Y50852500D03*
X34850000Y35250000D03*
X43200000Y43300000D03*
X34850000Y36250000D03*
X43700000Y43300000D03*
X34850000Y35750000D03*
X110760000Y9850000D03*
X34850000Y36750000D03*
X44200000Y41800000D03*
X110760000Y9350000D03*
%TO.N,USB_FLASH_ID*%
X78550000Y25550000D03*
X73650000Y42900000D03*
X73600000Y50000000D03*
%TO.N,3V3_STDB*%
X25530000Y49980000D03*
X33785000Y1650000D03*
X109400000Y11950000D03*
X54800000Y2150000D03*
%TO.N,UART0_RTS*%
X91450000Y41650000D03*
X71850000Y50390000D03*
%TO.N,UART0_CTS*%
X70650000Y50400000D03*
X92100000Y41775000D03*
%TO.N,PCIE3_RST\u002A*%
X38850000Y58774500D03*
X117800000Y31025000D03*
%TO.N,/USB Debug\u002C DP/USBC0_RX2_N*%
X47200000Y15550000D03*
X47180000Y19090000D03*
%TO.N,/Ethernet/POE_ACTIVE*%
X26914280Y28000000D03*
X20640000Y26000000D03*
%TO.N,PCIE3_CLKREQ\u002A*%
X38350000Y59150000D03*
X119080000Y33575000D03*
X109590000Y24820000D03*
X110590000Y28200000D03*
%TO.N,I2C2_SCL*%
X34560000Y45637500D03*
X103200000Y19000000D03*
X119350000Y19250000D03*
%TO.N,I2C2_SDA*%
X119350000Y20250000D03*
X35121248Y45762500D03*
X103200000Y19600000D03*
%TO.N,PCIE2_RX0_P*%
X118550000Y40903000D03*
X80059989Y45220011D03*
%TO.N,USBSS1_TX_N*%
X85370000Y58350000D03*
X102160000Y36910000D03*
%TO.N,/USB Debug\u002C DP/PDC_LDO_3V3*%
X35950000Y21600000D03*
X37820000Y31150000D03*
%TO.N,Net-(D36-A)*%
X28700000Y50450000D03*
X35400000Y3150000D03*
X27450000Y53225500D03*
%TO.N,Net-(D1-C)*%
X101900000Y25050000D03*
%TO.N,/USB Debug\u002C DP/USBC0_RX2_P*%
X47775000Y15550000D03*
X47592334Y19492334D03*
%TO.N,/USB Debug\u002C DP/USBC0_RX1_N*%
X43557890Y7647890D03*
%TO.N,/USB Debug\u002C DP/USBC0_RX1_P*%
X43142110Y7232110D03*
%TO.N,PCIE2_TX0_N*%
X102500000Y42297000D03*
X85144323Y49800000D03*
%TO.N,USBSS1_TX_P*%
X84790000Y58370000D03*
X102600000Y36450000D03*
%TO.N,PCIE2_TX0_P*%
X84550323Y49800000D03*
X102500000Y41703000D03*
%TO.N,USBSS2_RX_N*%
X79120000Y51480000D03*
X83894323Y58310000D03*
X72520000Y34320000D03*
%TO.N,PCIE2_CLK_N*%
X83594000Y49700000D03*
X103389989Y38710011D03*
%TO.N,USBSS2_RX_P*%
X79125000Y52069000D03*
X83310000Y58320000D03*
X72107666Y33907666D03*
%TO.N,PCIE2_CLK_P*%
X83006000Y49700000D03*
X103810011Y38289989D03*
%TO.N,USBSS2_TX_N*%
X73950000Y35690000D03*
X82347161Y58312839D03*
X79870000Y51080000D03*
%TO.N,/SoM/DEBUG_TXD_1V8*%
X35460000Y47380000D03*
%TO.N,/M.2/~{LED1}*%
X98070000Y28150000D03*
X89700000Y38950000D03*
%TO.N,PCIE2_RX1_N*%
X118550000Y44097000D03*
X82460000Y50520000D03*
%TO.N,USBSS2_TX_P*%
X81760000Y58290000D03*
X79720000Y50430000D03*
X73532666Y35282666D03*
%TO.N,PCIE2_RX1_P*%
X82030000Y50930000D03*
X118550000Y43503000D03*
%TO.N,Net-(D61-A)*%
X53500000Y2050000D03*
X25150000Y52750000D03*
%TO.N,/M.2/~{M2_E_UART_WAKE}*%
X92775000Y24895000D03*
X84135000Y29810000D03*
%TO.N,/USB Debug\u002C DP/FTDI_3V3*%
X19100000Y11100000D03*
X20335333Y15825900D03*
X26500000Y16275000D03*
X20430000Y18425000D03*
X18530000Y17430000D03*
%TO.N,/USB Debug\u002C DP/USBC3_VBUS*%
X30600000Y16000000D03*
X30100000Y15450000D03*
X30100000Y16000000D03*
X30100000Y16550000D03*
X30600000Y16550000D03*
X30600000Y15450000D03*
%TO.N,/USB Debug\u002C DP/USBC0_CONN_TX2_N*%
X47333000Y7210000D03*
%TO.N,/CSI/CSI3_0_D1_N*%
X83910000Y54259400D03*
X109702110Y37037890D03*
%TO.N,/CSI/CSI3_0_D1_P*%
X83910000Y54853400D03*
X110117890Y36622110D03*
%TO.N,/CSI/CSI3_0_D0_N*%
X83439989Y53199989D03*
X107972110Y36387890D03*
%TO.N,/CSI/CSI3_0_D0_P*%
X108387890Y35972110D03*
X83860011Y53620011D03*
%TO.N,/CSI/CSI1_1_D0_N*%
X54980000Y52020000D03*
X86710011Y54330011D03*
%TO.N,/CSI/CSI1_1_D0_P*%
X54920000Y51430000D03*
X86289989Y53909989D03*
%TO.N,/CSI/CSI1_1_D1_N*%
X49000000Y52370000D03*
X87960000Y54480000D03*
%TO.N,/CSI/CSI1_1_D1_P*%
X87750000Y53940000D03*
X48990000Y51780000D03*
%TO.N,/CSI/CSI3_1_D1_N*%
X76890000Y54743000D03*
X59197890Y53072110D03*
%TO.N,/CSI/CSI3_1_D1_P*%
X76890000Y55337000D03*
X58782110Y53487890D03*
%TO.N,/CSI/CSI3_1_D0_N*%
X61127890Y51372110D03*
X76890000Y53730000D03*
%TO.N,/CSI/CSI3_1_D0_P*%
X60712110Y51787890D03*
X77190000Y54240000D03*
%TO.N,VSYNC_CAM2*%
X39680000Y44370000D03*
%TO.N,VSYNC_CAM3*%
X36250000Y43580000D03*
%TO.N,/M.2/M2_M_SMB_CLK*%
X98185000Y39435000D03*
X89600000Y42495000D03*
%TO.N,/M.2/M2_M_SMB_DATA*%
X98020000Y39995000D03*
X88525000Y43275000D03*
%TO.N,/M.2/~{M2_M_ALERT}*%
X88550000Y43965000D03*
X98135000Y40565000D03*
%TO.N,/M.2/~{M2_M_CLKREQ0}*%
X78500000Y42600000D03*
X78650000Y35350000D03*
%TO.N,/M.2/~{M2_M_PEWAKE0}*%
X79850000Y39050000D03*
X78650000Y44750000D03*
%TO.N,SYS_SDA*%
X83500000Y27737500D03*
X56200000Y7900000D03*
X100050000Y17750000D03*
X30782860Y29445728D03*
X40696398Y24525324D03*
X43100000Y51950000D03*
X32150000Y51250000D03*
X79106235Y27793765D03*
%TO.N,SYS_SCL*%
X78700000Y28200000D03*
X40650000Y23933672D03*
X32150000Y50650000D03*
X83950000Y27312500D03*
X43250000Y51300000D03*
X30680000Y28880000D03*
X100550000Y18250000D03*
X56620000Y7350000D03*
%TO.N,~{PDC_CS}*%
X53020000Y15370000D03*
X50670000Y17400000D03*
%TO.N,PDC_SCLK*%
X53360000Y11330000D03*
X52022000Y11330000D03*
%TO.N,PDC_MISO*%
X52520000Y15950000D03*
%TO.N,PDC_MOSI*%
X52400000Y10650000D03*
X53727500Y10650000D03*
%TO.N,/USB Debug\u002C DP/USBC0_CONN_TX2_P*%
X47927000Y7210000D03*
%TO.N,/USB Debug\u002C DP/USBC0_VBUS*%
X38250000Y13000000D03*
X38850000Y13550000D03*
X39450000Y13550000D03*
X39450000Y13000000D03*
X38850000Y13000000D03*
X39685000Y8085000D03*
X38250000Y13550000D03*
%TO.N,/USB3/USBC1_VBUS*%
X73400000Y6700000D03*
X72150000Y7150000D03*
X72900000Y6700000D03*
X73150000Y7150000D03*
X72650000Y7150000D03*
X72400000Y6700000D03*
X68385000Y1345000D03*
%TO.N,/USB Debug\u002C DP/FTDI_LED_TX*%
X16250000Y2750000D03*
X25250000Y13638000D03*
%TO.N,/USB Debug\u002C DP/FTDI_LED_RX*%
X15550000Y2750000D03*
X18115000Y9070000D03*
X21000000Y15800000D03*
%TO.N,/USB Debug\u002C DP/USBC3_CC1*%
X31100000Y26072500D03*
X25700000Y11950000D03*
%TO.N,DP1_TXD0_HDMI_TX2_N*%
X80913294Y51423294D03*
%TO.N,/USB Debug\u002C DP/USBC3_CC2*%
X21600000Y10750000D03*
X31000000Y27437500D03*
%TO.N,/USB Debug\u002C DP/USBC0_CC1*%
X44322001Y15300678D03*
X40750000Y27650000D03*
%TO.N,/USB Debug\u002C DP/USBC0_CC2*%
X40675000Y26525000D03*
X46150000Y12050000D03*
X46250000Y14150000D03*
%TO.N,PWR_SOFT*%
X29835000Y53015000D03*
X28650000Y18220000D03*
%TO.N,/USB3/USBC1_CC1*%
X76950000Y23650000D03*
X82850000Y13850000D03*
%TO.N,/USB3/USBC1_CC2*%
X76930000Y24270000D03*
X84750000Y11550000D03*
X84750000Y13750000D03*
%TO.N,/USB3/USBC1_ID*%
X76428015Y11931323D03*
X79150000Y25550000D03*
%TO.N,/USB Debug\u002C DP/USBC0_FLIP*%
X30646800Y23628700D03*
X41450000Y23514752D03*
%TO.N,/USB Debug\u002C DP/USBC0_CTL0*%
X40843765Y23062000D03*
X30159263Y23324794D03*
%TO.N,/USB Debug\u002C DP/USBC0_CTL1*%
X29682818Y23003775D03*
X41250000Y22550000D03*
%TO.N,/USB Debug\u002C DP/PDC_I2C1_SCL*%
X18572644Y18056964D03*
X30449890Y27776867D03*
X21418590Y18215617D03*
%TO.N,/USB Debug\u002C DP/PDC_I2C1_SDA*%
X21487500Y17365617D03*
X30452626Y28351863D03*
X18600000Y16800000D03*
%TO.N,/USB Debug\u002C DP/USBC0_I2C_EN*%
X44014499Y24350000D03*
%TO.N,/USB Debug\u002C DP/USBC0_SSEQ0*%
X46400000Y24400000D03*
%TO.N,/USB Debug\u002C DP/USBC0_SSEQ1*%
X48800000Y20924503D03*
%TO.N,/USB Debug\u002C DP/USBC0_DPEQ0*%
X45200000Y24394500D03*
%TO.N,/USB Debug\u002C DP/USBC0_DPEQ1*%
X48800000Y20350000D03*
%TO.N,/USB Debug\u002C DP/USBC0_EQ0*%
X46425000Y19500000D03*
%TO.N,/USB Debug\u002C DP/USBC0_EQ1*%
X45200000Y19350000D03*
%TO.N,CSIA_FLG*%
X105100000Y15150000D03*
X78900000Y14150000D03*
X62522500Y15550000D03*
%TO.N,/USB3/USBC1_ADDR*%
X81500000Y22800000D03*
%TO.N,/USB3/~{USBC1_INT}*%
X81250000Y23350000D03*
%TO.N,/CSI/SDA_CAM0*%
X67400000Y26643000D03*
%TO.N,CSIA_PEN*%
X96290000Y14610000D03*
X104370000Y9950000D03*
X58350000Y22638000D03*
%TO.N,/CSI/SCL_CAM0*%
X66890000Y26320000D03*
%TO.N,/CSI/I2C_MUX_RESET*%
X65565089Y30152255D03*
%TO.N,/SoM/DEBUG_RXD_1V8*%
X34809661Y49809326D03*
%TO.N,/Supply/VCC_IN*%
X14300000Y46400000D03*
X32300000Y16200000D03*
X14300000Y47150000D03*
X15050000Y47900000D03*
X26200000Y17850000D03*
X14300000Y47900000D03*
X26650000Y17100000D03*
X26650000Y17600000D03*
X25200000Y18350000D03*
X25200000Y17350000D03*
X26200000Y17350000D03*
X15050000Y47150000D03*
X32800000Y15689591D03*
X26200000Y18350000D03*
X25700000Y17350000D03*
X32800000Y16200000D03*
X25700000Y17850000D03*
X25700000Y18350000D03*
X25200000Y17850000D03*
X15050000Y46400000D03*
X31800000Y15700000D03*
X25200000Y18850500D03*
X31800000Y16200000D03*
X26650000Y18100000D03*
X32299226Y15708466D03*
%TO.N,/CSI/SDA_CAM1*%
X66356235Y26556235D03*
%TO.N,/CSI/SCL_CAM1*%
X65970400Y26087000D03*
%TO.N,/CSI/SDA_CAM2*%
X76910000Y31310000D03*
%TO.N,/CSI/SCL_CAM2*%
X76740000Y30560000D03*
%TO.N,/CSI/SDA_CAM3*%
X76810000Y29900000D03*
%TO.N,/CSI/SCL_CAM3*%
X77410000Y29460000D03*
%TO.N,CSIB_PEN*%
X64850000Y44500000D03*
X65360000Y29600000D03*
X57600000Y26200000D03*
%TO.N,PCIE2_TX1_N*%
X103192110Y43192110D03*
X84987890Y46677890D03*
%TO.N,/USB3/USBC1_I2C_SDA*%
X81550000Y25100000D03*
%TO.N,/USB3/USBC1_ISC_SCL*%
X80290938Y24490938D03*
%TO.N,/USB3/USBC1_VBUS_DET*%
X77350000Y22400000D03*
%TO.N,DP1_TXD0_HDMI_TX2_P*%
X80506706Y51016706D03*
%TO.N,PCIE2_TX1_P*%
X103607890Y43607890D03*
X84572110Y46262110D03*
%TO.N,DP1_TXD1_HDMI_TX1_N*%
X78077500Y50130000D03*
%TO.N,/USB3/USBC1_FAULT_N*%
X82150000Y24599200D03*
%TO.N,CSIB_FLG*%
X62750000Y19900000D03*
X67075500Y23307156D03*
X65403578Y44725033D03*
%TO.N,/USB Debug\u002C DP/FTDI_CBUS_EN*%
X18100000Y10190000D03*
X17010000Y12150000D03*
X20342165Y16469129D03*
%TO.N,DP1_TXD1_HDMI_TX1_P*%
X77502500Y50130000D03*
%TO.N,DP1_TXD2_HDMI_TX0_N*%
X76707500Y50510000D03*
%TO.N,DP1_TXD2_HDMI_TX0_P*%
X76132500Y50510000D03*
%TO.N,DP1_TXD3_HDMI_TXC_N*%
X74557500Y50460000D03*
%TO.N,DP1_TXD3_HDMI_TXC_P*%
X73982500Y50460000D03*
%TO.N,PCIE_WAKE_SEL_EXT*%
X101400000Y24680000D03*
X119100000Y32900000D03*
%TO.N,DP1_HDMI_AUX_P*%
X69450000Y42826000D03*
%TO.N,DP1_HDMI_AUX_N*%
X69450000Y42154000D03*
%TO.N,USB0_D_P*%
X70756000Y31550000D03*
X82902500Y17900862D03*
X69356000Y50150000D03*
%TO.N,USB1_D_N*%
X100750000Y36753000D03*
X102957890Y25457890D03*
X68147000Y50250000D03*
%TO.N,USB1_D_P*%
X100750000Y37347000D03*
X102542110Y25042110D03*
X67553000Y50250000D03*
%TO.N,USB2_D_N*%
X45810000Y15320000D03*
X71300000Y22690000D03*
X55590000Y18626000D03*
X66147000Y50250000D03*
%TO.N,USB2_D_P*%
X70910000Y23160000D03*
X55590000Y19214000D03*
X65553000Y50250000D03*
X45350000Y15700000D03*
X44750000Y12400000D03*
%TO.N,USER_LED0*%
X79550000Y27350000D03*
X65000000Y49948500D03*
X106595925Y8525500D03*
%TO.N,PCIE0_TX0_N*%
X98950000Y44225000D03*
X60680000Y43606000D03*
%TO.N,PCIE0_TX0_P*%
X60680000Y44194000D03*
X98950000Y44800000D03*
%TO.N,PCIE0_TX1_N*%
X99000000Y41225000D03*
X58142110Y42692110D03*
%TO.N,PCIE0_TX1_P*%
X58557890Y43107890D03*
X99000000Y41800000D03*
%TO.N,PCIE0_TX2_N*%
X55542110Y43192110D03*
X99150000Y38203000D03*
%TO.N,PCIE0_TX2_P*%
X55957890Y43607890D03*
X99150000Y38797000D03*
%TO.N,PCIE0_TX3_N*%
X98650000Y35203000D03*
X53194000Y41650000D03*
%TO.N,PCIE0_TX3_P*%
X52606000Y41650000D03*
X98650000Y35797000D03*
%TO.N,USBSS0_TX_P*%
X46500000Y50903000D03*
X54605000Y29400000D03*
%TO.N,PCIE1_TX0_N*%
X53082890Y44282890D03*
X98642110Y32642110D03*
%TO.N,PCIE1_TX0_P*%
X99057890Y33057890D03*
X52667110Y43867110D03*
%TO.N,/SoM/~{MOD_SLEEP}*%
X50650000Y49850000D03*
%TO.N,PCIE_WAKE\u002A*%
X48300000Y59300000D03*
X97800000Y22950000D03*
%TO.N,PCIE0_CLKREQ\u002A*%
X50090000Y47230000D03*
X63574659Y31342685D03*
X78800000Y40125000D03*
X79150000Y36600000D03*
%TO.N,PCIE0_RST\u002A*%
X64200000Y31900000D03*
X47900000Y58750000D03*
%TO.N,/M.2/32.7KHZ_OUT*%
X83633858Y32150000D03*
X77450000Y44000000D03*
%TO.N,GBE_LED_LINK*%
X11250000Y10550000D03*
X40750000Y29275000D03*
%TO.N,GBE_LED_ACT*%
X12700000Y10600000D03*
X40162000Y29275000D03*
%TO.N,UART1_TXD*%
X43850000Y59300000D03*
X118700000Y27250000D03*
%TO.N,UART1_RXD*%
X43350000Y58950000D03*
X107340000Y26140000D03*
%TO.N,FAN_TACH*%
X42600000Y49700000D03*
X27210000Y25220000D03*
X33496800Y50503200D03*
%TO.N,I2S1_SDOUT*%
X36538000Y50550000D03*
X91300000Y13650000D03*
X62350688Y21350688D03*
%TO.N,I2S1_SDIN*%
X90808800Y14150000D03*
X36800500Y51450000D03*
X61914500Y21800167D03*
%TO.N,I2S1_LRCK*%
X62400000Y22212167D03*
X90396800Y13653200D03*
X37387917Y51887583D03*
%TO.N,I2S1_SCLK*%
X61914500Y22648533D03*
X89900000Y14150000D03*
X37671691Y50727398D03*
%TO.N,PCIE3_CLK_N*%
X118420000Y38920000D03*
X42247000Y51525000D03*
%TO.N,PCIE3_CLK_P*%
X118420000Y38320000D03*
X41670000Y51520000D03*
%TO.N,FAN_PWM*%
X26610000Y25230000D03*
X35550167Y50650000D03*
%TO.N,~{SHUTDOWN_REQ}*%
X34850000Y50450000D03*
%TO.N,DEBUG_TXD*%
X26750000Y43750000D03*
X28532600Y20449810D03*
%TO.N,POWER_EN*%
X34850000Y51550000D03*
%TO.N,DEBUG_RXD*%
X28278373Y19884676D03*
X26725000Y44375000D03*
%TO.N,/SoM/SLEEP{slash}~{WAKE}*%
X21710000Y53300000D03*
X34774500Y47350000D03*
%TO.N,/HDMI/HDMI_D2_N*%
X58987500Y32390000D03*
%TO.N,/HDMI/HDMI_D1_N*%
X65783294Y11206706D03*
%TO.N,/HDMI/HDMI_D0_N*%
X57580000Y34762500D03*
%TO.N,/HDMI/HDMI_CLK_N*%
X62793294Y11086706D03*
%TO.N,DP1_TXD1_N*%
X46970000Y27790000D03*
X56716706Y38286706D03*
%TO.N,DP1_TXD2_N*%
X55646706Y39506706D03*
X45412412Y28387588D03*
%TO.N,/HDMI/HDMI_D2_P*%
X58412500Y32390000D03*
%TO.N,/HDMI/HDMI_D1_P*%
X65376706Y11613294D03*
%TO.N,/HDMI/HDMI_D0_P*%
X57580000Y35337500D03*
%TO.N,/HDMI/HDMI_CLK_P*%
X62386706Y11493294D03*
%TO.N,DP1_TXD0_P*%
X58486706Y37453294D03*
X48330000Y25920000D03*
%TO.N,DP1_TXD2_P*%
X45887588Y27912412D03*
X56053294Y39913294D03*
%TO.N,/HDMI/5V_HDMI*%
X58800000Y9750000D03*
%TO.N,/USB Debug\u002C DP/HPDIN*%
X43950000Y19375000D03*
%TO.N,USBC0_FLG*%
X37200000Y16000000D03*
X61050000Y15600000D03*
%TO.N,USBC1_FLG*%
X61662000Y15250000D03*
X74750500Y9062000D03*
%TO.N,/CSI/I2C_MUX_SDA*%
X67583318Y27533318D03*
%TO.N,/CSI/I2C_MUX_SCL*%
X68250000Y26850000D03*
%TO.N,DISABLE_POE_DCDC*%
X29100000Y23550000D03*
X61650000Y20850000D03*
%TO.N,UART0_RXD*%
X89097083Y44662583D03*
X72275000Y50000000D03*
%TO.N,UART0_TXD*%
X88310000Y44620000D03*
X72825000Y50275000D03*
%TO.N,/HDMI/HDMI_SDA_5V*%
X60350000Y9800000D03*
%TO.N,/HDMI/HDMI_SCL_5V*%
X61350000Y9800000D03*
%TO.N,/HDMI/HDMI_HPD_5V*%
X59350000Y9250000D03*
X56950000Y13350000D03*
%TO.N,/USB Debug\u002C DP/USBC3_5V_PEN*%
X40850000Y25950000D03*
%TO.N,/USB Debug\u002C DP/USBC0_5V_PEN*%
X40850000Y25250000D03*
%TO.N,Net-(R50-R1.2)*%
X68895000Y23250000D03*
%TO.N,/HDMI/HDMI_SCL_3V3*%
X61200000Y13700000D03*
%TO.N,Net-(R50-R2.2)*%
X68281854Y23269187D03*
%TO.N,Net-(R50-R3.2)*%
X68558191Y22750000D03*
%TO.N,USBC1_PEN*%
X61680000Y23210000D03*
X74475000Y14050000D03*
%TO.N,Net-(R50-R4.2)*%
X68850000Y22200000D03*
%TO.N,Net-(R51-R1.2)*%
X79170000Y31600000D03*
X58860000Y57230000D03*
%TO.N,Net-(R51-R2.2)*%
X79367164Y30856122D03*
X54840000Y58880000D03*
%TO.N,Net-(R51-R3.2)*%
X79380000Y30280000D03*
X54300000Y59090000D03*
%TO.N,Net-(R51-R4.2)*%
X61400000Y59000000D03*
X79400000Y29680000D03*
%TO.N,/USB Debug\u002C DP/USBC3_D_P*%
X23100000Y6600000D03*
X24050000Y6600000D03*
%TO.N,/USB Debug\u002C DP/USBC0_SBU_P*%
X39203000Y15750000D03*
%TO.N,/USB Debug\u002C DP/USBC0_SBU_N*%
X45750000Y11550000D03*
X39797000Y15750000D03*
%TO.N,/Peripherals/USB_CONN_N*%
X103450000Y32753000D03*
%TO.N,/Peripherals/USB_CONN_P*%
X103450000Y33347000D03*
%TO.N,Net-(Q1-D)*%
X72200000Y33275000D03*
%TO.N,Net-(Q2-D)*%
X61700000Y26400000D03*
X62000000Y28550000D03*
X59450000Y25300000D03*
X61200000Y26450000D03*
%TO.N,Net-(Q3-D)*%
X62220000Y29700000D03*
%TO.N,/M.2/3V3_M2*%
X82950000Y38450000D03*
X76550000Y37450000D03*
%TO.N,/Supply/3V3_OUT*%
X43470000Y35710000D03*
X48880000Y44030000D03*
%TO.N,/M.2/~{LED2}*%
X89700000Y38300000D03*
X98650000Y26830000D03*
%TO.N,I2C1_SCL*%
X100550000Y6250000D03*
X24531432Y54475122D03*
X43250000Y53400000D03*
%TO.N,I2C1_SDA*%
X43250000Y54000000D03*
X24725500Y55015853D03*
X101550000Y6250000D03*
%TO.N,/Peripherals/SCK*%
X53260000Y4830000D03*
%TO.N,USBC_HPD*%
X60882500Y29600000D03*
X49650000Y17900000D03*
X62030000Y29150000D03*
X37900000Y33620000D03*
X43651776Y26130332D03*
%TO.N,/HDMI/DP_MUX_AUX_A+*%
X59950000Y41562000D03*
%TO.N,/HDMI/DP_MUX_AUX_A-*%
X59350000Y41400000D03*
%TO.N,/Supply/3V3_MODE1*%
X47100000Y42260000D03*
X51336541Y41126541D03*
%TO.N,Net-(U10-CAD_SNK{slash}RSVD1)*%
X35265000Y14100000D03*
X42320000Y18890000D03*
%TO.N,/HDMI/HDMI_SDA_3V3*%
X60500000Y13700000D03*
%TO.N,/HDMI/HDMI_HPD*%
X60250000Y31110000D03*
X56850000Y26630000D03*
%TO.N,GPIO010*%
X91800000Y14150000D03*
X40949500Y47000000D03*
X83750000Y23100000D03*
X37780000Y34250000D03*
%TO.N,Net-(J15B-CAM0_PWDN)*%
X66025500Y40654306D03*
X104657917Y27132417D03*
%TO.N,Net-(J15B-CAM1_PWDN)*%
X64998949Y40649408D03*
X105370000Y27740000D03*
%TO.N,Net-(J15H-GPIO02)*%
X59660307Y15081086D03*
X65950000Y16750000D03*
%TO.N,Net-(J15A-CLK_32K_OUT)*%
X44966454Y52608485D03*
%TO.N,/Supply/5V_OUT*%
X37060000Y30510000D03*
X29760000Y34320000D03*
%TO.N,/Supply/5V_MODE1*%
X31098714Y26853283D03*
X36640000Y33850000D03*
%TO.N,/Peripherals/MISO*%
X55877049Y5781469D03*
X52319502Y4830000D03*
%TO.N,/Peripherals/MOSI*%
X55260000Y5780000D03*
X53945000Y5035000D03*
%TO.N,Net-(D63-A)*%
X56500000Y5780000D03*
%TO.N,/USB Debug\u002C DP/FTDI_CBUS0{slash}SDA*%
X21281046Y11228431D03*
X21287587Y16805628D03*
%TO.N,+5V_SoM*%
X30700000Y37925000D03*
X27530000Y37150000D03*
X29050000Y37599999D03*
X28010000Y39540000D03*
X29320000Y38100000D03*
X23467500Y50620000D03*
X30700000Y38425000D03*
X29550000Y37600000D03*
X27291159Y38187134D03*
X29680000Y38460000D03*
X30700000Y37375000D03*
%TO.N,VDD_SoM*%
X20320000Y47470000D03*
X20980000Y46500000D03*
X27212771Y40925000D03*
X20410000Y46510000D03*
X27212771Y42050000D03*
X20610000Y47010000D03*
X27212771Y40375000D03*
X21200000Y47020000D03*
X27212771Y41475000D03*
X27625000Y42500000D03*
X20660000Y46000000D03*
X20911689Y47460183D03*
X21490541Y47452165D03*
%TO.N,MODULE_ID*%
X40599998Y58340000D03*
%TO.N,Net-(U29-PG)*%
X28240000Y36530000D03*
X28551669Y39267500D03*
%TD*%
D25*
%TO.N,CSI3_CLK_N*%
X85490000Y50990365D02*
X85490000Y53069635D01*
X61377890Y53392110D02*
X61377890Y53597172D01*
X80008282Y52081000D02*
X82541000Y52081000D01*
X83890000Y51390365D02*
X83890000Y52574318D01*
X61377890Y53597172D02*
X61741718Y53961000D01*
X82792000Y51830000D02*
X82792000Y51390365D01*
X84392000Y52574318D02*
X84392000Y50990365D01*
X76138282Y53421000D02*
X76958282Y52601000D01*
X79488282Y52601000D02*
X80008282Y52081000D01*
X69498282Y53961000D02*
X70038282Y53421000D01*
X83936317Y52620635D02*
X84345683Y52620635D01*
X76958282Y52601000D02*
X79488282Y52601000D01*
X86541000Y52081000D02*
X87212000Y52081000D01*
X70038282Y53421000D02*
X76138282Y53421000D01*
X61741718Y53961000D02*
X69498282Y53961000D01*
X87212000Y52081000D02*
X87360000Y51933000D01*
X85992000Y53069635D02*
X85992000Y52630000D01*
X84392000Y50990365D02*
G75*
G03*
X84941000Y50441400I549000J35D01*
G01*
X84941000Y50441365D02*
G75*
G03*
X85490035Y50990365I0J549035D01*
G01*
X85741000Y53320635D02*
G75*
G02*
X85992035Y53069635I0J-251035D01*
G01*
X83341000Y50841365D02*
G75*
G03*
X83890035Y51390365I0J549035D01*
G01*
X83890000Y52574318D02*
G75*
G02*
X83936317Y52620600I46300J-18D01*
G01*
X84345683Y52620635D02*
G75*
G02*
X84392035Y52574318I17J-46335D01*
G01*
X82541000Y52081000D02*
G75*
G02*
X82792000Y51830000I0J-251000D01*
G01*
X85992000Y52630000D02*
G75*
G03*
X86541000Y52081000I549000J0D01*
G01*
X82792000Y51390365D02*
G75*
G03*
X83341000Y50841400I549000J35D01*
G01*
X85490000Y53069635D02*
G75*
G02*
X85741000Y53320600I251000J-35D01*
G01*
%TO.N,CSI3_CLK_P*%
X76261718Y53719000D02*
X70161718Y53719000D01*
X61618282Y54259000D02*
X61167172Y53807890D01*
X77081718Y52899000D02*
X76261718Y53719000D01*
X79611718Y52899000D02*
X77081718Y52899000D01*
X61167172Y53807890D02*
X60962110Y53807890D01*
X84690000Y50990365D02*
X84690000Y52574318D01*
X84345683Y52918635D02*
X83936317Y52918635D01*
X81716000Y52831820D02*
X81716000Y52654000D01*
X85192000Y53069635D02*
X85192000Y50990365D01*
X80131718Y52379000D02*
X81441000Y52379000D01*
X69621718Y54259000D02*
X61618282Y54259000D01*
X83090000Y51390365D02*
X83090000Y51830000D01*
X87360000Y52527000D02*
X87212000Y52379000D01*
X86290000Y52630000D02*
X86290000Y53069635D01*
X82266000Y52654000D02*
X82266000Y52831820D01*
X70161718Y53719000D02*
X69621718Y54259000D01*
X87212000Y52379000D02*
X86541000Y52379000D01*
X83592000Y52574318D02*
X83592000Y51390365D01*
X80131718Y52379000D02*
X79611718Y52899000D01*
X86541000Y52379000D02*
G75*
G02*
X86290000Y52630000I0J251000D01*
G01*
X82541000Y52379000D02*
G75*
G02*
X82266000Y52654000I0J275000D01*
G01*
X84690000Y52574318D02*
G75*
G03*
X84345683Y52918600I-344300J-18D01*
G01*
X83090000Y51830000D02*
G75*
G03*
X82541000Y52379000I-549000J0D01*
G01*
X83592000Y51390365D02*
G75*
G02*
X83341000Y51139400I-251000J35D01*
G01*
X83341000Y51139365D02*
G75*
G02*
X83089965Y51390365I0J251035D01*
G01*
X85741000Y53618635D02*
G75*
G03*
X85191965Y53069635I0J-549035D01*
G01*
X81716000Y52654000D02*
G75*
G02*
X81441000Y52379000I-275000J0D01*
G01*
X85192000Y50990365D02*
G75*
G02*
X84941000Y50739400I-251000J35D01*
G01*
X82266000Y52831820D02*
G75*
G03*
X81991000Y53106800I-275000J-20D01*
G01*
X84941000Y50739365D02*
G75*
G02*
X84689965Y50990365I0J251035D01*
G01*
X83936317Y52918635D02*
G75*
G03*
X83591965Y52574318I-17J-344335D01*
G01*
X81991000Y53106820D02*
G75*
G03*
X81715980Y52831820I0J-275020D01*
G01*
X86290000Y53069635D02*
G75*
G03*
X85741000Y53618600I-549000J-35D01*
G01*
D26*
%TO.N,SPIO_MOSI*%
X98050000Y56900000D02*
X98050000Y56650000D01*
X106140000Y50190000D02*
X100910000Y55420000D01*
X99850000Y57590000D02*
X98740000Y57590000D01*
X98740000Y57590000D02*
X98050000Y56900000D01*
X100910000Y55420000D02*
X100910000Y56530000D01*
X106140000Y35570000D02*
X106140000Y50190000D01*
X100910000Y56530000D02*
X99850000Y57590000D01*
X104700000Y34550000D02*
X105120000Y34550000D01*
X105120000Y34550000D02*
X106140000Y35570000D01*
%TO.N,SPIO_SCK*%
X98630000Y56990000D02*
X98630000Y56410000D01*
X104800000Y34990000D02*
X105860000Y36050000D01*
X105860000Y36050000D02*
X105860000Y50000000D01*
X100550000Y55310000D02*
X100550000Y56310000D01*
X99610000Y57250000D02*
X98890000Y57250000D01*
X100550000Y56310000D02*
X99610000Y57250000D01*
X105860000Y50000000D02*
X100550000Y55310000D01*
X98890000Y57250000D02*
X98630000Y56990000D01*
X103840000Y34380000D02*
X104450000Y34990000D01*
X104450000Y34990000D02*
X104800000Y34990000D01*
%TO.N,SPIO_MISO*%
X104890000Y37890000D02*
X104890000Y49470000D01*
X103870000Y35270000D02*
X103870000Y35280000D01*
X103320000Y35830000D02*
X103320000Y36320000D01*
X104890000Y49470000D02*
X99120000Y55240000D01*
X103320000Y36320000D02*
X104890000Y37890000D01*
X103870000Y35280000D02*
X103320000Y35830000D01*
X99120000Y55240000D02*
X99120000Y56780000D01*
%TO.N,~{SPI0_CS0}*%
X105520000Y49860000D02*
X100120000Y55260000D01*
X100120000Y55260000D02*
X100120000Y55780000D01*
X105520000Y36540000D02*
X105520000Y49860000D01*
X104450000Y35470000D02*
X105520000Y36540000D01*
%TO.N,~{SPI0_CS1}*%
X99680000Y56230000D02*
X99680000Y55170000D01*
X103840000Y36160000D02*
X103790000Y36160000D01*
X99680000Y55170000D02*
X105170000Y49680000D01*
X105170000Y37490000D02*
X103840000Y36160000D01*
X105170000Y49680000D02*
X105170000Y37490000D01*
D25*
%TO.N,USB0_D_N*%
X74531718Y26299000D02*
X76349000Y24481718D01*
X76349000Y24481718D02*
X76349000Y22661718D01*
D27*
X83250000Y10050000D02*
X83250000Y9300000D01*
D25*
X83348500Y18048862D02*
X83496500Y17900862D01*
X83348500Y18562218D02*
X83348500Y18048862D01*
X71199000Y31405000D02*
X71199000Y29091718D01*
X77061718Y21949000D02*
X79142371Y21949000D01*
D27*
X84050000Y11450000D02*
X84050000Y10850000D01*
D25*
X76349000Y22661718D02*
X77061718Y21949000D01*
X81758997Y20151721D02*
X83348500Y18562218D01*
X71199000Y29091718D02*
X73991718Y26299000D01*
X73991718Y26299000D02*
X74531718Y26299000D01*
D27*
X84050000Y10850000D02*
X83250000Y10050000D01*
D25*
X71344000Y31550000D02*
X71199000Y31405000D01*
X79142371Y21949000D02*
X80939650Y20151721D01*
X80939650Y20151721D02*
X81758997Y20151721D01*
D28*
%TO.N,USER_LED1*%
X53725499Y18674501D02*
X53725499Y19498500D01*
X69400000Y17250000D02*
X55150000Y17250000D01*
X70050000Y17900000D02*
X69400000Y17250000D01*
X55150000Y17250000D02*
X53725499Y18674501D01*
D26*
%TO.N,USER_BTN0*%
X78000000Y13300000D02*
X78650000Y12650000D01*
X74300000Y13300000D02*
X78000000Y13300000D01*
X78650000Y12650000D02*
X88750000Y12650000D01*
D28*
X66350000Y15774500D02*
X71825500Y15774500D01*
X90400000Y7250000D02*
X90850000Y7700000D01*
X89350000Y12650000D02*
X88750000Y12650000D01*
X90850000Y11150000D02*
X89350000Y12650000D01*
X71825500Y15774500D02*
X72125000Y15475000D01*
D26*
X72125000Y15475000D02*
X74300000Y13300000D01*
D28*
X90850000Y7700000D02*
X90850000Y11150000D01*
%TO.N,USER_BTN1*%
X90400000Y7950000D02*
X90550000Y8100000D01*
D26*
X78450000Y12350000D02*
X88775000Y12350000D01*
X71900000Y15200000D02*
X74150000Y12950000D01*
D28*
X71750000Y15350000D02*
X71900000Y15200000D01*
D26*
X74150000Y12950000D02*
X77850000Y12950000D01*
X77850000Y12950000D02*
X78450000Y12350000D01*
D28*
X90550000Y11050000D02*
X89250000Y12350000D01*
X89250000Y12350000D02*
X88775000Y12350000D01*
X90550000Y8100000D02*
X90550000Y11050000D01*
X65850000Y15350000D02*
X71750000Y15350000D01*
D25*
%TO.N,PCIE0_RX0_N*%
X75715795Y57176513D02*
X75766836Y57227554D01*
X76120389Y57374000D02*
X94554611Y57374000D01*
X95019000Y45663307D02*
X95019000Y44045389D01*
X94872553Y43691835D02*
X94178164Y42997446D01*
X65031693Y57074000D02*
X75468307Y57074000D01*
X93824611Y42851000D02*
X92322699Y42851000D01*
X95469000Y52313307D02*
X95469000Y46465389D01*
X94908165Y57227553D02*
X95612554Y56523164D01*
X95759000Y56169611D02*
X95759000Y52955389D01*
X95322553Y46111835D02*
X95121512Y45910794D01*
X92216633Y42807066D02*
X92112567Y42703000D01*
X63543934Y58416784D02*
X64784206Y57176512D01*
X95612553Y52601835D02*
X95571512Y52560794D01*
X63500000Y58720000D02*
X63500000Y58522850D01*
X92322699Y42851000D02*
G75*
G03*
X92216633Y42807066I1J-150000D01*
G01*
X94178164Y42997446D02*
G75*
G02*
X93824611Y42850992I-353564J353554D01*
G01*
X65031693Y57074000D02*
G75*
G02*
X64784210Y57176516I7J350000D01*
G01*
X95612554Y56523164D02*
G75*
G02*
X95759008Y56169611I-353554J-353564D01*
G01*
X95469000Y52313307D02*
G75*
G02*
X95571516Y52560790I350000J-7D01*
G01*
X94554611Y57374000D02*
G75*
G02*
X94908159Y57227547I-11J-500000D01*
G01*
X95469000Y46465389D02*
G75*
G02*
X95322547Y46111841I-500000J11D01*
G01*
X75766836Y57227554D02*
G75*
G02*
X76120389Y57374008I353564J-353554D01*
G01*
X95019000Y44045389D02*
G75*
G02*
X94872547Y43691841I-500000J11D01*
G01*
X63543934Y58416784D02*
G75*
G02*
X63500035Y58522850I106066J106016D01*
G01*
X75715795Y57176513D02*
G75*
G02*
X75468307Y57073995I-247495J247487D01*
G01*
X95759000Y52955389D02*
G75*
G02*
X95612547Y52601841I-500000J11D01*
G01*
X95019000Y45663307D02*
G75*
G02*
X95121516Y45910790I350000J-7D01*
G01*
%TO.N,PCIE0_RX0_P*%
X94618487Y43859205D02*
X94010794Y43251512D01*
X94740795Y56973487D02*
X95358488Y56355794D01*
X94721000Y45724611D02*
X94721000Y45651000D01*
X95358487Y52769205D02*
X95317446Y52728164D01*
X64231037Y57308245D02*
X64266392Y57272890D01*
X76181693Y57076000D02*
X94493307Y57076000D01*
X94721000Y44951000D02*
X94721000Y44106693D01*
X64266392Y57272890D02*
X64616836Y56922446D01*
X63263216Y58276066D02*
X63594641Y57944641D01*
X94508509Y45126000D02*
X94546000Y45126000D01*
X95068487Y46279205D02*
X94867446Y46078164D01*
X95461000Y56108307D02*
X95461000Y53016693D01*
X93763307Y43149000D02*
X92322699Y43149000D01*
X64970389Y56776000D02*
X75529611Y56776000D01*
X63050000Y58320000D02*
X63157150Y58320000D01*
X63594640Y57626442D02*
X63594641Y57626443D01*
X94546000Y45476000D02*
X94508509Y45476000D01*
X75883165Y56922447D02*
X75934206Y56973488D01*
X63912840Y57308246D02*
X63912839Y57308245D01*
X92216633Y43192934D02*
X92112567Y43297000D01*
X95171000Y52374611D02*
X95171000Y46526693D01*
X94546000Y45126000D02*
G75*
G02*
X94721000Y44951000I0J-175000D01*
G01*
X63912839Y57308245D02*
G75*
G02*
X64231037Y57308245I159099J-159099D01*
G01*
X94618487Y43859205D02*
G75*
G03*
X94721005Y44106693I-247487J247495D01*
G01*
X94010794Y43251512D02*
G75*
G02*
X93763307Y43148995I-247494J247488D01*
G01*
X63594641Y57626443D02*
G75*
G03*
X63594597Y57308201I159059J-159143D01*
G01*
X64616836Y56922446D02*
G75*
G03*
X64970389Y56775992I353564J353554D01*
G01*
X92322699Y43149000D02*
G75*
G02*
X92216633Y43192934I1J150000D01*
G01*
X94508509Y45476000D02*
G75*
G03*
X94333500Y45301000I-9J-175000D01*
G01*
X63594641Y57944641D02*
G75*
G02*
X63594682Y57626400I-159141J-159141D01*
G01*
X94721000Y45724611D02*
G75*
G02*
X94867452Y46078158I500000J-11D01*
G01*
X94740795Y56973487D02*
G75*
G03*
X94493307Y57076005I-247495J-247487D01*
G01*
X75529611Y56776000D02*
G75*
G03*
X75883159Y56922453I-11J500000D01*
G01*
X94721000Y45651000D02*
G75*
G02*
X94546000Y45476000I-175000J0D01*
G01*
X94333509Y45301000D02*
G75*
G03*
X94508509Y45126009I174991J0D01*
G01*
X63594641Y57308245D02*
G75*
G03*
X63912800Y57308286I159059J159055D01*
G01*
X95358487Y52769205D02*
G75*
G03*
X95461005Y53016693I-247487J247495D01*
G01*
X63263216Y58276066D02*
G75*
G03*
X63157150Y58319965I-106016J-106066D01*
G01*
X95068487Y46279205D02*
G75*
G03*
X95171005Y46526693I-247487J247495D01*
G01*
X76181693Y57076000D02*
G75*
G03*
X75934210Y56973484I7J-350000D01*
G01*
X95358488Y56355794D02*
G75*
G02*
X95461005Y56108307I-247488J-247494D01*
G01*
X95317446Y52728164D02*
G75*
G03*
X95170992Y52374611I353554J-353564D01*
G01*
%TO.N,PCIE0_RX1_N*%
X82034611Y49259000D02*
X79446693Y49259000D01*
X65239205Y51281513D02*
X64968164Y51552554D01*
X72993307Y51179000D02*
X65486693Y51179000D01*
X91930000Y39703000D02*
X92034066Y39807066D01*
X83222553Y48278165D02*
X82388164Y49112554D01*
X83369000Y45561693D02*
X83369000Y47924611D01*
X73661835Y51702553D02*
X73240794Y51281512D01*
X90826150Y40579000D02*
X88351693Y40579000D01*
X92781132Y40959586D02*
X92549586Y41191132D01*
X76240271Y51645447D02*
X76183164Y51702554D01*
X92140132Y39851000D02*
X92317454Y39851000D01*
X78849000Y49856693D02*
X78849000Y50729611D01*
X92869000Y40402546D02*
X92869000Y40747454D01*
X92529586Y39938868D02*
X92781132Y40190414D01*
X91220414Y40911132D02*
X90932216Y40622934D01*
X62998000Y51699000D02*
X62850000Y51847000D01*
X79199205Y49361513D02*
X78951512Y49609206D01*
X78702553Y51083165D02*
X78433164Y51352554D01*
X91676150Y40999000D02*
X91432546Y40999000D01*
X88104205Y40681513D02*
X83471512Y45314206D01*
X92337454Y41279000D02*
X92142546Y41279000D01*
X64614611Y51699000D02*
X62998000Y51699000D01*
X78079611Y51499000D02*
X76593825Y51499000D01*
X75829611Y51849000D02*
X74015389Y51849000D01*
X91930414Y41191132D02*
X91782216Y41042934D01*
X91220414Y40911132D02*
G75*
G02*
X91432546Y40998967I212086J-212132D01*
G01*
X83222553Y48278165D02*
G75*
G02*
X83369008Y47924611I-353553J-353565D01*
G01*
X82034611Y49259000D02*
G75*
G02*
X82388158Y49112548I-11J-500000D01*
G01*
X72993307Y51179000D02*
G75*
G03*
X73240790Y51281516I-7J350000D01*
G01*
X73661835Y51702553D02*
G75*
G02*
X74015389Y51849008I353565J-353553D01*
G01*
X76183164Y51702554D02*
G75*
G03*
X75829611Y51849008I-353564J-353554D01*
G01*
X92869000Y40402546D02*
G75*
G02*
X92781155Y40190391I-300000J-46D01*
G01*
X83369000Y45561693D02*
G75*
G03*
X83471516Y45314210I350000J7D01*
G01*
X92142546Y41279000D02*
G75*
G03*
X91930391Y41191155I-46J-300000D01*
G01*
X79446693Y49259000D02*
G75*
G02*
X79199209Y49361517I7J350000D01*
G01*
X65239205Y51281513D02*
G75*
G03*
X65486693Y51178995I247495J247487D01*
G01*
X78849000Y49856693D02*
G75*
G03*
X78951516Y49609210I350000J7D01*
G01*
X88351693Y40579000D02*
G75*
G02*
X88104209Y40681517I7J350000D01*
G01*
X90826150Y40579000D02*
G75*
G03*
X90932241Y40622909I50J150000D01*
G01*
X91676150Y40999000D02*
G75*
G03*
X91782241Y41042909I50J150000D01*
G01*
X92317454Y39851000D02*
G75*
G03*
X92529609Y39938845I46J300000D01*
G01*
X78433164Y51352554D02*
G75*
G03*
X78079611Y51499008I-353564J-353554D01*
G01*
X76240271Y51645447D02*
G75*
G03*
X76593825Y51499018I353529J353553D01*
G01*
X92781132Y40959586D02*
G75*
G02*
X92868967Y40747454I-212132J-212086D01*
G01*
X92034066Y39807066D02*
G75*
G02*
X92140132Y39850977I106034J-106066D01*
G01*
X78849000Y50729611D02*
G75*
G03*
X78702547Y51083159I-500000J-11D01*
G01*
X92549586Y41191132D02*
G75*
G03*
X92337454Y41278967I-212086J-212132D01*
G01*
X64968164Y51552554D02*
G75*
G03*
X64614611Y51699008I-353564J-353554D01*
G01*
%TO.N,PCIE0_RX1_P*%
X87936835Y40427447D02*
X83217446Y45146836D01*
X78551000Y49795389D02*
X78551000Y50668307D01*
X92097784Y40937066D02*
X91949586Y40788868D01*
X73054611Y50881000D02*
X65425389Y50881000D01*
X92571000Y40463850D02*
X92571000Y40686150D01*
X89924036Y40106036D02*
X89924036Y40106035D01*
X73829205Y51448487D02*
X73408164Y51027446D01*
X78448487Y50915795D02*
X78265794Y51098488D01*
X92362216Y40192934D02*
X92527066Y40357784D01*
X75768307Y51551000D02*
X74076693Y51551000D01*
X78018307Y51201000D02*
X76470389Y51201000D01*
X81973307Y48961000D02*
X79385389Y48961000D01*
X83071000Y45500389D02*
X83071000Y47863307D01*
X89574036Y40106035D02*
X89574036Y40106036D01*
X79031835Y49107447D02*
X78697446Y49441836D01*
X92276150Y40981000D02*
X92203850Y40981000D01*
X91737454Y40701000D02*
X91493850Y40701000D01*
X76116835Y51347447D02*
X76015794Y51448488D01*
X82968487Y48110795D02*
X82220794Y48858488D01*
X65071835Y51027447D02*
X64800794Y51298488D01*
X89399072Y40281000D02*
X89399000Y40281000D01*
X91930000Y40297000D02*
X92034066Y40192934D01*
X90887454Y40281000D02*
X90099000Y40281000D01*
X91387784Y40657066D02*
X91099586Y40368868D01*
X62998000Y51401000D02*
X62850000Y51253000D01*
X89749072Y39931071D02*
X89749000Y39931071D01*
X64553307Y51401000D02*
X62998000Y51401000D01*
X92140132Y40149000D02*
X92256150Y40149000D01*
X92527066Y40792216D02*
X92382216Y40937066D01*
X89399000Y40281000D02*
X88290389Y40281000D01*
X74076693Y51551000D02*
G75*
G03*
X73829209Y51448483I7J-350000D01*
G01*
X92382216Y40937066D02*
G75*
G03*
X92276150Y40980965I-106016J-106066D01*
G01*
X78448487Y50915795D02*
G75*
G02*
X78551005Y50668307I-247487J-247495D01*
G01*
X91949586Y40788868D02*
G75*
G02*
X91737454Y40701033I-212086J212132D01*
G01*
X89749000Y39931071D02*
G75*
G02*
X89574071Y40106035I0J174929D01*
G01*
X91493850Y40701000D02*
G75*
G03*
X91387759Y40657091I-50J-150000D01*
G01*
X83071000Y47863307D02*
G75*
G03*
X82968483Y48110791I-350000J-7D01*
G01*
X82220794Y48858488D02*
G75*
G03*
X81973307Y48961005I-247494J-247488D01*
G01*
X65071835Y51027447D02*
G75*
G03*
X65425389Y50880992I353565J353553D01*
G01*
X92203850Y40981000D02*
G75*
G03*
X92097759Y40937091I-50J-150000D01*
G01*
X89924036Y40106035D02*
G75*
G02*
X89749072Y39931064I-174936J-35D01*
G01*
X83071000Y45500389D02*
G75*
G03*
X83217452Y45146842I500000J11D01*
G01*
X73408164Y51027446D02*
G75*
G02*
X73054611Y50880992I-353564J353554D01*
G01*
X92034066Y40192934D02*
G75*
G03*
X92140132Y40149023I106034J106066D01*
G01*
X78697446Y49441836D02*
G75*
G02*
X78550992Y49795389I353554J353564D01*
G01*
X90099000Y40281000D02*
G75*
G03*
X89924000Y40106036I0J-175000D01*
G01*
X88290389Y40281000D02*
G75*
G02*
X87936841Y40427453I11J500000D01*
G01*
X92571000Y40686150D02*
G75*
G03*
X92527091Y40792241I-150000J50D01*
G01*
X79031835Y49107447D02*
G75*
G03*
X79385389Y48960992I353565J353553D01*
G01*
X64800794Y51298488D02*
G75*
G03*
X64553307Y51401005I-247494J-247488D01*
G01*
X76470389Y51201000D02*
G75*
G02*
X76116841Y51347453I11J500000D01*
G01*
X92256150Y40149000D02*
G75*
G03*
X92362241Y40192909I50J150000D01*
G01*
X91099586Y40368868D02*
G75*
G02*
X90887454Y40281033I-212086J212132D01*
G01*
X92527066Y40357784D02*
G75*
G03*
X92570965Y40463850I-106066J106016D01*
G01*
X78018307Y51201000D02*
G75*
G02*
X78265790Y51098484I-7J-350000D01*
G01*
X89574036Y40106036D02*
G75*
G03*
X89399072Y40280936I-174936J-36D01*
G01*
X75768307Y51551000D02*
G75*
G02*
X76015790Y51448484I-7J-350000D01*
G01*
%TO.N,PCIE0_RX2_N*%
X59701000Y54921000D02*
X59701000Y52856693D01*
X59598488Y52609206D02*
X59047447Y52058165D01*
X76940795Y48998487D02*
X88941836Y36997446D01*
X59501000Y55521000D02*
X59480788Y55521000D01*
X60341836Y49247446D02*
X59047446Y50541836D01*
X59701000Y56380000D02*
X59701000Y55721000D01*
X59480788Y55121000D02*
X59501000Y55121000D01*
X89295389Y36851000D02*
X91249368Y36851000D01*
X60695389Y49101000D02*
X76693307Y49101000D01*
X58901000Y51704611D02*
X58901000Y50895389D01*
X91355434Y36807066D02*
X91450000Y36712500D01*
X59556000Y56525000D02*
X59701000Y56380000D01*
X59047447Y52058165D02*
G75*
G03*
X58900992Y51704611I353553J-353565D01*
G01*
X58901000Y50895389D02*
G75*
G03*
X59047452Y50541842I500000J11D01*
G01*
X59701000Y52856693D02*
G75*
G02*
X59598484Y52609210I-350000J7D01*
G01*
X76940795Y48998487D02*
G75*
G03*
X76693307Y49101005I-247495J-247487D01*
G01*
X91249368Y36851000D02*
G75*
G02*
X91355450Y36807082I32J-150000D01*
G01*
X60695389Y49101000D02*
G75*
G02*
X60341842Y49247452I11J500000D01*
G01*
X59480788Y55521000D02*
G75*
G03*
X59280800Y55321000I12J-200000D01*
G01*
X59701000Y55721000D02*
G75*
G02*
X59501000Y55521000I-200000J0D01*
G01*
X59501000Y55121000D02*
G75*
G02*
X59701000Y54921000I0J-200000D01*
G01*
X59280788Y55321000D02*
G75*
G03*
X59480788Y55120988I200012J0D01*
G01*
X88941836Y36997446D02*
G75*
G03*
X89295389Y36850992I353564J353554D01*
G01*
%TO.N,PCIE0_RX2_P*%
X77108165Y49252553D02*
X89109206Y37251512D01*
X59999000Y56425000D02*
X59999000Y52795389D01*
X59301513Y50709205D02*
X60389206Y49621512D01*
X60389206Y49621512D02*
X60509206Y49501512D01*
X60756693Y49399000D02*
X76754611Y49399000D01*
X59199000Y51643307D02*
X59199000Y50956693D01*
X91355434Y37192934D02*
X91450000Y37287500D01*
X60144000Y56570000D02*
X59999000Y56425000D01*
X59852553Y52441835D02*
X59301512Y51890794D01*
X89356693Y37149000D02*
X91249368Y37149000D01*
X60756693Y49399000D02*
G75*
G02*
X60509210Y49501516I7J350000D01*
G01*
X91249368Y37149000D02*
G75*
G03*
X91355450Y37192918I32J150000D01*
G01*
X89109206Y37251512D02*
G75*
G03*
X89356693Y37148995I247494J247488D01*
G01*
X59199000Y50956693D02*
G75*
G03*
X59301517Y50709209I350000J7D01*
G01*
X59999000Y52795389D02*
G75*
G02*
X59852547Y52441841I-500000J11D01*
G01*
X76754611Y49399000D02*
G75*
G02*
X77108159Y49252547I-11J-500000D01*
G01*
X59301512Y51890794D02*
G75*
G03*
X59198995Y51643307I247488J-247494D01*
G01*
%TO.N,PCIE0_RX3_N*%
X52445389Y52999000D02*
X53937454Y52999000D01*
X75943307Y47951000D02*
X52645389Y47951000D01*
X91186868Y33851000D02*
X89145389Y33851000D01*
X88791835Y33997447D02*
X87897446Y34891836D01*
X52291835Y48097447D02*
X51397446Y48991836D01*
X91450000Y33650000D02*
X91292934Y33807066D01*
X54149586Y52911132D02*
X54267784Y52792934D01*
X54882216Y52792934D02*
X55057066Y52967784D01*
X87751000Y35245389D02*
X87751000Y36143307D01*
X54798000Y53601000D02*
X54650000Y53453000D01*
X55101000Y53073850D02*
X55101000Y53326150D01*
X51397447Y52158165D02*
X52091836Y52852554D01*
X55057066Y53432216D02*
X54932216Y53557066D01*
X51251000Y49345389D02*
X51251000Y51804611D01*
X54826150Y53601000D02*
X54798000Y53601000D01*
X54373850Y52749000D02*
X54776150Y52749000D01*
X87648487Y36390795D02*
X76190794Y47848488D01*
X52445389Y52999000D02*
G75*
G03*
X52091842Y52852548I11J-500000D01*
G01*
X53937454Y52999000D02*
G75*
G02*
X54149609Y52911155I46J-300000D01*
G01*
X55101000Y53326150D02*
G75*
G03*
X55057091Y53432241I-150000J50D01*
G01*
X54882216Y52792934D02*
G75*
G02*
X54776150Y52749035I-106016J106066D01*
G01*
X89145389Y33851000D02*
G75*
G02*
X88791841Y33997453I11J500000D01*
G01*
X54932216Y53557066D02*
G75*
G03*
X54826150Y53600965I-106016J-106066D01*
G01*
X51397447Y52158165D02*
G75*
G03*
X51250992Y51804611I353553J-353565D01*
G01*
X87897446Y34891836D02*
G75*
G02*
X87750992Y35245389I353554J353564D01*
G01*
X75943307Y47951000D02*
G75*
G02*
X76190790Y47848484I-7J-350000D01*
G01*
X52645389Y47951000D02*
G75*
G02*
X52291841Y48097453I11J500000D01*
G01*
X51397446Y48991836D02*
G75*
G02*
X51250992Y49345389I353554J353564D01*
G01*
X55057066Y52967784D02*
G75*
G03*
X55100965Y53073850I-106066J106016D01*
G01*
X54267784Y52792934D02*
G75*
G03*
X54373850Y52749035I106016J106066D01*
G01*
X87751000Y36143307D02*
G75*
G03*
X87648483Y36390791I-350000J-7D01*
G01*
X91186868Y33851000D02*
G75*
G02*
X91292950Y33807082I32J-150000D01*
G01*
%TO.N,PCIE0_RX3_P*%
X91292934Y34192934D02*
X91450000Y34350000D01*
X88049000Y36204611D02*
X88049000Y35306693D01*
X88151513Y35059205D02*
X88959206Y34251512D01*
X53876150Y52701000D02*
X52506693Y52701000D01*
X54837454Y52451000D02*
X54312546Y52451000D01*
X51549000Y49406693D02*
X51549000Y50159000D01*
X55099586Y53811132D02*
X55311132Y53599586D01*
X51749000Y50759000D02*
X51768382Y50759000D01*
X52259205Y52598487D02*
X51651512Y51990794D01*
X55399000Y53387454D02*
X55399000Y53012546D01*
X55311132Y52800414D02*
X55049586Y52538868D01*
X54100414Y52538868D02*
X53982216Y52657066D01*
X51768382Y50359000D02*
X51749000Y50359000D01*
X51549000Y51743307D02*
X51549000Y50959000D01*
X76358165Y48102553D02*
X87902554Y36558164D01*
X52706693Y48249000D02*
X76004611Y48249000D01*
X89206693Y34149000D02*
X91186868Y34149000D01*
X54650000Y54047000D02*
X54754066Y53942934D01*
X51651513Y49159205D02*
X52459206Y48351512D01*
X54860132Y53899000D02*
X54887454Y53899000D01*
X88959206Y34251512D02*
G75*
G03*
X89206693Y34148995I247494J247488D01*
G01*
X51768382Y50759000D02*
G75*
G02*
X51968400Y50559000I18J-200000D01*
G01*
X51651512Y51990794D02*
G75*
G03*
X51548995Y51743307I247488J-247494D01*
G01*
X55311132Y53599586D02*
G75*
G02*
X55398967Y53387454I-212132J-212086D01*
G01*
X54754066Y53942934D02*
G75*
G03*
X54860132Y53899023I106034J106066D01*
G01*
X55399000Y53012546D02*
G75*
G02*
X55311155Y52800391I-300000J-46D01*
G01*
X52506693Y52701000D02*
G75*
G03*
X52259209Y52598483I7J-350000D01*
G01*
X53876150Y52701000D02*
G75*
G02*
X53982241Y52657091I50J-150000D01*
G01*
X54837454Y52451000D02*
G75*
G03*
X55049609Y52538845I46J300000D01*
G01*
X88049000Y35306693D02*
G75*
G03*
X88151517Y35059209I350000J7D01*
G01*
X76358165Y48102553D02*
G75*
G03*
X76004611Y48249008I-353565J-353553D01*
G01*
X88049000Y36204611D02*
G75*
G03*
X87902548Y36558158I-500000J-11D01*
G01*
X51749000Y50359000D02*
G75*
G03*
X51549000Y50159000I0J-200000D01*
G01*
X54312546Y52451000D02*
G75*
G02*
X54100391Y52538845I-46J300000D01*
G01*
X51651513Y49159205D02*
G75*
G02*
X51548995Y49406693I247487J247495D01*
G01*
X51549000Y50959000D02*
G75*
G03*
X51749000Y50759000I200000J0D01*
G01*
X55099586Y53811132D02*
G75*
G03*
X54887454Y53898967I-212086J-212132D01*
G01*
X51968382Y50559000D02*
G75*
G02*
X51768382Y50359018I-199982J0D01*
G01*
X91292934Y34192934D02*
G75*
G02*
X91186868Y34149023I-106034J106066D01*
G01*
X52706693Y48249000D02*
G75*
G02*
X52459210Y48351516I7J350000D01*
G01*
%TO.N,PCIE0_CLK_N*%
X75328307Y55059000D02*
X74436693Y55059000D01*
X60504611Y58799000D02*
X57595389Y58799000D01*
X53970011Y51352839D02*
X53970011Y51500011D01*
X54993307Y50799000D02*
X54606693Y50799000D01*
X63609205Y55901513D02*
X60858164Y58652554D01*
X92892553Y55118165D02*
X92058164Y55952554D01*
X56748487Y57409205D02*
X56697446Y57358164D01*
X76366835Y55952553D02*
X75575794Y55161512D01*
X94049000Y46995389D02*
X94049000Y49784611D01*
X56551000Y57004611D02*
X56551000Y52356693D01*
X93902553Y50138165D02*
X93141512Y50899206D01*
X56448487Y52109205D02*
X55240794Y50901512D01*
X56851000Y58054611D02*
X56851000Y57656693D01*
X93258165Y45997447D02*
X93902554Y46641836D01*
X92210132Y45851000D02*
X92904611Y45851000D01*
X74189205Y55161513D02*
X73698164Y55652554D01*
X92000000Y45703000D02*
X92104066Y45807066D01*
X91704611Y56099000D02*
X76720389Y56099000D01*
X54359205Y50901513D02*
X54013945Y51246773D01*
X93039000Y51146693D02*
X93039000Y54764611D01*
X57241835Y58652553D02*
X56997446Y58408164D01*
X73344611Y55799000D02*
X63856693Y55799000D01*
X73698164Y55652554D02*
G75*
G03*
X73344611Y55799008I-353564J-353554D01*
G01*
X56697446Y57358164D02*
G75*
G03*
X56550992Y57004611I353554J-353564D01*
G01*
X76720389Y56099000D02*
G75*
G03*
X76366841Y55952547I11J-500000D01*
G01*
X60858164Y58652554D02*
G75*
G03*
X60504611Y58799008I-353564J-353554D01*
G01*
X94049000Y49784611D02*
G75*
G03*
X93902547Y50138159I-500000J-11D01*
G01*
X57595389Y58799000D02*
G75*
G03*
X57241841Y58652547I11J-500000D01*
G01*
X55240794Y50901512D02*
G75*
G02*
X54993307Y50798995I-247494J247488D01*
G01*
X54606693Y50799000D02*
G75*
G02*
X54359209Y50901517I7J350000D01*
G01*
X93902554Y46641836D02*
G75*
G03*
X94049008Y46995389I-353554J353564D01*
G01*
X92058164Y55952554D02*
G75*
G03*
X91704611Y56099008I-353564J-353554D01*
G01*
X63856693Y55799000D02*
G75*
G02*
X63609209Y55901517I7J350000D01*
G01*
X74436693Y55059000D02*
G75*
G02*
X74189209Y55161517I7J350000D01*
G01*
X56851000Y57656693D02*
G75*
G02*
X56748483Y57409209I-350000J7D01*
G01*
X93141512Y50899206D02*
G75*
G02*
X93038995Y51146693I247488J247494D01*
G01*
X92904611Y45851000D02*
G75*
G03*
X93258159Y45997453I-11J500000D01*
G01*
X75575794Y55161512D02*
G75*
G02*
X75328307Y55058995I-247494J247488D01*
G01*
X92892553Y55118165D02*
G75*
G02*
X93039008Y54764611I-353553J-353565D01*
G01*
X54013945Y51246773D02*
G75*
G02*
X53970035Y51352839I106055J106027D01*
G01*
X56997446Y58408164D02*
G75*
G03*
X56850992Y58054611I353554J-353564D01*
G01*
X92104066Y45807066D02*
G75*
G02*
X92210132Y45850977I106034J-106066D01*
G01*
X56551000Y52356693D02*
G75*
G02*
X56448483Y52109209I-350000J7D01*
G01*
%TO.N,USBSS0_RX_N*%
X54001000Y31898000D02*
X54001000Y35388282D01*
X44751000Y44638282D02*
X43401000Y45988282D01*
X43901000Y48061718D02*
X43901000Y52911718D01*
X53810718Y58600000D02*
X53970000Y58600000D01*
X44751000Y43038282D02*
X44751000Y44638282D01*
X49398282Y59109000D02*
X53301718Y59109000D01*
X43401000Y45988282D02*
X43401000Y47561718D01*
X48101000Y57811718D02*
X49398282Y59109000D01*
X48101000Y57111718D02*
X48101000Y57811718D01*
X43401000Y47561718D02*
X43901000Y48061718D01*
X49088282Y38701000D02*
X44751000Y43038282D01*
X53853000Y31750000D02*
X54001000Y31898000D01*
X54001000Y35388282D02*
X50688282Y38701000D01*
X50688282Y38701000D02*
X49088282Y38701000D01*
X53301718Y59109000D02*
X53810718Y58600000D01*
X43901000Y52911718D02*
X48101000Y57111718D01*
%TO.N,PCIE0_CLK_P*%
X74021836Y54907446D02*
X73530795Y55398487D01*
X63441836Y55647446D02*
X60690795Y58398487D01*
X55924476Y50854052D02*
X55924476Y50854053D01*
X56476729Y51433171D02*
X56490162Y51419738D01*
X54191836Y50647446D02*
X53803227Y51036055D01*
X53697161Y51079989D02*
X53549989Y51079989D01*
X57409206Y58398488D02*
X57251513Y58240795D01*
X56490162Y51419738D02*
X56490162Y51419739D01*
X92741000Y51085389D02*
X92741000Y54450000D01*
X56207319Y51136895D02*
X56193887Y51150327D01*
X91643307Y55801000D02*
X76781693Y55801000D01*
X56702552Y51941835D02*
X56476729Y51716014D01*
X93090794Y46251512D02*
X93648487Y46809205D01*
X55345359Y50584641D02*
X55261718Y50501000D01*
X73283307Y55501000D02*
X63795389Y55501000D01*
X92210132Y46149000D02*
X92843307Y46149000D01*
X92741000Y54450000D02*
X92741000Y54703307D01*
X55911043Y50867485D02*
X55924476Y50854052D01*
X55911043Y51150328D02*
X55911042Y51150328D01*
X56849000Y56943307D02*
X56849000Y52295390D01*
X92638487Y54950795D02*
X91890794Y55698488D01*
X55641633Y50571209D02*
X55628201Y50584641D01*
X56476729Y51716014D02*
X56476728Y51716014D01*
X57002554Y57241836D02*
X56951513Y57190795D01*
X57149000Y57993307D02*
X57149000Y57595389D01*
X93751000Y47056693D02*
X93751000Y49723307D01*
X55924476Y50571209D02*
X55924476Y50571208D01*
X55261718Y50501000D02*
X54545389Y50501000D01*
X60443307Y58501000D02*
X57656693Y58501000D01*
X56490162Y51136895D02*
X56490162Y51136894D01*
X93648488Y49970794D02*
X92887447Y50731835D01*
X55911045Y51150327D02*
X55911043Y51150328D01*
X76534206Y55698488D02*
X75743165Y54907447D01*
X75389611Y54761000D02*
X74375389Y54761000D01*
X92000000Y46297000D02*
X92104066Y46192934D01*
X73530795Y55398487D02*
G75*
G03*
X73283307Y55501005I-247495J-247487D01*
G01*
X56951513Y57190795D02*
G75*
G03*
X56848995Y56943307I247487J-247495D01*
G01*
X56490162Y51419739D02*
G75*
G02*
X56490179Y51136878I-141462J-141439D01*
G01*
X60690795Y58398487D02*
G75*
G03*
X60443307Y58501005I-247495J-247487D01*
G01*
X91890794Y55698488D02*
G75*
G03*
X91643307Y55801005I-247494J-247488D01*
G01*
X93751000Y49723307D02*
G75*
G03*
X93648484Y49970790I-350000J-7D01*
G01*
X93648487Y46809205D02*
G75*
G03*
X93751005Y47056693I-247487J247495D01*
G01*
X92104066Y46192934D02*
G75*
G03*
X92210132Y46149023I106034J106066D01*
G01*
X56490162Y51136894D02*
G75*
G02*
X56207278Y51136854I-141462J141406D01*
G01*
X63795389Y55501000D02*
G75*
G02*
X63441842Y55647452I11J500000D01*
G01*
X55628201Y50584641D02*
G75*
G03*
X55345359Y50584641I-141421J-141423D01*
G01*
X56849000Y52295390D02*
G75*
G02*
X56702547Y51941840I-500000J10D01*
G01*
X92887447Y50731835D02*
G75*
G02*
X92740992Y51085389I353553J353565D01*
G01*
X92843307Y46149000D02*
G75*
G03*
X93090790Y46251516I-7J350000D01*
G01*
X74375389Y54761000D02*
G75*
G02*
X74021842Y54907452I11J500000D01*
G01*
X56476728Y51716014D02*
G75*
G03*
X56476736Y51433178I141472J-141414D01*
G01*
X75743165Y54907447D02*
G75*
G02*
X75389611Y54760992I-353565J353553D01*
G01*
X55911042Y51150328D02*
G75*
G03*
X55911036Y50867478I141458J-141428D01*
G01*
X57149000Y57595389D02*
G75*
G02*
X57002548Y57241842I-500000J11D01*
G01*
X92741000Y54703307D02*
G75*
G03*
X92638483Y54950791I-350000J-7D01*
G01*
X56193887Y51150327D02*
G75*
G03*
X55911045Y51150327I-141421J-141423D01*
G01*
X76781693Y55801000D02*
G75*
G03*
X76534210Y55698484I7J-350000D01*
G01*
X55924476Y50854053D02*
G75*
G02*
X55924507Y50571178I-141376J-141453D01*
G01*
X55924476Y50571208D02*
G75*
G02*
X55641678Y50571254I-141376J141392D01*
G01*
X57251513Y58240795D02*
G75*
G03*
X57148995Y57993307I247487J-247495D01*
G01*
X53803227Y51036055D02*
G75*
G03*
X53697161Y51079965I-106027J-106055D01*
G01*
X54545389Y50501000D02*
G75*
G02*
X54191842Y50647452I11J500000D01*
G01*
X57656693Y58501000D02*
G75*
G03*
X57409210Y58398484I7J-350000D01*
G01*
%TO.N,USBSS0_RX_P*%
X49057873Y58099665D02*
X49074321Y58083217D01*
X54447000Y31750000D02*
X54299000Y31898000D01*
X49074321Y58083217D02*
X49074321Y58083216D01*
X44199000Y47938282D02*
X44199000Y52788282D01*
X45049000Y43161718D02*
X45049000Y44761718D01*
X53530000Y58459282D02*
X53530000Y58220000D01*
X49321807Y58083216D02*
X49321807Y58083217D01*
X50811718Y38999000D02*
X49211718Y38999000D01*
X49305359Y58594641D02*
X49521718Y58811000D01*
X48399000Y56988282D02*
X48399000Y57688282D01*
X45049000Y44761718D02*
X43699000Y46111718D01*
X53178282Y58811000D02*
X53530000Y58459282D01*
X54299000Y35511718D02*
X50811718Y38999000D01*
X48399000Y57688282D02*
X48810386Y58099664D01*
X49211718Y38999000D02*
X45049000Y43161718D01*
X44199000Y52788282D02*
X48399000Y56988282D01*
X43699000Y47438282D02*
X44199000Y47938282D01*
X54299000Y31898000D02*
X54299000Y35511718D01*
X49321808Y58330704D02*
X49305359Y58347153D01*
X49521718Y58811000D02*
X53178282Y58811000D01*
X43699000Y46111718D02*
X43699000Y47438282D01*
X48810386Y58099664D02*
G75*
G02*
X49057843Y58099635I123714J-123764D01*
G01*
X49321807Y58083217D02*
G75*
G03*
X49321847Y58330743I-123707J123783D01*
G01*
X49074321Y58083216D02*
G75*
G03*
X49321807Y58083216I123743J123747D01*
G01*
X49305359Y58347153D02*
G75*
G02*
X49305356Y58594644I123741J123747D01*
G01*
%TO.N,USBSS0_TX_N*%
X45051000Y50861718D02*
X45051000Y46138282D01*
X45538282Y51349000D02*
X45051000Y50861718D01*
X46500000Y51497000D02*
X46352000Y51349000D01*
X55801000Y35388282D02*
X55801000Y31206718D01*
X54394282Y29800000D02*
X54175000Y29800000D01*
X55801000Y31206718D02*
X54394282Y29800000D01*
X45051000Y46138282D02*
X55801000Y35388282D01*
X46352000Y51349000D02*
X45538282Y51349000D01*
%TO.N,PCIE1_RX0_N*%
X86051000Y32545389D02*
X86051000Y35993307D01*
X90758894Y30848176D02*
X90158164Y30247446D01*
X49421000Y49325389D02*
X49421000Y52054611D01*
X50702110Y53604960D02*
X50702110Y53747890D01*
X91007890Y30892110D02*
X90864960Y30892110D01*
X88141835Y30247447D02*
X86197446Y32191836D01*
X75393307Y46651000D02*
X52095389Y46651000D01*
X89804611Y30101000D02*
X88495389Y30101000D01*
X49567447Y52408165D02*
X50658176Y53498894D01*
X85948487Y36240795D02*
X75640794Y46548488D01*
X51741835Y46797447D02*
X49567446Y48971836D01*
X88495389Y30101000D02*
G75*
G02*
X88141841Y30247453I11J500000D01*
G01*
X50658176Y53498894D02*
G75*
G03*
X50702135Y53604960I-106076J106106D01*
G01*
X90758894Y30848176D02*
G75*
G02*
X90864960Y30892135I106106J-106076D01*
G01*
X90158164Y30247446D02*
G75*
G02*
X89804611Y30100992I-353564J353554D01*
G01*
X52095389Y46651000D02*
G75*
G02*
X51741841Y46797453I11J500000D01*
G01*
X75640794Y46548488D02*
G75*
G03*
X75393307Y46651005I-247494J-247488D01*
G01*
X49567446Y48971836D02*
G75*
G02*
X49420992Y49325389I353554J353564D01*
G01*
X86197446Y32191836D02*
G75*
G02*
X86050992Y32545389I353554J353564D01*
G01*
X86051000Y35993307D02*
G75*
G03*
X85948483Y36240791I-350000J-7D01*
G01*
X49567447Y52408165D02*
G75*
G03*
X49420992Y52054611I353553J-353565D01*
G01*
%TO.N,PCIE1_RX0_P*%
X49959280Y50968721D02*
X49959279Y50968721D01*
X86349000Y36054611D02*
X86349000Y32606693D01*
X49959279Y51568721D02*
X49959280Y51568721D01*
X87049268Y32150360D02*
X87049267Y32150359D01*
X50868894Y53288176D02*
X49821513Y52240795D01*
X88556693Y30399000D02*
X89743307Y30399000D01*
X50199559Y51328442D02*
X50199559Y51209000D01*
X51117890Y53332110D02*
X50974960Y53332110D01*
X49719000Y49578442D02*
X49719000Y49409000D01*
X86451513Y32359205D02*
X86660359Y32150359D01*
X90592110Y31164960D02*
X90592110Y31307890D01*
X87579597Y31902873D02*
X87438176Y31761451D01*
X49821513Y49139205D02*
X51909206Y47051512D01*
X52156693Y46949000D02*
X75454611Y46949000D01*
X75808165Y46802553D02*
X86202554Y36408164D01*
X87579596Y31902872D02*
X87579597Y31902873D01*
X49934279Y50393721D02*
X49934280Y50393721D01*
X49719000Y50728442D02*
X49719000Y50609000D01*
X87579598Y32291779D02*
X87579597Y32291781D01*
X87049267Y32150359D02*
X87190689Y32291780D01*
X87438175Y31372543D02*
X88309206Y30501512D01*
X49719000Y49409000D02*
X49719000Y49386693D01*
X49934280Y49793721D02*
X49934279Y49793721D01*
X50149559Y50178442D02*
X50149559Y50009000D01*
X89990795Y30501513D02*
X90548176Y31058894D01*
X87438177Y31372542D02*
X87438175Y31372543D01*
X49719000Y51993307D02*
X49719000Y51809000D01*
X49959279Y50968721D02*
G75*
G03*
X49718979Y50728442I21J-240321D01*
G01*
X49821513Y52240795D02*
G75*
G03*
X49718995Y51993307I247487J-247495D01*
G01*
X50868894Y53288176D02*
G75*
G02*
X50974960Y53332135I106106J-106076D01*
G01*
X49934280Y50393721D02*
G75*
G02*
X50149621Y50178442I20J-215321D01*
G01*
X50149559Y50009000D02*
G75*
G02*
X49934280Y49793741I-215259J0D01*
G01*
X90548176Y31058894D02*
G75*
G03*
X90592135Y31164960I-106076J106106D01*
G01*
X88309206Y30501512D02*
G75*
G03*
X88556693Y30398995I247494J247488D01*
G01*
X49719000Y49386693D02*
G75*
G03*
X49821517Y49139209I350000J7D01*
G01*
X86660359Y32150359D02*
G75*
G03*
X87049255Y32150373I194441J194441D01*
G01*
X49934279Y49793721D02*
G75*
G03*
X49718979Y49578442I21J-215321D01*
G01*
X49959280Y51568721D02*
G75*
G02*
X50199621Y51328442I20J-240321D01*
G01*
X86349000Y32606693D02*
G75*
G03*
X86451517Y32359209I350000J7D01*
G01*
X87190689Y32291780D02*
G75*
G02*
X87579555Y32291736I194411J-194480D01*
G01*
X86202554Y36408164D02*
G75*
G02*
X86349008Y36054611I-353554J-353564D01*
G01*
X87438176Y31761451D02*
G75*
G03*
X87438180Y31372545I194424J-194451D01*
G01*
X75454611Y46949000D02*
G75*
G02*
X75808159Y46802547I-11J-500000D01*
G01*
X49719000Y51809000D02*
G75*
G03*
X49959279Y51568700I240300J0D01*
G01*
X49719000Y50609000D02*
G75*
G03*
X49934279Y50393700I215300J0D01*
G01*
X51909206Y47051512D02*
G75*
G03*
X52156693Y46948995I247494J247488D01*
G01*
X50199559Y51209000D02*
G75*
G02*
X49959280Y50968741I-240259J0D01*
G01*
X87579597Y32291781D02*
G75*
G02*
X87579623Y31902845I-194497J-194481D01*
G01*
X89743307Y30399000D02*
G75*
G03*
X89990791Y30501517I-7J350000D01*
G01*
%TO.N,PCIE1_CLK_N*%
X90854611Y28751000D02*
X87945389Y28751000D01*
X91208164Y28897447D02*
X91630784Y29320067D01*
X50045389Y45251000D02*
X74593307Y45251000D01*
X84448487Y35540795D02*
X74840794Y45148488D01*
X90854611Y28751000D02*
X90854610Y28751000D01*
X87591835Y28897447D02*
X84697446Y31791836D01*
X91630784Y29320067D02*
X91840088Y29320067D01*
X49691835Y45397447D02*
X47647446Y47441836D01*
X84551000Y32145389D02*
X84551000Y35293307D01*
X46735040Y52942110D02*
X46592110Y52942110D01*
X47501000Y47795389D02*
X47501000Y52093307D01*
X47398487Y52340795D02*
X46841106Y52898176D01*
X84551000Y35293307D02*
G75*
G03*
X84448483Y35540791I-350000J-7D01*
G01*
X87945389Y28751000D02*
G75*
G02*
X87591841Y28897453I11J500000D01*
G01*
X91208164Y28897447D02*
G75*
G02*
X90854610Y28750993I-353564J353553D01*
G01*
X47501000Y47795389D02*
G75*
G03*
X47647452Y47441842I500000J11D01*
G01*
X84697446Y31791836D02*
G75*
G02*
X84550992Y32145389I353554J353564D01*
G01*
X47501000Y52093307D02*
G75*
G03*
X47398483Y52340791I-350000J-7D01*
G01*
X46841106Y52898176D02*
G75*
G03*
X46735040Y52942135I-106106J-106076D01*
G01*
X74840794Y45148488D02*
G75*
G03*
X74593307Y45251005I-247494J-247488D01*
G01*
X49691835Y45397447D02*
G75*
G03*
X50045389Y45250992I353565J353553D01*
G01*
%TO.N,PCIE1_CLK_P*%
X48721044Y47072517D02*
X48743292Y47094766D01*
X91420066Y29740089D02*
X91420066Y29530785D01*
X48721043Y46789675D02*
X48721043Y46789674D01*
X84702554Y35708164D02*
X75008165Y45402553D01*
X74654611Y45549000D02*
X50168825Y45549000D01*
X87759206Y29151512D02*
X84951513Y31959205D01*
X47799000Y47918825D02*
X47799000Y52154611D01*
X91420066Y29530785D02*
X91084727Y29195446D01*
X84849000Y32206693D02*
X84849000Y35354611D01*
X48743293Y47377609D02*
X48743294Y47377609D01*
X48460451Y47377608D02*
X48438202Y47355360D01*
X48155359Y47355359D02*
X47945447Y47565271D01*
X47007890Y53214960D02*
X47007890Y53357890D01*
X47652554Y52508164D02*
X47051824Y53108894D01*
X90731174Y29049000D02*
X88006693Y29049000D01*
X49815272Y45695446D02*
X48721043Y46789675D01*
X48438202Y47355360D02*
G75*
G02*
X48155379Y47355379I-141402J141440D01*
G01*
X50168825Y45549000D02*
G75*
G02*
X49815260Y45695434I-25J500000D01*
G01*
X47051824Y53108894D02*
G75*
G02*
X47007865Y53214960I106076J106106D01*
G01*
X48721043Y46789674D02*
G75*
G02*
X48721039Y47072522I141457J141426D01*
G01*
X88006693Y29049000D02*
G75*
G02*
X87759210Y29151516I7J350000D01*
G01*
X75008165Y45402553D02*
G75*
G03*
X74654611Y45549008I-353565J-353553D01*
G01*
X48743292Y47094766D02*
G75*
G03*
X48743305Y47377621I-141392J141434D01*
G01*
X47799000Y52154611D02*
G75*
G03*
X47652548Y52508158I-500000J-11D01*
G01*
X48743294Y47377609D02*
G75*
G03*
X48460478Y47377581I-141394J-141409D01*
G01*
X84951513Y31959205D02*
G75*
G02*
X84848995Y32206693I247487J247495D01*
G01*
X84849000Y35354611D02*
G75*
G03*
X84702548Y35708158I-500000J-11D01*
G01*
X47945447Y47565271D02*
G75*
G02*
X47799018Y47918825I353553J353529D01*
G01*
X91084727Y29195446D02*
G75*
G02*
X90731174Y29049018I-353527J353554D01*
G01*
D28*
%TO.N,I2S0_SDOUT*%
X72025000Y25675000D02*
X60525000Y25675000D01*
X118175000Y27375000D02*
X118540000Y27740000D01*
X39930000Y45070000D02*
X39930000Y55480000D01*
X107608364Y29375000D02*
X94933364Y16700000D01*
X118025000Y27375000D02*
X118175000Y27375000D01*
X60525000Y25675000D02*
X59400000Y24550000D01*
X40410000Y44590000D02*
X39930000Y45070000D01*
X78950000Y16700000D02*
X78250000Y17400000D01*
X118540000Y27740000D02*
X118540000Y28140000D01*
X40450000Y56000000D02*
X44410000Y56000000D01*
X78250000Y19450000D02*
X72025000Y25675000D01*
X46570000Y29030000D02*
X42050000Y33550000D01*
X42050000Y39550000D02*
X40410000Y41190000D01*
X78250000Y17400000D02*
X78250000Y19450000D01*
X39930000Y55480000D02*
X40450000Y56000000D01*
X50220000Y25980000D02*
X47170000Y29030000D01*
X47170000Y29030000D02*
X46570000Y29030000D01*
X44410000Y56000000D02*
X46350000Y57940000D01*
X42050000Y33550000D02*
X42050000Y39550000D01*
X118540000Y28140000D02*
X117305000Y29375000D01*
X59400000Y24550000D02*
X56550000Y24550000D01*
X94933364Y16700000D02*
X78950000Y16700000D01*
X46350000Y57940000D02*
X46350000Y58950000D01*
X40410000Y41190000D02*
X40410000Y44590000D01*
X55120000Y25980000D02*
X50220000Y25980000D01*
X117305000Y29375000D02*
X107608364Y29375000D01*
X56550000Y24550000D02*
X55120000Y25980000D01*
%TO.N,I2S0_SDIN*%
X40150000Y44490000D02*
X39630000Y45010000D01*
X95020000Y16400000D02*
X78850000Y16400000D01*
X41750000Y33450000D02*
X41750000Y39450000D01*
X77950000Y17300000D02*
X77950000Y19350000D01*
X77950000Y19350000D02*
X71900000Y25400000D01*
X39630000Y55590000D02*
X40340000Y56300000D01*
X44300000Y56300000D02*
X45850000Y57850000D01*
X106560000Y27250000D02*
X105870000Y27250000D01*
X55030000Y25670000D02*
X50133554Y25670000D01*
X78850000Y16400000D02*
X77950000Y17300000D01*
X39630000Y45010000D02*
X39630000Y55590000D01*
X105870000Y27250000D02*
X95020000Y16400000D01*
X40150000Y41050000D02*
X40150000Y44490000D01*
X60603554Y25400000D02*
X59503554Y24300000D01*
X71900000Y25400000D02*
X60603554Y25400000D01*
X46420000Y28780000D02*
X41750000Y33450000D01*
X41750000Y39450000D02*
X40150000Y41050000D01*
X45850000Y57850000D02*
X45850000Y59300000D01*
X50133554Y25670000D02*
X47023554Y28780000D01*
X59503554Y24300000D02*
X56400000Y24300000D01*
X47023554Y28780000D02*
X46420000Y28780000D01*
X40340000Y56300000D02*
X44300000Y56300000D01*
X56400000Y24300000D02*
X55030000Y25670000D01*
%TO.N,I2S0_LRCK*%
X46270000Y28530000D02*
X41150000Y33650000D01*
X46920000Y28530000D02*
X46270000Y28530000D01*
X41150000Y35350000D02*
X39200000Y37300000D01*
X37400000Y37653554D02*
X37400000Y40090000D01*
X40276446Y56590000D02*
X44150000Y56590000D01*
X44150000Y56590000D02*
X45350000Y57790000D01*
X37400000Y40090000D02*
X39050000Y41740000D01*
X39050000Y49600000D02*
X39350000Y49900000D01*
X39200000Y37300000D02*
X37753554Y37300000D01*
X95130000Y16100000D02*
X78750000Y16100000D01*
X60707108Y25150000D02*
X59607108Y24050000D01*
X78750000Y16100000D02*
X77650000Y17200000D01*
X37753554Y37300000D02*
X37400000Y37653554D01*
X39350000Y49900000D02*
X39350000Y55663554D01*
X54926777Y25350000D02*
X50100000Y25350000D01*
X45350000Y57790000D02*
X45350000Y58950000D01*
X39350000Y55663554D02*
X40276446Y56590000D01*
X41150000Y33650000D02*
X41150000Y35350000D01*
X50100000Y25350000D02*
X46920000Y28530000D01*
X39050000Y41740000D02*
X39050000Y49600000D01*
X105720000Y26690000D02*
X95130000Y16100000D01*
X71750000Y25150000D02*
X60707108Y25150000D01*
X56226777Y24050000D02*
X54926777Y25350000D01*
X106130000Y26690000D02*
X105720000Y26690000D01*
X77650000Y17200000D02*
X77650000Y19250000D01*
X77650000Y19250000D02*
X71750000Y25150000D01*
X59607108Y24050000D02*
X56226777Y24050000D01*
%TO.N,I2S0_SCLK*%
X107030000Y26980000D02*
X106290000Y26240000D01*
X71650000Y24850000D02*
X60785000Y24850000D01*
X48150000Y25050000D02*
X43580000Y29620000D01*
X54850000Y25050000D02*
X48150000Y25050000D01*
X37150000Y37550001D02*
X37150000Y40200000D01*
X118075000Y27950000D02*
X118075000Y28035000D01*
X78650000Y15800000D02*
X77350000Y17100000D01*
X37150000Y40200000D02*
X38800000Y41850000D01*
X38800000Y49703554D02*
X39100000Y50003554D01*
X39100000Y50003554D02*
X39100000Y55850000D01*
X106290000Y26240000D02*
X105750000Y26240000D01*
X107720000Y29100000D02*
X107030000Y28410000D01*
X40120000Y56870000D02*
X43870000Y56870000D01*
X43580000Y29620000D02*
X43580000Y30470000D01*
X107030000Y28410000D02*
X107030000Y26980000D01*
X56100000Y23800000D02*
X54850000Y25050000D01*
X37650000Y37050000D02*
X37150000Y37550001D01*
X105750000Y26240000D02*
X95310000Y15800000D01*
X40850000Y33200000D02*
X40850000Y35296446D01*
X43580000Y30470000D02*
X40850000Y33200000D01*
X118075000Y28035000D02*
X117010000Y29100000D01*
X59735000Y23800000D02*
X56100000Y23800000D01*
X95310000Y15800000D02*
X78650000Y15800000D01*
X60785000Y24850000D02*
X59735000Y23800000D01*
X117010000Y29100000D02*
X107720000Y29100000D01*
X77350000Y19150000D02*
X71650000Y24850000D01*
X44850000Y57850000D02*
X44850000Y59300000D01*
X38800000Y41850000D02*
X38800000Y49703554D01*
X77350000Y17100000D02*
X77350000Y19150000D01*
X43870000Y56870000D02*
X44850000Y57850000D01*
X39096446Y37050000D02*
X37650000Y37050000D01*
X40850000Y35296446D02*
X39096446Y37050000D01*
X39100000Y55850000D02*
X40120000Y56870000D01*
%TO.N,GPIO09*%
X38350000Y56400000D02*
X39740000Y57790000D01*
X37292892Y36300000D02*
X36400000Y37192893D01*
X71278554Y24021446D02*
X61028554Y24021446D01*
X75820000Y17380000D02*
X75820000Y19480000D01*
X38350000Y50314216D02*
X38350000Y56400000D01*
X75820000Y19480000D02*
X71278554Y24021446D01*
X38050000Y50014216D02*
X38350000Y50314216D01*
X107200000Y25360000D02*
X106120000Y25360000D01*
X107880000Y26040000D02*
X107200000Y25360000D01*
X60057108Y23050000D02*
X55650000Y23050000D01*
X55650000Y23050000D02*
X54500000Y24200000D01*
X39950000Y35135784D02*
X38785784Y36300000D01*
X107880000Y28190000D02*
X107880000Y26040000D01*
X95660000Y14900000D02*
X78300000Y14900000D01*
X47800000Y24200000D02*
X42625000Y29375000D01*
X38785784Y36300000D02*
X37292892Y36300000D01*
X36400000Y37192893D02*
X36400000Y40560000D01*
X38050000Y42210000D02*
X38050000Y50014216D01*
X54500000Y24200000D02*
X47800000Y24200000D01*
X42625000Y29375000D02*
X42625000Y29975000D01*
X40840000Y57790000D02*
X41850000Y58800000D01*
X78300000Y14900000D02*
X75820000Y17380000D01*
X42625000Y29975000D02*
X39950000Y32650000D01*
X61028554Y24021446D02*
X60057108Y23050000D01*
X106120000Y25360000D02*
X95660000Y14900000D01*
X39950000Y32650000D02*
X39950000Y35135784D01*
X36400000Y40560000D02*
X38050000Y42210000D01*
X107850000Y28220000D02*
X107880000Y28190000D01*
X39740000Y57790000D02*
X40840000Y57790000D01*
%TO.N,SDA_CAM*%
X40750000Y54450000D02*
X41350000Y54450000D01*
X42650000Y33750000D02*
X42650000Y39706386D01*
X47430000Y29530000D02*
X46870000Y29530000D01*
X40940000Y41416386D02*
X40940000Y44780000D01*
X55320000Y26580000D02*
X50380000Y26580000D01*
X41350000Y54450000D02*
X41550000Y54650000D01*
X64375000Y27500000D02*
X60520000Y27500000D01*
X60520000Y27500000D02*
X58070000Y25050000D01*
X50380000Y26580000D02*
X47430000Y29530000D01*
X42650000Y39706386D02*
X40940000Y41416386D01*
X65200000Y26675000D02*
X64375000Y27500000D01*
X40537500Y54237500D02*
X40750000Y54450000D01*
X56850000Y25050000D02*
X55320000Y26580000D01*
X46870000Y29530000D02*
X42650000Y33750000D01*
X40940000Y44780000D02*
X40537500Y45182500D01*
X41550000Y55250000D02*
X41300000Y55500000D01*
X40537500Y45182500D02*
X40537500Y54237500D01*
X41550000Y54650000D02*
X41550000Y55250000D01*
X41300000Y55500000D02*
X40840000Y55500000D01*
X58070000Y25050000D02*
X56850000Y25050000D01*
%TO.N,SCL_CAM*%
X65170000Y26020000D02*
X65750000Y26600000D01*
X46720000Y29280000D02*
X47290000Y29280000D01*
X40505523Y55005523D02*
X40220000Y54720000D01*
X40220000Y45140000D02*
X40670000Y44690000D01*
X42350000Y33650000D02*
X46720000Y29280000D01*
X40670000Y44690000D02*
X40670000Y41330000D01*
X58180000Y24800000D02*
X60520000Y27140000D01*
X60520000Y27140000D02*
X63870000Y27140000D01*
X40505523Y55007622D02*
X40505523Y55005523D01*
X50300000Y26270000D02*
X55230000Y26270000D01*
X47290000Y29280000D02*
X50300000Y26270000D01*
X40220000Y54720000D02*
X40220000Y45140000D01*
X56700000Y24800000D02*
X58180000Y24800000D01*
X64990000Y26020000D02*
X65170000Y26020000D01*
X40670000Y41330000D02*
X42350000Y39650000D01*
X42350000Y39650000D02*
X42350000Y33650000D01*
X55230000Y26270000D02*
X56700000Y24800000D01*
X63870000Y27140000D02*
X64990000Y26020000D01*
D26*
%TO.N,~{RESET}*%
X17700000Y12490000D02*
X17280000Y12910000D01*
X17700000Y11880000D02*
X17700000Y12490000D01*
X17200000Y9470000D02*
X17200000Y11380000D01*
X31230000Y52840000D02*
X33410000Y52840000D01*
X16870000Y8887990D02*
X16870000Y9140000D01*
X17280000Y12910000D02*
X16660000Y12910000D01*
X29810000Y42310000D02*
X29810000Y51420000D01*
X16870000Y9140000D02*
X17200000Y9470000D01*
X33410000Y52840000D02*
X34800000Y54230000D01*
X29810000Y51420000D02*
X31230000Y52840000D01*
X29325000Y41825000D02*
X29810000Y42310000D01*
X34800000Y54230000D02*
X34800000Y58274500D01*
X17200000Y11380000D02*
X17700000Y11880000D01*
D29*
%TO.N,+3V3*%
X108837500Y31662500D02*
X108837500Y31587500D01*
X105121551Y32425000D02*
X108075000Y32425000D01*
X108075000Y32425000D02*
X108837500Y31662500D01*
X104601293Y32945258D02*
X105121551Y32425000D01*
D26*
%TO.N,GPIO07*%
X35925000Y45025000D02*
X35150000Y44250000D01*
X37275000Y15025000D02*
X39825000Y15025000D01*
X35150000Y44250000D02*
X35150000Y42150000D01*
X33850000Y31240000D02*
X33250000Y30640000D01*
X33250000Y19050000D02*
X37275000Y15025000D01*
X33250000Y30640000D02*
X33250000Y19050000D01*
X35308564Y49541436D02*
X35925000Y48925000D01*
X39825000Y15025000D02*
X40550000Y15750000D01*
D30*
X35308564Y50102926D02*
X35308564Y49541436D01*
D26*
X33850000Y40850000D02*
X33850000Y31240000D01*
X35925000Y48925000D02*
X35925000Y45025000D01*
X35150000Y42150000D02*
X33850000Y40850000D01*
D25*
%TO.N,/USB Debug\u002C DP/USBC0_RX2_N*%
X47326000Y15676000D02*
X47200000Y15550000D01*
X47200000Y19090000D02*
X47520000Y18770000D01*
X47520000Y17905718D02*
X47326000Y17711718D01*
X47520000Y18770000D02*
X47520000Y17905718D01*
X47180000Y19090000D02*
X47200000Y19090000D01*
X47326000Y17711718D02*
X47326000Y15676000D01*
D28*
%TO.N,I2C2_SCL*%
X95033304Y7052355D02*
X95397903Y7090676D01*
X97787397Y8642432D02*
X97970701Y8959923D01*
X37350000Y6350000D02*
X52150000Y6350000D01*
D26*
X103375000Y19175000D02*
X103200000Y19000000D01*
X119100000Y19500000D02*
X105700000Y19500000D01*
X34560000Y45637500D02*
X34550000Y45627500D01*
D28*
X98350000Y16650000D02*
X100850000Y19150000D01*
X94850000Y7050000D02*
X95033304Y7052355D01*
X93350000Y7050000D02*
X94850000Y7050000D01*
X103050000Y19150000D02*
X103200000Y19000000D01*
D26*
X105700000Y19500000D02*
X105150000Y20050000D01*
D28*
X98350000Y10550000D02*
X98350000Y16650000D01*
D26*
X103625000Y19423959D02*
X103376041Y19175000D01*
X34550000Y42350000D02*
X33250000Y41050000D01*
X105150000Y20050000D02*
X104250000Y20050000D01*
D28*
X97571911Y8345840D02*
X97787397Y8642432D01*
D26*
X103625000Y19425000D02*
X103625000Y19423959D01*
X34550000Y45627500D02*
X34550000Y42350000D01*
D28*
X34250000Y17250000D02*
X36300000Y15200000D01*
D26*
X32650000Y31030000D02*
X32650000Y18850000D01*
D28*
X78550000Y5850000D02*
X92150000Y5850000D01*
X96757568Y7612603D02*
X97054160Y7828089D01*
X98347645Y10366696D02*
X98350000Y10550000D01*
X98309324Y10002097D02*
X98347645Y10366696D01*
X92150000Y5850000D02*
X93350000Y7050000D01*
X97054160Y7828089D02*
X97326602Y8073398D01*
X54150000Y8350000D02*
X76050000Y8350000D01*
X96105164Y7280186D02*
X96440077Y7429299D01*
X95397903Y7090676D02*
X95756499Y7166898D01*
D26*
X103376041Y19175000D02*
X103375000Y19175000D01*
D28*
X36300000Y7400000D02*
X37350000Y6350000D01*
X100850000Y19150000D02*
X103050000Y19150000D01*
X97326602Y8073398D02*
X97571911Y8345840D01*
X95756499Y7166898D02*
X96105164Y7280186D01*
D26*
X33250000Y31630000D02*
X32650000Y31030000D01*
D28*
X76050000Y8350000D02*
X78550000Y5850000D01*
X96440077Y7429299D02*
X96757568Y7612603D01*
X36300000Y15200000D02*
X36300000Y7400000D01*
X98119814Y9294836D02*
X98233102Y9643501D01*
X97970701Y8959923D02*
X98119814Y9294836D01*
D26*
X33250000Y41050000D02*
X33250000Y31630000D01*
X104250000Y20050000D02*
X103625000Y19425000D01*
D28*
X52150000Y6350000D02*
X54150000Y8350000D01*
X98233102Y9643501D02*
X98309324Y10002097D01*
D26*
X32650000Y18850000D02*
X34250000Y17250000D01*
X119350000Y19250000D02*
X119100000Y19500000D01*
D28*
%TO.N,I2C2_SDA*%
X37450000Y6650000D02*
X52050000Y6650000D01*
X98050000Y10650000D02*
X98050000Y16750000D01*
X52050000Y6650000D02*
X54050000Y8650000D01*
X98050000Y16750000D02*
X100750000Y19450000D01*
X93150000Y7350000D02*
X94750000Y7350000D01*
X100750000Y19450000D02*
X103050000Y19450000D01*
X36600000Y15300000D02*
X36600000Y7500000D01*
D26*
X33550000Y31430000D02*
X32950000Y30830000D01*
X32950000Y30830000D02*
X32950000Y18950000D01*
D28*
X76137500Y8650000D02*
X78637500Y6150000D01*
X54050000Y8650000D02*
X76137500Y8650000D01*
D26*
X35121248Y45521248D02*
X34850000Y45250000D01*
X105650000Y19950000D02*
X105200000Y20400000D01*
X119050000Y19950000D02*
X105650000Y19950000D01*
X34850000Y45250000D02*
X34850000Y42250000D01*
X35121248Y45762500D02*
X35121248Y45521248D01*
X33550000Y40950000D02*
X33550000Y31430000D01*
X119350000Y20250000D02*
X119050000Y19950000D01*
D28*
X78637500Y6150000D02*
X91950000Y6150000D01*
D26*
X32950000Y18950000D02*
X34550000Y17350000D01*
D28*
X36600000Y7500000D02*
X37450000Y6650000D01*
D26*
X104000000Y20400000D02*
X103200000Y19600000D01*
D28*
X91950000Y6150000D02*
X93150000Y7350000D01*
X34550000Y17350000D02*
X36600000Y15300000D01*
D26*
X34850000Y42250000D02*
X33550000Y40950000D01*
D28*
X103050000Y19450000D02*
X103200000Y19600000D01*
D26*
X105200000Y20400000D02*
X104000000Y20400000D01*
D28*
X94750000Y7350000D02*
G75*
G03*
X98050000Y10650000I0J3300000D01*
G01*
D25*
%TO.N,USBSS1_TX_N*%
X96901000Y58408282D02*
X96448282Y58861000D01*
X100426000Y38603282D02*
X100426000Y39794000D01*
X99786927Y40233555D02*
X99817198Y40306644D01*
X100426000Y44838282D02*
X99626000Y45638282D01*
X99985774Y40394000D02*
X100226000Y40394000D01*
X85209000Y58758282D02*
X85209000Y58511000D01*
X100265553Y40395153D02*
X100338638Y40425425D01*
X102278282Y38001000D02*
X101028282Y38001000D01*
X99873134Y40362587D02*
X99946219Y40392868D01*
X100424847Y39833553D02*
X100394575Y39906638D01*
X102651000Y37628282D02*
X102278282Y38001000D01*
X86928282Y58861000D02*
X86668282Y59121000D01*
X102524282Y36910000D02*
X102651000Y37036718D01*
X100226000Y40394000D02*
X100265553Y40395153D01*
X99873148Y40025435D02*
X99817220Y40081370D01*
X99946219Y40392868D02*
X99985774Y40394000D01*
X100394575Y40481362D02*
X100424847Y40554447D01*
X100265553Y39992847D02*
X100226000Y39994000D01*
X99817198Y40306644D02*
X99873134Y40362587D01*
X99946224Y39995157D02*
X99873148Y40025435D01*
X99786952Y40154450D02*
X99785774Y40194000D01*
X100338638Y39962575D02*
X100265553Y39992847D01*
X96901000Y55363282D02*
X96901000Y58408282D01*
X99985774Y39994000D02*
X99946224Y39995157D01*
X86668282Y59121000D02*
X85571718Y59121000D01*
X100338638Y40425425D02*
X100394575Y40481362D01*
X102160000Y36910000D02*
X102524282Y36910000D01*
X100226000Y39994000D02*
X99985774Y39994000D01*
X99817220Y40081370D02*
X99786952Y40154450D01*
X100394575Y39906638D02*
X100338638Y39962575D01*
X100426000Y39794000D02*
X100424847Y39833553D01*
X99626000Y45638282D02*
X99626000Y52638282D01*
X85571718Y59121000D02*
X85209000Y58758282D01*
X99785774Y40194000D02*
X99786927Y40233555D01*
X100424847Y40554447D02*
X100426000Y40594000D01*
X102651000Y37036718D02*
X102651000Y37628282D01*
X99626000Y52638282D02*
X96901000Y55363282D01*
X101028282Y38001000D02*
X100426000Y38603282D01*
X85209000Y58511000D02*
X85370000Y58350000D01*
X100426000Y40594000D02*
X100426000Y44838282D01*
X96448282Y58861000D02*
X86928282Y58861000D01*
D26*
%TO.N,/USB Debug\u002C DP/PDC_LDO_3V3*%
X36965000Y31525000D02*
X35640000Y30200000D01*
X33850000Y30200000D02*
X33550000Y29900000D01*
X33550000Y29900000D02*
X33550000Y22000000D01*
X37445000Y31525000D02*
X36965000Y31525000D01*
X33950000Y21600000D02*
X35950000Y21600000D01*
X37820000Y31150000D02*
X37445000Y31525000D01*
X35640000Y30200000D02*
X33850000Y30200000D01*
X33550000Y22000000D02*
X33950000Y21600000D01*
D28*
%TO.N,Net-(D36-A)*%
X22500000Y15450000D02*
X22500000Y30730000D01*
X24650000Y53050000D02*
X24825500Y53225500D01*
X22500000Y30730000D02*
X21950000Y31280000D01*
X32514675Y14424272D02*
X32148203Y14535440D01*
X34091480Y13370685D02*
X33820685Y13641480D01*
X24825500Y53225500D02*
X27450000Y53225500D01*
X35400000Y3150000D02*
X35100000Y3450000D01*
X34874272Y12064675D02*
X34727718Y12418487D01*
X35097689Y10941481D02*
X35060152Y11322599D01*
X21950000Y46200000D02*
X24650000Y48900000D01*
X32868487Y14277718D02*
X32514675Y14424272D01*
X33524651Y13884429D02*
X33206229Y14097191D01*
X34727718Y12418487D02*
X34547191Y12756229D01*
X24650000Y48900000D02*
X24650000Y53050000D01*
X23300000Y14650000D02*
X22500000Y15450000D01*
X21950000Y31280000D02*
X21950000Y46200000D01*
X34547191Y12756229D02*
X34334429Y13074651D01*
X35100000Y10750000D02*
X35097689Y10941481D01*
X32148203Y14535440D02*
X31772599Y14610152D01*
X33206229Y14097191D02*
X32868487Y14277718D01*
X35060152Y11322599D02*
X34985440Y11698203D01*
X31200000Y14650000D02*
X23300000Y14650000D01*
X35100000Y3450000D02*
X35100000Y10750000D01*
X34985440Y11698203D02*
X34874272Y12064675D01*
X34334429Y13074651D02*
X34091480Y13370685D01*
X31391481Y14647689D02*
X31200000Y14650000D01*
X33820685Y13641480D02*
X33524651Y13884429D01*
X31772599Y14610152D02*
X31391481Y14647689D01*
D25*
%TO.N,/USB Debug\u002C DP/USBC0_RX2_P*%
X47775000Y15550000D02*
X47624000Y15701000D01*
X47624000Y15701000D02*
X47624000Y17588282D01*
X47820000Y17784282D02*
X47820000Y19000000D01*
X47592334Y19227666D02*
X47592334Y19492334D01*
X47820000Y19000000D02*
X47592334Y19227666D01*
X47624000Y17588282D02*
X47820000Y17784282D01*
%TO.N,USBSS1_TX_P*%
X99924000Y45761718D02*
X99924000Y52761718D01*
X102949000Y37751718D02*
X102401718Y38299000D01*
X85448282Y59419000D02*
X84911000Y58881718D01*
X96571718Y59159000D02*
X87051718Y59159000D01*
X87051718Y59159000D02*
X86791718Y59419000D01*
X84911000Y58881718D02*
X84911000Y58491000D01*
X86791718Y59419000D02*
X85448282Y59419000D01*
X97199000Y58531718D02*
X96571718Y59159000D01*
X102600000Y36450000D02*
X102600000Y36564282D01*
X102600000Y36564282D02*
X102949000Y36913282D01*
X100724000Y38726718D02*
X100724000Y44961718D01*
X102401718Y38299000D02*
X101151718Y38299000D01*
X84911000Y58491000D02*
X84790000Y58370000D01*
X101151718Y38299000D02*
X100724000Y38726718D01*
X99924000Y52761718D02*
X97199000Y55486718D01*
X100724000Y44961718D02*
X99924000Y45761718D01*
X102949000Y36913282D02*
X102949000Y37751718D01*
X97199000Y55486718D02*
X97199000Y58531718D01*
D28*
%TO.N,Net-(D61-A)*%
X37050000Y5450000D02*
X35400000Y7100000D01*
X25000000Y48800000D02*
X25000000Y52600000D01*
X32296829Y14829563D02*
X31901963Y14908107D01*
X22240000Y31470000D02*
X22240000Y46040000D01*
X33743862Y14145167D02*
X33409112Y14368840D01*
X35400000Y7100000D02*
X35400000Y10850000D01*
X22240000Y46040000D02*
X25000000Y48800000D01*
X35162694Y12232094D02*
X35008625Y12604049D01*
X35279563Y11846829D02*
X35162694Y12232094D01*
X34595167Y13293862D02*
X34339759Y13605077D01*
X34818840Y12959112D02*
X34595167Y13293862D01*
X33054049Y14558625D02*
X32682094Y14712694D01*
X23500000Y14950000D02*
X22770000Y15680000D01*
X25000000Y52600000D02*
X25150000Y52750000D01*
X53500000Y2050000D02*
X53250000Y2050000D01*
X35397568Y11051301D02*
X35358107Y11451963D01*
X50750000Y5450000D02*
X37050000Y5450000D01*
X31901963Y14908107D02*
X31501301Y14947568D01*
X34055077Y13889759D02*
X33743862Y14145167D01*
X34339759Y13605077D02*
X34055077Y13889759D01*
X33409112Y14368840D02*
X33054049Y14558625D01*
X35358107Y11451963D02*
X35279563Y11846829D01*
X22770000Y30940000D02*
X22240000Y31470000D01*
X31501301Y14947568D02*
X31300000Y14950000D01*
X53250000Y2050000D02*
X51250000Y4050000D01*
X31300000Y14950000D02*
X23500000Y14950000D01*
X35400000Y10850000D02*
X35397568Y11051301D01*
X22770000Y15680000D02*
X22770000Y30940000D01*
X35008625Y12604049D02*
X34818840Y12959112D01*
X32682094Y14712694D02*
X32296829Y14829563D01*
X51250000Y4950000D02*
X50750000Y5450000D01*
X51250000Y4050000D02*
X51250000Y4950000D01*
%TO.N,SYS_SDA*%
X54100000Y7900000D02*
X56200000Y7900000D01*
X31750000Y41570000D02*
X30170000Y39990000D01*
X92350000Y5550000D02*
X78450000Y5550000D01*
X27320000Y38799338D02*
X25315000Y36794338D01*
X56350000Y8050000D02*
X56200000Y7900000D01*
X32600520Y50499479D02*
X31750000Y49648959D01*
X25315000Y32253908D02*
X26543908Y31025000D01*
X36000000Y15100000D02*
X36000000Y7300000D01*
X30000000Y30080000D02*
X30634272Y29445728D01*
X32350000Y18750000D02*
X36000000Y15100000D01*
X94950000Y6750000D02*
X93550000Y6750000D01*
X37250000Y6050000D02*
X52250000Y6050000D01*
X98650000Y16350000D02*
X98650000Y10450000D01*
X93550000Y6750000D02*
X92350000Y5550000D01*
X36000000Y7300000D02*
X37250000Y6050000D01*
X100050000Y17750000D02*
X98650000Y16350000D01*
X30170000Y39990000D02*
X27843554Y39990000D01*
X27320000Y39466446D02*
X27320000Y38799338D01*
X52250000Y6050000D02*
X54100000Y7900000D01*
X30634272Y29445728D02*
X30782860Y29445728D01*
X31008588Y29220000D02*
X31820000Y29220000D01*
X26543908Y31025000D02*
X29595000Y31025000D01*
X78450000Y5550000D02*
X75950000Y8050000D01*
X75950000Y8050000D02*
X56350000Y8050000D01*
X30782860Y29445728D02*
X31008588Y29220000D01*
X30000000Y30620000D02*
X30000000Y30080000D01*
X31820000Y29220000D02*
X32350000Y28690000D01*
X29595000Y31025000D02*
X30000000Y30620000D01*
X32150000Y51250000D02*
X32151041Y51250000D01*
X27843554Y39990000D02*
X27320000Y39466446D01*
X31750000Y49648959D02*
X31750000Y41570000D01*
X32350000Y28690000D02*
X32350000Y18750000D01*
X32600520Y50800521D02*
X32600520Y50499479D01*
X25315000Y36794338D02*
X25315000Y32253908D01*
X32151041Y51250000D02*
X32600520Y50800521D01*
X98650000Y10450000D02*
G75*
G02*
X94950000Y6750000I-3700000J0D01*
G01*
%TO.N,SYS_SCL*%
X98950000Y10350000D02*
X98950000Y16050000D01*
X92550000Y5250000D02*
X93750000Y6450000D01*
X53950000Y7350000D02*
X52350000Y5750000D01*
X35700000Y7200000D02*
X35700000Y15000000D01*
X78350000Y5250000D02*
X92550000Y5250000D01*
X100550000Y17650000D02*
X100550000Y18250000D01*
X56620000Y7350000D02*
X53950000Y7350000D01*
X35700000Y15000000D02*
X32050000Y18650000D01*
X25040000Y32140000D02*
X25040000Y36872892D01*
X30170000Y40430000D02*
X31450000Y41710000D01*
X27013554Y39573554D02*
X27870000Y40430000D01*
X52350000Y5750000D02*
X37150000Y5750000D01*
X31450000Y49950000D02*
X32150000Y50650000D01*
X98950000Y16050000D02*
X100550000Y17650000D01*
X29450000Y30750000D02*
X26430000Y30750000D01*
X32050000Y28570000D02*
X31740000Y28880000D01*
X31740000Y28880000D02*
X30700000Y28880000D01*
X30700000Y28880000D02*
X29700000Y29880000D01*
X37150000Y5750000D02*
X35700000Y7200000D01*
X56620000Y7350000D02*
X57020000Y7750000D01*
X27870000Y40430000D02*
X30170000Y40430000D01*
X93750000Y6450000D02*
X95050000Y6450000D01*
X32050000Y18650000D02*
X32050000Y28570000D01*
X25040000Y36872892D02*
X27013554Y38846446D01*
X57020000Y7750000D02*
X75850000Y7750000D01*
X31450000Y41710000D02*
X31450000Y49950000D01*
X27013554Y38846446D02*
X27013554Y39573554D01*
X75850000Y7750000D02*
X78350000Y5250000D01*
X29700000Y29880000D02*
X29700000Y30500000D01*
X26430000Y30750000D02*
X25040000Y32140000D01*
X29700000Y30500000D02*
X29450000Y30750000D01*
X95050000Y6450000D02*
G75*
G03*
X98950000Y10350000I0J3900000D01*
G01*
D26*
%TO.N,/USB Debug\u002C DP/FTDI_LED_TX*%
X17250000Y2750000D02*
X16250000Y2750000D01*
X19750000Y12950000D02*
X18540000Y11740000D01*
X25250000Y13638000D02*
X24562000Y12950000D01*
X24562000Y12950000D02*
X19750000Y12950000D01*
X17875000Y6615331D02*
X17875000Y3375000D01*
X17875000Y3375000D02*
X17250000Y2750000D01*
X18540000Y7280331D02*
X17875000Y6615331D01*
X18540000Y11740000D02*
X18540000Y7280331D01*
D30*
%TO.N,/USB Debug\u002C DP/FTDI_LED_RX*%
X17815000Y8770000D02*
X17550000Y8770000D01*
X17550000Y9080000D02*
X17550000Y9290000D01*
X17550000Y8770000D02*
X17550000Y8910000D01*
X17550000Y3550000D02*
X17550000Y8770000D01*
X18115000Y9070000D02*
X17815000Y8770000D01*
X21000000Y14600000D02*
X17550000Y11150000D01*
X16050000Y3250000D02*
X17250000Y3250000D01*
X17550000Y9180000D02*
X17550000Y9290000D01*
X17550000Y8910000D02*
X17550000Y9080000D01*
X17550000Y8980000D02*
X17550000Y8910000D01*
X17250000Y3250000D02*
X17550000Y3550000D01*
X21000000Y15800000D02*
X21000000Y14600000D01*
X17550000Y11150000D02*
X17550000Y9290000D01*
X15550000Y2750000D02*
X16050000Y3250000D01*
D28*
%TO.N,/USB Debug\u002C DP/USBC0_CC1*%
X42250000Y20050000D02*
X42250000Y23900000D01*
X41750000Y24400000D02*
X41750000Y26500000D01*
X43436339Y18863661D02*
X42250000Y20050000D01*
X41250000Y27650000D02*
X40750000Y27650000D01*
X41750000Y26500000D02*
X41400000Y26850000D01*
X43436339Y16186339D02*
X43436339Y18863661D01*
X42250000Y23900000D02*
X41750000Y24400000D01*
X41400000Y26850000D02*
X41400000Y27500000D01*
X41400000Y27500000D02*
X41250000Y27650000D01*
X44322001Y15300678D02*
X43436339Y16186339D01*
D26*
%TO.N,/USB Debug\u002C DP/USBC0_CC2*%
X43150000Y18700000D02*
X43150000Y15700000D01*
X43150000Y15700000D02*
X44250000Y14600000D01*
X41450000Y26250000D02*
X41450000Y24300000D01*
X41175000Y26525000D02*
X41450000Y26250000D01*
X40675000Y26525000D02*
X41175000Y26525000D01*
X44250000Y14600000D02*
X45800000Y14600000D01*
X45800000Y14600000D02*
X46250000Y14150000D01*
X41950000Y19900000D02*
X43150000Y18700000D01*
X41950000Y23800000D02*
X41950000Y19900000D01*
X41450000Y24300000D02*
X41950000Y23800000D01*
D28*
%TO.N,PWR_SOFT*%
X28110000Y51490000D02*
X22512500Y45892500D01*
X22512500Y45892500D02*
X22512500Y31677500D01*
X23050000Y31140000D02*
X23050000Y19750000D01*
X27420000Y19450000D02*
X28650000Y18220000D01*
X28880000Y51490000D02*
X28110000Y51490000D01*
X29835000Y53015000D02*
X29835000Y52445000D01*
X23350000Y19450000D02*
X27420000Y19450000D01*
X29835000Y52445000D02*
X28880000Y51490000D01*
X22512500Y31677500D02*
X23050000Y31140000D01*
X23050000Y19750000D02*
X23350000Y19450000D01*
D27*
%TO.N,/USB3/USBC1_CC2*%
X86350000Y7650000D02*
X86950000Y8250000D01*
X87350000Y9650000D02*
X86650000Y10350000D01*
X84750000Y10750000D02*
X84750000Y11550000D01*
X85150000Y10350000D02*
X84750000Y10750000D01*
X84450000Y8150000D02*
X84950000Y7650000D01*
X86950000Y8250000D02*
X86950000Y8750000D01*
X87350000Y9150000D02*
X87350000Y9650000D01*
X86650000Y10350000D02*
X85150000Y10350000D01*
X86950000Y8750000D02*
X87350000Y9150000D01*
X84450000Y8600000D02*
X84450000Y8150000D01*
X84950000Y7650000D02*
X86350000Y7650000D01*
D28*
%TO.N,CSIA_FLG*%
X75800000Y14150000D02*
X78900000Y14150000D01*
X62525000Y15550000D02*
X63175000Y16200000D01*
X66300000Y16400000D02*
X73550000Y16400000D01*
X66100000Y16200000D02*
X66300000Y16400000D01*
X63175000Y16200000D02*
X66100000Y16200000D01*
X73550000Y16400000D02*
X75800000Y14150000D01*
X62522500Y15550000D02*
X62525000Y15550000D01*
%TO.N,CSIA_PEN*%
X61128340Y23750000D02*
X60178340Y22800000D01*
X58512000Y22800000D02*
X58350000Y22638000D01*
X71150000Y23750000D02*
X61128340Y23750000D01*
X96290000Y14610000D02*
X96280000Y14600000D01*
X60178340Y22800000D02*
X58512000Y22800000D01*
X96280000Y14600000D02*
X78150000Y14600000D01*
X75500000Y17250000D02*
X75500000Y19400000D01*
X78150000Y14600000D02*
X75500000Y17250000D01*
X75500000Y19400000D02*
X71150000Y23750000D01*
D26*
%TO.N,CSIB_PEN*%
X63610000Y27850000D02*
X60475000Y27850000D01*
X65360000Y29600000D02*
X63610000Y27850000D01*
X58825000Y26200000D02*
X57600000Y26200000D01*
X60475000Y27850000D02*
X58825000Y26200000D01*
D28*
%TO.N,CSIB_FLG*%
X67075500Y23307156D02*
X67075500Y22675500D01*
X67075500Y22675500D02*
X64300000Y19900000D01*
X64300000Y19900000D02*
X62750000Y19900000D01*
D25*
%TO.N,USB0_D_P*%
X83050500Y18438782D02*
X83050500Y18048862D01*
X76938282Y21651000D02*
X79018935Y21651000D01*
X83050500Y18048862D02*
X82902500Y17900862D01*
X81635561Y19853721D02*
X83050500Y18438782D01*
X76051000Y22538282D02*
X76938282Y21651000D01*
X74408282Y26001000D02*
X76051000Y24358282D01*
X73868282Y26001000D02*
X74408282Y26001000D01*
X76051000Y24358282D02*
X76051000Y22538282D01*
X70901000Y31405000D02*
X70901000Y28968282D01*
X79018935Y21651000D02*
X80816214Y19853721D01*
X70901000Y28968282D02*
X73868282Y26001000D01*
X80816214Y19853721D02*
X81635561Y19853721D01*
X70756000Y31550000D02*
X70901000Y31405000D01*
%TO.N,USB2_D_N*%
X55735000Y18771000D02*
X55590000Y18626000D01*
X67201718Y18771000D02*
X55735000Y18771000D01*
X71120718Y22690000D02*
X71300000Y22690000D01*
X71120718Y22690000D02*
X67201718Y18771000D01*
%TO.N,USB2_D_P*%
X55735000Y19069000D02*
X55590000Y19214000D01*
X67078282Y19069000D02*
X55735000Y19069000D01*
X70910000Y23160000D02*
X70910000Y22900718D01*
X70910000Y22900718D02*
X67078282Y19069000D01*
%TO.N,PCIE0_TX0_N*%
X94891513Y41300795D02*
X95119206Y41528488D01*
X82947447Y31691835D02*
X87291836Y27347446D01*
X87645389Y27201000D02*
X91704611Y27201000D01*
X93464611Y31409000D02*
X93236693Y31409000D01*
X98855434Y44319566D02*
X98950000Y44225000D01*
X82801000Y34393307D02*
X82801000Y32045389D01*
X92759000Y31886693D02*
X92759000Y37733307D01*
X93406693Y38381000D02*
X93884611Y38381000D01*
X73690795Y43648487D02*
X82698488Y34640794D01*
X92861513Y37980795D02*
X93159206Y38278488D01*
X94238165Y38527447D02*
X94642554Y38931836D01*
X60781066Y43707066D02*
X60680000Y43606000D01*
X92989205Y31511513D02*
X92861512Y31639206D01*
X94299000Y29795389D02*
X94299000Y30574611D01*
X95366693Y41631000D02*
X96064611Y41631000D01*
X96418165Y41777447D02*
X97182554Y42541836D01*
X94152553Y30928165D02*
X93818164Y31262554D01*
X92058165Y27347447D02*
X94152554Y29441836D01*
X97329000Y42895389D02*
X97329000Y43773307D01*
X97919193Y44363500D02*
X98749368Y44363500D01*
X73443307Y43751000D02*
X60887132Y43751000D01*
X94789000Y39285389D02*
X94789000Y41053307D01*
X97431513Y44020795D02*
X97671706Y44260988D01*
X97182554Y42541836D02*
G75*
G03*
X97329008Y42895389I-353554J353564D01*
G01*
X93884611Y38381000D02*
G75*
G03*
X94238159Y38527453I-11J500000D01*
G01*
X91704611Y27201000D02*
G75*
G03*
X92058159Y27347453I-11J500000D01*
G01*
X92759000Y31886693D02*
G75*
G03*
X92861516Y31639210I350000J7D01*
G01*
X93236693Y31409000D02*
G75*
G02*
X92989209Y31511517I7J350000D01*
G01*
X82947447Y31691835D02*
G75*
G02*
X82800992Y32045389I353553J353565D01*
G01*
X60781066Y43707066D02*
G75*
G02*
X60887132Y43750977I106034J-106066D01*
G01*
X92759000Y37733307D02*
G75*
G02*
X92861517Y37980791I350000J-7D01*
G01*
X95119206Y41528488D02*
G75*
G02*
X95366693Y41631005I247494J-247488D01*
G01*
X73690795Y43648487D02*
G75*
G03*
X73443307Y43751005I-247495J-247487D01*
G01*
X93464611Y31409000D02*
G75*
G02*
X93818158Y31262548I-11J-500000D01*
G01*
X94642554Y38931836D02*
G75*
G03*
X94789008Y39285389I-353554J353564D01*
G01*
X94299000Y30574611D02*
G75*
G03*
X94152547Y30928159I-500000J-11D01*
G01*
X82801000Y34393307D02*
G75*
G03*
X82698484Y34640790I-350000J-7D01*
G01*
X96064611Y41631000D02*
G75*
G03*
X96418159Y41777453I-11J500000D01*
G01*
X97919193Y44363500D02*
G75*
G03*
X97671710Y44260984I7J-350000D01*
G01*
X98855434Y44319566D02*
G75*
G03*
X98749368Y44363477I-106034J-106066D01*
G01*
X94299000Y29795389D02*
G75*
G02*
X94152548Y29441842I-500000J11D01*
G01*
X94891513Y41300795D02*
G75*
G03*
X94788995Y41053307I247487J-247495D01*
G01*
X93406693Y38381000D02*
G75*
G03*
X93159210Y38278484I7J-350000D01*
G01*
X97329000Y43773307D02*
G75*
G02*
X97431517Y44020791I350000J-7D01*
G01*
X87291836Y27347446D02*
G75*
G03*
X87645389Y27200992I353564J353554D01*
G01*
%TO.N,PCIE0_TX0_P*%
X87706693Y27499000D02*
X91643307Y27499000D01*
X93403307Y31111000D02*
X93175389Y31111000D01*
X95305389Y41929000D02*
X96003307Y41929000D01*
X60887132Y44049000D02*
X73504611Y44049000D01*
X73858165Y43902553D02*
X82952554Y34808164D01*
X92607447Y38148165D02*
X92991836Y38532554D01*
X97857889Y44661500D02*
X98749368Y44661500D01*
X92461000Y31825389D02*
X92461000Y37794611D01*
X93898487Y30760795D02*
X93650794Y31008488D01*
X96250795Y42031513D02*
X96928488Y42709206D01*
X97031000Y42956693D02*
X97031000Y43834611D01*
X83201513Y31859205D02*
X87459206Y27601512D01*
X83099000Y34454611D02*
X83099000Y32106693D01*
X92821835Y31257447D02*
X92607446Y31471836D01*
X98855434Y44705434D02*
X98950000Y44800000D01*
X94001000Y29856693D02*
X94001000Y30513307D01*
X93345389Y38679000D02*
X93823307Y38679000D01*
X97177447Y44188165D02*
X97504336Y44515054D01*
X91890795Y27601513D02*
X93898488Y29609206D01*
X94070795Y38781513D02*
X94388488Y39099206D01*
X94491000Y39346693D02*
X94491000Y41114611D01*
X60680000Y44194000D02*
X60781066Y44092934D01*
X94637447Y41468165D02*
X94951836Y41782554D01*
X60781066Y44092934D02*
G75*
G03*
X60887132Y44049023I106034J106066D01*
G01*
X93898488Y29609206D02*
G75*
G03*
X94001005Y29856693I-247488J247494D01*
G01*
X94001000Y30513307D02*
G75*
G03*
X93898483Y30760791I-350000J-7D01*
G01*
X83099000Y32106693D02*
G75*
G03*
X83201517Y31859209I350000J7D01*
G01*
X87459206Y27601512D02*
G75*
G03*
X87706693Y27498995I247494J247488D01*
G01*
X93650794Y31008488D02*
G75*
G03*
X93403307Y31111005I-247494J-247488D01*
G01*
X92461000Y37794611D02*
G75*
G02*
X92607453Y38148159I500000J-11D01*
G01*
X94388488Y39099206D02*
G75*
G03*
X94491005Y39346693I-247488J247494D01*
G01*
X98749368Y44661500D02*
G75*
G03*
X98855450Y44705418I32J150000D01*
G01*
X96003307Y41929000D02*
G75*
G03*
X96250791Y42031517I-7J350000D01*
G01*
X92991836Y38532554D02*
G75*
G02*
X93345389Y38679008I353564J-353554D01*
G01*
X96928488Y42709206D02*
G75*
G03*
X97031005Y42956693I-247488J247494D01*
G01*
X94491000Y41114611D02*
G75*
G02*
X94637453Y41468159I500000J-11D01*
G01*
X82952554Y34808164D02*
G75*
G02*
X83099008Y34454611I-353554J-353564D01*
G01*
X91643307Y27499000D02*
G75*
G03*
X91890791Y27601517I-7J350000D01*
G01*
X73504611Y44049000D02*
G75*
G02*
X73858159Y43902547I-11J-500000D01*
G01*
X97504336Y44515054D02*
G75*
G02*
X97857889Y44661508I353564J-353554D01*
G01*
X97031000Y43834611D02*
G75*
G02*
X97177453Y44188159I500000J-11D01*
G01*
X94951836Y41782554D02*
G75*
G02*
X95305389Y41929008I353564J-353554D01*
G01*
X93823307Y38679000D02*
G75*
G03*
X94070791Y38781517I-7J350000D01*
G01*
X93175389Y31111000D02*
G75*
G02*
X92821841Y31257453I11J500000D01*
G01*
X92607446Y31471836D02*
G75*
G02*
X92460992Y31825389I353554J353564D01*
G01*
%TO.N,PCIE0_TX1_N*%
X59075389Y42171000D02*
X61873307Y42171000D01*
X92608165Y26047447D02*
X95472554Y28911836D01*
X97701513Y40990795D02*
X97971706Y41260988D01*
X63035389Y41361000D02*
X73183307Y41361000D01*
X95619000Y29265389D02*
X95619000Y31064611D01*
X97599000Y40155389D02*
X97599000Y40743307D01*
X98905434Y41319566D02*
X99000000Y41225000D01*
X94749000Y32286693D02*
X94749000Y36953307D01*
X94851513Y37200795D02*
X97452554Y39801836D01*
X81401000Y33143307D02*
X81401000Y31595389D01*
X58142110Y42692110D02*
X58285040Y42692110D01*
X98219193Y41363500D02*
X98799368Y41363500D01*
X58391106Y42648176D02*
X58721836Y42317446D01*
X62120795Y42068487D02*
X62681836Y41507446D01*
X73430795Y41258487D02*
X81298488Y33390794D01*
X81547447Y31241835D02*
X86741836Y26047446D01*
X95472553Y31418165D02*
X94851512Y32039206D01*
X87095389Y25901000D02*
X92254611Y25901000D01*
X94749000Y32286693D02*
G75*
G03*
X94851516Y32039210I350000J7D01*
G01*
X95619000Y31064611D02*
G75*
G03*
X95472547Y31418159I-500000J-11D01*
G01*
X81401000Y31595389D02*
G75*
G03*
X81547453Y31241841I500000J11D01*
G01*
X61873307Y42171000D02*
G75*
G02*
X62120791Y42068483I-7J-350000D01*
G01*
X81401000Y33143307D02*
G75*
G03*
X81298484Y33390790I-350000J-7D01*
G01*
X73183307Y41361000D02*
G75*
G02*
X73430791Y41258483I-7J-350000D01*
G01*
X59075389Y42171000D02*
G75*
G02*
X58721842Y42317452I11J500000D01*
G01*
X92608165Y26047447D02*
G75*
G02*
X92254611Y25900992I-353565J353553D01*
G01*
X97971706Y41260988D02*
G75*
G02*
X98219193Y41363505I247494J-247488D01*
G01*
X98905434Y41319566D02*
G75*
G03*
X98799368Y41363477I-106034J-106066D01*
G01*
X86741836Y26047446D02*
G75*
G03*
X87095389Y25900992I353564J353554D01*
G01*
X58285040Y42692110D02*
G75*
G02*
X58391088Y42648158I-40J-150010D01*
G01*
X94749000Y36953307D02*
G75*
G02*
X94851517Y37200791I350000J-7D01*
G01*
X97599000Y40155389D02*
G75*
G02*
X97452548Y39801842I-500000J11D01*
G01*
X95472554Y28911836D02*
G75*
G03*
X95619008Y29265389I-353554J353564D01*
G01*
X97701513Y40990795D02*
G75*
G03*
X97598995Y40743307I247487J-247495D01*
G01*
X63035389Y41361000D02*
G75*
G02*
X62681842Y41507452I11J500000D01*
G01*
%TO.N,PCIE0_TX1_P*%
X58557890Y42964960D02*
X58557890Y43107890D01*
X97804336Y41515054D02*
X97447447Y41158165D01*
X99000000Y41800000D02*
X98905434Y41705434D01*
X94451000Y33991000D02*
X94451000Y32225389D01*
X61934611Y42469000D02*
X59136693Y42469000D01*
X92193307Y26199000D02*
X87156693Y26199000D01*
X62849206Y41761512D02*
X62288165Y42322553D01*
X94276000Y34516000D02*
X94273912Y34516000D01*
X58889206Y42571512D02*
X58601824Y42858894D01*
X94597446Y31871836D02*
X95218487Y31250795D01*
X98799368Y41661500D02*
X98157889Y41661500D01*
X94451000Y37014611D02*
X94451000Y34691000D01*
X97198488Y39969206D02*
X94597447Y37368165D01*
X94273912Y34166000D02*
X94276000Y34166000D01*
X95321000Y31003307D02*
X95321000Y29326693D01*
X95218488Y29079206D02*
X92440795Y26301513D01*
X63659000Y41659000D02*
X63096693Y41659000D01*
X81699000Y31656693D02*
X81699000Y33204611D01*
X86909206Y26301512D02*
X81801513Y31409205D01*
X73244611Y41659000D02*
X64759000Y41659000D01*
X81552554Y33558164D02*
X73598165Y41512553D01*
X64259000Y42159000D02*
X64159000Y42159000D01*
X97301000Y40804611D02*
X97301000Y40216693D01*
X81801513Y31409205D02*
G75*
G02*
X81698995Y31656693I247487J247495D01*
G01*
X94597447Y37368165D02*
G75*
G03*
X94450992Y37014611I353553J-353565D01*
G01*
X97447447Y41158165D02*
G75*
G03*
X97300992Y40804611I353553J-353565D01*
G01*
X94451000Y32225389D02*
G75*
G03*
X94597452Y31871842I500000J11D01*
G01*
X58601824Y42858894D02*
G75*
G02*
X58557865Y42964960I106076J106106D01*
G01*
X97301000Y40216693D02*
G75*
G02*
X97198484Y39969210I-350000J7D01*
G01*
X81699000Y33204611D02*
G75*
G03*
X81552548Y33558158I-500000J-11D01*
G01*
X62288165Y42322553D02*
G75*
G03*
X61934611Y42469008I-353565J-353553D01*
G01*
X63909000Y41909000D02*
G75*
G02*
X63659000Y41659000I-250000J0D01*
G01*
X98157889Y41661500D02*
G75*
G03*
X97804342Y41515048I11J-500000D01*
G01*
X87156693Y26199000D02*
G75*
G02*
X86909210Y26301516I7J350000D01*
G01*
X59136693Y42469000D02*
G75*
G02*
X58889210Y42571516I7J350000D01*
G01*
X94273912Y34516000D02*
G75*
G03*
X94098900Y34341000I-12J-175000D01*
G01*
X64159000Y42159000D02*
G75*
G03*
X63909000Y41909000I0J-250000D01*
G01*
X98905434Y41705434D02*
G75*
G02*
X98799368Y41661523I-106034J106066D01*
G01*
X73598165Y41512553D02*
G75*
G03*
X73244611Y41659008I-353565J-353553D01*
G01*
X94451000Y34691000D02*
G75*
G02*
X94276000Y34516000I-175000J0D01*
G01*
X94098912Y34341000D02*
G75*
G03*
X94273912Y34166012I174988J0D01*
G01*
X95321000Y29326693D02*
G75*
G02*
X95218484Y29079210I-350000J7D01*
G01*
X64509000Y41909000D02*
G75*
G03*
X64259000Y42159000I-250000J0D01*
G01*
X95218487Y31250795D02*
G75*
G02*
X95321005Y31003307I-247487J-247495D01*
G01*
X94276000Y34166000D02*
G75*
G02*
X94451000Y33991000I0J-175000D01*
G01*
X63096693Y41659000D02*
G75*
G02*
X62849210Y41761516I7J350000D01*
G01*
X64759000Y41659000D02*
G75*
G02*
X64509000Y41909000I0J250000D01*
G01*
X92440795Y26301513D02*
G75*
G02*
X92193307Y26198995I-247495J247487D01*
G01*
%TO.N,PCIE0_TX2_N*%
X97502553Y28491835D02*
X91058164Y22047446D01*
X90704611Y21901000D02*
X87995389Y21901000D01*
X99150000Y38203000D02*
X99045934Y38307066D01*
X79851000Y30045389D02*
X79851000Y32693307D01*
X87641835Y22047447D02*
X79997446Y29691836D01*
X98159205Y38248487D02*
X97751512Y37840794D01*
X79748487Y32940795D02*
X72890794Y39798488D01*
X72643307Y39901000D02*
X59245389Y39901000D01*
X97649000Y37593307D02*
X97649000Y28845389D01*
X98939868Y38351000D02*
X98406693Y38351000D01*
X58891835Y40047447D02*
X55791106Y43148176D01*
X55685040Y43192110D02*
X55542110Y43192110D01*
X55791106Y43148176D02*
G75*
G03*
X55685040Y43192135I-106106J-106076D01*
G01*
X98159205Y38248487D02*
G75*
G02*
X98406693Y38351005I247495J-247487D01*
G01*
X72890794Y39798488D02*
G75*
G03*
X72643307Y39901005I-247494J-247488D01*
G01*
X91058164Y22047446D02*
G75*
G02*
X90704611Y21900992I-353564J353554D01*
G01*
X79851000Y32693307D02*
G75*
G03*
X79748483Y32940791I-350000J-7D01*
G01*
X99045934Y38307066D02*
G75*
G03*
X98939868Y38350977I-106034J-106066D01*
G01*
X79851000Y30045389D02*
G75*
G03*
X79997452Y29691842I500000J11D01*
G01*
X97751512Y37840794D02*
G75*
G03*
X97648995Y37593307I247488J-247494D01*
G01*
X59245389Y39901000D02*
G75*
G02*
X58891841Y40047453I11J500000D01*
G01*
X87995389Y21901000D02*
G75*
G02*
X87641841Y22047453I11J500000D01*
G01*
X97502553Y28491835D02*
G75*
G03*
X97649008Y28845389I-353553J353565D01*
G01*
%TO.N,PCIE0_TX2_P*%
X86361945Y24390475D02*
X86182515Y24211046D01*
X59059206Y40301512D02*
X56001824Y43358894D01*
X97991836Y38502554D02*
X97497447Y38008165D01*
X99150000Y38797000D02*
X99045934Y38692934D01*
X87809206Y22301512D02*
X86465359Y23645359D01*
X55957890Y43464960D02*
X55957890Y43607890D01*
X86465359Y23928202D02*
X86644788Y24107632D01*
X98939868Y38649000D02*
X98345389Y38649000D01*
X97351000Y37654611D02*
X97351000Y28906693D01*
X97248488Y28659206D02*
X90890795Y22301513D01*
X90643307Y22199000D02*
X88056693Y22199000D01*
X86361945Y24390476D02*
X86361945Y24390475D01*
X85899672Y24211046D02*
X80251513Y29859205D01*
X86465358Y23928202D02*
X86465359Y23928202D01*
X72704611Y40199000D02*
X59306693Y40199000D01*
X80002554Y33108164D02*
X73058165Y40052553D01*
X80149000Y30106693D02*
X80149000Y32754611D01*
X86644789Y24390475D02*
X86644788Y24390475D01*
X85899672Y24211045D02*
X85899672Y24211046D01*
X80251513Y29859205D02*
G75*
G02*
X80148995Y30106693I247487J247495D01*
G01*
X86182515Y24211046D02*
G75*
G02*
X85899679Y24211052I-141415J141454D01*
G01*
X99045934Y38692934D02*
G75*
G02*
X98939868Y38649023I-106034J106066D01*
G01*
X80149000Y32754611D02*
G75*
G03*
X80002548Y33108158I-500000J-11D01*
G01*
X97351000Y28906693D02*
G75*
G02*
X97248484Y28659210I-350000J7D01*
G01*
X86644788Y24107632D02*
G75*
G03*
X86644835Y24390521I-141388J141468D01*
G01*
X90890795Y22301513D02*
G75*
G02*
X90643307Y22198995I-247495J247487D01*
G01*
X86465359Y23645359D02*
G75*
G02*
X86465339Y23928221I141441J141441D01*
G01*
X98345389Y38649000D02*
G75*
G03*
X97991842Y38502548I11J-500000D01*
G01*
X86644788Y24390475D02*
G75*
G03*
X86361979Y24390442I-141388J-141375D01*
G01*
X56001824Y43358894D02*
G75*
G02*
X55957865Y43464960I106076J106106D01*
G01*
X97497447Y38008165D02*
G75*
G03*
X97350992Y37654611I353553J-353565D01*
G01*
X59306693Y40199000D02*
G75*
G02*
X59059210Y40301516I7J350000D01*
G01*
X88056693Y22199000D02*
G75*
G02*
X87809210Y22301516I7J350000D01*
G01*
X73058165Y40052553D02*
G75*
G03*
X72704611Y40199008I-353565J-353553D01*
G01*
%TO.N,PCIE0_TX3_N*%
X60806000Y35674000D02*
X60806000Y35679637D01*
X98650000Y35203000D02*
X98754066Y35307066D01*
X100145325Y34543957D02*
X100145324Y34543958D01*
X53092934Y41548934D02*
X53194000Y41650000D01*
X99739910Y34421385D02*
X99862482Y34543958D01*
X60256000Y35679637D02*
X60256000Y35674000D01*
X76299000Y29656693D02*
X76299000Y31504611D01*
X58609206Y35501512D02*
X53151513Y40959205D01*
X99579640Y34826798D02*
X99579641Y34826799D01*
X99457069Y34421384D02*
X99457068Y34421385D01*
X72404611Y35399000D02*
X61081000Y35399000D01*
X99739911Y34421386D02*
X99739910Y34421385D01*
X76152554Y31858164D02*
X72758165Y35252553D01*
X59981000Y35399000D02*
X58856693Y35399000D01*
X100951000Y33593307D02*
X100951000Y28306693D01*
X92093307Y19449000D02*
X86506693Y19449000D01*
X53049000Y41206693D02*
X53049000Y41442868D01*
X99579641Y34826799D02*
X99457068Y34704227D01*
X98860132Y35351000D02*
X99193307Y35351000D01*
X99440794Y35248488D02*
X99579641Y35109641D01*
X100848488Y28059206D02*
X92340795Y19551513D01*
X86259206Y19551512D02*
X76401513Y29409205D01*
X100145324Y34543958D02*
X100848487Y33840795D01*
X100848487Y33840795D02*
G75*
G02*
X100951005Y33593307I-247487J-247495D01*
G01*
X76401513Y29409205D02*
G75*
G02*
X76298995Y29656693I247487J247495D01*
G01*
X99579641Y35109641D02*
G75*
G02*
X99579660Y34826778I-141441J-141441D01*
G01*
X60256000Y35674000D02*
G75*
G02*
X59981000Y35399000I-275000J0D01*
G01*
X98754066Y35307066D02*
G75*
G02*
X98860132Y35350977I106034J-106066D01*
G01*
X92340795Y19551513D02*
G75*
G02*
X92093307Y19448995I-247495J247487D01*
G01*
X99193307Y35351000D02*
G75*
G02*
X99440790Y35248484I-7J-350000D01*
G01*
X60806000Y35679637D02*
G75*
G03*
X60531000Y35954600I-275000J-37D01*
G01*
X61081000Y35399000D02*
G75*
G02*
X60806000Y35674000I0J275000D01*
G01*
X99862482Y34543958D02*
G75*
G02*
X100145322Y34543954I141418J-141458D01*
G01*
X53049000Y41442868D02*
G75*
G02*
X53092918Y41548950I150000J32D01*
G01*
X76299000Y31504611D02*
G75*
G03*
X76152548Y31858158I-500000J-11D01*
G01*
X58856693Y35399000D02*
G75*
G02*
X58609210Y35501516I7J350000D01*
G01*
X72758165Y35252553D02*
G75*
G03*
X72404611Y35399008I-353565J-353553D01*
G01*
X53151513Y40959205D02*
G75*
G02*
X53048995Y41206693I247487J247495D01*
G01*
X86506693Y19449000D02*
G75*
G02*
X86259210Y19551516I7J350000D01*
G01*
X100951000Y28306693D02*
G75*
G02*
X100848484Y28059210I-350000J7D01*
G01*
X99457068Y34704227D02*
G75*
G03*
X99457063Y34421378I141432J-141427D01*
G01*
X60531000Y35954637D02*
G75*
G03*
X60255963Y35679637I0J-275037D01*
G01*
X99457068Y34421385D02*
G75*
G03*
X99739922Y34421375I141432J141415D01*
G01*
%TO.N,PCIE0_TX3_P*%
X76001000Y29595389D02*
X76001000Y31443307D01*
X101102553Y27891835D02*
X92508164Y19297446D01*
X86091835Y19297447D02*
X76147446Y29241836D01*
X52707066Y41548934D02*
X52606000Y41650000D01*
X92154611Y19151000D02*
X86445389Y19151000D01*
X72343307Y35101000D02*
X58795389Y35101000D01*
X58441835Y35247447D02*
X52897446Y40791836D01*
X98860132Y35649000D02*
X99254611Y35649000D01*
X98650000Y35797000D02*
X98754066Y35692934D01*
X52751000Y41145389D02*
X52751000Y41442868D01*
X99608165Y35502553D02*
X101102554Y34008164D01*
X75898487Y31690795D02*
X72590794Y34998488D01*
X101249000Y33654611D02*
X101249000Y28245389D01*
X58795389Y35101000D02*
G75*
G02*
X58441841Y35247453I11J500000D01*
G01*
X76001000Y29595389D02*
G75*
G03*
X76147452Y29241842I500000J11D01*
G01*
X101102554Y34008164D02*
G75*
G02*
X101249008Y33654611I-353554J-353564D01*
G01*
X99254611Y35649000D02*
G75*
G02*
X99608159Y35502547I-11J-500000D01*
G01*
X52707066Y41548934D02*
G75*
G02*
X52750977Y41442868I-106066J-106034D01*
G01*
X76001000Y31443307D02*
G75*
G03*
X75898483Y31690791I-350000J-7D01*
G01*
X98860132Y35649000D02*
G75*
G02*
X98754050Y35692918I-32J150000D01*
G01*
X86091835Y19297447D02*
G75*
G03*
X86445389Y19150992I353565J353553D01*
G01*
X52897446Y40791836D02*
G75*
G02*
X52750992Y41145389I353554J353564D01*
G01*
X92508164Y19297446D02*
G75*
G02*
X92154611Y19150992I-353564J353554D01*
G01*
X72343307Y35101000D02*
G75*
G02*
X72590790Y34998484I-7J-350000D01*
G01*
X101102553Y27891835D02*
G75*
G03*
X101249008Y28245389I-353553J353565D01*
G01*
%TO.N,USBSS0_TX_P*%
X54605000Y29589282D02*
X54605000Y29400000D01*
X45661718Y51051000D02*
X45349000Y50738282D01*
X45349000Y46261718D02*
X56099000Y35511718D01*
X45349000Y49571000D02*
X45349000Y46261718D01*
X45349000Y50738282D02*
X45349000Y50371000D01*
X56099000Y31083282D02*
X54605000Y29589282D01*
X56099000Y35511718D02*
X56099000Y31083282D01*
X45550518Y49771000D02*
X45549000Y49771000D01*
X45549000Y50171000D02*
X45550518Y50171000D01*
X46500000Y50903000D02*
X46352000Y51051000D01*
X46352000Y51051000D02*
X45661718Y51051000D01*
X45550518Y50171000D02*
G75*
G02*
X45750500Y49971000I-18J-200000D01*
G01*
X45349000Y50371000D02*
G75*
G03*
X45549000Y50171000I200000J0D01*
G01*
X45750518Y49971000D02*
G75*
G02*
X45550518Y49770982I-200018J0D01*
G01*
X45549000Y49771000D02*
G75*
G03*
X45349000Y49571000I0J-200000D01*
G01*
%TO.N,PCIE1_TX0_N*%
X91543307Y20899000D02*
X87356693Y20899000D01*
X87109205Y21001513D02*
X78751512Y29359206D01*
X98847172Y32642110D02*
X99448488Y32040794D01*
X73004611Y37899000D02*
X66159000Y37899000D01*
X99551000Y29821000D02*
X99551000Y28906693D01*
X99551000Y31793307D02*
X99551000Y30671000D01*
X78649000Y29606693D02*
X78649000Y32254611D01*
X78502553Y32608165D02*
X73358164Y37752554D01*
X65159000Y37899000D02*
X59406693Y37899000D01*
X59159205Y38001513D02*
X53126824Y44033894D01*
X98847172Y32642110D02*
X98642110Y32642110D01*
X99448487Y28659205D02*
X91790794Y21001512D01*
X99551000Y29871000D02*
X99551000Y29821000D01*
X99351000Y30471000D02*
X99141807Y30471000D01*
X53082890Y44139960D02*
X53082890Y44282890D01*
X99141807Y30071000D02*
X99351000Y30071000D01*
X66159000Y37899000D02*
G75*
G02*
X65909000Y38149000I0J250000D01*
G01*
X78649000Y32254611D02*
G75*
G03*
X78502547Y32608159I-500000J-11D01*
G01*
X99551000Y28906693D02*
G75*
G02*
X99448483Y28659209I-350000J7D01*
G01*
X53126824Y44033894D02*
G75*
G02*
X53082865Y44139960I106076J106106D01*
G01*
X91790794Y21001512D02*
G75*
G02*
X91543307Y20898995I-247494J247488D01*
G01*
X73358164Y37752554D02*
G75*
G03*
X73004611Y37899008I-353564J-353554D01*
G01*
X99551000Y30671000D02*
G75*
G02*
X99351000Y30471000I-200000J0D01*
G01*
X59406693Y37899000D02*
G75*
G02*
X59159209Y38001517I7J350000D01*
G01*
X99448488Y32040794D02*
G75*
G02*
X99551005Y31793307I-247488J-247494D01*
G01*
X65909000Y38149000D02*
G75*
G03*
X65659000Y38399000I-250000J0D01*
G01*
X98941807Y30271000D02*
G75*
G03*
X99141807Y30071007I199993J0D01*
G01*
X99141807Y30471000D02*
G75*
G03*
X98941800Y30271000I-7J-200000D01*
G01*
X99351000Y30071000D02*
G75*
G02*
X99551000Y29871000I0J-200000D01*
G01*
X78751512Y29359206D02*
G75*
G02*
X78648995Y29606693I247488J247494D01*
G01*
X65409000Y38149000D02*
G75*
G02*
X65159000Y37899000I-250000J0D01*
G01*
X65659000Y38399000D02*
G75*
G03*
X65409000Y38149000I0J-250000D01*
G01*
X87356693Y20899000D02*
G75*
G02*
X87109209Y21001517I7J350000D01*
G01*
%TO.N,PCIE1_TX0_P*%
X99849000Y28845389D02*
X99849000Y31854611D01*
X52810040Y43867110D02*
X52667110Y43867110D01*
X99057890Y32852828D02*
X99702554Y32208164D01*
X58991835Y37747447D02*
X52916106Y43823176D01*
X99702553Y28491835D02*
X91958164Y20747446D01*
X91604611Y20601000D02*
X87295389Y20601000D01*
X86941835Y20747447D02*
X78497446Y29191836D01*
X78248487Y32440795D02*
X73190794Y37498488D01*
X72943307Y37601000D02*
X59345389Y37601000D01*
X78351000Y29545389D02*
X78351000Y32193307D01*
X99057890Y32852828D02*
X99057890Y33057890D01*
X99849000Y31854611D02*
G75*
G03*
X99702548Y32208158I-500000J-11D01*
G01*
X78248487Y32440795D02*
G75*
G02*
X78351005Y32193307I-247487J-247495D01*
G01*
X73190794Y37498488D02*
G75*
G03*
X72943307Y37601005I-247494J-247488D01*
G01*
X78497446Y29191836D02*
G75*
G02*
X78350992Y29545389I353554J353564D01*
G01*
X91958164Y20747446D02*
G75*
G02*
X91604611Y20600992I-353564J353554D01*
G01*
X58991835Y37747447D02*
G75*
G03*
X59345389Y37600992I353565J353553D01*
G01*
X87295389Y20601000D02*
G75*
G02*
X86941841Y20747453I11J500000D01*
G01*
X99849000Y28845389D02*
G75*
G02*
X99702547Y28491841I-500000J11D01*
G01*
X52810040Y43867110D02*
G75*
G02*
X52916088Y43823158I-40J-150010D01*
G01*
D28*
%TO.N,UART1_TXD*%
X38850000Y50107108D02*
X38850000Y56050000D01*
X118400000Y26950000D02*
X117325000Y26950000D01*
X107320000Y28300000D02*
X107320000Y26800000D01*
X105860000Y25940000D02*
X95420000Y15500000D01*
X106460000Y25940000D02*
X105860000Y25940000D01*
X36900000Y40320000D02*
X38550000Y41970000D01*
X43850000Y57630000D02*
X43850000Y59300000D01*
X107320000Y26800000D02*
X106460000Y25940000D01*
X95420000Y15500000D02*
X78550000Y15500000D01*
X43390000Y57170000D02*
X43850000Y57630000D01*
X71500000Y24600000D02*
X60900000Y24600000D01*
X116925000Y28125000D02*
X116225000Y28825000D01*
X48050000Y24750000D02*
X43290000Y29510000D01*
X118700000Y27250000D02*
X118400000Y26950000D01*
X38550000Y41970000D02*
X38550000Y49807108D01*
X43290000Y29510000D02*
X43290000Y30235000D01*
X59850000Y23550000D02*
X55950000Y23550000D01*
X38850000Y56050000D02*
X39970000Y57170000D01*
X39970000Y57170000D02*
X43390000Y57170000D01*
X54750000Y24750000D02*
X48050000Y24750000D01*
X117325000Y26950000D02*
X116925000Y27350000D01*
X43290000Y30235000D02*
X40550000Y32975000D01*
X76400000Y19700000D02*
X71500000Y24600000D01*
X116925000Y27350000D02*
X116925000Y28125000D01*
X40550000Y35242892D02*
X38992892Y36800000D01*
X60900000Y24600000D02*
X59850000Y23550000D01*
X76400000Y17650000D02*
X76400000Y19700000D01*
X38992892Y36800000D02*
X37500000Y36800000D01*
X116225000Y28825000D02*
X107845000Y28825000D01*
X78550000Y15500000D02*
X76400000Y17650000D01*
X40550000Y32975000D02*
X40550000Y35242892D01*
X38550000Y49807108D02*
X38850000Y50107108D01*
X55950000Y23550000D02*
X54750000Y24750000D01*
X107845000Y28825000D02*
X107320000Y28300000D01*
X36900000Y37400000D02*
X36900000Y40320000D01*
X37500000Y36800000D02*
X36900000Y37400000D01*
%TO.N,UART1_RXD*%
X60953554Y24300000D02*
X71400000Y24300000D01*
X38600000Y50210662D02*
X38300000Y49910662D01*
X38300000Y42090000D02*
X36650000Y40440000D01*
X95540000Y15200000D02*
X105980000Y25640000D01*
X106840000Y25640000D02*
X107340000Y26140000D01*
X36650000Y40440000D02*
X36650000Y37296446D01*
X55800000Y23300000D02*
X59953554Y23300000D01*
X105980000Y25640000D02*
X106840000Y25640000D01*
X38600000Y56250000D02*
X38600000Y50210662D01*
X40250000Y35189338D02*
X40250000Y32825000D01*
X42975000Y30100000D02*
X42975000Y29425000D01*
X54650000Y24450000D02*
X55800000Y23300000D01*
X39800000Y57450000D02*
X38600000Y56250000D01*
X38889338Y36550000D02*
X40250000Y35189338D01*
X43350000Y58950000D02*
X43350000Y57790000D01*
X42975000Y29425000D02*
X47950000Y24450000D01*
X76105000Y17545000D02*
X78450000Y15200000D01*
X36650000Y37296446D02*
X37396446Y36550000D01*
X71400000Y24300000D02*
X76105000Y19595000D01*
X59953554Y23300000D02*
X60953554Y24300000D01*
X38300000Y49910662D02*
X38300000Y42090000D01*
X43350000Y57790000D02*
X43010000Y57450000D01*
X78450000Y15200000D02*
X95540000Y15200000D01*
X37396446Y36550000D02*
X38889338Y36550000D01*
X76105000Y19595000D02*
X76105000Y17545000D01*
X47950000Y24450000D02*
X54650000Y24450000D01*
X40250000Y32825000D02*
X42975000Y30100000D01*
X43010000Y57450000D02*
X39800000Y57450000D01*
%TO.N,FAN_TACH*%
X24765000Y29005000D02*
X27210000Y26560000D01*
X26170000Y41930000D02*
X26170000Y38356446D01*
X27170000Y42930000D02*
X26170000Y41930000D01*
X28250000Y41360000D02*
X28250000Y42600000D01*
X27920000Y42930000D02*
X27170000Y42930000D01*
X33496800Y50503200D02*
X33496800Y51403200D01*
X28780000Y40830000D02*
X28250000Y41360000D01*
X31150000Y51450000D02*
X31150000Y41840000D01*
X24765000Y36951446D02*
X24765000Y29005000D01*
X26170000Y38356446D02*
X24765000Y36951446D01*
X28250000Y42600000D02*
X27920000Y42930000D01*
X27210000Y26560000D02*
X27210000Y25220000D01*
X31150000Y41840000D02*
X30140000Y40830000D01*
X33150000Y51750000D02*
X31450000Y51750000D01*
X33496800Y51403200D02*
X33150000Y51750000D01*
X31450000Y51750000D02*
X31150000Y51450000D01*
X30140000Y40830000D02*
X28780000Y40830000D01*
%TO.N,I2S1_SDOUT*%
X41250000Y29525000D02*
X38790000Y31985000D01*
X60550000Y21200000D02*
X55900000Y21200000D01*
X55900000Y21200000D02*
X53900000Y23200000D01*
X38790000Y34881568D02*
X38371566Y35300002D01*
X35400000Y41010000D02*
X37000000Y42610000D01*
X38790000Y31985000D02*
X38790000Y34881568D01*
X60700688Y21350688D02*
X60550000Y21200000D01*
X41250000Y29150000D02*
X41250000Y29525000D01*
X62350688Y21350688D02*
X60700688Y21350688D01*
X45700000Y23200000D02*
X44750000Y24150000D01*
X38371566Y35300002D02*
X36878676Y35300002D01*
X44750000Y25650000D02*
X41250000Y29150000D01*
X53900000Y23200000D02*
X45700000Y23200000D01*
X37000000Y42610000D02*
X37000000Y46050000D01*
X44750000Y24150000D02*
X44750000Y25650000D01*
X35400000Y36778681D02*
X35400000Y41010000D01*
X37000000Y46050000D02*
X36450000Y46600000D01*
X36878676Y35300002D02*
X35400000Y36778681D01*
X36450000Y46600000D02*
X36450000Y50462000D01*
X36450000Y50462000D02*
X36538000Y50550000D01*
%TO.N,I2S1_SDIN*%
X41560000Y29240000D02*
X41560000Y29640000D01*
X41560000Y29640000D02*
X39080000Y32120000D01*
X36950500Y50250500D02*
X36950500Y50899500D01*
X38475121Y35550001D02*
X36982230Y35550001D01*
X37250000Y42500000D02*
X37250000Y46205818D01*
X61914500Y21800167D02*
X60650167Y21800167D01*
X36800000Y51050000D02*
X36800000Y51449500D01*
X36700000Y50000000D02*
X36950500Y50250500D01*
X45650000Y25150000D02*
X41560000Y29240000D01*
X36800000Y51449500D02*
X36800500Y51450000D01*
X60650167Y21800167D02*
X60300000Y21450000D01*
X46350000Y23450000D02*
X45650000Y24150000D01*
X35650000Y40900000D02*
X37250000Y42500000D01*
X36982230Y35550001D02*
X35650000Y36882234D01*
X36950500Y50899500D02*
X36800000Y51050000D01*
X39080000Y32120000D02*
X39080000Y34945122D01*
X35650000Y36882234D02*
X35650000Y40900000D01*
X37250000Y46205818D02*
X36700000Y46755818D01*
X45650000Y24150000D02*
X45650000Y25150000D01*
X56050000Y21450000D02*
X54050000Y23450000D01*
X36700000Y46755818D02*
X36700000Y50000000D01*
X60300000Y21450000D02*
X56050000Y21450000D01*
X54050000Y23450000D02*
X46350000Y23450000D01*
X39080000Y34945122D02*
X38475121Y35550001D01*
%TO.N,I2S1_LRCK*%
X37550000Y42440000D02*
X37550000Y48300000D01*
X56200000Y21700000D02*
X54200000Y23700000D01*
X37550000Y48300000D02*
X37212500Y48637500D01*
X37085784Y35800000D02*
X35900000Y36985787D01*
X35900000Y36985787D02*
X35900000Y40790000D01*
X37212500Y51712166D02*
X37387917Y51887583D01*
X39350000Y35028676D02*
X38578676Y35800000D01*
X41900000Y29775000D02*
X39350000Y32325000D01*
X41900000Y29300000D02*
X41900000Y29775000D01*
X35900000Y40790000D02*
X37550000Y42440000D01*
X60150000Y21700000D02*
X56200000Y21700000D01*
X39350000Y32325000D02*
X39350000Y35028676D01*
X62400000Y22212167D02*
X60662167Y22212167D01*
X38578676Y35800000D02*
X37085784Y35800000D01*
X46500000Y23700000D02*
X45950000Y24250000D01*
X54200000Y23700000D02*
X46500000Y23700000D01*
X45950000Y24250000D02*
X45950000Y25250000D01*
X60662167Y22212167D02*
X60150000Y21700000D01*
X45950000Y25250000D02*
X41900000Y29300000D01*
X37212500Y48637500D02*
X37212500Y51712166D01*
%TO.N,I2S1_SCLK*%
X39650000Y32475000D02*
X39650000Y35082230D01*
X61914500Y22648533D02*
X60698533Y22648533D01*
X37800000Y48800000D02*
X37671691Y48928309D01*
X54350000Y23950000D02*
X47650000Y23950000D01*
X56350000Y21950000D02*
X54350000Y23950000D01*
X47650000Y23950000D02*
X42250000Y29350000D01*
X37671691Y48928309D02*
X37671691Y50727398D01*
X36150000Y37089340D02*
X36150000Y40680000D01*
X37800000Y42330000D02*
X37800000Y48800000D01*
X60698533Y22648533D02*
X60000000Y21950000D01*
X37189338Y36050000D02*
X36150000Y37089340D01*
X60000000Y21950000D02*
X56350000Y21950000D01*
X36150000Y40680000D02*
X37800000Y42330000D01*
X42250000Y29875000D02*
X39650000Y32475000D01*
X42250000Y29350000D02*
X42250000Y29875000D01*
X38682230Y36050000D02*
X37189338Y36050000D01*
X39650000Y35082230D02*
X38682230Y36050000D01*
D25*
%TO.N,PCIE3_CLK_N*%
X85856693Y17999000D02*
X93318307Y17999000D01*
X74351512Y29209206D02*
X77802553Y25758165D01*
X52032289Y28178428D02*
X52234618Y27976100D01*
X42226512Y41884206D02*
X43009205Y41101513D01*
X51973192Y28967860D02*
X52032289Y28908763D01*
X42247000Y51525000D02*
X42167934Y51445934D01*
X113940794Y30751512D02*
X117648487Y34459205D01*
X117551000Y37862546D02*
X117551000Y38337454D01*
X48943195Y29949000D02*
X49879480Y29949000D01*
X117707066Y37582216D02*
X117638868Y37650414D01*
X44918458Y40917260D02*
X45338148Y40497570D01*
X74249000Y30304611D02*
X74249000Y29456693D01*
X52420754Y27899000D02*
X57993307Y27899000D01*
X81556693Y21499000D02*
X82004611Y21499000D01*
X78051512Y24859206D02*
X81309205Y21601513D01*
X117962546Y38749000D02*
X118186868Y38749000D01*
X52032287Y28178429D02*
X52032289Y28178428D01*
X117638868Y38549586D02*
X117750414Y38661132D01*
X77949000Y25404611D02*
X77949000Y25106693D01*
X51608026Y28967860D02*
X51608025Y28967859D01*
X117751000Y34706693D02*
X117751000Y37476150D01*
X58240794Y28001512D02*
X63721835Y33482553D01*
X43256693Y40999000D02*
X44721120Y40999000D01*
X64075389Y33629000D02*
X70924611Y33629000D01*
X42124000Y51339868D02*
X42124000Y42131693D01*
X51973193Y28967860D02*
X51973192Y28967860D01*
X45449000Y40229950D02*
X45449000Y32487545D01*
X71278164Y33482554D02*
X74102553Y30658165D01*
X93565794Y18101512D02*
X105966835Y30502553D01*
X118292934Y38792934D02*
X118420000Y38920000D01*
X51608025Y28967859D02*
X51608026Y28967859D01*
X45573328Y32187390D02*
X47011644Y30749074D01*
X50532001Y29678717D02*
X51242859Y28967859D01*
X106320389Y30649000D02*
X113693307Y30649000D01*
X82358164Y21352554D02*
X85609205Y18101513D01*
X63721835Y33482553D02*
G75*
G02*
X64075389Y33629008I353565J-353553D01*
G01*
X42124000Y42131693D02*
G75*
G03*
X42226516Y41884210I350000J7D01*
G01*
X44721120Y40999000D02*
G75*
G02*
X44918453Y40917255I-20J-279100D01*
G01*
X74249000Y29456693D02*
G75*
G03*
X74351516Y29209210I350000J7D01*
G01*
X74102553Y30658165D02*
G75*
G02*
X74249008Y30304611I-353553J-353565D01*
G01*
X85609205Y18101513D02*
G75*
G03*
X85856693Y17998995I247495J247487D01*
G01*
X82004611Y21499000D02*
G75*
G02*
X82358158Y21352548I-11J-500000D01*
G01*
X113693307Y30649000D02*
G75*
G03*
X113940790Y30751516I-7J350000D01*
G01*
X117750414Y38661132D02*
G75*
G02*
X117962546Y38748967I212086J-212132D01*
G01*
X93318307Y17999000D02*
G75*
G03*
X93565790Y18101516I-7J350000D01*
G01*
X77949000Y25106693D02*
G75*
G03*
X78051516Y24859210I350000J7D01*
G01*
X70924611Y33629000D02*
G75*
G02*
X71278158Y33482548I-11J-500000D01*
G01*
X117751000Y37476150D02*
G75*
G03*
X117707091Y37582241I-150000J50D01*
G01*
X51242859Y28967859D02*
G75*
G03*
X51607984Y28967902I182541J182541D01*
G01*
X43009205Y41101513D02*
G75*
G03*
X43256693Y40998995I247495J247487D01*
G01*
X49879480Y29949000D02*
G75*
G02*
X50532010Y29678726I20J-922800D01*
G01*
X81309205Y21601513D02*
G75*
G03*
X81556693Y21498995I247495J247487D01*
G01*
X45449000Y32487545D02*
G75*
G03*
X45573302Y32187364I424500J-45D01*
G01*
X52234618Y27976100D02*
G75*
G03*
X52420754Y27898957I186182J186100D01*
G01*
X57993307Y27899000D02*
G75*
G03*
X58240790Y28001516I-7J350000D01*
G01*
X42167934Y51445934D02*
G75*
G03*
X42124023Y51339868I106066J-106034D01*
G01*
X105966835Y30502553D02*
G75*
G02*
X106320389Y30649008I353565J-353553D01*
G01*
X77802553Y25758165D02*
G75*
G02*
X77949008Y25404611I-353553J-353565D01*
G01*
X45338148Y40497570D02*
G75*
G02*
X45449027Y40229950I-267648J-267670D01*
G01*
X117648487Y34459205D02*
G75*
G03*
X117751005Y34706693I-247487J247495D01*
G01*
X47011644Y30749074D02*
G75*
G03*
X48943195Y29948989I1931556J1931526D01*
G01*
X117551000Y38337454D02*
G75*
G02*
X117638845Y38549609I300000J46D01*
G01*
X52032289Y28908763D02*
G75*
G02*
X52032268Y28543616I-182589J-182563D01*
G01*
X52032288Y28543596D02*
G75*
G03*
X52032275Y28178417I182612J-182596D01*
G01*
X51608026Y28967859D02*
G75*
G02*
X51973183Y28967850I182574J-182559D01*
G01*
X118186868Y38749000D02*
G75*
G03*
X118292950Y38792918I32J150000D01*
G01*
X117638868Y37650414D02*
G75*
G02*
X117551033Y37862546I212132J212086D01*
G01*
%TO.N,PCIE3_CLK_P*%
X73951000Y30243307D02*
X73951000Y29395389D01*
X52381526Y27601000D02*
X58054611Y27601000D01*
X41972446Y41716836D02*
X42841835Y40847447D01*
X77651000Y25343307D02*
X77651000Y25045389D01*
X45151000Y40221861D02*
X45151000Y32436897D01*
X118332934Y38407066D02*
X118420000Y38320000D01*
X45326797Y32012485D02*
X46826832Y30512450D01*
X64136693Y33331000D02*
X70863307Y33331000D01*
X74097446Y29041836D02*
X77548487Y25590795D01*
X58408164Y27747446D02*
X63889205Y33228487D01*
X114108164Y30497446D02*
X117902553Y34291835D01*
X48906555Y29651000D02*
X49836688Y29651000D01*
X41670000Y51520000D02*
X41782066Y51407934D01*
X118049000Y34645389D02*
X118049000Y37537454D01*
X44742572Y40671710D02*
X45121711Y40292571D01*
X117892934Y38382216D02*
X117917784Y38407066D01*
X71110794Y33228488D02*
X73848487Y30490795D01*
X82190794Y21098488D02*
X85441835Y17847447D01*
X93733164Y17847446D02*
X106134205Y30248487D01*
X50351541Y29437741D02*
X52051638Y27737644D01*
X41826000Y51301868D02*
X41826000Y42070389D01*
X118023850Y38451000D02*
X118226868Y38451000D01*
X106381693Y30351000D02*
X113754611Y30351000D01*
X85795389Y17701000D02*
X93379611Y17701000D01*
X117961132Y37749586D02*
X117892934Y37817784D01*
X117849000Y37923850D02*
X117849000Y38276150D01*
X43195389Y40701000D02*
X44671861Y40701000D01*
X77797446Y24691836D02*
X81141835Y21347447D01*
X81495389Y21201000D02*
X81943307Y21201000D01*
X85441835Y17847447D02*
G75*
G03*
X85795389Y17700992I353565J353553D01*
G01*
X77651000Y25045389D02*
G75*
G03*
X77797452Y24691842I500000J11D01*
G01*
X118226868Y38451000D02*
G75*
G02*
X118332950Y38407082I32J-150000D01*
G01*
X45151000Y40221861D02*
G75*
G03*
X45121731Y40292591I-100000J39D01*
G01*
X81943307Y21201000D02*
G75*
G02*
X82190790Y21098484I-7J-350000D01*
G01*
X52051638Y27737644D02*
G75*
G03*
X52381526Y27601009I329862J329856D01*
G01*
X113754611Y30351000D02*
G75*
G03*
X114108158Y30497452I-11J500000D01*
G01*
X117892934Y37817784D02*
G75*
G02*
X117849035Y37923850I106066J106016D01*
G01*
X70863307Y33331000D02*
G75*
G02*
X71110790Y33228484I-7J-350000D01*
G01*
X42841835Y40847447D02*
G75*
G03*
X43195389Y40700992I353565J353553D01*
G01*
X41782066Y51407934D02*
G75*
G02*
X41825977Y51301868I-106066J-106034D01*
G01*
X73951000Y29395389D02*
G75*
G03*
X74097452Y29041842I500000J11D01*
G01*
X118049000Y37537454D02*
G75*
G03*
X117961155Y37749609I-300000J46D01*
G01*
X93379611Y17701000D02*
G75*
G03*
X93733158Y17847452I-11J500000D01*
G01*
X63889205Y33228487D02*
G75*
G02*
X64136693Y33331005I247495J-247487D01*
G01*
X117917784Y38407066D02*
G75*
G02*
X118023850Y38450965I106016J-106066D01*
G01*
X45326797Y32012485D02*
G75*
G02*
X45150995Y32436897I424403J424415D01*
G01*
X73848487Y30490795D02*
G75*
G02*
X73951005Y30243307I-247487J-247495D01*
G01*
X44742572Y40671710D02*
G75*
G03*
X44671861Y40700972I-70672J-70710D01*
G01*
X58054611Y27601000D02*
G75*
G03*
X58408158Y27747452I-11J500000D01*
G01*
X77548487Y25590795D02*
G75*
G02*
X77651005Y25343307I-247487J-247495D01*
G01*
X117849000Y38276150D02*
G75*
G02*
X117892909Y38382241I150000J50D01*
G01*
X41826000Y42070389D02*
G75*
G03*
X41972452Y41716842I500000J11D01*
G01*
X81141835Y21347447D02*
G75*
G03*
X81495389Y21200992I353565J353553D01*
G01*
X117902553Y34291835D02*
G75*
G03*
X118049008Y34645389I-353553J353565D01*
G01*
X106134205Y30248487D02*
G75*
G02*
X106381693Y30351005I247495J-247487D01*
G01*
X46826832Y30512450D02*
G75*
G03*
X48906555Y29650977I2079768J2079750D01*
G01*
X49836688Y29651000D02*
G75*
G02*
X50351544Y29437744I12J-728100D01*
G01*
D28*
%TO.N,FAN_PWM*%
X27000000Y43270000D02*
X25870000Y42140000D01*
X30850000Y51620000D02*
X30850000Y42000000D01*
X31280000Y52050000D02*
X30850000Y51620000D01*
X35550167Y50650000D02*
X35550167Y51749833D01*
X28580000Y41780000D02*
X28580000Y42800000D01*
X28580000Y42800000D02*
X28110000Y43270000D01*
X29145000Y41215000D02*
X28580000Y41780000D01*
X28110000Y43270000D02*
X27000000Y43270000D01*
X35250000Y52050000D02*
X31280000Y52050000D01*
X35550167Y51749833D02*
X35250000Y52050000D01*
X25870000Y42140000D02*
X25870000Y38410000D01*
X26610000Y26700000D02*
X26610000Y25230000D01*
X24490000Y37030000D02*
X24490000Y28820000D01*
X30065000Y41215000D02*
X29145000Y41215000D01*
X25870000Y38410000D02*
X24490000Y37030000D01*
X30850000Y42000000D02*
X30065000Y41215000D01*
X24490000Y28820000D02*
X26610000Y26700000D01*
D27*
%TO.N,DEBUG_TXD*%
X25580000Y42580000D02*
X26750000Y43750000D01*
X26950000Y20350000D02*
X24215000Y23085000D01*
X28532600Y20449810D02*
X28432790Y20350000D01*
X28432790Y20350000D02*
X26950000Y20350000D01*
X24215000Y23085000D02*
X24215000Y37117500D01*
X25580000Y38482500D02*
X25580000Y42580000D01*
X24215000Y37117500D02*
X25580000Y38482500D01*
%TO.N,DEBUG_RXD*%
X24720000Y42370000D02*
X26725000Y44375000D01*
X24720000Y38050000D02*
X24720000Y42370000D01*
X28278373Y19884676D02*
X27015324Y19884676D01*
X23940000Y37270000D02*
X24720000Y38050000D01*
X23940000Y22960000D02*
X23940000Y37270000D01*
X27015324Y19884676D02*
X23940000Y22960000D01*
D28*
%TO.N,USBC1_FLG*%
X61662000Y15250000D02*
X62175000Y15250000D01*
X63688000Y9062000D02*
X74750500Y9062000D01*
X63400000Y9350000D02*
X63688000Y9062000D01*
X62175000Y15250000D02*
X63400000Y14025000D01*
X63400000Y14025000D02*
X63400000Y9350000D01*
D25*
%TO.N,/USB Debug\u002C DP/USBC0_SBU_P*%
X41361718Y17224000D02*
X39788282Y17224000D01*
X43936718Y13499000D02*
X42199000Y15236718D01*
X39788282Y17224000D02*
X39351000Y16786718D01*
X45134920Y7750000D02*
X47650000Y7750000D01*
X48550000Y10639282D02*
X49399000Y11488282D01*
X48550000Y8650000D02*
X48550000Y10639282D01*
X42199000Y15236718D02*
X42199000Y16386718D01*
X49399000Y11488282D02*
X49399000Y12411718D01*
X44199920Y8685000D02*
X45134920Y7750000D01*
X39351000Y15898000D02*
X39203000Y15750000D01*
X49399000Y12411718D02*
X48311718Y13499000D01*
X47650000Y7750000D02*
X48550000Y8650000D01*
X48311718Y13499000D02*
X43936718Y13499000D01*
X42199000Y16386718D02*
X41361718Y17224000D01*
X39351000Y16786718D02*
X39351000Y15898000D01*
%TO.N,/USB Debug\u002C DP/USBC0_SBU_N*%
X45750000Y11550000D02*
X46450000Y11550000D01*
X49101000Y11611718D02*
X49101000Y12288282D01*
X49101000Y12288282D02*
X48188282Y13201000D01*
X41901000Y16263282D02*
X41238282Y16926000D01*
X39649000Y15898000D02*
X39797000Y15750000D01*
X43813282Y13201000D02*
X41901000Y15113282D01*
X41901000Y15113282D02*
X41901000Y16263282D01*
X39649000Y16663282D02*
X39649000Y15898000D01*
X48339282Y10850000D02*
X49101000Y11611718D01*
X39911718Y16926000D02*
X39649000Y16663282D01*
X41238282Y16926000D02*
X39911718Y16926000D01*
X47150000Y10850000D02*
X48339282Y10850000D01*
X46450000Y11550000D02*
X47150000Y10850000D01*
X48188282Y13201000D02*
X43813282Y13201000D01*
D28*
%TO.N,I2C1_SCL*%
X34825000Y2075000D02*
X35350000Y1550000D01*
X23030940Y14369060D02*
X31175000Y14369060D01*
X34717837Y11606497D02*
X34787758Y11254964D01*
X77000000Y2600000D02*
X77750000Y1850000D01*
X22200000Y15200000D02*
X23030940Y14369060D01*
X21660000Y31110000D02*
X22200000Y30570000D01*
X35350000Y1550000D02*
X56950000Y1550000D01*
X34476639Y12280622D02*
X34613797Y11949484D01*
X24350000Y54230000D02*
X24350000Y48953554D01*
X33881182Y13171802D02*
X34108559Y12894738D01*
X34787758Y11254964D02*
X34822885Y10898270D01*
X34108559Y12894738D02*
X34307684Y12596721D01*
X32405425Y14157869D02*
X32736561Y14020707D01*
X21660000Y46263554D02*
X21660000Y31110000D01*
X77750000Y1850000D02*
X98350000Y1850000D01*
X31354210Y14366971D02*
X31710905Y14331839D01*
X24350000Y48953554D02*
X21660000Y46263554D01*
X34825000Y10719060D02*
X34825000Y2075000D01*
X22200000Y30570000D02*
X22200000Y15200000D01*
X24531432Y54475122D02*
X24531432Y54411432D01*
X32736561Y14020707D02*
X33052659Y13851747D01*
X31710905Y14331839D02*
X32062438Y14261914D01*
X56950000Y1550000D02*
X58000000Y2600000D01*
X32062438Y14261914D02*
X32405425Y14157869D01*
X100850000Y5950000D02*
X100550000Y6250000D01*
X58000000Y2600000D02*
X77000000Y2600000D01*
X34822885Y10898270D02*
X34825000Y10719060D01*
X33052659Y13851747D02*
X33350673Y13652617D01*
X100850000Y4350000D02*
X100850000Y5950000D01*
X24531432Y54411432D02*
X24350000Y54230000D01*
X98350000Y1850000D02*
X100850000Y4350000D01*
X34613797Y11949484D02*
X34717837Y11606497D01*
X34307684Y12596721D02*
X34476639Y12280622D01*
X33350673Y13652617D02*
X33627735Y13425236D01*
X33755940Y13300000D02*
X33881182Y13171802D01*
X31175000Y14369060D02*
X31354210Y14366971D01*
X33627735Y13425236D02*
X33755940Y13300000D01*
%TO.N,I2C1_SDA*%
X21360000Y46317108D02*
X21360000Y30910000D01*
X21900000Y30370000D02*
X21900000Y15000000D01*
X34525000Y10762359D02*
X34525000Y1775000D01*
X57050000Y1250000D02*
X58150000Y2350000D01*
X101250000Y4350000D02*
X101250000Y5950000D01*
X101250000Y5950000D02*
X101550000Y6250000D01*
X22830000Y14070000D02*
X31217359Y14070000D01*
X34525000Y1775000D02*
X35050000Y1250000D01*
X33338680Y13191320D02*
X33646321Y12883679D01*
X24492946Y55020000D02*
X24100000Y54627054D01*
X98450000Y1550000D02*
X101250000Y4350000D01*
X35050000Y1250000D02*
X57050000Y1250000D01*
X21900000Y15000000D02*
X22830000Y14070000D01*
X24100000Y49057108D02*
X21360000Y46317108D01*
X21360000Y30910000D02*
X21900000Y30370000D01*
X24721353Y55020000D02*
X24492946Y55020000D01*
X58150000Y2350000D02*
X76850000Y2350000D01*
X76850000Y2350000D02*
X77650000Y1550000D01*
X24725500Y55015853D02*
X24721353Y55020000D01*
X77650000Y1550000D02*
X98450000Y1550000D01*
X24100000Y54627054D02*
X24100000Y49057108D01*
X33646321Y12883679D02*
G75*
G02*
X34524971Y10762359I-2121321J-2121279D01*
G01*
X31217359Y14070000D02*
G75*
G02*
X33338700Y13191340I41J-3000000D01*
G01*
D26*
%TO.N,USBC_HPD*%
X38110000Y33410000D02*
X38110000Y31900000D01*
X45562500Y22937500D02*
X44475000Y24025000D01*
X38110000Y31900000D02*
X39260000Y30750000D01*
X44475000Y24025000D02*
X44475000Y25300000D01*
X49650000Y22550000D02*
X49262500Y22937500D01*
X49650000Y17900000D02*
X49650000Y22550000D01*
X37900000Y33620000D02*
X38110000Y33410000D01*
X49262500Y22937500D02*
X45562500Y22937500D01*
X43575000Y26125000D02*
X43650000Y26125000D01*
X39260000Y29140000D02*
X39850000Y28550000D01*
X39260000Y30750000D02*
X39260000Y29140000D01*
X43650000Y26128556D02*
X43651776Y26130332D01*
X44475000Y25300000D02*
X43650000Y26125000D01*
X39850000Y28550000D02*
X41150000Y28550000D01*
X41150000Y28550000D02*
X43575000Y26125000D01*
X43650000Y26125000D02*
X43650000Y26128556D01*
%TO.N,Net-(J15H-GPIO02)*%
X59660307Y15081086D02*
X59660307Y16210307D01*
X60200000Y16750000D02*
X65950000Y16750000D01*
X59660307Y16210307D02*
X60200000Y16750000D01*
D28*
%TO.N,Net-(U29-PG)*%
X28960000Y38340000D02*
X28960000Y38859169D01*
X28240000Y37620000D02*
X28960000Y38340000D01*
X28240000Y36530000D02*
X28240000Y37620000D01*
X28960000Y38859169D02*
X28551669Y39267500D01*
%TD*%
M02*
