%TF.GenerationSoftware,KiCad,Pcbnew,8.0.8*%
%TF.CreationDate,2025-02-13T16:32:43+11:00*%
%TF.ProjectId,jetson-orin-baseboard,6a657473-6f6e-42d6-9f72-696e2d626173,1.3.0*%
%TF.SameCoordinates,PX1c5f2f0PY7ac91b0*%
%TF.FileFunction,Soldermask,Bot*%
%TF.FilePolarity,Negative*%
%FSLAX46Y46*%
G04 Gerber Fmt 4.6, Leading zero omitted, Abs format (unit mm)*
G04 Created by KiCad (PCBNEW 8.0.8) date 2025-02-13 16:32:43*
%MOMM*%
%LPD*%
G01*
G04 APERTURE LIST*
G04 Aperture macros list*
%AMRoundRect*
0 Rectangle with rounded corners*
0 $1 Rounding radius*
0 $2 $3 $4 $5 $6 $7 $8 $9 X,Y pos of 4 corners*
0 Add a 4 corners polygon primitive as box body*
4,1,4,$2,$3,$4,$5,$6,$7,$8,$9,$2,$3,0*
0 Add four circle primitives for the rounded corners*
1,1,$1+$1,$2,$3*
1,1,$1+$1,$4,$5*
1,1,$1+$1,$6,$7*
1,1,$1+$1,$8,$9*
0 Add four rect primitives between the rounded corners*
20,1,$1+$1,$2,$3,$4,$5,0*
20,1,$1+$1,$4,$5,$6,$7,0*
20,1,$1+$1,$6,$7,$8,$9,0*
20,1,$1+$1,$8,$9,$2,$3,0*%
%AMFreePoly0*
4,1,5,0.300000,-0.300000,-0.300000,-0.300000,-0.300000,0.300000,0.300000,0.300000,0.300000,-0.300000,0.300000,-0.300000,$1*%
G04 Aperture macros list end*
%ADD10C,0.001395*%
%ADD11C,0.000100*%
%ADD12C,6.000000*%
%ADD13C,1.150000*%
%ADD14C,1.650000*%
%ADD15C,0.650000*%
%ADD16O,1.000000X1.600000*%
%ADD17R,2.540000X2.540000*%
%ADD18C,2.540000*%
%ADD19C,3.250000*%
%ADD20C,1.397000*%
%ADD21C,1.524000*%
%ADD22C,2.100000*%
%ADD23C,2.108200*%
%ADD24O,1.200000X1.900000*%
%ADD25O,1.200000X1.700000*%
%ADD26C,1.450000*%
%ADD27C,1.100000*%
%ADD28C,1.600000*%
%ADD29RoundRect,0.147500X0.147500X0.172500X-0.147500X0.172500X-0.147500X-0.172500X0.147500X-0.172500X0*%
%ADD30RoundRect,0.250000X0.650000X2.450000X-0.650000X2.450000X-0.650000X-2.450000X0.650000X-2.450000X0*%
%ADD31C,2.000000*%
%ADD32RoundRect,0.090000X0.410000X0.210000X-0.410000X0.210000X-0.410000X-0.210000X0.410000X-0.210000X0*%
%ADD33C,0.750000*%
%ADD34RoundRect,0.147500X-0.147500X-0.172500X0.147500X-0.172500X0.147500X0.172500X-0.147500X0.172500X0*%
%ADD35R,0.700000X1.200000*%
%ADD36RoundRect,0.147500X-0.017678X0.226274X-0.226274X0.017678X0.017678X-0.226274X0.226274X-0.017678X0*%
%ADD37RoundRect,0.077500X0.077500X-0.297500X0.077500X0.297500X-0.077500X0.297500X-0.077500X-0.297500X0*%
%ADD38RoundRect,0.077500X0.297500X-0.077500X0.297500X0.077500X-0.297500X0.077500X-0.297500X-0.077500X0*%
%ADD39R,2.200000X2.200000*%
%ADD40RoundRect,0.160000X-0.340000X0.240000X-0.340000X-0.240000X0.340000X-0.240000X0.340000X0.240000X0*%
%ADD41RoundRect,0.147500X0.172500X-0.147500X0.172500X0.147500X-0.172500X0.147500X-0.172500X-0.147500X0*%
%ADD42RoundRect,0.200000X0.250000X-0.200000X0.250000X0.200000X-0.250000X0.200000X-0.250000X-0.200000X0*%
%ADD43RoundRect,0.100000X-0.100000X0.125000X-0.100000X-0.125000X0.100000X-0.125000X0.100000X0.125000X0*%
%ADD44RoundRect,0.112000X-0.748000X0.448000X-0.748000X-0.448000X0.748000X-0.448000X0.748000X0.448000X0*%
%ADD45RoundRect,0.147500X-0.172500X0.147500X-0.172500X-0.147500X0.172500X-0.147500X0.172500X0.147500X0*%
%ADD46RoundRect,0.050000X-0.150000X0.050000X-0.150000X-0.050000X0.150000X-0.050000X0.150000X0.050000X0*%
%ADD47RoundRect,0.075000X-0.075000X-0.175000X0.075000X-0.175000X0.075000X0.175000X-0.075000X0.175000X0*%
%ADD48RoundRect,0.160000X0.240000X0.340000X-0.240000X0.340000X-0.240000X-0.340000X0.240000X-0.340000X0*%
%ADD49RoundRect,0.147500X0.017678X-0.226274X0.226274X-0.017678X-0.017678X0.226274X-0.226274X0.017678X0*%
%ADD50RoundRect,0.160000X0.340000X-0.240000X0.340000X0.240000X-0.340000X0.240000X-0.340000X-0.240000X0*%
%ADD51RoundRect,0.300000X0.350000X-0.300000X0.350000X0.300000X-0.350000X0.300000X-0.350000X-0.300000X0*%
%ADD52RoundRect,0.160000X-0.240000X-0.340000X0.240000X-0.340000X0.240000X0.340000X-0.240000X0.340000X0*%
%ADD53RoundRect,0.062500X0.375000X0.062500X-0.375000X0.062500X-0.375000X-0.062500X0.375000X-0.062500X0*%
%ADD54RoundRect,0.062500X0.062500X0.375000X-0.062500X0.375000X-0.062500X-0.375000X0.062500X-0.375000X0*%
%ADD55R,2.050000X7.550000*%
%ADD56R,0.510000X0.400000*%
%ADD57RoundRect,0.050000X0.150000X-0.050000X0.150000X0.050000X-0.150000X0.050000X-0.150000X-0.050000X0*%
%ADD58R,0.550000X1.000000*%
%ADD59RoundRect,0.081250X-0.118750X-0.081250X0.118750X-0.081250X0.118750X0.081250X-0.118750X0.081250X0*%
%ADD60RoundRect,0.075000X0.225000X0.075000X-0.225000X0.075000X-0.225000X-0.075000X0.225000X-0.075000X0*%
%ADD61RoundRect,0.062500X0.237500X0.062500X-0.237500X0.062500X-0.237500X-0.062500X0.237500X-0.062500X0*%
%ADD62RoundRect,0.075000X0.075000X-0.225000X0.075000X0.225000X-0.075000X0.225000X-0.075000X-0.225000X0*%
%ADD63RoundRect,0.062500X0.062500X-0.237500X0.062500X0.237500X-0.062500X0.237500X-0.062500X-0.237500X0*%
%ADD64RoundRect,0.300000X0.300000X0.300000X-0.300000X0.300000X-0.300000X-0.300000X0.300000X-0.300000X0*%
%ADD65RoundRect,0.300000X-0.300000X-0.350000X0.300000X-0.350000X0.300000X0.350000X-0.300000X0.350000X0*%
%ADD66RoundRect,0.050000X-0.050000X-0.150000X0.050000X-0.150000X0.050000X0.150000X-0.050000X0.150000X0*%
%ADD67RoundRect,0.147500X-0.226274X-0.017678X-0.017678X-0.226274X0.226274X0.017678X0.017678X0.226274X0*%
%ADD68RoundRect,0.125000X0.125000X0.175000X-0.125000X0.175000X-0.125000X-0.175000X0.125000X-0.175000X0*%
%ADD69RoundRect,0.125000X-0.125000X-0.175000X0.125000X-0.175000X0.125000X0.175000X-0.125000X0.175000X0*%
%ADD70RoundRect,0.062500X0.062500X0.237500X-0.062500X0.237500X-0.062500X-0.237500X0.062500X-0.237500X0*%
%ADD71RoundRect,0.062500X0.237500X-0.062500X0.237500X0.062500X-0.237500X0.062500X-0.237500X-0.062500X0*%
%ADD72RoundRect,0.062500X-0.062500X-0.237500X0.062500X-0.237500X0.062500X0.237500X-0.062500X0.237500X0*%
%ADD73RoundRect,0.062500X-0.237500X0.062500X-0.237500X-0.062500X0.237500X-0.062500X0.237500X0.062500X0*%
%ADD74RoundRect,0.105000X-0.945000X0.945000X-0.945000X-0.945000X0.945000X-0.945000X0.945000X0.945000X0*%
%ADD75RoundRect,0.125000X0.175000X-0.125000X0.175000X0.125000X-0.175000X0.125000X-0.175000X-0.125000X0*%
%ADD76RoundRect,0.082500X-0.417500X0.192500X-0.417500X-0.192500X0.417500X-0.192500X0.417500X0.192500X0*%
%ADD77RoundRect,0.287500X-0.612500X0.287500X-0.612500X-0.287500X0.612500X-0.287500X0.612500X0.287500X0*%
%ADD78C,0.990600*%
%ADD79C,0.787400*%
%ADD80RoundRect,0.081250X-0.081250X0.118750X-0.081250X-0.118750X0.081250X-0.118750X0.081250X0.118750X0*%
%ADD81RoundRect,0.150000X-0.150000X-0.625000X0.150000X-0.625000X0.150000X0.625000X-0.150000X0.625000X0*%
%ADD82RoundRect,0.300000X0.300000X0.600000X-0.300000X0.600000X-0.300000X-0.600000X0.300000X-0.600000X0*%
%ADD83FreePoly0,90.000000*%
%ADD84R,0.600000X0.400000*%
%ADD85RoundRect,0.075000X-0.075000X0.225000X-0.075000X-0.225000X0.075000X-0.225000X0.075000X0.225000X0*%
%ADD86RoundRect,0.062500X-0.062500X0.237500X-0.062500X-0.237500X0.062500X-0.237500X0.062500X0.237500X0*%
%ADD87RoundRect,0.120000X0.120000X-0.580000X0.120000X0.580000X-0.120000X0.580000X-0.120000X-0.580000X0*%
%ADD88R,0.800000X0.400000*%
%ADD89R,0.400000X0.800000*%
%ADD90R,2.300000X2.300000*%
%ADD91RoundRect,0.090000X-0.210000X0.410000X-0.210000X-0.410000X0.210000X-0.410000X0.210000X0.410000X0*%
%ADD92RoundRect,0.062500X0.062500X0.212500X-0.062500X0.212500X-0.062500X-0.212500X0.062500X-0.212500X0*%
%ADD93RoundRect,0.100000X0.100000X0.175000X-0.100000X0.175000X-0.100000X-0.175000X0.100000X-0.175000X0*%
%ADD94R,0.400000X0.510000*%
%ADD95RoundRect,0.050000X0.050000X0.150000X-0.050000X0.150000X-0.050000X-0.150000X0.050000X-0.150000X0*%
%ADD96RoundRect,0.150000X0.150000X0.425000X-0.150000X0.425000X-0.150000X-0.425000X0.150000X-0.425000X0*%
%ADD97RoundRect,0.075000X0.075000X0.500000X-0.075000X0.500000X-0.075000X-0.500000X0.075000X-0.500000X0*%
%ADD98O,1.000000X2.000000*%
%ADD99O,1.050000X2.100000*%
%ADD100RoundRect,0.082500X0.317500X0.192500X-0.317500X0.192500X-0.317500X-0.192500X0.317500X-0.192500X0*%
%ADD101C,0.900000*%
%ADD102RoundRect,0.175000X-0.175000X-0.575000X0.175000X-0.575000X0.175000X0.575000X-0.175000X0.575000X0*%
%ADD103RoundRect,0.200000X-0.300000X-0.200000X0.300000X-0.200000X0.300000X0.200000X-0.300000X0.200000X0*%
%ADD104RoundRect,0.075000X-0.075000X-0.525000X0.075000X-0.525000X0.075000X0.525000X-0.075000X0.525000X0*%
%ADD105RoundRect,0.135000X-1.215000X-1.365000X1.215000X-1.365000X1.215000X1.365000X-1.215000X1.365000X0*%
%ADD106R,1.800000X0.750000*%
%ADD107RoundRect,0.082500X0.417500X-0.192500X0.417500X0.192500X-0.417500X0.192500X-0.417500X-0.192500X0*%
%ADD108RoundRect,0.075000X0.075000X0.175000X-0.075000X0.175000X-0.075000X-0.175000X0.075000X-0.175000X0*%
%ADD109RoundRect,0.287500X0.612500X-0.287500X0.612500X0.287500X-0.612500X0.287500X-0.612500X-0.287500X0*%
%ADD110RoundRect,0.081250X0.081250X-0.118750X0.081250X0.118750X-0.081250X0.118750X-0.081250X-0.118750X0*%
%ADD111RoundRect,0.097500X-0.227500X-0.827500X0.227500X-0.827500X0.227500X0.827500X-0.227500X0.827500X0*%
%ADD112R,1.550000X0.300000*%
%ADD113R,2.750000X1.200000*%
%ADD114RoundRect,0.050000X-0.075000X0.250000X-0.075000X-0.250000X0.075000X-0.250000X0.075000X0.250000X0*%
%ADD115RoundRect,0.050000X0.250000X0.075000X-0.250000X0.075000X-0.250000X-0.075000X0.250000X-0.075000X0*%
%ADD116RoundRect,0.050000X0.075000X-0.250000X0.075000X0.250000X-0.075000X0.250000X-0.075000X-0.250000X0*%
%ADD117RoundRect,0.050000X-0.250000X-0.075000X0.250000X-0.075000X0.250000X0.075000X-0.250000X0.075000X0*%
%ADD118RoundRect,0.050000X-0.790000X0.790000X-0.790000X-0.790000X0.790000X-0.790000X0.790000X0.790000X0*%
%ADD119R,0.650000X0.350000*%
%ADD120R,1.000000X1.600000*%
%ADD121RoundRect,0.100000X-0.125000X-0.100000X0.125000X-0.100000X0.125000X0.100000X-0.125000X0.100000X0*%
%ADD122RoundRect,0.112000X-0.448000X-0.748000X0.448000X-0.748000X0.448000X0.748000X-0.448000X0.748000X0*%
%ADD123RoundRect,0.050000X-0.100000X0.250000X-0.100000X-0.250000X0.100000X-0.250000X0.100000X0.250000X0*%
%ADD124RoundRect,0.050000X0.275000X-0.075000X0.275000X0.075000X-0.275000X0.075000X-0.275000X-0.075000X0*%
%ADD125RoundRect,0.075000X-1.125000X0.075000X-1.125000X-0.075000X1.125000X-0.075000X1.125000X0.075000X0*%
%ADD126RoundRect,0.050000X0.100000X-0.250000X0.100000X0.250000X-0.100000X0.250000X-0.100000X-0.250000X0*%
%ADD127RoundRect,0.081250X0.118750X0.081250X-0.118750X0.081250X-0.118750X-0.081250X0.118750X-0.081250X0*%
%ADD128RoundRect,0.050000X0.050000X-0.300000X0.050000X0.300000X-0.050000X0.300000X-0.050000X-0.300000X0*%
%ADD129RoundRect,0.050000X-0.300000X-0.050000X0.300000X-0.050000X0.300000X0.050000X-0.300000X0.050000X0*%
%ADD130RoundRect,0.105714X-1.244286X-0.819286X1.244286X-0.819286X1.244286X0.819286X-1.244286X0.819286X0*%
%ADD131RoundRect,0.105714X-1.219286X-0.819286X1.219286X-0.819286X1.219286X0.819286X-1.219286X0.819286X0*%
%ADD132RoundRect,0.102941X-2.697059X-1.647059X2.697059X-1.647059X2.697059X1.647059X-2.697059X1.647059X0*%
%ADD133RoundRect,0.090000X-0.410000X-0.210000X0.410000X-0.210000X0.410000X0.210000X-0.410000X0.210000X0*%
%ADD134RoundRect,0.075000X-0.525000X0.075000X-0.525000X-0.075000X0.525000X-0.075000X0.525000X0.075000X0*%
%ADD135RoundRect,0.135000X-1.365000X1.215000X-1.365000X-1.215000X1.365000X-1.215000X1.365000X1.215000X0*%
G04 APERTURE END LIST*
D10*
%TO.C,REF\u002A\u002A*%
X88026500Y17001000D02*
X87743500Y17001000D01*
X87743500Y18679000D01*
X88026500Y18679000D01*
X88026500Y17001000D01*
G36*
X88026500Y17001000D02*
G01*
X87743500Y17001000D01*
X87743500Y18679000D01*
X88026500Y18679000D01*
X88026500Y17001000D01*
G37*
X85697500Y18699000D02*
X85761500Y18697000D01*
X85849500Y18691000D01*
X85923500Y18682000D01*
X85992500Y18667000D01*
X86059500Y18649000D01*
X86133500Y18624000D01*
X86220500Y18593000D01*
X86220500Y17001000D01*
X85936500Y17001000D01*
X85936500Y18467000D01*
X85904500Y18479000D01*
X85889500Y18484000D01*
X85819500Y18499000D01*
X85737500Y18504000D01*
X85655500Y18499000D01*
X85582500Y18483000D01*
X85580500Y18483000D01*
X85569500Y18485000D01*
X85558500Y18499000D01*
X85546500Y18528000D01*
X85530500Y18577000D01*
X85524500Y18595000D01*
X85511500Y18639000D01*
X85503500Y18673000D01*
X85498500Y18691000D01*
X85500500Y18693000D01*
X85508500Y18698000D01*
X85529500Y18701000D01*
X85566500Y18702000D01*
X85620500Y18702000D01*
X85697500Y18699000D01*
G36*
X85697500Y18699000D02*
G01*
X85761500Y18697000D01*
X85849500Y18691000D01*
X85923500Y18682000D01*
X85992500Y18667000D01*
X86059500Y18649000D01*
X86133500Y18624000D01*
X86220500Y18593000D01*
X86220500Y17001000D01*
X85936500Y17001000D01*
X85936500Y18467000D01*
X85904500Y18479000D01*
X85889500Y18484000D01*
X85819500Y18499000D01*
X85737500Y18504000D01*
X85655500Y18499000D01*
X85582500Y18483000D01*
X85580500Y18483000D01*
X85569500Y18485000D01*
X85558500Y18499000D01*
X85546500Y18528000D01*
X85530500Y18577000D01*
X85524500Y18595000D01*
X85511500Y18639000D01*
X85503500Y18673000D01*
X85498500Y18691000D01*
X85500500Y18693000D01*
X85508500Y18698000D01*
X85529500Y18701000D01*
X85566500Y18702000D01*
X85620500Y18702000D01*
X85697500Y18699000D01*
G37*
X91072500Y19136000D02*
X91102500Y19128000D01*
X91147500Y19114000D01*
X91199500Y19098000D01*
X91334500Y19055000D01*
X91334500Y18679000D01*
X91523500Y18679000D01*
X91523500Y18489000D01*
X91335500Y18489000D01*
X91331500Y17878000D01*
X91328500Y17264000D01*
X91286500Y17185000D01*
X91271500Y17158000D01*
X91224500Y17092000D01*
X91166500Y17046000D01*
X91095500Y17011000D01*
X91068500Y17003000D01*
X91027500Y16995000D01*
X90979500Y16992000D01*
X90915500Y16992000D01*
X90882500Y16994000D01*
X90835500Y16997000D01*
X90798500Y17001000D01*
X90782500Y17005000D01*
X90775500Y17016000D01*
X90769500Y17050000D01*
X90767500Y17105000D01*
X90767500Y17197000D01*
X90841500Y17193000D01*
X90887500Y17194000D01*
X90945500Y17207000D01*
X90989500Y17236000D01*
X91024500Y17286000D01*
X91051500Y17337000D01*
X91051500Y18489000D01*
X90767500Y18489000D01*
X90767500Y18679000D01*
X91051500Y18679000D01*
X91051500Y18909000D01*
X91051500Y18918000D01*
X91051500Y18989000D01*
X91052500Y19049000D01*
X91054500Y19096000D01*
X91056500Y19128000D01*
X91058500Y19140000D01*
X91072500Y19136000D01*
G36*
X91072500Y19136000D02*
G01*
X91102500Y19128000D01*
X91147500Y19114000D01*
X91199500Y19098000D01*
X91334500Y19055000D01*
X91334500Y18679000D01*
X91523500Y18679000D01*
X91523500Y18489000D01*
X91335500Y18489000D01*
X91331500Y17878000D01*
X91328500Y17264000D01*
X91286500Y17185000D01*
X91271500Y17158000D01*
X91224500Y17092000D01*
X91166500Y17046000D01*
X91095500Y17011000D01*
X91068500Y17003000D01*
X91027500Y16995000D01*
X90979500Y16992000D01*
X90915500Y16992000D01*
X90882500Y16994000D01*
X90835500Y16997000D01*
X90798500Y17001000D01*
X90782500Y17005000D01*
X90775500Y17016000D01*
X90769500Y17050000D01*
X90767500Y17105000D01*
X90767500Y17197000D01*
X90841500Y17193000D01*
X90887500Y17194000D01*
X90945500Y17207000D01*
X90989500Y17236000D01*
X91024500Y17286000D01*
X91051500Y17337000D01*
X91051500Y18489000D01*
X90767500Y18489000D01*
X90767500Y18679000D01*
X91051500Y18679000D01*
X91051500Y18909000D01*
X91051500Y18918000D01*
X91051500Y18989000D01*
X91052500Y19049000D01*
X91054500Y19096000D01*
X91056500Y19128000D01*
X91058500Y19140000D01*
X91072500Y19136000D01*
G37*
X92481500Y18695000D02*
X92549500Y18691000D01*
X92608500Y18683000D01*
X92668500Y18670000D01*
X92731500Y18652000D01*
X92807500Y18628000D01*
X92916500Y18593000D01*
X92916500Y17001000D01*
X92632500Y17001000D01*
X92630500Y17736000D01*
X92626500Y18469000D01*
X92582500Y18485000D01*
X92521500Y18501000D01*
X92436500Y18514000D01*
X92347500Y18518000D01*
X92269500Y18513000D01*
X92241500Y18509000D01*
X92164500Y18488000D01*
X92106500Y18458000D01*
X92056500Y18413000D01*
X92055500Y18412000D01*
X92040500Y18394000D01*
X92027500Y18377000D01*
X92016500Y18357000D01*
X92008500Y18335000D01*
X92001500Y18306000D01*
X91996500Y18268000D01*
X91991500Y18221000D01*
X91988500Y18163000D01*
X91986500Y18090000D01*
X91985500Y18003000D01*
X91984500Y17897000D01*
X91984500Y17772000D01*
X91984500Y17626000D01*
X91984500Y17001000D01*
X91699500Y17001000D01*
X91699500Y17631000D01*
X91699500Y17776000D01*
X91699500Y17901000D01*
X91700500Y18008000D01*
X91701500Y18095000D01*
X91703500Y18170000D01*
X91706500Y18230000D01*
X91710500Y18278000D01*
X91717500Y18319000D01*
X91723500Y18351000D01*
X91732500Y18379000D01*
X91742500Y18405000D01*
X91754500Y18431000D01*
X91767500Y18458000D01*
X91811500Y18521000D01*
X91879500Y18583000D01*
X91965500Y18633000D01*
X92072500Y18674000D01*
X92084500Y18679000D01*
X92118500Y18686000D01*
X92156500Y18692000D01*
X92204500Y18695000D01*
X92267500Y18696000D01*
X92349500Y18697000D01*
X92398500Y18697000D01*
X92481500Y18695000D01*
G36*
X92481500Y18695000D02*
G01*
X92549500Y18691000D01*
X92608500Y18683000D01*
X92668500Y18670000D01*
X92731500Y18652000D01*
X92807500Y18628000D01*
X92916500Y18593000D01*
X92916500Y17001000D01*
X92632500Y17001000D01*
X92630500Y17736000D01*
X92626500Y18469000D01*
X92582500Y18485000D01*
X92521500Y18501000D01*
X92436500Y18514000D01*
X92347500Y18518000D01*
X92269500Y18513000D01*
X92241500Y18509000D01*
X92164500Y18488000D01*
X92106500Y18458000D01*
X92056500Y18413000D01*
X92055500Y18412000D01*
X92040500Y18394000D01*
X92027500Y18377000D01*
X92016500Y18357000D01*
X92008500Y18335000D01*
X92001500Y18306000D01*
X91996500Y18268000D01*
X91991500Y18221000D01*
X91988500Y18163000D01*
X91986500Y18090000D01*
X91985500Y18003000D01*
X91984500Y17897000D01*
X91984500Y17772000D01*
X91984500Y17626000D01*
X91984500Y17001000D01*
X91699500Y17001000D01*
X91699500Y17631000D01*
X91699500Y17776000D01*
X91699500Y17901000D01*
X91700500Y18008000D01*
X91701500Y18095000D01*
X91703500Y18170000D01*
X91706500Y18230000D01*
X91710500Y18278000D01*
X91717500Y18319000D01*
X91723500Y18351000D01*
X91732500Y18379000D01*
X91742500Y18405000D01*
X91754500Y18431000D01*
X91767500Y18458000D01*
X91811500Y18521000D01*
X91879500Y18583000D01*
X91965500Y18633000D01*
X92072500Y18674000D01*
X92084500Y18679000D01*
X92118500Y18686000D01*
X92156500Y18692000D01*
X92204500Y18695000D01*
X92267500Y18696000D01*
X92349500Y18697000D01*
X92398500Y18697000D01*
X92481500Y18695000D01*
G37*
X89070500Y18697000D02*
X89190500Y18671000D01*
X89298500Y18628000D01*
X89392500Y18566000D01*
X89443500Y18524000D01*
X89519500Y18584000D01*
X89545500Y18601000D01*
X89604500Y18637000D01*
X89665500Y18664000D01*
X89735500Y18683000D01*
X89817500Y18694000D01*
X89916500Y18700000D01*
X90041500Y18700000D01*
X90160500Y18690000D01*
X90279500Y18666000D01*
X90406500Y18631000D01*
X90518500Y18594000D01*
X90518500Y17001000D01*
X90247500Y17001000D01*
X90247500Y18464000D01*
X90215500Y18475000D01*
X90194500Y18483000D01*
X90160500Y18494000D01*
X90128500Y18501000D01*
X90090500Y18507000D01*
X90037500Y18514000D01*
X89939500Y18519000D01*
X89842500Y18509000D01*
X89759500Y18485000D01*
X89693500Y18446000D01*
X89642500Y18392000D01*
X89610500Y18326000D01*
X89608500Y18312000D01*
X89606500Y18276000D01*
X89602500Y18222000D01*
X89600500Y18148000D01*
X89600500Y18055000D01*
X89598500Y17938000D01*
X89598500Y17801000D01*
X89598500Y17640000D01*
X89598500Y17001000D01*
X89314500Y17001000D01*
X89314500Y18369000D01*
X89263500Y18413000D01*
X89207500Y18456000D01*
X89127500Y18493000D01*
X89046500Y18514000D01*
X88962500Y18518000D01*
X88884500Y18506000D01*
X88812500Y18476000D01*
X88751500Y18431000D01*
X88704500Y18368000D01*
X88671500Y18307000D01*
X88667500Y17655000D01*
X88663500Y17001000D01*
X88380500Y17001000D01*
X88380500Y17627000D01*
X88380500Y17733000D01*
X88380500Y17865000D01*
X88381500Y17976000D01*
X88383500Y18068000D01*
X88385500Y18145000D01*
X88387500Y18208000D01*
X88391500Y18260000D01*
X88396500Y18303000D01*
X88401500Y18338000D01*
X88409500Y18366000D01*
X88417500Y18392000D01*
X88428500Y18417000D01*
X88441500Y18443000D01*
X88472500Y18495000D01*
X88538500Y18570000D01*
X88621500Y18626000D01*
X88719500Y18668000D01*
X88835500Y18694000D01*
X88965500Y18702000D01*
X89070500Y18697000D01*
G36*
X89070500Y18697000D02*
G01*
X89190500Y18671000D01*
X89298500Y18628000D01*
X89392500Y18566000D01*
X89443500Y18524000D01*
X89519500Y18584000D01*
X89545500Y18601000D01*
X89604500Y18637000D01*
X89665500Y18664000D01*
X89735500Y18683000D01*
X89817500Y18694000D01*
X89916500Y18700000D01*
X90041500Y18700000D01*
X90160500Y18690000D01*
X90279500Y18666000D01*
X90406500Y18631000D01*
X90518500Y18594000D01*
X90518500Y17001000D01*
X90247500Y17001000D01*
X90247500Y18464000D01*
X90215500Y18475000D01*
X90194500Y18483000D01*
X90160500Y18494000D01*
X90128500Y18501000D01*
X90090500Y18507000D01*
X90037500Y18514000D01*
X89939500Y18519000D01*
X89842500Y18509000D01*
X89759500Y18485000D01*
X89693500Y18446000D01*
X89642500Y18392000D01*
X89610500Y18326000D01*
X89608500Y18312000D01*
X89606500Y18276000D01*
X89602500Y18222000D01*
X89600500Y18148000D01*
X89600500Y18055000D01*
X89598500Y17938000D01*
X89598500Y17801000D01*
X89598500Y17640000D01*
X89598500Y17001000D01*
X89314500Y17001000D01*
X89314500Y18369000D01*
X89263500Y18413000D01*
X89207500Y18456000D01*
X89127500Y18493000D01*
X89046500Y18514000D01*
X88962500Y18518000D01*
X88884500Y18506000D01*
X88812500Y18476000D01*
X88751500Y18431000D01*
X88704500Y18368000D01*
X88671500Y18307000D01*
X88667500Y17655000D01*
X88663500Y17001000D01*
X88380500Y17001000D01*
X88380500Y17627000D01*
X88380500Y17733000D01*
X88380500Y17865000D01*
X88381500Y17976000D01*
X88383500Y18068000D01*
X88385500Y18145000D01*
X88387500Y18208000D01*
X88391500Y18260000D01*
X88396500Y18303000D01*
X88401500Y18338000D01*
X88409500Y18366000D01*
X88417500Y18392000D01*
X88428500Y18417000D01*
X88441500Y18443000D01*
X88472500Y18495000D01*
X88538500Y18570000D01*
X88621500Y18626000D01*
X88719500Y18668000D01*
X88835500Y18694000D01*
X88965500Y18702000D01*
X89070500Y18697000D01*
G37*
X85466500Y17719000D02*
X85445500Y17559000D01*
X85420500Y17450000D01*
X85373500Y17326000D01*
X85313500Y17220000D01*
X85237500Y17131000D01*
X85147500Y17062000D01*
X85045500Y17010000D01*
X84928500Y16978000D01*
X84838500Y16970000D01*
X84737500Y16975000D01*
X84639500Y16992000D01*
X84546500Y17022000D01*
X84468500Y17060000D01*
X84420500Y17095000D01*
X84341500Y17175000D01*
X84274500Y17272000D01*
X84221500Y17384000D01*
X84183500Y17513000D01*
X84157500Y17656000D01*
X84149500Y17810000D01*
X84150946Y17858000D01*
X84431500Y17858000D01*
X84437500Y17710000D01*
X84450500Y17589000D01*
X84476500Y17474000D01*
X84510500Y17377000D01*
X84554500Y17301000D01*
X84609500Y17240000D01*
X84675500Y17198000D01*
X84700500Y17186000D01*
X84780500Y17167000D01*
X84857500Y17170000D01*
X84931500Y17193000D01*
X85000500Y17234000D01*
X85059500Y17296000D01*
X85104500Y17373000D01*
X85141500Y17472000D01*
X85167500Y17587000D01*
X85183500Y17714000D01*
X85188500Y17847000D01*
X85183500Y17979000D01*
X85167500Y18105000D01*
X85139500Y18220000D01*
X85103500Y18320000D01*
X85082500Y18357000D01*
X85029500Y18425000D01*
X84966500Y18474000D01*
X84896500Y18506000D01*
X84821500Y18519000D01*
X84745500Y18512000D01*
X84672500Y18486000D01*
X84604500Y18439000D01*
X84574500Y18405000D01*
X84524500Y18329000D01*
X84484500Y18234000D01*
X84455500Y18123000D01*
X84437500Y17996000D01*
X84431500Y17858000D01*
X84150946Y17858000D01*
X84154500Y17976000D01*
X84164500Y18067000D01*
X84192500Y18209000D01*
X84237500Y18334000D01*
X84297500Y18442000D01*
X84370500Y18532000D01*
X84410500Y18570000D01*
X84495500Y18628000D01*
X84588500Y18670000D01*
X84694500Y18695000D01*
X84814500Y18703000D01*
X84851500Y18702000D01*
X84971500Y18687000D01*
X85079500Y18651000D01*
X85175500Y18596000D01*
X85260500Y18520000D01*
X85279500Y18498000D01*
X85345500Y18401000D01*
X85397500Y18288000D01*
X85437500Y18161000D01*
X85460500Y18022000D01*
X85471500Y17873000D01*
X85470500Y17847000D01*
X85466500Y17719000D01*
G36*
X85466500Y17719000D02*
G01*
X85445500Y17559000D01*
X85420500Y17450000D01*
X85373500Y17326000D01*
X85313500Y17220000D01*
X85237500Y17131000D01*
X85147500Y17062000D01*
X85045500Y17010000D01*
X84928500Y16978000D01*
X84838500Y16970000D01*
X84737500Y16975000D01*
X84639500Y16992000D01*
X84546500Y17022000D01*
X84468500Y17060000D01*
X84420500Y17095000D01*
X84341500Y17175000D01*
X84274500Y17272000D01*
X84221500Y17384000D01*
X84183500Y17513000D01*
X84157500Y17656000D01*
X84149500Y17810000D01*
X84150946Y17858000D01*
X84431500Y17858000D01*
X84437500Y17710000D01*
X84450500Y17589000D01*
X84476500Y17474000D01*
X84510500Y17377000D01*
X84554500Y17301000D01*
X84609500Y17240000D01*
X84675500Y17198000D01*
X84700500Y17186000D01*
X84780500Y17167000D01*
X84857500Y17170000D01*
X84931500Y17193000D01*
X85000500Y17234000D01*
X85059500Y17296000D01*
X85104500Y17373000D01*
X85141500Y17472000D01*
X85167500Y17587000D01*
X85183500Y17714000D01*
X85188500Y17847000D01*
X85183500Y17979000D01*
X85167500Y18105000D01*
X85139500Y18220000D01*
X85103500Y18320000D01*
X85082500Y18357000D01*
X85029500Y18425000D01*
X84966500Y18474000D01*
X84896500Y18506000D01*
X84821500Y18519000D01*
X84745500Y18512000D01*
X84672500Y18486000D01*
X84604500Y18439000D01*
X84574500Y18405000D01*
X84524500Y18329000D01*
X84484500Y18234000D01*
X84455500Y18123000D01*
X84437500Y17996000D01*
X84431500Y17858000D01*
X84150946Y17858000D01*
X84154500Y17976000D01*
X84164500Y18067000D01*
X84192500Y18209000D01*
X84237500Y18334000D01*
X84297500Y18442000D01*
X84370500Y18532000D01*
X84410500Y18570000D01*
X84495500Y18628000D01*
X84588500Y18670000D01*
X84694500Y18695000D01*
X84814500Y18703000D01*
X84851500Y18702000D01*
X84971500Y18687000D01*
X85079500Y18651000D01*
X85175500Y18596000D01*
X85260500Y18520000D01*
X85279500Y18498000D01*
X85345500Y18401000D01*
X85397500Y18288000D01*
X85437500Y18161000D01*
X85460500Y18022000D01*
X85471500Y17873000D01*
X85470500Y17847000D01*
X85466500Y17719000D01*
G37*
X86950500Y18696000D02*
X87011500Y18684000D01*
X87091500Y18653000D01*
X87192500Y18595000D01*
X87280500Y18517000D01*
X87353500Y18422000D01*
X87415500Y18308000D01*
X87461500Y18177000D01*
X87470500Y18132000D01*
X87482500Y18050000D01*
X87490500Y17955000D01*
X87494500Y17854000D01*
X87494500Y17755000D01*
X87488500Y17663000D01*
X87477500Y17586000D01*
X87464500Y17521000D01*
X87421500Y17386000D01*
X87365500Y17271000D01*
X87294500Y17172000D01*
X87210500Y17092000D01*
X87112500Y17031000D01*
X87061500Y17008000D01*
X87008500Y16989000D01*
X86963500Y16978000D01*
X86934500Y16974000D01*
X86862500Y16971000D01*
X86782500Y16975000D01*
X86705500Y16983000D01*
X86641500Y16997000D01*
X86630500Y17001000D01*
X86583500Y17019000D01*
X86538500Y17039000D01*
X86503500Y17059000D01*
X86479500Y17077000D01*
X86471500Y17090000D01*
X86474500Y17095000D01*
X86500500Y17163000D01*
X86521500Y17210000D01*
X86535500Y17239000D01*
X86543500Y17255000D01*
X86548500Y17258000D01*
X86590500Y17236000D01*
X86644500Y17212000D01*
X86692500Y17196000D01*
X86739500Y17188000D01*
X86793500Y17186000D01*
X86795500Y17186000D01*
X86846500Y17187000D01*
X86883500Y17191000D01*
X86913500Y17202000D01*
X86950500Y17219000D01*
X86955500Y17222000D01*
X87027500Y17278000D01*
X87088500Y17354000D01*
X87139500Y17449000D01*
X87179500Y17567000D01*
X87187500Y17607000D01*
X87199500Y17687000D01*
X87204500Y17778000D01*
X87206500Y17875000D01*
X87202500Y17969000D01*
X87192500Y18056000D01*
X87179500Y18125000D01*
X87162500Y18182000D01*
X87120500Y18279000D01*
X87070500Y18362000D01*
X87014500Y18428000D01*
X86952500Y18471000D01*
X86878500Y18497000D01*
X86793500Y18504000D01*
X86705500Y18492000D01*
X86614500Y18462000D01*
X86585500Y18449000D01*
X86556500Y18437000D01*
X86540500Y18433000D01*
X86538500Y18435000D01*
X86527500Y18452000D01*
X86514500Y18482000D01*
X86498500Y18519000D01*
X86486500Y18556000D01*
X86476500Y18585000D01*
X86476500Y18599000D01*
X86476500Y18601000D01*
X86498500Y18616000D01*
X86534500Y18634000D01*
X86578500Y18654000D01*
X86627500Y18671000D01*
X86671500Y18685000D01*
X86715500Y18693000D01*
X86792500Y18701000D01*
X86873500Y18702000D01*
X86950500Y18696000D01*
G36*
X86950500Y18696000D02*
G01*
X87011500Y18684000D01*
X87091500Y18653000D01*
X87192500Y18595000D01*
X87280500Y18517000D01*
X87353500Y18422000D01*
X87415500Y18308000D01*
X87461500Y18177000D01*
X87470500Y18132000D01*
X87482500Y18050000D01*
X87490500Y17955000D01*
X87494500Y17854000D01*
X87494500Y17755000D01*
X87488500Y17663000D01*
X87477500Y17586000D01*
X87464500Y17521000D01*
X87421500Y17386000D01*
X87365500Y17271000D01*
X87294500Y17172000D01*
X87210500Y17092000D01*
X87112500Y17031000D01*
X87061500Y17008000D01*
X87008500Y16989000D01*
X86963500Y16978000D01*
X86934500Y16974000D01*
X86862500Y16971000D01*
X86782500Y16975000D01*
X86705500Y16983000D01*
X86641500Y16997000D01*
X86630500Y17001000D01*
X86583500Y17019000D01*
X86538500Y17039000D01*
X86503500Y17059000D01*
X86479500Y17077000D01*
X86471500Y17090000D01*
X86474500Y17095000D01*
X86500500Y17163000D01*
X86521500Y17210000D01*
X86535500Y17239000D01*
X86543500Y17255000D01*
X86548500Y17258000D01*
X86590500Y17236000D01*
X86644500Y17212000D01*
X86692500Y17196000D01*
X86739500Y17188000D01*
X86793500Y17186000D01*
X86795500Y17186000D01*
X86846500Y17187000D01*
X86883500Y17191000D01*
X86913500Y17202000D01*
X86950500Y17219000D01*
X86955500Y17222000D01*
X87027500Y17278000D01*
X87088500Y17354000D01*
X87139500Y17449000D01*
X87179500Y17567000D01*
X87187500Y17607000D01*
X87199500Y17687000D01*
X87204500Y17778000D01*
X87206500Y17875000D01*
X87202500Y17969000D01*
X87192500Y18056000D01*
X87179500Y18125000D01*
X87162500Y18182000D01*
X87120500Y18279000D01*
X87070500Y18362000D01*
X87014500Y18428000D01*
X86952500Y18471000D01*
X86878500Y18497000D01*
X86793500Y18504000D01*
X86705500Y18492000D01*
X86614500Y18462000D01*
X86585500Y18449000D01*
X86556500Y18437000D01*
X86540500Y18433000D01*
X86538500Y18435000D01*
X86527500Y18452000D01*
X86514500Y18482000D01*
X86498500Y18519000D01*
X86486500Y18556000D01*
X86476500Y18585000D01*
X86476500Y18599000D01*
X86476500Y18601000D01*
X86498500Y18616000D01*
X86534500Y18634000D01*
X86578500Y18654000D01*
X86627500Y18671000D01*
X86671500Y18685000D01*
X86715500Y18693000D01*
X86792500Y18701000D01*
X86873500Y18702000D01*
X86950500Y18696000D01*
G37*
X94461500Y17509000D02*
X94461500Y17454000D01*
X94448500Y17345000D01*
X94416500Y17248000D01*
X94365500Y17166000D01*
X94295500Y17097000D01*
X94206500Y17044000D01*
X94099500Y17003000D01*
X93974500Y16978000D01*
X93911500Y16972000D01*
X93790500Y16970000D01*
X93663500Y16979000D01*
X93540500Y16997000D01*
X93424500Y17026000D01*
X93325500Y17061000D01*
X93271500Y17086000D01*
X93271500Y17662000D01*
X93271500Y17730000D01*
X93271500Y17857000D01*
X93272181Y17936000D01*
X93530500Y17936000D01*
X93530500Y17193000D01*
X93586500Y17173000D01*
X93593500Y17171000D01*
X93643500Y17160000D01*
X93707500Y17152000D01*
X93778500Y17148000D01*
X93847500Y17148000D01*
X93909500Y17151000D01*
X93956500Y17159000D01*
X93992500Y17171000D01*
X94068500Y17212000D01*
X94125500Y17266000D01*
X94166500Y17338000D01*
X94186500Y17422000D01*
X94190500Y17519000D01*
X94189500Y17532000D01*
X94170500Y17616000D01*
X94131500Y17691000D01*
X94073500Y17754000D01*
X93996500Y17809000D01*
X93896500Y17855000D01*
X93775500Y17893000D01*
X93756500Y17897000D01*
X93698500Y17911000D01*
X93642500Y17921000D01*
X93598500Y17928000D01*
X93530500Y17936000D01*
X93272181Y17936000D01*
X93272500Y17973000D01*
X93274500Y18073000D01*
X93275500Y18159000D01*
X93278500Y18227000D01*
X93279500Y18275000D01*
X93283500Y18303000D01*
X93296500Y18355000D01*
X93327500Y18431000D01*
X93364500Y18499000D01*
X93408500Y18553000D01*
X93436500Y18580000D01*
X93496500Y18622000D01*
X93565500Y18654000D01*
X93650500Y18681000D01*
X93724500Y18695000D01*
X93837500Y18702000D01*
X93958500Y18697000D01*
X94081500Y18681000D01*
X94198500Y18652000D01*
X94304500Y18614000D01*
X94333500Y18600000D01*
X94359500Y18587000D01*
X94368500Y18580000D01*
X94368500Y18577000D01*
X94361500Y18557000D01*
X94351500Y18524000D01*
X94336500Y18486000D01*
X94323500Y18451000D01*
X94311500Y18423000D01*
X94304500Y18410000D01*
X94295500Y18411000D01*
X94267500Y18421000D01*
X94231500Y18435000D01*
X94222500Y18440000D01*
X94106500Y18478000D01*
X93992500Y18502000D01*
X93883500Y18510000D01*
X93786500Y18501000D01*
X93750500Y18493000D01*
X93674500Y18465000D01*
X93617500Y18422000D01*
X93575500Y18363000D01*
X93548500Y18287000D01*
X93534500Y18192000D01*
X93528500Y18092000D01*
X93650500Y18077000D01*
X93651500Y18077000D01*
X93794500Y18055000D01*
X93928500Y18022000D01*
X94050500Y17983000D01*
X94159500Y17936000D01*
X94250500Y17884000D01*
X94322500Y17829000D01*
X94353500Y17794000D01*
X94411500Y17710000D01*
X94445500Y17615000D01*
X94460500Y17519000D01*
X94461500Y17509000D01*
G36*
X94461500Y17509000D02*
G01*
X94461500Y17454000D01*
X94448500Y17345000D01*
X94416500Y17248000D01*
X94365500Y17166000D01*
X94295500Y17097000D01*
X94206500Y17044000D01*
X94099500Y17003000D01*
X93974500Y16978000D01*
X93911500Y16972000D01*
X93790500Y16970000D01*
X93663500Y16979000D01*
X93540500Y16997000D01*
X93424500Y17026000D01*
X93325500Y17061000D01*
X93271500Y17086000D01*
X93271500Y17662000D01*
X93271500Y17730000D01*
X93271500Y17857000D01*
X93272181Y17936000D01*
X93530500Y17936000D01*
X93530500Y17193000D01*
X93586500Y17173000D01*
X93593500Y17171000D01*
X93643500Y17160000D01*
X93707500Y17152000D01*
X93778500Y17148000D01*
X93847500Y17148000D01*
X93909500Y17151000D01*
X93956500Y17159000D01*
X93992500Y17171000D01*
X94068500Y17212000D01*
X94125500Y17266000D01*
X94166500Y17338000D01*
X94186500Y17422000D01*
X94190500Y17519000D01*
X94189500Y17532000D01*
X94170500Y17616000D01*
X94131500Y17691000D01*
X94073500Y17754000D01*
X93996500Y17809000D01*
X93896500Y17855000D01*
X93775500Y17893000D01*
X93756500Y17897000D01*
X93698500Y17911000D01*
X93642500Y17921000D01*
X93598500Y17928000D01*
X93530500Y17936000D01*
X93272181Y17936000D01*
X93272500Y17973000D01*
X93274500Y18073000D01*
X93275500Y18159000D01*
X93278500Y18227000D01*
X93279500Y18275000D01*
X93283500Y18303000D01*
X93296500Y18355000D01*
X93327500Y18431000D01*
X93364500Y18499000D01*
X93408500Y18553000D01*
X93436500Y18580000D01*
X93496500Y18622000D01*
X93565500Y18654000D01*
X93650500Y18681000D01*
X93724500Y18695000D01*
X93837500Y18702000D01*
X93958500Y18697000D01*
X94081500Y18681000D01*
X94198500Y18652000D01*
X94304500Y18614000D01*
X94333500Y18600000D01*
X94359500Y18587000D01*
X94368500Y18580000D01*
X94368500Y18577000D01*
X94361500Y18557000D01*
X94351500Y18524000D01*
X94336500Y18486000D01*
X94323500Y18451000D01*
X94311500Y18423000D01*
X94304500Y18410000D01*
X94295500Y18411000D01*
X94267500Y18421000D01*
X94231500Y18435000D01*
X94222500Y18440000D01*
X94106500Y18478000D01*
X93992500Y18502000D01*
X93883500Y18510000D01*
X93786500Y18501000D01*
X93750500Y18493000D01*
X93674500Y18465000D01*
X93617500Y18422000D01*
X93575500Y18363000D01*
X93548500Y18287000D01*
X93534500Y18192000D01*
X93528500Y18092000D01*
X93650500Y18077000D01*
X93651500Y18077000D01*
X93794500Y18055000D01*
X93928500Y18022000D01*
X94050500Y17983000D01*
X94159500Y17936000D01*
X94250500Y17884000D01*
X94322500Y17829000D01*
X94353500Y17794000D01*
X94411500Y17710000D01*
X94445500Y17615000D01*
X94460500Y17519000D01*
X94461500Y17509000D01*
G37*
X99150500Y17709000D02*
X99150500Y17510000D01*
X99150500Y17333000D01*
X99149500Y17176000D01*
X99149500Y17042000D01*
X99149500Y16930000D01*
X99147500Y16840000D01*
X99145500Y16773000D01*
X99144500Y16729000D01*
X99141500Y16707000D01*
X99137500Y16695000D01*
X99134500Y16681000D01*
X99131500Y16669000D01*
X99125500Y16657000D01*
X99118500Y16646000D01*
X99107500Y16632000D01*
X99091500Y16616000D01*
X99072500Y16600000D01*
X99044500Y16580000D01*
X99011500Y16556000D01*
X98968500Y16529000D01*
X98918500Y16495000D01*
X98857500Y16459000D01*
X98785500Y16415000D01*
X98700500Y16366000D01*
X98604500Y16308000D01*
X98493500Y16245000D01*
X98368500Y16171000D01*
X98227500Y16090000D01*
X98070500Y16000000D01*
X97894500Y15899000D01*
X97700500Y15788000D01*
X97487500Y15664000D01*
X97139500Y15465000D01*
X97051500Y15469000D01*
X96961500Y15473000D01*
X96011500Y16022000D01*
X95942500Y16062000D01*
X95785500Y16154000D01*
X95647500Y16233000D01*
X95525500Y16304000D01*
X95421500Y16364000D01*
X95331500Y16417000D01*
X95256500Y16463000D01*
X95193500Y16502000D01*
X95141500Y16534000D01*
X95098500Y16564000D01*
X95066500Y16588000D01*
X95041500Y16608000D01*
X95022500Y16626000D01*
X95008500Y16643000D01*
X95000500Y16657000D01*
X94992500Y16673000D01*
X94988500Y16689000D01*
X94982500Y16707000D01*
X94981500Y16721000D01*
X94980500Y16761000D01*
X94977500Y16823000D01*
X94976500Y16907000D01*
X94974500Y17015000D01*
X94973500Y17144000D01*
X94973500Y17295000D01*
X94973500Y17468000D01*
X94973500Y17662000D01*
X94973500Y17878000D01*
X94974424Y18138000D01*
X95703500Y18138000D01*
X95703500Y18007000D01*
X95703500Y17851000D01*
X95703500Y17838000D01*
X95703500Y17688000D01*
X95703500Y17558000D01*
X95705500Y17447000D01*
X95705500Y17356000D01*
X95706500Y17280000D01*
X95708500Y17217000D01*
X95711500Y17170000D01*
X95714500Y17131000D01*
X95719500Y17102000D01*
X95726500Y17081000D01*
X95732500Y17065000D01*
X95742500Y17052000D01*
X95751500Y17041000D01*
X95764500Y17030000D01*
X95782500Y17018000D01*
X95817500Y16996000D01*
X95868500Y16966000D01*
X95932500Y16928000D01*
X96008500Y16882000D01*
X96093500Y16833000D01*
X96185500Y16780000D01*
X96282500Y16723000D01*
X96381500Y16665000D01*
X96480500Y16608000D01*
X96577500Y16552000D01*
X96671500Y16499000D01*
X96756500Y16451000D01*
X96833500Y16407000D01*
X96899500Y16370000D01*
X96952500Y16340000D01*
X96990500Y16320000D01*
X97009500Y16310000D01*
X97024500Y16304000D01*
X97048500Y16296000D01*
X97068500Y16296000D01*
X97099500Y16304000D01*
X97101500Y16306000D01*
X97125500Y16318000D01*
X97165500Y16340000D01*
X97221500Y16370000D01*
X97290500Y16409000D01*
X97368500Y16453000D01*
X97456500Y16503000D01*
X97551500Y16556000D01*
X97649500Y16612000D01*
X97748500Y16671000D01*
X97847500Y16727000D01*
X97943500Y16784000D01*
X98035500Y16837000D01*
X98120500Y16887000D01*
X98195500Y16931000D01*
X98259500Y16968000D01*
X98309500Y16998000D01*
X98343500Y17020000D01*
X98359500Y17031000D01*
X98360500Y17032000D01*
X98373500Y17042000D01*
X98383500Y17053000D01*
X98391500Y17066000D01*
X98399500Y17082000D01*
X98405500Y17104000D01*
X98410500Y17133000D01*
X98413500Y17173000D01*
X98415500Y17222000D01*
X98418500Y17285000D01*
X98418500Y17362000D01*
X98419500Y17455000D01*
X98419500Y17567000D01*
X98421500Y17698000D01*
X98421500Y17851000D01*
X98421500Y17984000D01*
X98419500Y18120000D01*
X98419500Y18234000D01*
X98418500Y18331000D01*
X98418500Y18409000D01*
X98415500Y18473000D01*
X98413500Y18525000D01*
X98410500Y18566000D01*
X98405500Y18596000D01*
X98400500Y18618000D01*
X98394500Y18635000D01*
X98386500Y18648000D01*
X98376500Y18658000D01*
X98365500Y18668000D01*
X98352500Y18678000D01*
X98320500Y18698000D01*
X98270500Y18726000D01*
X98206500Y18764000D01*
X98129500Y18810000D01*
X98040500Y18862000D01*
X97943500Y18918000D01*
X97838500Y18979000D01*
X97726500Y19043000D01*
X97644500Y19092000D01*
X97527500Y19158000D01*
X97426500Y19217000D01*
X97342500Y19263000D01*
X97272500Y19302000D01*
X97216500Y19334000D01*
X97171500Y19358000D01*
X97136500Y19374000D01*
X97109500Y19386000D01*
X97088500Y19394000D01*
X97072500Y19398000D01*
X97060500Y19400000D01*
X97056500Y19400000D01*
X97041500Y19396000D01*
X97024500Y19392000D01*
X97000500Y19382000D01*
X96971500Y19368000D01*
X96931500Y19348000D01*
X96881500Y19320000D01*
X96817500Y19285000D01*
X96742500Y19243000D01*
X96649500Y19191000D01*
X96540500Y19128000D01*
X96413500Y19054000D01*
X96325500Y19003000D01*
X96218500Y18941000D01*
X96118500Y18884000D01*
X96028500Y18832000D01*
X95948500Y18784000D01*
X95881500Y18745000D01*
X95830500Y18715000D01*
X95793500Y18693000D01*
X95777500Y18682000D01*
X95770500Y18678000D01*
X95756500Y18666000D01*
X95745500Y18656000D01*
X95735500Y18643000D01*
X95727500Y18626000D01*
X95721500Y18604000D01*
X95716500Y18575000D01*
X95711500Y18535000D01*
X95708500Y18485000D01*
X95706500Y18423000D01*
X95705500Y18344000D01*
X95705500Y18250000D01*
X95703500Y18138000D01*
X94974424Y18138000D01*
X94977500Y19003000D01*
X95009500Y19058000D01*
X95048500Y19108000D01*
X95097500Y19148000D01*
X95101500Y19150000D01*
X95129500Y19167000D01*
X95174500Y19195000D01*
X95235500Y19229000D01*
X95311500Y19273000D01*
X95397500Y19324000D01*
X95495500Y19380000D01*
X95599500Y19441000D01*
X95713500Y19507000D01*
X95828500Y19574000D01*
X95948500Y19642000D01*
X96070500Y19713000D01*
X96190500Y19781000D01*
X96309500Y19849000D01*
X96423500Y19914000D01*
X96530500Y19977000D01*
X96631500Y20033000D01*
X96721500Y20086000D01*
X96801500Y20130000D01*
X96867500Y20167000D01*
X96918500Y20196000D01*
X96951500Y20215000D01*
X96966500Y20223000D01*
X96968500Y20223000D01*
X97016500Y20235000D01*
X97080500Y20235000D01*
X97083500Y20235000D01*
X97096500Y20235000D01*
X97109500Y20231000D01*
X97125500Y20227000D01*
X97142500Y20222000D01*
X97165500Y20211000D01*
X97193500Y20198000D01*
X97229500Y20179000D01*
X97274500Y20155000D01*
X97328500Y20126000D01*
X97394500Y20090000D01*
X97471500Y20045000D01*
X97564500Y19993000D01*
X97671500Y19932000D01*
X97793500Y19860000D01*
X97934500Y19779000D01*
X98094500Y19686000D01*
X98109500Y19677000D01*
X98246500Y19598000D01*
X98378500Y19521000D01*
X98503500Y19449000D01*
X98620500Y19380000D01*
X98726500Y19318000D01*
X98822500Y19263000D01*
X98903500Y19213000D01*
X98971500Y19172000D01*
X99022500Y19142000D01*
X99056500Y19120000D01*
X99072500Y19110000D01*
X99076500Y19106000D01*
X99088500Y19094000D01*
X99099500Y19086000D01*
X99107500Y19076000D01*
X99115500Y19064000D01*
X99123500Y19047000D01*
X99128500Y19027000D01*
X99132500Y19001000D01*
X99136500Y18967000D01*
X99139500Y18922000D01*
X99142500Y18868000D01*
X99144500Y18802000D01*
X99145500Y18722000D01*
X99147500Y18627000D01*
X99147500Y18515000D01*
X99149500Y18386000D01*
X99149500Y18239000D01*
X99149500Y18069000D01*
X99149500Y17878000D01*
X99149500Y17851000D01*
X99150500Y17709000D01*
G36*
X99150500Y17709000D02*
G01*
X99150500Y17510000D01*
X99150500Y17333000D01*
X99149500Y17176000D01*
X99149500Y17042000D01*
X99149500Y16930000D01*
X99147500Y16840000D01*
X99145500Y16773000D01*
X99144500Y16729000D01*
X99141500Y16707000D01*
X99137500Y16695000D01*
X99134500Y16681000D01*
X99131500Y16669000D01*
X99125500Y16657000D01*
X99118500Y16646000D01*
X99107500Y16632000D01*
X99091500Y16616000D01*
X99072500Y16600000D01*
X99044500Y16580000D01*
X99011500Y16556000D01*
X98968500Y16529000D01*
X98918500Y16495000D01*
X98857500Y16459000D01*
X98785500Y16415000D01*
X98700500Y16366000D01*
X98604500Y16308000D01*
X98493500Y16245000D01*
X98368500Y16171000D01*
X98227500Y16090000D01*
X98070500Y16000000D01*
X97894500Y15899000D01*
X97700500Y15788000D01*
X97487500Y15664000D01*
X97139500Y15465000D01*
X97051500Y15469000D01*
X96961500Y15473000D01*
X96011500Y16022000D01*
X95942500Y16062000D01*
X95785500Y16154000D01*
X95647500Y16233000D01*
X95525500Y16304000D01*
X95421500Y16364000D01*
X95331500Y16417000D01*
X95256500Y16463000D01*
X95193500Y16502000D01*
X95141500Y16534000D01*
X95098500Y16564000D01*
X95066500Y16588000D01*
X95041500Y16608000D01*
X95022500Y16626000D01*
X95008500Y16643000D01*
X95000500Y16657000D01*
X94992500Y16673000D01*
X94988500Y16689000D01*
X94982500Y16707000D01*
X94981500Y16721000D01*
X94980500Y16761000D01*
X94977500Y16823000D01*
X94976500Y16907000D01*
X94974500Y17015000D01*
X94973500Y17144000D01*
X94973500Y17295000D01*
X94973500Y17468000D01*
X94973500Y17662000D01*
X94973500Y17878000D01*
X94974424Y18138000D01*
X95703500Y18138000D01*
X95703500Y18007000D01*
X95703500Y17851000D01*
X95703500Y17838000D01*
X95703500Y17688000D01*
X95703500Y17558000D01*
X95705500Y17447000D01*
X95705500Y17356000D01*
X95706500Y17280000D01*
X95708500Y17217000D01*
X95711500Y17170000D01*
X95714500Y17131000D01*
X95719500Y17102000D01*
X95726500Y17081000D01*
X95732500Y17065000D01*
X95742500Y17052000D01*
X95751500Y17041000D01*
X95764500Y17030000D01*
X95782500Y17018000D01*
X95817500Y16996000D01*
X95868500Y16966000D01*
X95932500Y16928000D01*
X96008500Y16882000D01*
X96093500Y16833000D01*
X96185500Y16780000D01*
X96282500Y16723000D01*
X96381500Y16665000D01*
X96480500Y16608000D01*
X96577500Y16552000D01*
X96671500Y16499000D01*
X96756500Y16451000D01*
X96833500Y16407000D01*
X96899500Y16370000D01*
X96952500Y16340000D01*
X96990500Y16320000D01*
X97009500Y16310000D01*
X97024500Y16304000D01*
X97048500Y16296000D01*
X97068500Y16296000D01*
X97099500Y16304000D01*
X97101500Y16306000D01*
X97125500Y16318000D01*
X97165500Y16340000D01*
X97221500Y16370000D01*
X97290500Y16409000D01*
X97368500Y16453000D01*
X97456500Y16503000D01*
X97551500Y16556000D01*
X97649500Y16612000D01*
X97748500Y16671000D01*
X97847500Y16727000D01*
X97943500Y16784000D01*
X98035500Y16837000D01*
X98120500Y16887000D01*
X98195500Y16931000D01*
X98259500Y16968000D01*
X98309500Y16998000D01*
X98343500Y17020000D01*
X98359500Y17031000D01*
X98360500Y17032000D01*
X98373500Y17042000D01*
X98383500Y17053000D01*
X98391500Y17066000D01*
X98399500Y17082000D01*
X98405500Y17104000D01*
X98410500Y17133000D01*
X98413500Y17173000D01*
X98415500Y17222000D01*
X98418500Y17285000D01*
X98418500Y17362000D01*
X98419500Y17455000D01*
X98419500Y17567000D01*
X98421500Y17698000D01*
X98421500Y17851000D01*
X98421500Y17984000D01*
X98419500Y18120000D01*
X98419500Y18234000D01*
X98418500Y18331000D01*
X98418500Y18409000D01*
X98415500Y18473000D01*
X98413500Y18525000D01*
X98410500Y18566000D01*
X98405500Y18596000D01*
X98400500Y18618000D01*
X98394500Y18635000D01*
X98386500Y18648000D01*
X98376500Y18658000D01*
X98365500Y18668000D01*
X98352500Y18678000D01*
X98320500Y18698000D01*
X98270500Y18726000D01*
X98206500Y18764000D01*
X98129500Y18810000D01*
X98040500Y18862000D01*
X97943500Y18918000D01*
X97838500Y18979000D01*
X97726500Y19043000D01*
X97644500Y19092000D01*
X97527500Y19158000D01*
X97426500Y19217000D01*
X97342500Y19263000D01*
X97272500Y19302000D01*
X97216500Y19334000D01*
X97171500Y19358000D01*
X97136500Y19374000D01*
X97109500Y19386000D01*
X97088500Y19394000D01*
X97072500Y19398000D01*
X97060500Y19400000D01*
X97056500Y19400000D01*
X97041500Y19396000D01*
X97024500Y19392000D01*
X97000500Y19382000D01*
X96971500Y19368000D01*
X96931500Y19348000D01*
X96881500Y19320000D01*
X96817500Y19285000D01*
X96742500Y19243000D01*
X96649500Y19191000D01*
X96540500Y19128000D01*
X96413500Y19054000D01*
X96325500Y19003000D01*
X96218500Y18941000D01*
X96118500Y18884000D01*
X96028500Y18832000D01*
X95948500Y18784000D01*
X95881500Y18745000D01*
X95830500Y18715000D01*
X95793500Y18693000D01*
X95777500Y18682000D01*
X95770500Y18678000D01*
X95756500Y18666000D01*
X95745500Y18656000D01*
X95735500Y18643000D01*
X95727500Y18626000D01*
X95721500Y18604000D01*
X95716500Y18575000D01*
X95711500Y18535000D01*
X95708500Y18485000D01*
X95706500Y18423000D01*
X95705500Y18344000D01*
X95705500Y18250000D01*
X95703500Y18138000D01*
X94974424Y18138000D01*
X94977500Y19003000D01*
X95009500Y19058000D01*
X95048500Y19108000D01*
X95097500Y19148000D01*
X95101500Y19150000D01*
X95129500Y19167000D01*
X95174500Y19195000D01*
X95235500Y19229000D01*
X95311500Y19273000D01*
X95397500Y19324000D01*
X95495500Y19380000D01*
X95599500Y19441000D01*
X95713500Y19507000D01*
X95828500Y19574000D01*
X95948500Y19642000D01*
X96070500Y19713000D01*
X96190500Y19781000D01*
X96309500Y19849000D01*
X96423500Y19914000D01*
X96530500Y19977000D01*
X96631500Y20033000D01*
X96721500Y20086000D01*
X96801500Y20130000D01*
X96867500Y20167000D01*
X96918500Y20196000D01*
X96951500Y20215000D01*
X96966500Y20223000D01*
X96968500Y20223000D01*
X97016500Y20235000D01*
X97080500Y20235000D01*
X97083500Y20235000D01*
X97096500Y20235000D01*
X97109500Y20231000D01*
X97125500Y20227000D01*
X97142500Y20222000D01*
X97165500Y20211000D01*
X97193500Y20198000D01*
X97229500Y20179000D01*
X97274500Y20155000D01*
X97328500Y20126000D01*
X97394500Y20090000D01*
X97471500Y20045000D01*
X97564500Y19993000D01*
X97671500Y19932000D01*
X97793500Y19860000D01*
X97934500Y19779000D01*
X98094500Y19686000D01*
X98109500Y19677000D01*
X98246500Y19598000D01*
X98378500Y19521000D01*
X98503500Y19449000D01*
X98620500Y19380000D01*
X98726500Y19318000D01*
X98822500Y19263000D01*
X98903500Y19213000D01*
X98971500Y19172000D01*
X99022500Y19142000D01*
X99056500Y19120000D01*
X99072500Y19110000D01*
X99076500Y19106000D01*
X99088500Y19094000D01*
X99099500Y19086000D01*
X99107500Y19076000D01*
X99115500Y19064000D01*
X99123500Y19047000D01*
X99128500Y19027000D01*
X99132500Y19001000D01*
X99136500Y18967000D01*
X99139500Y18922000D01*
X99142500Y18868000D01*
X99144500Y18802000D01*
X99145500Y18722000D01*
X99147500Y18627000D01*
X99147500Y18515000D01*
X99149500Y18386000D01*
X99149500Y18239000D01*
X99149500Y18069000D01*
X99149500Y17878000D01*
X99149500Y17851000D01*
X99150500Y17709000D01*
G37*
X97250500Y18585000D02*
X97237500Y18545000D01*
X97200500Y18494000D01*
X97144500Y18459000D01*
X97097500Y18438000D01*
X97097500Y18159000D01*
X97304500Y18159000D01*
X97389500Y18244000D01*
X97474500Y18328000D01*
X97466500Y18388000D01*
X97466500Y18390000D01*
X97546500Y18390000D01*
X97560500Y18362000D01*
X97568500Y18355000D01*
X97597500Y18348000D01*
X97629500Y18356000D01*
X97655500Y18375000D01*
X97665500Y18402000D01*
X97660500Y18413000D01*
X97645500Y18437000D01*
X97625500Y18458000D01*
X97607500Y18467000D01*
X97594500Y18462000D01*
X97572500Y18448000D01*
X97551500Y18422000D01*
X97546500Y18390000D01*
X97466500Y18390000D01*
X97466500Y18402000D01*
X97466500Y18437000D01*
X97474500Y18461000D01*
X97492500Y18486000D01*
X97525500Y18517000D01*
X97572500Y18538000D01*
X97620500Y18540000D01*
X97665500Y18527000D01*
X97703500Y18501000D01*
X97730500Y18463000D01*
X97742500Y18414000D01*
X97742500Y18402000D01*
X97737500Y18359000D01*
X97730500Y18344000D01*
X97702500Y18300000D01*
X97660500Y18273000D01*
X97602500Y18265000D01*
X97583500Y18265000D01*
X97562500Y18262000D01*
X97540500Y18254000D01*
X97517500Y18239000D01*
X97487500Y18211000D01*
X97442500Y18171000D01*
X97341500Y18076000D01*
X97097500Y18076000D01*
X97097500Y17887000D01*
X97544500Y17887000D01*
X97565500Y17922000D01*
X97597500Y17959000D01*
X97642500Y17983000D01*
X97693500Y17990000D01*
X97742500Y17979000D01*
X97785500Y17948000D01*
X97796500Y17932000D01*
X97820500Y17883000D01*
X97823500Y17850000D01*
X97825500Y17833000D01*
X97812500Y17786000D01*
X97782500Y17746000D01*
X97740500Y17721000D01*
X97685500Y17710000D01*
X97658500Y17713000D01*
X97617500Y17729000D01*
X97583500Y17754000D01*
X97564500Y17780000D01*
X97562500Y17783000D01*
X97559500Y17791000D01*
X97549500Y17797000D01*
X97533500Y17801000D01*
X97506500Y17802000D01*
X97464500Y17805000D01*
X97405500Y17805000D01*
X97326500Y17805000D01*
X97097500Y17805000D01*
X97097500Y17628000D01*
X97339500Y17628000D01*
X97536500Y17431000D01*
X97591500Y17436000D01*
X97617500Y17436000D01*
X97671500Y17424000D01*
X97710500Y17393000D01*
X97735500Y17346000D01*
X97742500Y17311000D01*
X97745500Y17297000D01*
X97734500Y17246000D01*
X97700500Y17202000D01*
X97663500Y17174000D01*
X97615500Y17159000D01*
X97567500Y17163000D01*
X97524500Y17183000D01*
X97490500Y17217000D01*
X97469500Y17263000D01*
X97468464Y17292000D01*
X97549500Y17292000D01*
X97564500Y17260000D01*
X97586500Y17242000D01*
X97612500Y17240000D01*
X97641500Y17261000D01*
X97658500Y17286000D01*
X97661500Y17311000D01*
X97641500Y17338000D01*
X97623500Y17350000D01*
X97588500Y17352000D01*
X97573500Y17346000D01*
X97554500Y17322000D01*
X97549500Y17292000D01*
X97468464Y17292000D01*
X97467500Y17319000D01*
X97474500Y17375000D01*
X97304500Y17545000D01*
X97097500Y17545000D01*
X97097500Y17265000D01*
X97145500Y17243000D01*
X97155500Y17239000D01*
X97202500Y17203000D01*
X97235500Y17154000D01*
X97253500Y17097000D01*
X97253500Y17067000D01*
X97253500Y17039000D01*
X97238500Y16982000D01*
X97206500Y16934000D01*
X97158500Y16896000D01*
X97157500Y16895000D01*
X97096500Y16875000D01*
X97030500Y16875000D01*
X96968500Y16895000D01*
X96958500Y16901000D01*
X96911500Y16941000D01*
X96883500Y16990000D01*
X96868500Y17048000D01*
X96870167Y17067000D01*
X96950500Y17067000D01*
X96951500Y17048000D01*
X96963500Y17018000D01*
X96988500Y16988000D01*
X97004500Y16975000D01*
X97048500Y16957000D01*
X97091500Y16961000D01*
X97134500Y16988000D01*
X97150500Y17003000D01*
X97168500Y17032000D01*
X97173500Y17067000D01*
X97165500Y17101000D01*
X97141500Y17141000D01*
X97104500Y17169000D01*
X97062500Y17179000D01*
X97027500Y17172000D01*
X96990500Y17147000D01*
X96961500Y17109000D01*
X96950500Y17067000D01*
X96870167Y17067000D01*
X96873500Y17105000D01*
X96891500Y17162000D01*
X96926500Y17209000D01*
X96977500Y17243000D01*
X97027500Y17265000D01*
X97027500Y17545000D01*
X96820500Y17545000D01*
X96649500Y17375000D01*
X96657500Y17319000D01*
X96657500Y17309000D01*
X96655500Y17273000D01*
X96637500Y17224000D01*
X96607500Y17188000D01*
X96564500Y17165000D01*
X96517500Y17159000D01*
X96468500Y17170000D01*
X96423500Y17202000D01*
X96394500Y17240000D01*
X96379500Y17290000D01*
X96379643Y17291000D01*
X96463500Y17291000D01*
X96484500Y17261000D01*
X96508500Y17242000D01*
X96533500Y17241000D01*
X96560500Y17261000D01*
X96572500Y17279000D01*
X96575500Y17309000D01*
X96564500Y17334000D01*
X96540500Y17350000D01*
X96511500Y17353000D01*
X96482500Y17338000D01*
X96464500Y17316000D01*
X96463500Y17291000D01*
X96379643Y17291000D01*
X96387500Y17346000D01*
X96395500Y17368000D01*
X96427500Y17409000D01*
X96474500Y17432000D01*
X96532500Y17436000D01*
X96588500Y17431000D01*
X96783500Y17628000D01*
X97027500Y17628000D01*
X97027500Y17805000D01*
X96798500Y17805000D01*
X96778500Y17805000D01*
X96705500Y17805000D01*
X96649500Y17803000D01*
X96612500Y17802000D01*
X96588500Y17799000D01*
X96572500Y17795000D01*
X96565500Y17789000D01*
X96562500Y17781000D01*
X96562500Y17777000D01*
X96544500Y17755000D01*
X96516500Y17735000D01*
X96506500Y17729000D01*
X96453500Y17711000D01*
X96405500Y17714000D01*
X96362500Y17733000D01*
X96327500Y17763000D01*
X96306500Y17805000D01*
X96300811Y17837000D01*
X96379500Y17837000D01*
X96394500Y17817000D01*
X96415500Y17801000D01*
X96447500Y17794000D01*
X96476500Y17811000D01*
X96488500Y17829000D01*
X96490318Y17841000D01*
X97631500Y17841000D01*
X97647500Y17811000D01*
X97668500Y17797000D01*
X97698500Y17797000D01*
X97729500Y17817000D01*
X97742500Y17832000D01*
X97745500Y17850000D01*
X97734500Y17873000D01*
X97710500Y17901000D01*
X97681500Y17909000D01*
X97652500Y17893000D01*
X97636500Y17873000D01*
X97633500Y17862000D01*
X97631500Y17841000D01*
X96490318Y17841000D01*
X96493500Y17862000D01*
X96476500Y17894000D01*
X96474500Y17896000D01*
X96445500Y17909000D01*
X96415500Y17900000D01*
X96389500Y17873000D01*
X96381500Y17854000D01*
X96379500Y17837000D01*
X96300811Y17837000D01*
X96298500Y17850000D01*
X96309500Y17899000D01*
X96339500Y17948000D01*
X96343500Y17951000D01*
X96386500Y17980000D01*
X96434500Y17989000D01*
X96484500Y17983000D01*
X96528500Y17959000D01*
X96560500Y17921000D01*
X96578500Y17887000D01*
X97027500Y17887000D01*
X97027500Y18076000D01*
X96782500Y18076000D01*
X96681500Y18171000D01*
X96652500Y18197000D01*
X96617500Y18230000D01*
X96591500Y18249000D01*
X96570500Y18260000D01*
X96549500Y18264000D01*
X96524500Y18265000D01*
X96514500Y18265000D01*
X96458500Y18277000D01*
X96415500Y18308000D01*
X96389500Y18354000D01*
X96382969Y18394000D01*
X96461500Y18394000D01*
X96479500Y18366000D01*
X96503500Y18352000D01*
X96535500Y18349000D01*
X96564500Y18362000D01*
X96577500Y18389000D01*
X96572500Y18422000D01*
X96551500Y18448000D01*
X96549500Y18450000D01*
X96524500Y18464000D01*
X96506500Y18462000D01*
X96484500Y18443000D01*
X96468500Y18423000D01*
X96461500Y18394000D01*
X96382969Y18394000D01*
X96381500Y18403000D01*
X96389500Y18453000D01*
X96413500Y18493000D01*
X96450500Y18522000D01*
X96493500Y18538000D01*
X96541500Y18539000D01*
X96588500Y18523000D01*
X96631500Y18486000D01*
X96639500Y18478000D01*
X96653500Y18454000D01*
X96658500Y18428000D01*
X96657500Y18389000D01*
X96657500Y18388000D01*
X96650500Y18328000D01*
X96735500Y18244000D01*
X96820500Y18159000D01*
X97027500Y18159000D01*
X97027500Y18437000D01*
X96977500Y18461000D01*
X96937500Y18485000D01*
X96895500Y18530000D01*
X96873500Y18592000D01*
X96870500Y18606000D01*
X96870844Y18628000D01*
X96950500Y18628000D01*
X96963500Y18588000D01*
X96998500Y18551000D01*
X97003500Y18546000D01*
X97048500Y18527000D01*
X97093500Y18529000D01*
X97133500Y18552000D01*
X97163500Y18592000D01*
X97171500Y18612000D01*
X97176500Y18639000D01*
X97168500Y18668000D01*
X97147500Y18705000D01*
X97110500Y18735000D01*
X97068500Y18747000D01*
X97027500Y18741000D01*
X96988500Y18717000D01*
X96960500Y18671000D01*
X96950500Y18628000D01*
X96870844Y18628000D01*
X96871500Y18670000D01*
X96894500Y18730000D01*
X96934500Y18780000D01*
X96987500Y18816000D01*
X96998500Y18820000D01*
X97059500Y18832000D01*
X97118500Y18822000D01*
X97171500Y18796000D01*
X97213500Y18756000D01*
X97243500Y18707000D01*
X97258500Y18647000D01*
X97256500Y18639000D01*
X97250500Y18585000D01*
G36*
X97250500Y18585000D02*
G01*
X97237500Y18545000D01*
X97200500Y18494000D01*
X97144500Y18459000D01*
X97097500Y18438000D01*
X97097500Y18159000D01*
X97304500Y18159000D01*
X97389500Y18244000D01*
X97474500Y18328000D01*
X97466500Y18388000D01*
X97466500Y18390000D01*
X97546500Y18390000D01*
X97560500Y18362000D01*
X97568500Y18355000D01*
X97597500Y18348000D01*
X97629500Y18356000D01*
X97655500Y18375000D01*
X97665500Y18402000D01*
X97660500Y18413000D01*
X97645500Y18437000D01*
X97625500Y18458000D01*
X97607500Y18467000D01*
X97594500Y18462000D01*
X97572500Y18448000D01*
X97551500Y18422000D01*
X97546500Y18390000D01*
X97466500Y18390000D01*
X97466500Y18402000D01*
X97466500Y18437000D01*
X97474500Y18461000D01*
X97492500Y18486000D01*
X97525500Y18517000D01*
X97572500Y18538000D01*
X97620500Y18540000D01*
X97665500Y18527000D01*
X97703500Y18501000D01*
X97730500Y18463000D01*
X97742500Y18414000D01*
X97742500Y18402000D01*
X97737500Y18359000D01*
X97730500Y18344000D01*
X97702500Y18300000D01*
X97660500Y18273000D01*
X97602500Y18265000D01*
X97583500Y18265000D01*
X97562500Y18262000D01*
X97540500Y18254000D01*
X97517500Y18239000D01*
X97487500Y18211000D01*
X97442500Y18171000D01*
X97341500Y18076000D01*
X97097500Y18076000D01*
X97097500Y17887000D01*
X97544500Y17887000D01*
X97565500Y17922000D01*
X97597500Y17959000D01*
X97642500Y17983000D01*
X97693500Y17990000D01*
X97742500Y17979000D01*
X97785500Y17948000D01*
X97796500Y17932000D01*
X97820500Y17883000D01*
X97823500Y17850000D01*
X97825500Y17833000D01*
X97812500Y17786000D01*
X97782500Y17746000D01*
X97740500Y17721000D01*
X97685500Y17710000D01*
X97658500Y17713000D01*
X97617500Y17729000D01*
X97583500Y17754000D01*
X97564500Y17780000D01*
X97562500Y17783000D01*
X97559500Y17791000D01*
X97549500Y17797000D01*
X97533500Y17801000D01*
X97506500Y17802000D01*
X97464500Y17805000D01*
X97405500Y17805000D01*
X97326500Y17805000D01*
X97097500Y17805000D01*
X97097500Y17628000D01*
X97339500Y17628000D01*
X97536500Y17431000D01*
X97591500Y17436000D01*
X97617500Y17436000D01*
X97671500Y17424000D01*
X97710500Y17393000D01*
X97735500Y17346000D01*
X97742500Y17311000D01*
X97745500Y17297000D01*
X97734500Y17246000D01*
X97700500Y17202000D01*
X97663500Y17174000D01*
X97615500Y17159000D01*
X97567500Y17163000D01*
X97524500Y17183000D01*
X97490500Y17217000D01*
X97469500Y17263000D01*
X97468464Y17292000D01*
X97549500Y17292000D01*
X97564500Y17260000D01*
X97586500Y17242000D01*
X97612500Y17240000D01*
X97641500Y17261000D01*
X97658500Y17286000D01*
X97661500Y17311000D01*
X97641500Y17338000D01*
X97623500Y17350000D01*
X97588500Y17352000D01*
X97573500Y17346000D01*
X97554500Y17322000D01*
X97549500Y17292000D01*
X97468464Y17292000D01*
X97467500Y17319000D01*
X97474500Y17375000D01*
X97304500Y17545000D01*
X97097500Y17545000D01*
X97097500Y17265000D01*
X97145500Y17243000D01*
X97155500Y17239000D01*
X97202500Y17203000D01*
X97235500Y17154000D01*
X97253500Y17097000D01*
X97253500Y17067000D01*
X97253500Y17039000D01*
X97238500Y16982000D01*
X97206500Y16934000D01*
X97158500Y16896000D01*
X97157500Y16895000D01*
X97096500Y16875000D01*
X97030500Y16875000D01*
X96968500Y16895000D01*
X96958500Y16901000D01*
X96911500Y16941000D01*
X96883500Y16990000D01*
X96868500Y17048000D01*
X96870167Y17067000D01*
X96950500Y17067000D01*
X96951500Y17048000D01*
X96963500Y17018000D01*
X96988500Y16988000D01*
X97004500Y16975000D01*
X97048500Y16957000D01*
X97091500Y16961000D01*
X97134500Y16988000D01*
X97150500Y17003000D01*
X97168500Y17032000D01*
X97173500Y17067000D01*
X97165500Y17101000D01*
X97141500Y17141000D01*
X97104500Y17169000D01*
X97062500Y17179000D01*
X97027500Y17172000D01*
X96990500Y17147000D01*
X96961500Y17109000D01*
X96950500Y17067000D01*
X96870167Y17067000D01*
X96873500Y17105000D01*
X96891500Y17162000D01*
X96926500Y17209000D01*
X96977500Y17243000D01*
X97027500Y17265000D01*
X97027500Y17545000D01*
X96820500Y17545000D01*
X96649500Y17375000D01*
X96657500Y17319000D01*
X96657500Y17309000D01*
X96655500Y17273000D01*
X96637500Y17224000D01*
X96607500Y17188000D01*
X96564500Y17165000D01*
X96517500Y17159000D01*
X96468500Y17170000D01*
X96423500Y17202000D01*
X96394500Y17240000D01*
X96379500Y17290000D01*
X96379643Y17291000D01*
X96463500Y17291000D01*
X96484500Y17261000D01*
X96508500Y17242000D01*
X96533500Y17241000D01*
X96560500Y17261000D01*
X96572500Y17279000D01*
X96575500Y17309000D01*
X96564500Y17334000D01*
X96540500Y17350000D01*
X96511500Y17353000D01*
X96482500Y17338000D01*
X96464500Y17316000D01*
X96463500Y17291000D01*
X96379643Y17291000D01*
X96387500Y17346000D01*
X96395500Y17368000D01*
X96427500Y17409000D01*
X96474500Y17432000D01*
X96532500Y17436000D01*
X96588500Y17431000D01*
X96783500Y17628000D01*
X97027500Y17628000D01*
X97027500Y17805000D01*
X96798500Y17805000D01*
X96778500Y17805000D01*
X96705500Y17805000D01*
X96649500Y17803000D01*
X96612500Y17802000D01*
X96588500Y17799000D01*
X96572500Y17795000D01*
X96565500Y17789000D01*
X96562500Y17781000D01*
X96562500Y17777000D01*
X96544500Y17755000D01*
X96516500Y17735000D01*
X96506500Y17729000D01*
X96453500Y17711000D01*
X96405500Y17714000D01*
X96362500Y17733000D01*
X96327500Y17763000D01*
X96306500Y17805000D01*
X96300811Y17837000D01*
X96379500Y17837000D01*
X96394500Y17817000D01*
X96415500Y17801000D01*
X96447500Y17794000D01*
X96476500Y17811000D01*
X96488500Y17829000D01*
X96490318Y17841000D01*
X97631500Y17841000D01*
X97647500Y17811000D01*
X97668500Y17797000D01*
X97698500Y17797000D01*
X97729500Y17817000D01*
X97742500Y17832000D01*
X97745500Y17850000D01*
X97734500Y17873000D01*
X97710500Y17901000D01*
X97681500Y17909000D01*
X97652500Y17893000D01*
X97636500Y17873000D01*
X97633500Y17862000D01*
X97631500Y17841000D01*
X96490318Y17841000D01*
X96493500Y17862000D01*
X96476500Y17894000D01*
X96474500Y17896000D01*
X96445500Y17909000D01*
X96415500Y17900000D01*
X96389500Y17873000D01*
X96381500Y17854000D01*
X96379500Y17837000D01*
X96300811Y17837000D01*
X96298500Y17850000D01*
X96309500Y17899000D01*
X96339500Y17948000D01*
X96343500Y17951000D01*
X96386500Y17980000D01*
X96434500Y17989000D01*
X96484500Y17983000D01*
X96528500Y17959000D01*
X96560500Y17921000D01*
X96578500Y17887000D01*
X97027500Y17887000D01*
X97027500Y18076000D01*
X96782500Y18076000D01*
X96681500Y18171000D01*
X96652500Y18197000D01*
X96617500Y18230000D01*
X96591500Y18249000D01*
X96570500Y18260000D01*
X96549500Y18264000D01*
X96524500Y18265000D01*
X96514500Y18265000D01*
X96458500Y18277000D01*
X96415500Y18308000D01*
X96389500Y18354000D01*
X96382969Y18394000D01*
X96461500Y18394000D01*
X96479500Y18366000D01*
X96503500Y18352000D01*
X96535500Y18349000D01*
X96564500Y18362000D01*
X96577500Y18389000D01*
X96572500Y18422000D01*
X96551500Y18448000D01*
X96549500Y18450000D01*
X96524500Y18464000D01*
X96506500Y18462000D01*
X96484500Y18443000D01*
X96468500Y18423000D01*
X96461500Y18394000D01*
X96382969Y18394000D01*
X96381500Y18403000D01*
X96389500Y18453000D01*
X96413500Y18493000D01*
X96450500Y18522000D01*
X96493500Y18538000D01*
X96541500Y18539000D01*
X96588500Y18523000D01*
X96631500Y18486000D01*
X96639500Y18478000D01*
X96653500Y18454000D01*
X96658500Y18428000D01*
X96657500Y18389000D01*
X96657500Y18388000D01*
X96650500Y18328000D01*
X96735500Y18244000D01*
X96820500Y18159000D01*
X97027500Y18159000D01*
X97027500Y18437000D01*
X96977500Y18461000D01*
X96937500Y18485000D01*
X96895500Y18530000D01*
X96873500Y18592000D01*
X96870500Y18606000D01*
X96870844Y18628000D01*
X96950500Y18628000D01*
X96963500Y18588000D01*
X96998500Y18551000D01*
X97003500Y18546000D01*
X97048500Y18527000D01*
X97093500Y18529000D01*
X97133500Y18552000D01*
X97163500Y18592000D01*
X97171500Y18612000D01*
X97176500Y18639000D01*
X97168500Y18668000D01*
X97147500Y18705000D01*
X97110500Y18735000D01*
X97068500Y18747000D01*
X97027500Y18741000D01*
X96988500Y18717000D01*
X96960500Y18671000D01*
X96950500Y18628000D01*
X96870844Y18628000D01*
X96871500Y18670000D01*
X96894500Y18730000D01*
X96934500Y18780000D01*
X96987500Y18816000D01*
X96998500Y18820000D01*
X97059500Y18832000D01*
X97118500Y18822000D01*
X97171500Y18796000D01*
X97213500Y18756000D01*
X97243500Y18707000D01*
X97258500Y18647000D01*
X97256500Y18639000D01*
X97250500Y18585000D01*
G37*
D11*
%TO.C,U6*%
X34410000Y22649000D02*
X34414000Y22647000D01*
X34417000Y22647000D01*
X34418000Y22646000D01*
X34422000Y22646000D01*
X34425000Y22645000D01*
X34426000Y22642000D01*
X34427000Y22642000D01*
X34430000Y22639000D01*
X34431000Y22638000D01*
X34434000Y22637000D01*
X34435000Y22634000D01*
X34438000Y22633000D01*
X34439000Y22630000D01*
X34442000Y22629000D01*
X34442000Y22626000D01*
X34443000Y22625000D01*
X34446000Y22622000D01*
X34446000Y22619000D01*
X34447000Y22618000D01*
X34450000Y22614000D01*
X34450000Y22613000D01*
X34450000Y22610000D01*
X34450000Y22607000D01*
X34450000Y22605000D01*
X34450000Y22602000D01*
X34450000Y22599000D01*
X34450000Y22000000D01*
X34450000Y21997000D01*
X34450000Y21994000D01*
X34450000Y21992000D01*
X34450000Y21989000D01*
X34450000Y21986000D01*
X34450000Y21985000D01*
X34447000Y21981000D01*
X34446000Y21980000D01*
X34446000Y21977000D01*
X34443000Y21974000D01*
X34442000Y21973000D01*
X34442000Y21970000D01*
X34439000Y21969000D01*
X34438000Y21966000D01*
X34435000Y21965000D01*
X34434000Y21962000D01*
X34431000Y21961000D01*
X34430000Y21960000D01*
X34427000Y21957000D01*
X34426000Y21957000D01*
X34425000Y21954000D01*
X34422000Y21953000D01*
X34418000Y21953000D01*
X34417000Y21952000D01*
X34414000Y21952000D01*
X34410000Y21950000D01*
X34406000Y21949000D01*
X34405000Y21949000D01*
X34402000Y21949000D01*
X34301000Y21949000D01*
X34297000Y21949000D01*
X34293000Y21950000D01*
X34292000Y21950000D01*
X34289000Y21952000D01*
X34285000Y21952000D01*
X34284000Y21953000D01*
X34281000Y21953000D01*
X34277000Y21954000D01*
X34277000Y21957000D01*
X34273000Y21957000D01*
X34273000Y21960000D01*
X34269000Y21961000D01*
X34269000Y21962000D01*
X34265000Y21965000D01*
X34265000Y21966000D01*
X34261000Y21969000D01*
X34261000Y21970000D01*
X34260000Y21973000D01*
X34257000Y21974000D01*
X34257000Y21977000D01*
X34256000Y21980000D01*
X34253000Y21981000D01*
X34253000Y21985000D01*
X34253000Y21986000D01*
X34253000Y21989000D01*
X34253000Y21992000D01*
X34252000Y21994000D01*
X34252000Y21997000D01*
X34252000Y22000000D01*
X34252000Y22400000D01*
X34252000Y22403000D01*
X34252000Y22404000D01*
X34249000Y22408000D01*
X34249000Y22412000D01*
X34249000Y22415000D01*
X34249000Y22416000D01*
X34248000Y22420000D01*
X34245000Y22423000D01*
X34244000Y22424000D01*
X34244000Y22427000D01*
X34240000Y22428000D01*
X34240000Y22431000D01*
X34237000Y22432000D01*
X34236000Y22435000D01*
X34233000Y22436000D01*
X34232000Y22439000D01*
X34229000Y22440000D01*
X34228000Y22440000D01*
X34225000Y22443000D01*
X34224000Y22444000D01*
X34220000Y22444000D01*
X34220000Y22447000D01*
X34216000Y22448000D01*
X34213000Y22448000D01*
X34212000Y22448000D01*
X34208000Y22448000D01*
X34205000Y22448000D01*
X34204000Y22448000D01*
X34200000Y22448000D01*
X34100000Y22448000D01*
X34099000Y22448000D01*
X34095000Y22448000D01*
X34092000Y22448000D01*
X34091000Y22448000D01*
X34087000Y22448000D01*
X34083000Y22447000D01*
X34080000Y22444000D01*
X34079000Y22444000D01*
X34075000Y22443000D01*
X34075000Y22440000D01*
X34071000Y22440000D01*
X34071000Y22439000D01*
X34067000Y22436000D01*
X34067000Y22435000D01*
X34063000Y22432000D01*
X34063000Y22431000D01*
X34060000Y22428000D01*
X34059000Y22427000D01*
X34059000Y22424000D01*
X34055000Y22423000D01*
X34055000Y22420000D01*
X34055000Y22416000D01*
X34052000Y22415000D01*
X34052000Y22412000D01*
X34051000Y22408000D01*
X34051000Y22404000D01*
X34051000Y22403000D01*
X34051000Y22400000D01*
X34051000Y22000000D01*
X34051000Y21997000D01*
X34051000Y21994000D01*
X34051000Y21992000D01*
X34051000Y21989000D01*
X34050000Y21986000D01*
X34050000Y21985000D01*
X34047000Y21981000D01*
X34047000Y21980000D01*
X34047000Y21977000D01*
X34043000Y21974000D01*
X34043000Y21973000D01*
X34042000Y21970000D01*
X34039000Y21969000D01*
X34039000Y21966000D01*
X34035000Y21965000D01*
X34035000Y21962000D01*
X34031000Y21961000D01*
X34031000Y21960000D01*
X34027000Y21957000D01*
X34023000Y21954000D01*
X34022000Y21953000D01*
X34019000Y21953000D01*
X34015000Y21952000D01*
X34011000Y21950000D01*
X34010000Y21950000D01*
X34007000Y21949000D01*
X34003000Y21949000D01*
X34002000Y21949000D01*
X33902000Y21949000D01*
X33898000Y21949000D01*
X33897000Y21949000D01*
X33894000Y21950000D01*
X33890000Y21950000D01*
X33889000Y21952000D01*
X33886000Y21952000D01*
X33882000Y21953000D01*
X33878000Y21954000D01*
X33877000Y21957000D01*
X33874000Y21957000D01*
X33873000Y21960000D01*
X33870000Y21961000D01*
X33869000Y21962000D01*
X33866000Y21965000D01*
X33865000Y21966000D01*
X33861000Y21969000D01*
X33861000Y21970000D01*
X33858000Y21973000D01*
X33857000Y21974000D01*
X33857000Y21977000D01*
X33854000Y21980000D01*
X33853000Y21981000D01*
X33853000Y21985000D01*
X33853000Y21986000D01*
X33853000Y21989000D01*
X33853000Y21992000D01*
X33850000Y21994000D01*
X33850000Y21997000D01*
X33850000Y22000000D01*
X33850000Y22599000D01*
X33850000Y22602000D01*
X33850000Y22605000D01*
X33853000Y22607000D01*
X33853000Y22610000D01*
X33853000Y22613000D01*
X33853000Y22614000D01*
X33853000Y22618000D01*
X33854000Y22619000D01*
X33857000Y22622000D01*
X33857000Y22625000D01*
X33858000Y22626000D01*
X33861000Y22629000D01*
X33861000Y22630000D01*
X33865000Y22633000D01*
X33866000Y22634000D01*
X33869000Y22637000D01*
X33870000Y22638000D01*
X33873000Y22639000D01*
X33874000Y22642000D01*
X33877000Y22642000D01*
X33878000Y22645000D01*
X33882000Y22646000D01*
X33886000Y22647000D01*
X33889000Y22647000D01*
X33890000Y22649000D01*
X33894000Y22649000D01*
X33897000Y22650000D01*
X33898000Y22650000D01*
X33902000Y22650000D01*
X34402000Y22650000D01*
X34405000Y22650000D01*
X34406000Y22650000D01*
X34410000Y22649000D01*
G36*
X34410000Y22649000D02*
G01*
X34414000Y22647000D01*
X34417000Y22647000D01*
X34418000Y22646000D01*
X34422000Y22646000D01*
X34425000Y22645000D01*
X34426000Y22642000D01*
X34427000Y22642000D01*
X34430000Y22639000D01*
X34431000Y22638000D01*
X34434000Y22637000D01*
X34435000Y22634000D01*
X34438000Y22633000D01*
X34439000Y22630000D01*
X34442000Y22629000D01*
X34442000Y22626000D01*
X34443000Y22625000D01*
X34446000Y22622000D01*
X34446000Y22619000D01*
X34447000Y22618000D01*
X34450000Y22614000D01*
X34450000Y22613000D01*
X34450000Y22610000D01*
X34450000Y22607000D01*
X34450000Y22605000D01*
X34450000Y22602000D01*
X34450000Y22599000D01*
X34450000Y22000000D01*
X34450000Y21997000D01*
X34450000Y21994000D01*
X34450000Y21992000D01*
X34450000Y21989000D01*
X34450000Y21986000D01*
X34450000Y21985000D01*
X34447000Y21981000D01*
X34446000Y21980000D01*
X34446000Y21977000D01*
X34443000Y21974000D01*
X34442000Y21973000D01*
X34442000Y21970000D01*
X34439000Y21969000D01*
X34438000Y21966000D01*
X34435000Y21965000D01*
X34434000Y21962000D01*
X34431000Y21961000D01*
X34430000Y21960000D01*
X34427000Y21957000D01*
X34426000Y21957000D01*
X34425000Y21954000D01*
X34422000Y21953000D01*
X34418000Y21953000D01*
X34417000Y21952000D01*
X34414000Y21952000D01*
X34410000Y21950000D01*
X34406000Y21949000D01*
X34405000Y21949000D01*
X34402000Y21949000D01*
X34301000Y21949000D01*
X34297000Y21949000D01*
X34293000Y21950000D01*
X34292000Y21950000D01*
X34289000Y21952000D01*
X34285000Y21952000D01*
X34284000Y21953000D01*
X34281000Y21953000D01*
X34277000Y21954000D01*
X34277000Y21957000D01*
X34273000Y21957000D01*
X34273000Y21960000D01*
X34269000Y21961000D01*
X34269000Y21962000D01*
X34265000Y21965000D01*
X34265000Y21966000D01*
X34261000Y21969000D01*
X34261000Y21970000D01*
X34260000Y21973000D01*
X34257000Y21974000D01*
X34257000Y21977000D01*
X34256000Y21980000D01*
X34253000Y21981000D01*
X34253000Y21985000D01*
X34253000Y21986000D01*
X34253000Y21989000D01*
X34253000Y21992000D01*
X34252000Y21994000D01*
X34252000Y21997000D01*
X34252000Y22000000D01*
X34252000Y22400000D01*
X34252000Y22403000D01*
X34252000Y22404000D01*
X34249000Y22408000D01*
X34249000Y22412000D01*
X34249000Y22415000D01*
X34249000Y22416000D01*
X34248000Y22420000D01*
X34245000Y22423000D01*
X34244000Y22424000D01*
X34244000Y22427000D01*
X34240000Y22428000D01*
X34240000Y22431000D01*
X34237000Y22432000D01*
X34236000Y22435000D01*
X34233000Y22436000D01*
X34232000Y22439000D01*
X34229000Y22440000D01*
X34228000Y22440000D01*
X34225000Y22443000D01*
X34224000Y22444000D01*
X34220000Y22444000D01*
X34220000Y22447000D01*
X34216000Y22448000D01*
X34213000Y22448000D01*
X34212000Y22448000D01*
X34208000Y22448000D01*
X34205000Y22448000D01*
X34204000Y22448000D01*
X34200000Y22448000D01*
X34100000Y22448000D01*
X34099000Y22448000D01*
X34095000Y22448000D01*
X34092000Y22448000D01*
X34091000Y22448000D01*
X34087000Y22448000D01*
X34083000Y22447000D01*
X34080000Y22444000D01*
X34079000Y22444000D01*
X34075000Y22443000D01*
X34075000Y22440000D01*
X34071000Y22440000D01*
X34071000Y22439000D01*
X34067000Y22436000D01*
X34067000Y22435000D01*
X34063000Y22432000D01*
X34063000Y22431000D01*
X34060000Y22428000D01*
X34059000Y22427000D01*
X34059000Y22424000D01*
X34055000Y22423000D01*
X34055000Y22420000D01*
X34055000Y22416000D01*
X34052000Y22415000D01*
X34052000Y22412000D01*
X34051000Y22408000D01*
X34051000Y22404000D01*
X34051000Y22403000D01*
X34051000Y22400000D01*
X34051000Y22000000D01*
X34051000Y21997000D01*
X34051000Y21994000D01*
X34051000Y21992000D01*
X34051000Y21989000D01*
X34050000Y21986000D01*
X34050000Y21985000D01*
X34047000Y21981000D01*
X34047000Y21980000D01*
X34047000Y21977000D01*
X34043000Y21974000D01*
X34043000Y21973000D01*
X34042000Y21970000D01*
X34039000Y21969000D01*
X34039000Y21966000D01*
X34035000Y21965000D01*
X34035000Y21962000D01*
X34031000Y21961000D01*
X34031000Y21960000D01*
X34027000Y21957000D01*
X34023000Y21954000D01*
X34022000Y21953000D01*
X34019000Y21953000D01*
X34015000Y21952000D01*
X34011000Y21950000D01*
X34010000Y21950000D01*
X34007000Y21949000D01*
X34003000Y21949000D01*
X34002000Y21949000D01*
X33902000Y21949000D01*
X33898000Y21949000D01*
X33897000Y21949000D01*
X33894000Y21950000D01*
X33890000Y21950000D01*
X33889000Y21952000D01*
X33886000Y21952000D01*
X33882000Y21953000D01*
X33878000Y21954000D01*
X33877000Y21957000D01*
X33874000Y21957000D01*
X33873000Y21960000D01*
X33870000Y21961000D01*
X33869000Y21962000D01*
X33866000Y21965000D01*
X33865000Y21966000D01*
X33861000Y21969000D01*
X33861000Y21970000D01*
X33858000Y21973000D01*
X33857000Y21974000D01*
X33857000Y21977000D01*
X33854000Y21980000D01*
X33853000Y21981000D01*
X33853000Y21985000D01*
X33853000Y21986000D01*
X33853000Y21989000D01*
X33853000Y21992000D01*
X33850000Y21994000D01*
X33850000Y21997000D01*
X33850000Y22000000D01*
X33850000Y22599000D01*
X33850000Y22602000D01*
X33850000Y22605000D01*
X33853000Y22607000D01*
X33853000Y22610000D01*
X33853000Y22613000D01*
X33853000Y22614000D01*
X33853000Y22618000D01*
X33854000Y22619000D01*
X33857000Y22622000D01*
X33857000Y22625000D01*
X33858000Y22626000D01*
X33861000Y22629000D01*
X33861000Y22630000D01*
X33865000Y22633000D01*
X33866000Y22634000D01*
X33869000Y22637000D01*
X33870000Y22638000D01*
X33873000Y22639000D01*
X33874000Y22642000D01*
X33877000Y22642000D01*
X33878000Y22645000D01*
X33882000Y22646000D01*
X33886000Y22647000D01*
X33889000Y22647000D01*
X33890000Y22649000D01*
X33894000Y22649000D01*
X33897000Y22650000D01*
X33898000Y22650000D01*
X33902000Y22650000D01*
X34402000Y22650000D01*
X34405000Y22650000D01*
X34406000Y22650000D01*
X34410000Y22649000D01*
G37*
X39207000Y22649000D02*
X39210000Y22649000D01*
X39213000Y22647000D01*
X39214000Y22647000D01*
X39218000Y22646000D01*
X39219000Y22646000D01*
X39222000Y22645000D01*
X39225000Y22642000D01*
X39226000Y22642000D01*
X39229000Y22639000D01*
X39230000Y22638000D01*
X39233000Y22637000D01*
X39234000Y22634000D01*
X39237000Y22633000D01*
X39239000Y22630000D01*
X39239000Y22629000D01*
X39243000Y22626000D01*
X39243000Y22625000D01*
X39244000Y22622000D01*
X39247000Y22619000D01*
X39247000Y22618000D01*
X39247000Y22614000D01*
X39247000Y22613000D01*
X39248000Y22610000D01*
X39248000Y22607000D01*
X39251000Y22605000D01*
X39251000Y22602000D01*
X39251000Y22599000D01*
X39251000Y22000000D01*
X39251000Y21997000D01*
X39251000Y21994000D01*
X39248000Y21992000D01*
X39248000Y21989000D01*
X39247000Y21986000D01*
X39247000Y21985000D01*
X39247000Y21981000D01*
X39247000Y21980000D01*
X39244000Y21977000D01*
X39243000Y21974000D01*
X39243000Y21973000D01*
X39239000Y21970000D01*
X39239000Y21969000D01*
X39237000Y21966000D01*
X39234000Y21965000D01*
X39233000Y21962000D01*
X39230000Y21961000D01*
X39229000Y21960000D01*
X39226000Y21957000D01*
X39225000Y21957000D01*
X39222000Y21954000D01*
X39219000Y21953000D01*
X39218000Y21953000D01*
X39214000Y21952000D01*
X39213000Y21952000D01*
X39210000Y21950000D01*
X39207000Y21950000D01*
X39205000Y21949000D01*
X39202000Y21949000D01*
X39199000Y21949000D01*
X39100000Y21949000D01*
X39097000Y21949000D01*
X39094000Y21949000D01*
X39092000Y21950000D01*
X39089000Y21950000D01*
X39086000Y21952000D01*
X39085000Y21952000D01*
X39081000Y21953000D01*
X39080000Y21953000D01*
X39077000Y21954000D01*
X39074000Y21957000D01*
X39073000Y21957000D01*
X39070000Y21960000D01*
X39069000Y21961000D01*
X39066000Y21962000D01*
X39065000Y21965000D01*
X39062000Y21966000D01*
X39061000Y21969000D01*
X39060000Y21970000D01*
X39057000Y21973000D01*
X39057000Y21974000D01*
X39054000Y21977000D01*
X39053000Y21980000D01*
X39053000Y21981000D01*
X39052000Y21985000D01*
X39052000Y21986000D01*
X39050000Y21989000D01*
X39050000Y21992000D01*
X39049000Y21994000D01*
X39049000Y21997000D01*
X39049000Y22000000D01*
X39049000Y22400000D01*
X39049000Y22403000D01*
X39049000Y22404000D01*
X39049000Y22408000D01*
X39049000Y22412000D01*
X39049000Y22415000D01*
X39046000Y22416000D01*
X39045000Y22420000D01*
X39045000Y22423000D01*
X39042000Y22424000D01*
X39041000Y22427000D01*
X39041000Y22428000D01*
X39038000Y22431000D01*
X39037000Y22432000D01*
X39034000Y22435000D01*
X39033000Y22436000D01*
X39030000Y22439000D01*
X39029000Y22440000D01*
X39026000Y22440000D01*
X39025000Y22443000D01*
X39022000Y22444000D01*
X39021000Y22444000D01*
X39017000Y22447000D01*
X39014000Y22448000D01*
X39013000Y22448000D01*
X39009000Y22448000D01*
X39005000Y22448000D01*
X39002000Y22448000D01*
X39001000Y22448000D01*
X38900000Y22448000D01*
X38896000Y22448000D01*
X38892000Y22448000D01*
X38889000Y22448000D01*
X38888000Y22448000D01*
X38884000Y22448000D01*
X38881000Y22447000D01*
X38880000Y22444000D01*
X38876000Y22444000D01*
X38876000Y22443000D01*
X38872000Y22440000D01*
X38868000Y22439000D01*
X38868000Y22436000D01*
X38864000Y22435000D01*
X38864000Y22432000D01*
X38860000Y22431000D01*
X38860000Y22428000D01*
X38857000Y22427000D01*
X38856000Y22424000D01*
X38856000Y22423000D01*
X38854000Y22420000D01*
X38852000Y22416000D01*
X38851000Y22415000D01*
X38851000Y22412000D01*
X38851000Y22408000D01*
X38850000Y22404000D01*
X38850000Y22403000D01*
X38850000Y22400000D01*
X38850000Y22000000D01*
X38850000Y21997000D01*
X38850000Y21994000D01*
X38848000Y21992000D01*
X38848000Y21989000D01*
X38847000Y21986000D01*
X38847000Y21985000D01*
X38847000Y21981000D01*
X38846000Y21980000D01*
X38844000Y21977000D01*
X38843000Y21974000D01*
X38842000Y21973000D01*
X38839000Y21970000D01*
X38839000Y21969000D01*
X38836000Y21966000D01*
X38835000Y21965000D01*
X38832000Y21962000D01*
X38831000Y21961000D01*
X38828000Y21960000D01*
X38827000Y21957000D01*
X38824000Y21957000D01*
X38823000Y21954000D01*
X38819000Y21953000D01*
X38818000Y21953000D01*
X38815000Y21952000D01*
X38812000Y21952000D01*
X38810000Y21950000D01*
X38807000Y21950000D01*
X38804000Y21949000D01*
X38803000Y21949000D01*
X38799000Y21949000D01*
X38699000Y21949000D01*
X38697000Y21949000D01*
X38694000Y21949000D01*
X38691000Y21950000D01*
X38690000Y21950000D01*
X38686000Y21952000D01*
X38685000Y21952000D01*
X38682000Y21953000D01*
X38679000Y21953000D01*
X38677000Y21954000D01*
X38674000Y21957000D01*
X38670000Y21960000D01*
X38670000Y21961000D01*
X38666000Y21962000D01*
X38666000Y21965000D01*
X38662000Y21966000D01*
X38662000Y21969000D01*
X38659000Y21970000D01*
X38658000Y21973000D01*
X38658000Y21974000D01*
X38654000Y21977000D01*
X38654000Y21980000D01*
X38654000Y21981000D01*
X38651000Y21985000D01*
X38651000Y21986000D01*
X38650000Y21989000D01*
X38650000Y21992000D01*
X38650000Y21994000D01*
X38650000Y21997000D01*
X38650000Y22000000D01*
X38650000Y22599000D01*
X38650000Y22602000D01*
X38650000Y22605000D01*
X38650000Y22607000D01*
X38650000Y22610000D01*
X38651000Y22613000D01*
X38651000Y22614000D01*
X38654000Y22618000D01*
X38654000Y22619000D01*
X38654000Y22622000D01*
X38658000Y22625000D01*
X38658000Y22626000D01*
X38659000Y22629000D01*
X38662000Y22630000D01*
X38662000Y22633000D01*
X38666000Y22634000D01*
X38666000Y22637000D01*
X38670000Y22638000D01*
X38670000Y22639000D01*
X38674000Y22642000D01*
X38677000Y22645000D01*
X38679000Y22646000D01*
X38682000Y22646000D01*
X38685000Y22647000D01*
X38686000Y22647000D01*
X38690000Y22649000D01*
X38691000Y22649000D01*
X38694000Y22650000D01*
X38697000Y22650000D01*
X38699000Y22650000D01*
X39199000Y22650000D01*
X39202000Y22650000D01*
X39205000Y22650000D01*
X39207000Y22649000D01*
G36*
X39207000Y22649000D02*
G01*
X39210000Y22649000D01*
X39213000Y22647000D01*
X39214000Y22647000D01*
X39218000Y22646000D01*
X39219000Y22646000D01*
X39222000Y22645000D01*
X39225000Y22642000D01*
X39226000Y22642000D01*
X39229000Y22639000D01*
X39230000Y22638000D01*
X39233000Y22637000D01*
X39234000Y22634000D01*
X39237000Y22633000D01*
X39239000Y22630000D01*
X39239000Y22629000D01*
X39243000Y22626000D01*
X39243000Y22625000D01*
X39244000Y22622000D01*
X39247000Y22619000D01*
X39247000Y22618000D01*
X39247000Y22614000D01*
X39247000Y22613000D01*
X39248000Y22610000D01*
X39248000Y22607000D01*
X39251000Y22605000D01*
X39251000Y22602000D01*
X39251000Y22599000D01*
X39251000Y22000000D01*
X39251000Y21997000D01*
X39251000Y21994000D01*
X39248000Y21992000D01*
X39248000Y21989000D01*
X39247000Y21986000D01*
X39247000Y21985000D01*
X39247000Y21981000D01*
X39247000Y21980000D01*
X39244000Y21977000D01*
X39243000Y21974000D01*
X39243000Y21973000D01*
X39239000Y21970000D01*
X39239000Y21969000D01*
X39237000Y21966000D01*
X39234000Y21965000D01*
X39233000Y21962000D01*
X39230000Y21961000D01*
X39229000Y21960000D01*
X39226000Y21957000D01*
X39225000Y21957000D01*
X39222000Y21954000D01*
X39219000Y21953000D01*
X39218000Y21953000D01*
X39214000Y21952000D01*
X39213000Y21952000D01*
X39210000Y21950000D01*
X39207000Y21950000D01*
X39205000Y21949000D01*
X39202000Y21949000D01*
X39199000Y21949000D01*
X39100000Y21949000D01*
X39097000Y21949000D01*
X39094000Y21949000D01*
X39092000Y21950000D01*
X39089000Y21950000D01*
X39086000Y21952000D01*
X39085000Y21952000D01*
X39081000Y21953000D01*
X39080000Y21953000D01*
X39077000Y21954000D01*
X39074000Y21957000D01*
X39073000Y21957000D01*
X39070000Y21960000D01*
X39069000Y21961000D01*
X39066000Y21962000D01*
X39065000Y21965000D01*
X39062000Y21966000D01*
X39061000Y21969000D01*
X39060000Y21970000D01*
X39057000Y21973000D01*
X39057000Y21974000D01*
X39054000Y21977000D01*
X39053000Y21980000D01*
X39053000Y21981000D01*
X39052000Y21985000D01*
X39052000Y21986000D01*
X39050000Y21989000D01*
X39050000Y21992000D01*
X39049000Y21994000D01*
X39049000Y21997000D01*
X39049000Y22000000D01*
X39049000Y22400000D01*
X39049000Y22403000D01*
X39049000Y22404000D01*
X39049000Y22408000D01*
X39049000Y22412000D01*
X39049000Y22415000D01*
X39046000Y22416000D01*
X39045000Y22420000D01*
X39045000Y22423000D01*
X39042000Y22424000D01*
X39041000Y22427000D01*
X39041000Y22428000D01*
X39038000Y22431000D01*
X39037000Y22432000D01*
X39034000Y22435000D01*
X39033000Y22436000D01*
X39030000Y22439000D01*
X39029000Y22440000D01*
X39026000Y22440000D01*
X39025000Y22443000D01*
X39022000Y22444000D01*
X39021000Y22444000D01*
X39017000Y22447000D01*
X39014000Y22448000D01*
X39013000Y22448000D01*
X39009000Y22448000D01*
X39005000Y22448000D01*
X39002000Y22448000D01*
X39001000Y22448000D01*
X38900000Y22448000D01*
X38896000Y22448000D01*
X38892000Y22448000D01*
X38889000Y22448000D01*
X38888000Y22448000D01*
X38884000Y22448000D01*
X38881000Y22447000D01*
X38880000Y22444000D01*
X38876000Y22444000D01*
X38876000Y22443000D01*
X38872000Y22440000D01*
X38868000Y22439000D01*
X38868000Y22436000D01*
X38864000Y22435000D01*
X38864000Y22432000D01*
X38860000Y22431000D01*
X38860000Y22428000D01*
X38857000Y22427000D01*
X38856000Y22424000D01*
X38856000Y22423000D01*
X38854000Y22420000D01*
X38852000Y22416000D01*
X38851000Y22415000D01*
X38851000Y22412000D01*
X38851000Y22408000D01*
X38850000Y22404000D01*
X38850000Y22403000D01*
X38850000Y22400000D01*
X38850000Y22000000D01*
X38850000Y21997000D01*
X38850000Y21994000D01*
X38848000Y21992000D01*
X38848000Y21989000D01*
X38847000Y21986000D01*
X38847000Y21985000D01*
X38847000Y21981000D01*
X38846000Y21980000D01*
X38844000Y21977000D01*
X38843000Y21974000D01*
X38842000Y21973000D01*
X38839000Y21970000D01*
X38839000Y21969000D01*
X38836000Y21966000D01*
X38835000Y21965000D01*
X38832000Y21962000D01*
X38831000Y21961000D01*
X38828000Y21960000D01*
X38827000Y21957000D01*
X38824000Y21957000D01*
X38823000Y21954000D01*
X38819000Y21953000D01*
X38818000Y21953000D01*
X38815000Y21952000D01*
X38812000Y21952000D01*
X38810000Y21950000D01*
X38807000Y21950000D01*
X38804000Y21949000D01*
X38803000Y21949000D01*
X38799000Y21949000D01*
X38699000Y21949000D01*
X38697000Y21949000D01*
X38694000Y21949000D01*
X38691000Y21950000D01*
X38690000Y21950000D01*
X38686000Y21952000D01*
X38685000Y21952000D01*
X38682000Y21953000D01*
X38679000Y21953000D01*
X38677000Y21954000D01*
X38674000Y21957000D01*
X38670000Y21960000D01*
X38670000Y21961000D01*
X38666000Y21962000D01*
X38666000Y21965000D01*
X38662000Y21966000D01*
X38662000Y21969000D01*
X38659000Y21970000D01*
X38658000Y21973000D01*
X38658000Y21974000D01*
X38654000Y21977000D01*
X38654000Y21980000D01*
X38654000Y21981000D01*
X38651000Y21985000D01*
X38651000Y21986000D01*
X38650000Y21989000D01*
X38650000Y21992000D01*
X38650000Y21994000D01*
X38650000Y21997000D01*
X38650000Y22000000D01*
X38650000Y22599000D01*
X38650000Y22602000D01*
X38650000Y22605000D01*
X38650000Y22607000D01*
X38650000Y22610000D01*
X38651000Y22613000D01*
X38651000Y22614000D01*
X38654000Y22618000D01*
X38654000Y22619000D01*
X38654000Y22622000D01*
X38658000Y22625000D01*
X38658000Y22626000D01*
X38659000Y22629000D01*
X38662000Y22630000D01*
X38662000Y22633000D01*
X38666000Y22634000D01*
X38666000Y22637000D01*
X38670000Y22638000D01*
X38670000Y22639000D01*
X38674000Y22642000D01*
X38677000Y22645000D01*
X38679000Y22646000D01*
X38682000Y22646000D01*
X38685000Y22647000D01*
X38686000Y22647000D01*
X38690000Y22649000D01*
X38691000Y22649000D01*
X38694000Y22650000D01*
X38697000Y22650000D01*
X38699000Y22650000D01*
X39199000Y22650000D01*
X39202000Y22650000D01*
X39205000Y22650000D01*
X39207000Y22649000D01*
G37*
X35208000Y22649000D02*
X35210000Y22649000D01*
X35214000Y22647000D01*
X35216000Y22647000D01*
X35218000Y22646000D01*
X35220000Y22646000D01*
X35224000Y22645000D01*
X35226000Y22642000D01*
X35228000Y22642000D01*
X35230000Y22639000D01*
X35232000Y22638000D01*
X35234000Y22637000D01*
X35236000Y22634000D01*
X35238000Y22633000D01*
X35240000Y22630000D01*
X35240000Y22629000D01*
X35242000Y22626000D01*
X35244000Y22625000D01*
X35246000Y22622000D01*
X35246000Y22619000D01*
X35248000Y22618000D01*
X35248000Y22614000D01*
X35248000Y22613000D01*
X35250000Y22610000D01*
X35250000Y22607000D01*
X35250000Y22605000D01*
X35250000Y22602000D01*
X35250000Y22599000D01*
X35250000Y22000000D01*
X35250000Y21997000D01*
X35250000Y21994000D01*
X35250000Y21992000D01*
X35250000Y21989000D01*
X35248000Y21986000D01*
X35248000Y21985000D01*
X35248000Y21981000D01*
X35246000Y21980000D01*
X35246000Y21977000D01*
X35244000Y21974000D01*
X35242000Y21973000D01*
X35240000Y21970000D01*
X35240000Y21969000D01*
X35238000Y21966000D01*
X35236000Y21965000D01*
X35234000Y21962000D01*
X35232000Y21961000D01*
X35230000Y21960000D01*
X35228000Y21957000D01*
X35226000Y21957000D01*
X35224000Y21954000D01*
X35220000Y21953000D01*
X35218000Y21953000D01*
X35216000Y21952000D01*
X35214000Y21952000D01*
X35210000Y21950000D01*
X35208000Y21950000D01*
X35206000Y21949000D01*
X35204000Y21949000D01*
X35200000Y21949000D01*
X35101000Y21949000D01*
X35097000Y21949000D01*
X35095000Y21949000D01*
X35093000Y21950000D01*
X35091000Y21950000D01*
X35087000Y21952000D01*
X35085000Y21952000D01*
X35083000Y21953000D01*
X35081000Y21953000D01*
X35077000Y21954000D01*
X35075000Y21957000D01*
X35073000Y21957000D01*
X35071000Y21960000D01*
X35069000Y21961000D01*
X35067000Y21962000D01*
X35065000Y21965000D01*
X35063000Y21966000D01*
X35061000Y21969000D01*
X35061000Y21970000D01*
X35059000Y21973000D01*
X35057000Y21974000D01*
X35055000Y21977000D01*
X35055000Y21980000D01*
X35053000Y21981000D01*
X35053000Y21985000D01*
X35053000Y21986000D01*
X35051000Y21989000D01*
X35051000Y21992000D01*
X35051000Y21994000D01*
X35051000Y21997000D01*
X35051000Y22000000D01*
X35051000Y22400000D01*
X35051000Y22403000D01*
X35051000Y22404000D01*
X35051000Y22408000D01*
X35049000Y22412000D01*
X35049000Y22415000D01*
X35049000Y22416000D01*
X35047000Y22420000D01*
X35047000Y22423000D01*
X35045000Y22424000D01*
X35043000Y22427000D01*
X35041000Y22428000D01*
X35041000Y22431000D01*
X35039000Y22432000D01*
X35037000Y22435000D01*
X35035000Y22436000D01*
X35033000Y22439000D01*
X35031000Y22440000D01*
X35029000Y22440000D01*
X35027000Y22443000D01*
X35025000Y22444000D01*
X35021000Y22444000D01*
X35019000Y22447000D01*
X35017000Y22448000D01*
X35014000Y22448000D01*
X35010000Y22448000D01*
X35008000Y22448000D01*
X35006000Y22448000D01*
X35004000Y22448000D01*
X35000000Y22448000D01*
X34902000Y22448000D01*
X34898000Y22448000D01*
X34896000Y22448000D01*
X34894000Y22448000D01*
X34892000Y22448000D01*
X34888000Y22448000D01*
X34885000Y22448000D01*
X34883000Y22447000D01*
X34881000Y22444000D01*
X34877000Y22444000D01*
X34875000Y22443000D01*
X34873000Y22440000D01*
X34871000Y22440000D01*
X34869000Y22439000D01*
X34867000Y22436000D01*
X34865000Y22435000D01*
X34863000Y22432000D01*
X34861000Y22431000D01*
X34861000Y22428000D01*
X34859000Y22427000D01*
X34857000Y22424000D01*
X34855000Y22423000D01*
X34855000Y22420000D01*
X34853000Y22416000D01*
X34853000Y22415000D01*
X34853000Y22412000D01*
X34851000Y22408000D01*
X34851000Y22404000D01*
X34851000Y22403000D01*
X34851000Y22400000D01*
X34851000Y22000000D01*
X34851000Y21997000D01*
X34851000Y21994000D01*
X34849000Y21992000D01*
X34849000Y21989000D01*
X34849000Y21986000D01*
X34849000Y21985000D01*
X34847000Y21981000D01*
X34847000Y21980000D01*
X34845000Y21977000D01*
X34843000Y21974000D01*
X34843000Y21973000D01*
X34841000Y21970000D01*
X34839000Y21969000D01*
X34837000Y21966000D01*
X34835000Y21965000D01*
X34833000Y21962000D01*
X34831000Y21961000D01*
X34829000Y21960000D01*
X34827000Y21957000D01*
X34825000Y21957000D01*
X34823000Y21954000D01*
X34821000Y21953000D01*
X34819000Y21953000D01*
X34815000Y21952000D01*
X34813000Y21952000D01*
X34811000Y21950000D01*
X34809000Y21950000D01*
X34805000Y21949000D01*
X34803000Y21949000D01*
X34801000Y21949000D01*
X34700000Y21949000D01*
X34698000Y21949000D01*
X34696000Y21949000D01*
X34692000Y21950000D01*
X34690000Y21950000D01*
X34688000Y21952000D01*
X34686000Y21952000D01*
X34682000Y21953000D01*
X34680000Y21953000D01*
X34678000Y21954000D01*
X34676000Y21957000D01*
X34674000Y21957000D01*
X34672000Y21960000D01*
X34670000Y21961000D01*
X34668000Y21962000D01*
X34666000Y21965000D01*
X34664000Y21966000D01*
X34662000Y21969000D01*
X34662000Y21970000D01*
X34660000Y21973000D01*
X34658000Y21974000D01*
X34656000Y21977000D01*
X34656000Y21980000D01*
X34654000Y21981000D01*
X34654000Y21985000D01*
X34654000Y21986000D01*
X34652000Y21989000D01*
X34652000Y21992000D01*
X34652000Y21994000D01*
X34652000Y21997000D01*
X34652000Y22000000D01*
X34652000Y22599000D01*
X34652000Y22602000D01*
X34652000Y22605000D01*
X34652000Y22607000D01*
X34652000Y22610000D01*
X34654000Y22613000D01*
X34654000Y22614000D01*
X34654000Y22618000D01*
X34656000Y22619000D01*
X34656000Y22622000D01*
X34658000Y22625000D01*
X34660000Y22626000D01*
X34662000Y22629000D01*
X34662000Y22630000D01*
X34664000Y22633000D01*
X34666000Y22634000D01*
X34668000Y22637000D01*
X34670000Y22638000D01*
X34672000Y22639000D01*
X34674000Y22642000D01*
X34676000Y22642000D01*
X34678000Y22645000D01*
X34680000Y22646000D01*
X34682000Y22646000D01*
X34686000Y22647000D01*
X34688000Y22647000D01*
X34690000Y22649000D01*
X34692000Y22649000D01*
X34696000Y22650000D01*
X34698000Y22650000D01*
X34700000Y22650000D01*
X35200000Y22650000D01*
X35204000Y22650000D01*
X35206000Y22650000D01*
X35208000Y22649000D01*
G36*
X35208000Y22649000D02*
G01*
X35210000Y22649000D01*
X35214000Y22647000D01*
X35216000Y22647000D01*
X35218000Y22646000D01*
X35220000Y22646000D01*
X35224000Y22645000D01*
X35226000Y22642000D01*
X35228000Y22642000D01*
X35230000Y22639000D01*
X35232000Y22638000D01*
X35234000Y22637000D01*
X35236000Y22634000D01*
X35238000Y22633000D01*
X35240000Y22630000D01*
X35240000Y22629000D01*
X35242000Y22626000D01*
X35244000Y22625000D01*
X35246000Y22622000D01*
X35246000Y22619000D01*
X35248000Y22618000D01*
X35248000Y22614000D01*
X35248000Y22613000D01*
X35250000Y22610000D01*
X35250000Y22607000D01*
X35250000Y22605000D01*
X35250000Y22602000D01*
X35250000Y22599000D01*
X35250000Y22000000D01*
X35250000Y21997000D01*
X35250000Y21994000D01*
X35250000Y21992000D01*
X35250000Y21989000D01*
X35248000Y21986000D01*
X35248000Y21985000D01*
X35248000Y21981000D01*
X35246000Y21980000D01*
X35246000Y21977000D01*
X35244000Y21974000D01*
X35242000Y21973000D01*
X35240000Y21970000D01*
X35240000Y21969000D01*
X35238000Y21966000D01*
X35236000Y21965000D01*
X35234000Y21962000D01*
X35232000Y21961000D01*
X35230000Y21960000D01*
X35228000Y21957000D01*
X35226000Y21957000D01*
X35224000Y21954000D01*
X35220000Y21953000D01*
X35218000Y21953000D01*
X35216000Y21952000D01*
X35214000Y21952000D01*
X35210000Y21950000D01*
X35208000Y21950000D01*
X35206000Y21949000D01*
X35204000Y21949000D01*
X35200000Y21949000D01*
X35101000Y21949000D01*
X35097000Y21949000D01*
X35095000Y21949000D01*
X35093000Y21950000D01*
X35091000Y21950000D01*
X35087000Y21952000D01*
X35085000Y21952000D01*
X35083000Y21953000D01*
X35081000Y21953000D01*
X35077000Y21954000D01*
X35075000Y21957000D01*
X35073000Y21957000D01*
X35071000Y21960000D01*
X35069000Y21961000D01*
X35067000Y21962000D01*
X35065000Y21965000D01*
X35063000Y21966000D01*
X35061000Y21969000D01*
X35061000Y21970000D01*
X35059000Y21973000D01*
X35057000Y21974000D01*
X35055000Y21977000D01*
X35055000Y21980000D01*
X35053000Y21981000D01*
X35053000Y21985000D01*
X35053000Y21986000D01*
X35051000Y21989000D01*
X35051000Y21992000D01*
X35051000Y21994000D01*
X35051000Y21997000D01*
X35051000Y22000000D01*
X35051000Y22400000D01*
X35051000Y22403000D01*
X35051000Y22404000D01*
X35051000Y22408000D01*
X35049000Y22412000D01*
X35049000Y22415000D01*
X35049000Y22416000D01*
X35047000Y22420000D01*
X35047000Y22423000D01*
X35045000Y22424000D01*
X35043000Y22427000D01*
X35041000Y22428000D01*
X35041000Y22431000D01*
X35039000Y22432000D01*
X35037000Y22435000D01*
X35035000Y22436000D01*
X35033000Y22439000D01*
X35031000Y22440000D01*
X35029000Y22440000D01*
X35027000Y22443000D01*
X35025000Y22444000D01*
X35021000Y22444000D01*
X35019000Y22447000D01*
X35017000Y22448000D01*
X35014000Y22448000D01*
X35010000Y22448000D01*
X35008000Y22448000D01*
X35006000Y22448000D01*
X35004000Y22448000D01*
X35000000Y22448000D01*
X34902000Y22448000D01*
X34898000Y22448000D01*
X34896000Y22448000D01*
X34894000Y22448000D01*
X34892000Y22448000D01*
X34888000Y22448000D01*
X34885000Y22448000D01*
X34883000Y22447000D01*
X34881000Y22444000D01*
X34877000Y22444000D01*
X34875000Y22443000D01*
X34873000Y22440000D01*
X34871000Y22440000D01*
X34869000Y22439000D01*
X34867000Y22436000D01*
X34865000Y22435000D01*
X34863000Y22432000D01*
X34861000Y22431000D01*
X34861000Y22428000D01*
X34859000Y22427000D01*
X34857000Y22424000D01*
X34855000Y22423000D01*
X34855000Y22420000D01*
X34853000Y22416000D01*
X34853000Y22415000D01*
X34853000Y22412000D01*
X34851000Y22408000D01*
X34851000Y22404000D01*
X34851000Y22403000D01*
X34851000Y22400000D01*
X34851000Y22000000D01*
X34851000Y21997000D01*
X34851000Y21994000D01*
X34849000Y21992000D01*
X34849000Y21989000D01*
X34849000Y21986000D01*
X34849000Y21985000D01*
X34847000Y21981000D01*
X34847000Y21980000D01*
X34845000Y21977000D01*
X34843000Y21974000D01*
X34843000Y21973000D01*
X34841000Y21970000D01*
X34839000Y21969000D01*
X34837000Y21966000D01*
X34835000Y21965000D01*
X34833000Y21962000D01*
X34831000Y21961000D01*
X34829000Y21960000D01*
X34827000Y21957000D01*
X34825000Y21957000D01*
X34823000Y21954000D01*
X34821000Y21953000D01*
X34819000Y21953000D01*
X34815000Y21952000D01*
X34813000Y21952000D01*
X34811000Y21950000D01*
X34809000Y21950000D01*
X34805000Y21949000D01*
X34803000Y21949000D01*
X34801000Y21949000D01*
X34700000Y21949000D01*
X34698000Y21949000D01*
X34696000Y21949000D01*
X34692000Y21950000D01*
X34690000Y21950000D01*
X34688000Y21952000D01*
X34686000Y21952000D01*
X34682000Y21953000D01*
X34680000Y21953000D01*
X34678000Y21954000D01*
X34676000Y21957000D01*
X34674000Y21957000D01*
X34672000Y21960000D01*
X34670000Y21961000D01*
X34668000Y21962000D01*
X34666000Y21965000D01*
X34664000Y21966000D01*
X34662000Y21969000D01*
X34662000Y21970000D01*
X34660000Y21973000D01*
X34658000Y21974000D01*
X34656000Y21977000D01*
X34656000Y21980000D01*
X34654000Y21981000D01*
X34654000Y21985000D01*
X34654000Y21986000D01*
X34652000Y21989000D01*
X34652000Y21992000D01*
X34652000Y21994000D01*
X34652000Y21997000D01*
X34652000Y22000000D01*
X34652000Y22599000D01*
X34652000Y22602000D01*
X34652000Y22605000D01*
X34652000Y22607000D01*
X34652000Y22610000D01*
X34654000Y22613000D01*
X34654000Y22614000D01*
X34654000Y22618000D01*
X34656000Y22619000D01*
X34656000Y22622000D01*
X34658000Y22625000D01*
X34660000Y22626000D01*
X34662000Y22629000D01*
X34662000Y22630000D01*
X34664000Y22633000D01*
X34666000Y22634000D01*
X34668000Y22637000D01*
X34670000Y22638000D01*
X34672000Y22639000D01*
X34674000Y22642000D01*
X34676000Y22642000D01*
X34678000Y22645000D01*
X34680000Y22646000D01*
X34682000Y22646000D01*
X34686000Y22647000D01*
X34688000Y22647000D01*
X34690000Y22649000D01*
X34692000Y22649000D01*
X34696000Y22650000D01*
X34698000Y22650000D01*
X34700000Y22650000D01*
X35200000Y22650000D01*
X35204000Y22650000D01*
X35206000Y22650000D01*
X35208000Y22649000D01*
G37*
X38409000Y22649000D02*
X38411000Y22649000D01*
X38413000Y22647000D01*
X38415000Y22647000D01*
X38419000Y22646000D01*
X38421000Y22646000D01*
X38423000Y22645000D01*
X38425000Y22642000D01*
X38427000Y22642000D01*
X38429000Y22639000D01*
X38431000Y22638000D01*
X38433000Y22637000D01*
X38435000Y22634000D01*
X38437000Y22633000D01*
X38439000Y22630000D01*
X38441000Y22629000D01*
X38443000Y22626000D01*
X38443000Y22625000D01*
X38445000Y22622000D01*
X38447000Y22619000D01*
X38447000Y22618000D01*
X38449000Y22614000D01*
X38449000Y22613000D01*
X38449000Y22610000D01*
X38449000Y22607000D01*
X38451000Y22605000D01*
X38451000Y22602000D01*
X38451000Y22599000D01*
X38451000Y22000000D01*
X38451000Y21997000D01*
X38451000Y21994000D01*
X38449000Y21992000D01*
X38449000Y21989000D01*
X38449000Y21986000D01*
X38449000Y21985000D01*
X38447000Y21981000D01*
X38447000Y21980000D01*
X38445000Y21977000D01*
X38443000Y21974000D01*
X38443000Y21973000D01*
X38441000Y21970000D01*
X38439000Y21969000D01*
X38437000Y21966000D01*
X38435000Y21965000D01*
X38433000Y21962000D01*
X38431000Y21961000D01*
X38429000Y21960000D01*
X38427000Y21957000D01*
X38425000Y21957000D01*
X38423000Y21954000D01*
X38421000Y21953000D01*
X38419000Y21953000D01*
X38415000Y21952000D01*
X38413000Y21952000D01*
X38411000Y21950000D01*
X38409000Y21950000D01*
X38405000Y21949000D01*
X38403000Y21949000D01*
X38401000Y21949000D01*
X38300000Y21949000D01*
X38298000Y21949000D01*
X38296000Y21949000D01*
X38292000Y21950000D01*
X38290000Y21950000D01*
X38288000Y21952000D01*
X38286000Y21952000D01*
X38282000Y21953000D01*
X38280000Y21953000D01*
X38278000Y21954000D01*
X38276000Y21957000D01*
X38274000Y21957000D01*
X38272000Y21960000D01*
X38270000Y21961000D01*
X38268000Y21962000D01*
X38266000Y21965000D01*
X38264000Y21966000D01*
X38262000Y21969000D01*
X38260000Y21970000D01*
X38258000Y21973000D01*
X38258000Y21974000D01*
X38256000Y21977000D01*
X38254000Y21980000D01*
X38254000Y21981000D01*
X38252000Y21985000D01*
X38252000Y21986000D01*
X38252000Y21989000D01*
X38252000Y21992000D01*
X38250000Y21994000D01*
X38250000Y21997000D01*
X38250000Y22000000D01*
X38250000Y22400000D01*
X38250000Y22403000D01*
X38250000Y22404000D01*
X38250000Y22408000D01*
X38248000Y22412000D01*
X38248000Y22415000D01*
X38248000Y22416000D01*
X38246000Y22420000D01*
X38246000Y22423000D01*
X38244000Y22424000D01*
X38242000Y22427000D01*
X38240000Y22428000D01*
X38240000Y22431000D01*
X38238000Y22432000D01*
X38236000Y22435000D01*
X38234000Y22436000D01*
X38232000Y22439000D01*
X38230000Y22440000D01*
X38228000Y22440000D01*
X38226000Y22443000D01*
X38224000Y22444000D01*
X38220000Y22444000D01*
X38218000Y22447000D01*
X38216000Y22448000D01*
X38213000Y22448000D01*
X38211000Y22448000D01*
X38209000Y22448000D01*
X38205000Y22448000D01*
X38203000Y22448000D01*
X38201000Y22448000D01*
X38101000Y22448000D01*
X38097000Y22448000D01*
X38095000Y22448000D01*
X38093000Y22448000D01*
X38091000Y22448000D01*
X38087000Y22448000D01*
X38086000Y22448000D01*
X38082000Y22447000D01*
X38080000Y22444000D01*
X38078000Y22444000D01*
X38076000Y22443000D01*
X38074000Y22440000D01*
X38072000Y22440000D01*
X38070000Y22439000D01*
X38068000Y22436000D01*
X38066000Y22435000D01*
X38064000Y22432000D01*
X38062000Y22431000D01*
X38060000Y22428000D01*
X38058000Y22427000D01*
X38058000Y22424000D01*
X38056000Y22423000D01*
X38054000Y22420000D01*
X38054000Y22416000D01*
X38052000Y22415000D01*
X38052000Y22412000D01*
X38052000Y22408000D01*
X38050000Y22404000D01*
X38050000Y22403000D01*
X38050000Y22400000D01*
X38050000Y22000000D01*
X38050000Y21997000D01*
X38050000Y21994000D01*
X38050000Y21992000D01*
X38050000Y21989000D01*
X38048000Y21986000D01*
X38048000Y21985000D01*
X38048000Y21981000D01*
X38046000Y21980000D01*
X38046000Y21977000D01*
X38044000Y21974000D01*
X38042000Y21973000D01*
X38040000Y21970000D01*
X38040000Y21969000D01*
X38038000Y21966000D01*
X38036000Y21965000D01*
X38034000Y21962000D01*
X38032000Y21961000D01*
X38030000Y21960000D01*
X38028000Y21957000D01*
X38026000Y21957000D01*
X38024000Y21954000D01*
X38020000Y21953000D01*
X38018000Y21953000D01*
X38016000Y21952000D01*
X38014000Y21952000D01*
X38010000Y21950000D01*
X38008000Y21950000D01*
X38006000Y21949000D01*
X38004000Y21949000D01*
X38000000Y21949000D01*
X37901000Y21949000D01*
X37897000Y21949000D01*
X37895000Y21949000D01*
X37893000Y21950000D01*
X37891000Y21950000D01*
X37887000Y21952000D01*
X37885000Y21952000D01*
X37883000Y21953000D01*
X37881000Y21953000D01*
X37877000Y21954000D01*
X37875000Y21957000D01*
X37873000Y21957000D01*
X37871000Y21960000D01*
X37869000Y21961000D01*
X37867000Y21962000D01*
X37865000Y21965000D01*
X37863000Y21966000D01*
X37861000Y21969000D01*
X37861000Y21970000D01*
X37859000Y21973000D01*
X37857000Y21974000D01*
X37855000Y21977000D01*
X37855000Y21980000D01*
X37853000Y21981000D01*
X37853000Y21985000D01*
X37853000Y21986000D01*
X37851000Y21989000D01*
X37851000Y21992000D01*
X37851000Y21994000D01*
X37851000Y21997000D01*
X37851000Y22000000D01*
X37851000Y22599000D01*
X37851000Y22602000D01*
X37851000Y22605000D01*
X37851000Y22607000D01*
X37851000Y22610000D01*
X37853000Y22613000D01*
X37853000Y22614000D01*
X37853000Y22618000D01*
X37855000Y22619000D01*
X37855000Y22622000D01*
X37857000Y22625000D01*
X37859000Y22626000D01*
X37861000Y22629000D01*
X37861000Y22630000D01*
X37863000Y22633000D01*
X37865000Y22634000D01*
X37867000Y22637000D01*
X37869000Y22638000D01*
X37871000Y22639000D01*
X37873000Y22642000D01*
X37875000Y22642000D01*
X37877000Y22645000D01*
X37881000Y22646000D01*
X37883000Y22646000D01*
X37885000Y22647000D01*
X37887000Y22647000D01*
X37891000Y22649000D01*
X37893000Y22649000D01*
X37895000Y22650000D01*
X37897000Y22650000D01*
X37901000Y22650000D01*
X38401000Y22650000D01*
X38403000Y22650000D01*
X38405000Y22650000D01*
X38409000Y22649000D01*
G36*
X38409000Y22649000D02*
G01*
X38411000Y22649000D01*
X38413000Y22647000D01*
X38415000Y22647000D01*
X38419000Y22646000D01*
X38421000Y22646000D01*
X38423000Y22645000D01*
X38425000Y22642000D01*
X38427000Y22642000D01*
X38429000Y22639000D01*
X38431000Y22638000D01*
X38433000Y22637000D01*
X38435000Y22634000D01*
X38437000Y22633000D01*
X38439000Y22630000D01*
X38441000Y22629000D01*
X38443000Y22626000D01*
X38443000Y22625000D01*
X38445000Y22622000D01*
X38447000Y22619000D01*
X38447000Y22618000D01*
X38449000Y22614000D01*
X38449000Y22613000D01*
X38449000Y22610000D01*
X38449000Y22607000D01*
X38451000Y22605000D01*
X38451000Y22602000D01*
X38451000Y22599000D01*
X38451000Y22000000D01*
X38451000Y21997000D01*
X38451000Y21994000D01*
X38449000Y21992000D01*
X38449000Y21989000D01*
X38449000Y21986000D01*
X38449000Y21985000D01*
X38447000Y21981000D01*
X38447000Y21980000D01*
X38445000Y21977000D01*
X38443000Y21974000D01*
X38443000Y21973000D01*
X38441000Y21970000D01*
X38439000Y21969000D01*
X38437000Y21966000D01*
X38435000Y21965000D01*
X38433000Y21962000D01*
X38431000Y21961000D01*
X38429000Y21960000D01*
X38427000Y21957000D01*
X38425000Y21957000D01*
X38423000Y21954000D01*
X38421000Y21953000D01*
X38419000Y21953000D01*
X38415000Y21952000D01*
X38413000Y21952000D01*
X38411000Y21950000D01*
X38409000Y21950000D01*
X38405000Y21949000D01*
X38403000Y21949000D01*
X38401000Y21949000D01*
X38300000Y21949000D01*
X38298000Y21949000D01*
X38296000Y21949000D01*
X38292000Y21950000D01*
X38290000Y21950000D01*
X38288000Y21952000D01*
X38286000Y21952000D01*
X38282000Y21953000D01*
X38280000Y21953000D01*
X38278000Y21954000D01*
X38276000Y21957000D01*
X38274000Y21957000D01*
X38272000Y21960000D01*
X38270000Y21961000D01*
X38268000Y21962000D01*
X38266000Y21965000D01*
X38264000Y21966000D01*
X38262000Y21969000D01*
X38260000Y21970000D01*
X38258000Y21973000D01*
X38258000Y21974000D01*
X38256000Y21977000D01*
X38254000Y21980000D01*
X38254000Y21981000D01*
X38252000Y21985000D01*
X38252000Y21986000D01*
X38252000Y21989000D01*
X38252000Y21992000D01*
X38250000Y21994000D01*
X38250000Y21997000D01*
X38250000Y22000000D01*
X38250000Y22400000D01*
X38250000Y22403000D01*
X38250000Y22404000D01*
X38250000Y22408000D01*
X38248000Y22412000D01*
X38248000Y22415000D01*
X38248000Y22416000D01*
X38246000Y22420000D01*
X38246000Y22423000D01*
X38244000Y22424000D01*
X38242000Y22427000D01*
X38240000Y22428000D01*
X38240000Y22431000D01*
X38238000Y22432000D01*
X38236000Y22435000D01*
X38234000Y22436000D01*
X38232000Y22439000D01*
X38230000Y22440000D01*
X38228000Y22440000D01*
X38226000Y22443000D01*
X38224000Y22444000D01*
X38220000Y22444000D01*
X38218000Y22447000D01*
X38216000Y22448000D01*
X38213000Y22448000D01*
X38211000Y22448000D01*
X38209000Y22448000D01*
X38205000Y22448000D01*
X38203000Y22448000D01*
X38201000Y22448000D01*
X38101000Y22448000D01*
X38097000Y22448000D01*
X38095000Y22448000D01*
X38093000Y22448000D01*
X38091000Y22448000D01*
X38087000Y22448000D01*
X38086000Y22448000D01*
X38082000Y22447000D01*
X38080000Y22444000D01*
X38078000Y22444000D01*
X38076000Y22443000D01*
X38074000Y22440000D01*
X38072000Y22440000D01*
X38070000Y22439000D01*
X38068000Y22436000D01*
X38066000Y22435000D01*
X38064000Y22432000D01*
X38062000Y22431000D01*
X38060000Y22428000D01*
X38058000Y22427000D01*
X38058000Y22424000D01*
X38056000Y22423000D01*
X38054000Y22420000D01*
X38054000Y22416000D01*
X38052000Y22415000D01*
X38052000Y22412000D01*
X38052000Y22408000D01*
X38050000Y22404000D01*
X38050000Y22403000D01*
X38050000Y22400000D01*
X38050000Y22000000D01*
X38050000Y21997000D01*
X38050000Y21994000D01*
X38050000Y21992000D01*
X38050000Y21989000D01*
X38048000Y21986000D01*
X38048000Y21985000D01*
X38048000Y21981000D01*
X38046000Y21980000D01*
X38046000Y21977000D01*
X38044000Y21974000D01*
X38042000Y21973000D01*
X38040000Y21970000D01*
X38040000Y21969000D01*
X38038000Y21966000D01*
X38036000Y21965000D01*
X38034000Y21962000D01*
X38032000Y21961000D01*
X38030000Y21960000D01*
X38028000Y21957000D01*
X38026000Y21957000D01*
X38024000Y21954000D01*
X38020000Y21953000D01*
X38018000Y21953000D01*
X38016000Y21952000D01*
X38014000Y21952000D01*
X38010000Y21950000D01*
X38008000Y21950000D01*
X38006000Y21949000D01*
X38004000Y21949000D01*
X38000000Y21949000D01*
X37901000Y21949000D01*
X37897000Y21949000D01*
X37895000Y21949000D01*
X37893000Y21950000D01*
X37891000Y21950000D01*
X37887000Y21952000D01*
X37885000Y21952000D01*
X37883000Y21953000D01*
X37881000Y21953000D01*
X37877000Y21954000D01*
X37875000Y21957000D01*
X37873000Y21957000D01*
X37871000Y21960000D01*
X37869000Y21961000D01*
X37867000Y21962000D01*
X37865000Y21965000D01*
X37863000Y21966000D01*
X37861000Y21969000D01*
X37861000Y21970000D01*
X37859000Y21973000D01*
X37857000Y21974000D01*
X37855000Y21977000D01*
X37855000Y21980000D01*
X37853000Y21981000D01*
X37853000Y21985000D01*
X37853000Y21986000D01*
X37851000Y21989000D01*
X37851000Y21992000D01*
X37851000Y21994000D01*
X37851000Y21997000D01*
X37851000Y22000000D01*
X37851000Y22599000D01*
X37851000Y22602000D01*
X37851000Y22605000D01*
X37851000Y22607000D01*
X37851000Y22610000D01*
X37853000Y22613000D01*
X37853000Y22614000D01*
X37853000Y22618000D01*
X37855000Y22619000D01*
X37855000Y22622000D01*
X37857000Y22625000D01*
X37859000Y22626000D01*
X37861000Y22629000D01*
X37861000Y22630000D01*
X37863000Y22633000D01*
X37865000Y22634000D01*
X37867000Y22637000D01*
X37869000Y22638000D01*
X37871000Y22639000D01*
X37873000Y22642000D01*
X37875000Y22642000D01*
X37877000Y22645000D01*
X37881000Y22646000D01*
X37883000Y22646000D01*
X37885000Y22647000D01*
X37887000Y22647000D01*
X37891000Y22649000D01*
X37893000Y22649000D01*
X37895000Y22650000D01*
X37897000Y22650000D01*
X37901000Y22650000D01*
X38401000Y22650000D01*
X38403000Y22650000D01*
X38405000Y22650000D01*
X38409000Y22649000D01*
G37*
%TD*%
D12*
%TO.C,H2*%
X94775000Y10637500D03*
%TD*%
D13*
%TO.C,J15*%
X28550000Y52653500D03*
D14*
X97351000Y52653500D03*
%TD*%
D12*
%TO.C,SP7*%
X49500000Y33600000D03*
%TD*%
D15*
%TO.C,J5*%
X86450080Y9300000D03*
X86050080Y8600000D03*
X85250080Y8600000D03*
X84850080Y9300000D03*
X84450080Y8600000D03*
X84050080Y9300000D03*
X83250080Y9300000D03*
X82850080Y8600000D03*
X82450080Y9300000D03*
X82050080Y8600000D03*
X81250080Y8600000D03*
X80850080Y9300000D03*
D16*
X79380080Y8150000D03*
X79380080Y3420000D03*
D15*
X81650080Y9300000D03*
X85650080Y9300000D03*
D16*
X87920080Y8150000D03*
X87920080Y3420000D03*
%TD*%
D17*
%TO.C,U23*%
X4298000Y29258855D03*
D18*
X11918000Y29258855D03*
X19538000Y29258855D03*
X19538000Y57198855D03*
X15728000Y57198855D03*
X11918000Y57198855D03*
X8108000Y57198855D03*
X4298000Y57198855D03*
%TD*%
D12*
%TO.C,H1*%
X31175000Y10650000D03*
%TD*%
D19*
%TO.C,J6*%
X3685000Y11233603D03*
X15114000Y11233603D03*
D20*
X3685000Y20133603D03*
X4954000Y17594603D03*
X6224000Y20133603D03*
X7494000Y17594603D03*
X8763000Y20133603D03*
X10034000Y17594603D03*
X11303000Y20133603D03*
X12575000Y17594603D03*
X13844000Y20133603D03*
X15114000Y17594603D03*
X3685000Y15055603D03*
X6224000Y13794603D03*
X12575000Y13794603D03*
X15114000Y15063603D03*
D21*
X2758000Y7175603D03*
X5299000Y7175603D03*
X13499000Y7175603D03*
X16040000Y7175603D03*
D22*
X1549000Y14283603D03*
D23*
X17248000Y14283603D03*
%TD*%
D24*
%TO.C,J13*%
X58765000Y5790000D03*
D25*
X58765000Y1290000D03*
D24*
X69614000Y5790000D03*
D25*
X69614000Y1290000D03*
%TD*%
D26*
%TO.C,J11*%
X115499000Y47400000D03*
X115499000Y12601000D03*
%TD*%
D15*
%TO.C,J4*%
X47800000Y9385000D03*
X47400000Y8685000D03*
X46600000Y8685000D03*
X46200000Y9385000D03*
X45800000Y8685000D03*
X45400000Y9385000D03*
X44600000Y9385000D03*
X44200000Y8685000D03*
X43800000Y9385000D03*
X43400000Y8685000D03*
X42600000Y8685000D03*
X42200000Y9385000D03*
D16*
X40730000Y8235000D03*
X40730000Y3505000D03*
D15*
X43000000Y9385000D03*
X47000000Y9385000D03*
D16*
X49270000Y8235000D03*
X49270000Y3505000D03*
%TD*%
D27*
%TO.C,J1*%
X89481000Y43629000D03*
D28*
X89481000Y23631000D03*
%TD*%
D29*
%TO.C,R262*%
X30420000Y31600000D03*
X29460000Y31600000D03*
%TD*%
D30*
%TO.C,C82*%
X6600000Y39150000D03*
X1500000Y39150000D03*
%TD*%
D31*
%TO.C,FID6*%
X9550000Y47250000D03*
%TD*%
D32*
%TO.C,Q16*%
X14150000Y51726000D03*
X14150000Y49826000D03*
X11950000Y50775500D03*
%TD*%
D33*
%TO.C,TP3*%
X47940000Y53355000D03*
%TD*%
D34*
%TO.C,R69*%
X43670000Y26800000D03*
X44630000Y26800000D03*
%TD*%
D35*
%TO.C,U25*%
X103253000Y16101000D03*
X104204000Y16101000D03*
X105154000Y16101000D03*
X105154000Y13501000D03*
X104204000Y13501000D03*
X103253000Y13501000D03*
%TD*%
D36*
%TO.C,R212*%
X62399411Y28499411D03*
X61720589Y27820589D03*
%TD*%
D29*
%TO.C,C118*%
X36030000Y52250000D03*
X35070000Y52250000D03*
%TD*%
D37*
%TO.C,U22*%
X22751000Y38985500D03*
X22102000Y38985500D03*
X21450000Y38985500D03*
X20800000Y38985500D03*
X20150000Y38985500D03*
D38*
X19125000Y40011500D03*
X19125000Y40660500D03*
X19125000Y41312500D03*
X19125000Y41962500D03*
X19125000Y42612500D03*
D37*
X20150000Y43637500D03*
X20800000Y43637500D03*
X21450000Y43637500D03*
X22102000Y43637500D03*
X22751000Y43637500D03*
D38*
X23777000Y42612500D03*
X23777000Y41962500D03*
X23777000Y41312500D03*
X23777000Y40660500D03*
X23777000Y40011500D03*
D39*
X21450000Y41312500D03*
%TD*%
D40*
%TO.C,D8*%
X30800000Y850000D03*
X30800000Y2250000D03*
%TD*%
D29*
%TO.C,R57*%
X28280000Y16300000D03*
X27320000Y16300000D03*
%TD*%
D34*
%TO.C,R266*%
X78670000Y24350000D03*
X79630000Y24350000D03*
%TD*%
D41*
%TO.C,C30*%
X35800000Y20082500D03*
X35800000Y21042500D03*
%TD*%
D42*
%TO.C,Y1*%
X83191000Y44967000D03*
X81339000Y44967000D03*
X81339000Y46415000D03*
X83191000Y46415000D03*
%TD*%
D41*
%TO.C,R179*%
X78401750Y32745000D03*
X78401750Y33705000D03*
%TD*%
%TO.C,C142*%
X32280000Y43910000D03*
X32280000Y44870000D03*
%TD*%
D34*
%TO.C,R135*%
X82170000Y25650000D03*
X83130000Y25650000D03*
%TD*%
%TO.C,C98*%
X68370000Y53500000D03*
X69330000Y53500000D03*
%TD*%
%TO.C,R11*%
X105570000Y29350000D03*
X106530000Y29350000D03*
%TD*%
D29*
%TO.C,R41*%
X42530000Y27800000D03*
X41570000Y27800000D03*
%TD*%
D34*
%TO.C,C135*%
X65320000Y34800000D03*
X66280000Y34800000D03*
%TD*%
D43*
%TO.C,U8*%
X16773000Y5780000D03*
X17425000Y5780000D03*
X18075000Y5780000D03*
X18075000Y3832000D03*
X17425000Y3832000D03*
X16773000Y3832000D03*
D44*
X17425000Y4805000D03*
%TD*%
D12*
%TO.C,H3*%
X115000000Y5000000D03*
%TD*%
D45*
%TO.C,C145*%
X22150000Y12430000D03*
X22150000Y11470000D03*
%TD*%
D34*
%TO.C,R10*%
X60770000Y47350000D03*
X61730000Y47350000D03*
%TD*%
D41*
%TO.C,R281*%
X60150000Y10270000D03*
X60150000Y11230000D03*
%TD*%
D46*
%TO.C,R122*%
X79428000Y54690000D03*
X79428000Y54292000D03*
X79428000Y53890000D03*
X79428000Y53492000D03*
X78830000Y53492000D03*
X78830000Y53890000D03*
X78830000Y54292000D03*
X78830000Y54690000D03*
%TD*%
D29*
%TO.C,C31*%
X20480000Y13750000D03*
X19520000Y13750000D03*
%TD*%
D34*
%TO.C,R150*%
X24895000Y42275000D03*
X25855000Y42275000D03*
%TD*%
%TO.C,R23*%
X77920000Y21850000D03*
X78880000Y21850000D03*
%TD*%
D47*
%TO.C,D59*%
X96149000Y1600000D03*
X96849000Y1600000D03*
%TD*%
D31*
%TO.C,FID7*%
X118450000Y52500000D03*
%TD*%
D30*
%TO.C,C80*%
X6900000Y33225000D03*
X1800000Y33225000D03*
%TD*%
D34*
%TO.C,C90*%
X66270000Y44000000D03*
X67230000Y44000000D03*
%TD*%
%TO.C,R12*%
X105570000Y30350000D03*
X106530000Y30350000D03*
%TD*%
D48*
%TO.C,R273*%
X41850000Y49350000D03*
X40450000Y49350000D03*
%TD*%
D33*
%TO.C,TP41*%
X70399990Y25199200D03*
%TD*%
D34*
%TO.C,C139*%
X59795000Y46200000D03*
X60755000Y46200000D03*
%TD*%
D45*
%TO.C,R128*%
X73500000Y15730000D03*
X73500000Y14770000D03*
%TD*%
%TO.C,C158*%
X17790000Y17980000D03*
X17790000Y17020000D03*
%TD*%
D41*
%TO.C,C146*%
X25150000Y11470000D03*
X25150000Y12430000D03*
%TD*%
D45*
%TO.C,R279*%
X60150000Y13130000D03*
X60150000Y12170000D03*
%TD*%
D29*
%TO.C,R114*%
X83130000Y21650000D03*
X82170000Y21650000D03*
%TD*%
D49*
%TO.C,R213*%
X60400589Y26500589D03*
X61079411Y27179411D03*
%TD*%
D34*
%TO.C,C99*%
X70255000Y53500000D03*
X71215000Y53500000D03*
%TD*%
%TO.C,R149*%
X24895000Y41300000D03*
X25855000Y41300000D03*
%TD*%
D50*
%TO.C,C77*%
X8540000Y14910000D03*
X8540000Y16310000D03*
%TD*%
D41*
%TO.C,R275*%
X24550000Y49680000D03*
X24550000Y50640000D03*
%TD*%
%TO.C,R205*%
X54650000Y26970000D03*
X54650000Y27930000D03*
%TD*%
D34*
%TO.C,R17*%
X78770000Y43330000D03*
X79730000Y43330000D03*
%TD*%
D48*
%TO.C,C22*%
X85450000Y37250000D03*
X84050000Y37250000D03*
%TD*%
D45*
%TO.C,R105*%
X30800000Y4430000D03*
X30800000Y3470000D03*
%TD*%
D34*
%TO.C,R146*%
X22070000Y37800000D03*
X23030000Y37800000D03*
%TD*%
D41*
%TO.C,R98*%
X45250000Y19970000D03*
X45250000Y20930000D03*
%TD*%
D45*
%TO.C,R217*%
X57550000Y22630000D03*
X57550000Y21670000D03*
%TD*%
D29*
%TO.C,R245*%
X83130000Y23650000D03*
X82170000Y23650000D03*
%TD*%
D51*
%TO.C,FB3*%
X18050000Y34012500D03*
X18050000Y36212500D03*
%TD*%
D34*
%TO.C,C50*%
X18800000Y46560000D03*
X19760000Y46560000D03*
%TD*%
D33*
%TO.C,TP55*%
X38415000Y2680000D03*
%TD*%
D41*
%TO.C,R37*%
X81850000Y40250000D03*
X81850000Y41210000D03*
%TD*%
D33*
%TO.C,TP44*%
X45530000Y53355000D03*
%TD*%
D52*
%TO.C,D25*%
X79350000Y56950000D03*
X77950000Y56950000D03*
%TD*%
D34*
%TO.C,R7*%
X107470000Y12200000D03*
X108430000Y12200000D03*
%TD*%
D41*
%TO.C,R44*%
X36175000Y17995000D03*
X36175000Y18955000D03*
%TD*%
D53*
%TO.C,U36*%
X63258000Y40800000D03*
X63258000Y40300000D03*
X63258000Y39800000D03*
X63258000Y39300000D03*
X63258000Y38800000D03*
X63258000Y38300000D03*
X63258000Y37800000D03*
X63258000Y37300000D03*
X63258000Y36800000D03*
X63258000Y36300000D03*
X63258000Y35800000D03*
X63258000Y35300000D03*
X63258000Y34800000D03*
X63258000Y34300000D03*
X63258000Y33800000D03*
X63258000Y33300000D03*
X63258000Y32800000D03*
D54*
X62320000Y32363000D03*
X61820000Y32363000D03*
X61320000Y32363000D03*
X60820000Y32363000D03*
D53*
X59883000Y32800000D03*
X59883000Y33300000D03*
X59883000Y33800000D03*
X59883000Y34300000D03*
X59883000Y34800000D03*
X59883000Y35300000D03*
X59883000Y35800000D03*
X59883000Y36300000D03*
X59883000Y36800000D03*
X59883000Y37300000D03*
X59883000Y37800000D03*
X59883000Y38300000D03*
X59883000Y38800000D03*
X59883000Y39300000D03*
X59883000Y39800000D03*
X59883000Y40300000D03*
X59883000Y40800000D03*
D54*
X60820000Y41238000D03*
X61320000Y41238000D03*
X61820000Y41238000D03*
X62320000Y41238000D03*
D55*
X61570000Y36800000D03*
%TD*%
D34*
%TO.C,C89*%
X66260000Y28225000D03*
X67220000Y28225000D03*
%TD*%
%TO.C,C133*%
X67220000Y36250000D03*
X68180000Y36250000D03*
%TD*%
D33*
%TO.C,TP29*%
X38415000Y10180000D03*
%TD*%
D56*
%TO.C,Q21*%
X19400000Y10200000D03*
X19400000Y9202000D03*
X18098000Y9700000D03*
%TD*%
D29*
%TO.C,C100*%
X110270000Y31220000D03*
X109310000Y31220000D03*
%TD*%
D57*
%TO.C,R108*%
X82172000Y53520000D03*
X82172000Y53918000D03*
X82172000Y54320000D03*
X82172000Y54718000D03*
X82770000Y54718000D03*
X82770000Y54320000D03*
X82770000Y53918000D03*
X82770000Y53520000D03*
%TD*%
D34*
%TO.C,R192*%
X108570000Y6750000D03*
X109530000Y6750000D03*
%TD*%
D45*
%TO.C,R81*%
X39850000Y34830000D03*
X39850000Y33870000D03*
%TD*%
D41*
%TO.C,R45*%
X35175000Y17995000D03*
X35175000Y18955000D03*
%TD*%
%TO.C,C7*%
X76650000Y40400000D03*
X76650000Y41360000D03*
%TD*%
%TO.C,R134*%
X100850000Y35070000D03*
X100850000Y36030000D03*
%TD*%
D33*
%TO.C,TP26*%
X29940000Y26340000D03*
%TD*%
%TO.C,TP54*%
X38415000Y5680000D03*
%TD*%
%TO.C,TP2*%
X33455000Y57450000D03*
%TD*%
D40*
%TO.C,D4*%
X49350000Y22600000D03*
X49350000Y24000000D03*
%TD*%
D29*
%TO.C,R133*%
X73430000Y53050000D03*
X72470000Y53050000D03*
%TD*%
D58*
%TO.C,U42*%
X30801000Y43549000D03*
X29850000Y43549000D03*
X28901000Y43549000D03*
X28901000Y46250000D03*
X30801000Y46250000D03*
%TD*%
D29*
%TO.C,C34*%
X18280000Y7110000D03*
X17320000Y7110000D03*
%TD*%
D34*
%TO.C,C17*%
X96505000Y44000000D03*
X97465000Y44000000D03*
%TD*%
D59*
%TO.C,D7*%
X44312000Y16300000D03*
X45186000Y16300000D03*
%TD*%
D41*
%TO.C,R216*%
X58250000Y15670000D03*
X58250000Y16630000D03*
%TD*%
D35*
%TO.C,U28*%
X63103000Y48271000D03*
X64054000Y48271000D03*
X65004000Y48271000D03*
X65004000Y45671000D03*
X64054000Y45671000D03*
X63103000Y45671000D03*
%TD*%
D29*
%TO.C,R267*%
X20710000Y11800000D03*
X19750000Y11800000D03*
%TD*%
D34*
%TO.C,C16*%
X96520000Y36000000D03*
X97480000Y36000000D03*
%TD*%
D45*
%TO.C,R97*%
X45250000Y19030000D03*
X45250000Y18070000D03*
%TD*%
%TO.C,R244*%
X32420000Y31070000D03*
X32420000Y30110000D03*
%TD*%
D52*
%TO.C,D24*%
X79350000Y58450000D03*
X77950000Y58450000D03*
%TD*%
D60*
%TO.C,U32*%
X37900000Y42200000D03*
D61*
X37900000Y42700000D03*
X37900000Y43200000D03*
D60*
X37900000Y43700000D03*
X38800000Y43700000D03*
D61*
X38800000Y43200000D03*
X38800000Y42700000D03*
D60*
X38800000Y42200000D03*
%TD*%
D52*
%TO.C,R276*%
X32350000Y46050000D03*
X33750000Y46050000D03*
%TD*%
D62*
%TO.C,U47*%
X19280000Y17875500D03*
D63*
X19780000Y17875500D03*
X20280000Y17875500D03*
D62*
X20780000Y17875500D03*
X20780000Y16975500D03*
D63*
X20280000Y16975500D03*
X19780000Y16975500D03*
D62*
X19280000Y16975500D03*
%TD*%
D45*
%TO.C,R211*%
X63150000Y30730000D03*
X63150000Y29770000D03*
%TD*%
D64*
%TO.C,D14*%
X22851000Y35450000D03*
X20052000Y35450000D03*
%TD*%
D33*
%TO.C,TP52*%
X38415000Y4180000D03*
%TD*%
D65*
%TO.C,C76*%
X20450000Y33300000D03*
X22650000Y33300000D03*
%TD*%
D66*
%TO.C,R25*%
X59785000Y22798000D03*
X60183000Y22798000D03*
X60585000Y22798000D03*
X60983000Y22798000D03*
X60983000Y22200000D03*
X60585000Y22200000D03*
X60183000Y22200000D03*
X59785000Y22200000D03*
%TD*%
D59*
%TO.C,D6*%
X26312000Y9080000D03*
X27186000Y9080000D03*
%TD*%
D45*
%TO.C,R183*%
X44370000Y52200000D03*
X44370000Y51240000D03*
%TD*%
D40*
%TO.C,D54*%
X106950000Y2050000D03*
X106950000Y3450000D03*
%TD*%
D67*
%TO.C,R207*%
X55410589Y22689411D03*
X56089411Y22010589D03*
%TD*%
D34*
%TO.C,R236*%
X26610000Y48050000D03*
X27570000Y48050000D03*
%TD*%
D45*
%TO.C,C64*%
X31750000Y22030000D03*
X31750000Y21070000D03*
%TD*%
D33*
%TO.C,TP18*%
X40250000Y32350000D03*
%TD*%
D68*
%TO.C,D35*%
X39801000Y31040000D03*
X38401000Y31040000D03*
%TD*%
D29*
%TO.C,R206*%
X73430000Y52050000D03*
X72470000Y52050000D03*
%TD*%
D33*
%TO.C,TP23*%
X38415000Y1180000D03*
%TD*%
D69*
%TO.C,D37*%
X26149000Y49950000D03*
X27549000Y49950000D03*
%TD*%
D41*
%TO.C,R152*%
X11450000Y8970000D03*
X11450000Y9930000D03*
%TD*%
D29*
%TO.C,R167*%
X67220000Y29175000D03*
X66260000Y29175000D03*
%TD*%
D57*
%TO.C,R103*%
X93032000Y53790000D03*
X93032000Y54188000D03*
X93032000Y54590000D03*
X93032000Y54988000D03*
X93630000Y54988000D03*
X93630000Y54590000D03*
X93630000Y54188000D03*
X93630000Y53790000D03*
%TD*%
D48*
%TO.C,D2*%
X16650000Y1800000D03*
X18050000Y1800000D03*
%TD*%
D70*
%TO.C,U26*%
X68960000Y30411000D03*
X69460000Y30411000D03*
X69960000Y30411000D03*
X70458000Y30411000D03*
X70958000Y30411000D03*
X71459000Y30411000D03*
D71*
X72108000Y29762000D03*
X72108000Y29261000D03*
X72108000Y28760000D03*
X72108000Y28262000D03*
X72108000Y27762000D03*
X72108000Y27261000D03*
D72*
X71459000Y26612000D03*
X70958000Y26612000D03*
X70458000Y26612000D03*
X69960000Y26612000D03*
X69460000Y26612000D03*
X68958000Y26612000D03*
D73*
X68309000Y27261000D03*
X68309000Y27762000D03*
X68309000Y28262000D03*
X68309000Y28760000D03*
X68309000Y29260000D03*
X68309000Y29762000D03*
D74*
X70209000Y28510000D03*
%TD*%
D41*
%TO.C,R70*%
X29390000Y29650000D03*
X29390000Y30610000D03*
%TD*%
D12*
%TO.C,H4*%
X10000000Y5000000D03*
%TD*%
D33*
%TO.C,TP37*%
X73525000Y26200000D03*
%TD*%
D29*
%TO.C,R251*%
X17270000Y55275000D03*
X16310000Y55275000D03*
%TD*%
D34*
%TO.C,C42*%
X106470000Y11200000D03*
X107430000Y11200000D03*
%TD*%
D75*
%TO.C,D34*%
X25500000Y47299000D03*
X25500000Y48699000D03*
%TD*%
D45*
%TO.C,R24*%
X78350000Y17230000D03*
X78350000Y16270000D03*
%TD*%
D29*
%TO.C,R148*%
X21750000Y44830000D03*
X20790000Y44830000D03*
%TD*%
D76*
%TO.C,U38*%
X39850000Y54454000D03*
X39850000Y53503000D03*
X39850000Y52553000D03*
X37536000Y52553000D03*
X37536000Y53503000D03*
X37536000Y54454000D03*
%TD*%
D34*
%TO.C,R61*%
X78470000Y18450000D03*
X79430000Y18450000D03*
%TD*%
D29*
%TO.C,R270*%
X18280000Y8100000D03*
X17320000Y8100000D03*
%TD*%
D41*
%TO.C,C97*%
X36850000Y41470000D03*
X36850000Y42430000D03*
%TD*%
D47*
%TO.C,D16*%
X86899000Y57650000D03*
X87599000Y57650000D03*
%TD*%
D29*
%TO.C,R181*%
X28155000Y34600000D03*
X27195000Y34600000D03*
%TD*%
D45*
%TO.C,C91*%
X63400000Y43380000D03*
X63400000Y42420000D03*
%TD*%
D36*
%TO.C,R221*%
X62299411Y26099411D03*
X61620589Y25420589D03*
%TD*%
D41*
%TO.C,R155*%
X24650000Y28530000D03*
X24650000Y29490000D03*
%TD*%
D29*
%TO.C,C8*%
X76730000Y36730000D03*
X75770000Y36730000D03*
%TD*%
D33*
%TO.C,TP30*%
X49875000Y13920000D03*
%TD*%
D34*
%TO.C,R145*%
X16670000Y39112500D03*
X17630000Y39112500D03*
%TD*%
D45*
%TO.C,R88*%
X46250000Y23930000D03*
X46250000Y22970000D03*
%TD*%
D47*
%TO.C,D55*%
X71399000Y4950000D03*
X72099000Y4950000D03*
%TD*%
D34*
%TO.C,C131*%
X67220000Y39500000D03*
X68180000Y39500000D03*
%TD*%
D77*
%TO.C,C85*%
X1751000Y58250000D03*
X1751000Y55250000D03*
%TD*%
D31*
%TO.C,FID8*%
X118700000Y1300000D03*
%TD*%
D29*
%TO.C,C83*%
X30800000Y42440000D03*
X29840000Y42440000D03*
%TD*%
D34*
%TO.C,R68*%
X43670000Y27750000D03*
X44630000Y27750000D03*
%TD*%
D29*
%TO.C,C149*%
X45080000Y14500000D03*
X44120000Y14500000D03*
%TD*%
D45*
%TO.C,C94*%
X108250000Y24730000D03*
X108250000Y23770000D03*
%TD*%
D29*
%TO.C,R90*%
X48330000Y21350000D03*
X47370000Y21350000D03*
%TD*%
D34*
%TO.C,C86*%
X67220000Y38550000D03*
X68180000Y38550000D03*
%TD*%
D47*
%TO.C,D22*%
X100149000Y33970000D03*
X100849000Y33970000D03*
%TD*%
D34*
%TO.C,R38*%
X75770000Y35730000D03*
X76730000Y35730000D03*
%TD*%
%TO.C,R15*%
X99670000Y24500000D03*
X100630000Y24500000D03*
%TD*%
%TO.C,R110*%
X44520000Y7650000D03*
X45480000Y7650000D03*
%TD*%
%TO.C,C14*%
X96505000Y42000000D03*
X97465000Y42000000D03*
%TD*%
D29*
%TO.C,R94*%
X48330000Y20350000D03*
X47370000Y20350000D03*
%TD*%
D41*
%TO.C,R73*%
X14020000Y2920000D03*
X14020000Y3880000D03*
%TD*%
D34*
%TO.C,R93*%
X49270000Y20350000D03*
X50230000Y20350000D03*
%TD*%
%TO.C,C13*%
X96505000Y45000000D03*
X97465000Y45000000D03*
%TD*%
D45*
%TO.C,R18*%
X76650000Y39410000D03*
X76650000Y38450000D03*
%TD*%
D41*
%TO.C,R141*%
X101850000Y35070000D03*
X101850000Y36030000D03*
%TD*%
D33*
%TO.C,TP36*%
X73550800Y27200000D03*
%TD*%
D46*
%TO.C,R107*%
X90078000Y55000000D03*
X90078000Y54602000D03*
X90078000Y54200000D03*
X90078000Y53802000D03*
X89480000Y53802000D03*
X89480000Y54200000D03*
X89480000Y54602000D03*
X89480000Y55000000D03*
%TD*%
D45*
%TO.C,C53*%
X31650000Y20030000D03*
X31650000Y19070000D03*
%TD*%
D29*
%TO.C,R9*%
X69130000Y44500000D03*
X68170000Y44500000D03*
%TD*%
D33*
%TO.C,TP12*%
X100335000Y39880001D03*
%TD*%
D34*
%TO.C,C88*%
X67220000Y35300000D03*
X68180000Y35300000D03*
%TD*%
D29*
%TO.C,R80*%
X38830000Y45450000D03*
X37870000Y45450000D03*
%TD*%
D33*
%TO.C,TP53*%
X38415000Y7180000D03*
%TD*%
D78*
%TO.C,J9*%
X57969000Y3495500D03*
X50350000Y2480500D03*
X50350000Y4511500D03*
D79*
X56699000Y2861500D03*
X55429000Y2861500D03*
X54159000Y2861500D03*
X52890000Y2861500D03*
X51620000Y2861500D03*
X51620000Y4130500D03*
X52890000Y4130500D03*
X54159000Y4130500D03*
X55429000Y4130500D03*
X56699000Y4130500D03*
%TD*%
D80*
%TO.C,D30*%
X40050000Y48188000D03*
X40050000Y47314000D03*
%TD*%
D34*
%TO.C,R65*%
X33610000Y30150000D03*
X34570000Y30150000D03*
%TD*%
D12*
%TO.C,H5*%
X115000000Y56500000D03*
%TD*%
D45*
%TO.C,R274*%
X23480000Y50620000D03*
X23480000Y49660000D03*
%TD*%
D41*
%TO.C,R151*%
X12450000Y8970000D03*
X12450000Y9930000D03*
%TD*%
D34*
%TO.C,C87*%
X65320000Y36825000D03*
X66280000Y36825000D03*
%TD*%
D41*
%TO.C,R91*%
X45250000Y24870000D03*
X45250000Y25830000D03*
%TD*%
D45*
%TO.C,R280*%
X61550000Y13130000D03*
X61550000Y12170000D03*
%TD*%
D41*
%TO.C,R96*%
X46250000Y19970000D03*
X46250000Y20930000D03*
%TD*%
D69*
%TO.C,D36*%
X28499000Y51400000D03*
X29899000Y51400000D03*
%TD*%
D81*
%TO.C,J14*%
X103400000Y5219000D03*
X102400000Y5219000D03*
X101400000Y5219000D03*
X100400000Y5219000D03*
D82*
X104700000Y1344000D03*
X99100000Y1344000D03*
%TD*%
D83*
%TO.C,Q14*%
X13002000Y53323000D03*
D84*
X13002000Y54073000D03*
D83*
X13002000Y54820000D03*
X14901000Y54820000D03*
D84*
X14901000Y54073000D03*
D83*
X14901000Y53323000D03*
%TD*%
D85*
%TO.C,U4*%
X37800000Y48310000D03*
D86*
X37300000Y48310000D03*
X36800000Y48310000D03*
D85*
X36300000Y48310000D03*
X36300000Y49210000D03*
D86*
X36800000Y49210000D03*
X37300000Y49210000D03*
D85*
X37800000Y49210000D03*
%TD*%
D33*
%TO.C,TP13*%
X34040000Y31750000D03*
%TD*%
D87*
%TO.C,D13*%
X23820000Y24900000D03*
X21280000Y24900000D03*
X23820000Y21200000D03*
X21280000Y21200000D03*
%TD*%
D33*
%TO.C,TP43*%
X68399990Y25199200D03*
%TD*%
D41*
%TO.C,C47*%
X64399999Y42420000D03*
X64399999Y43380000D03*
%TD*%
D45*
%TO.C,C136*%
X32650000Y20030000D03*
X32650000Y19070000D03*
%TD*%
D33*
%TO.C,TP42*%
X69399990Y25199200D03*
%TD*%
D88*
%TO.C,U5*%
X25550000Y16475000D03*
X25550000Y15825000D03*
X25550000Y15175000D03*
X25550000Y14525000D03*
D89*
X24625000Y13600000D03*
X23975000Y13600000D03*
X23325000Y13600000D03*
X22675000Y13600000D03*
D88*
X21750000Y14525000D03*
X21750000Y15175000D03*
X21750000Y15825000D03*
X21750000Y16475000D03*
D89*
X22675000Y17400000D03*
X23325000Y17400000D03*
X23975000Y17400000D03*
X24625000Y17400000D03*
D90*
X23650000Y15500000D03*
%TD*%
D91*
%TO.C,Q6*%
X28184627Y37800000D03*
X30084627Y37800000D03*
X29135127Y35600000D03*
%TD*%
D41*
%TO.C,R215*%
X57250000Y15670000D03*
X57250000Y16630000D03*
%TD*%
D34*
%TO.C,R191*%
X106570000Y4690000D03*
X107530000Y4690000D03*
%TD*%
D92*
%TO.C,U11*%
X24650000Y9363000D03*
X24150000Y9363000D03*
D93*
X23650000Y9363000D03*
D92*
X23152000Y9363000D03*
X22652000Y9363000D03*
X22652000Y10135000D03*
X23152000Y10135000D03*
D93*
X23650000Y10135000D03*
D92*
X24150000Y10135000D03*
X24650000Y10135000D03*
%TD*%
D33*
%TO.C,TP38*%
X73425000Y25200000D03*
%TD*%
D56*
%TO.C,Q11*%
X34810000Y54400000D03*
X34810000Y55398000D03*
X36112000Y54900000D03*
%TD*%
D94*
%TO.C,Q19*%
X79450000Y19500000D03*
X78452000Y19500000D03*
X78950000Y20802000D03*
%TD*%
D41*
%TO.C,R85*%
X44300000Y24870000D03*
X44300000Y25830000D03*
%TD*%
D45*
%TO.C,R117*%
X23150000Y12430000D03*
X23150000Y11470000D03*
%TD*%
%TO.C,R246*%
X31410000Y31070000D03*
X31410000Y30110000D03*
%TD*%
D29*
%TO.C,C147*%
X29280000Y21700000D03*
X28320000Y21700000D03*
%TD*%
D95*
%TO.C,R112*%
X56060000Y6372000D03*
X55662000Y6372000D03*
X55260000Y6372000D03*
X54862000Y6372000D03*
X54862000Y6970000D03*
X55260000Y6970000D03*
X55662000Y6970000D03*
X56060000Y6970000D03*
%TD*%
D33*
%TO.C,TP39*%
X72399990Y25199200D03*
%TD*%
D15*
%TO.C,J3*%
X26731000Y6436000D03*
X20950000Y6436000D03*
D96*
X27042000Y7510000D03*
X26240000Y7510000D03*
D97*
X25090000Y7510000D03*
X24090000Y7510000D03*
X23592000Y7510000D03*
X22591000Y7510000D03*
D96*
X21442000Y7510000D03*
X20640000Y7510000D03*
X20640000Y7510000D03*
X21442000Y7510000D03*
D97*
X22091000Y7510000D03*
X23092000Y7510000D03*
X24590000Y7510000D03*
X25590000Y7510000D03*
D96*
X26240000Y7510000D03*
X27042000Y7510000D03*
D98*
X28161000Y2755000D03*
D99*
X28161000Y6936000D03*
D98*
X19520000Y2755000D03*
D99*
X19520000Y6936000D03*
%TD*%
D36*
%TO.C,R180*%
X58639411Y25989411D03*
X57960589Y25310589D03*
%TD*%
D30*
%TO.C,C81*%
X6600000Y45150000D03*
X1500000Y45150000D03*
%TD*%
D66*
%TO.C,R36*%
X65980000Y25448000D03*
X66378000Y25448000D03*
X66780000Y25448000D03*
X67178000Y25448000D03*
X67178000Y24850000D03*
X66780000Y24850000D03*
X66378000Y24850000D03*
X65980000Y24850000D03*
%TD*%
D45*
%TO.C,R95*%
X46250000Y19030000D03*
X46250000Y18070000D03*
%TD*%
D34*
%TO.C,R6*%
X108420000Y11200000D03*
X109380000Y11200000D03*
%TD*%
D33*
%TO.C,TP17*%
X38415000Y13180000D03*
%TD*%
D48*
%TO.C,C21*%
X85400000Y50800000D03*
X84000000Y50800000D03*
%TD*%
D35*
%TO.C,U27*%
X66823000Y48301000D03*
X67774000Y48301000D03*
X68724000Y48301000D03*
X68724000Y45701000D03*
X67774000Y45701000D03*
X66823000Y45701000D03*
%TD*%
D33*
%TO.C,TP57*%
X60995000Y14350000D03*
%TD*%
%TO.C,TP1*%
X38415000Y11680000D03*
%TD*%
D94*
%TO.C,Q8*%
X41150000Y58200000D03*
X42148000Y58200000D03*
X41650000Y56898000D03*
%TD*%
D29*
%TO.C,C41*%
X38410000Y50040000D03*
X37450000Y50040000D03*
%TD*%
%TO.C,R194*%
X58930000Y23650000D03*
X57970000Y23650000D03*
%TD*%
D100*
%TO.C,U3*%
X80450000Y41680000D03*
X80450000Y40730000D03*
X80450000Y39780000D03*
X78050000Y39780000D03*
X78050000Y40730000D03*
X78050000Y41680000D03*
%TD*%
D29*
%TO.C,R58*%
X28280000Y18300000D03*
X27320000Y18300000D03*
%TD*%
D94*
%TO.C,Q5*%
X29110000Y40500000D03*
X30108000Y40500000D03*
X29610000Y39198000D03*
%TD*%
D33*
%TO.C,TP24*%
X29460000Y24630000D03*
%TD*%
D29*
%TO.C,R190*%
X109530000Y5750000D03*
X108570000Y5750000D03*
%TD*%
D41*
%TO.C,R282*%
X61550000Y10270000D03*
X61550000Y11230000D03*
%TD*%
D29*
%TO.C,C137*%
X41930000Y48150000D03*
X40970000Y48150000D03*
%TD*%
D34*
%TO.C,C132*%
X65320000Y37775000D03*
X66280000Y37775000D03*
%TD*%
D87*
%TO.C,D12*%
X19560000Y24900000D03*
X17020000Y24900000D03*
X19560000Y21200000D03*
X17020000Y21200000D03*
%TD*%
D29*
%TO.C,R294*%
X102330000Y57850000D03*
X101370000Y57850000D03*
%TD*%
D46*
%TO.C,R33*%
X31698000Y24450000D03*
X31698000Y24052000D03*
X31698000Y23650000D03*
X31698000Y23252000D03*
X31100000Y23252000D03*
X31100000Y23650000D03*
X31100000Y24052000D03*
X31100000Y24450000D03*
%TD*%
D34*
%TO.C,C92*%
X65320000Y33850000D03*
X66280000Y33850000D03*
%TD*%
D45*
%TO.C,R86*%
X44250000Y23930000D03*
X44250000Y22970000D03*
%TD*%
D34*
%TO.C,R8*%
X103770000Y12200000D03*
X104730000Y12200000D03*
%TD*%
D101*
%TO.C,SW1*%
X24137500Y56003000D03*
X27138500Y56003000D03*
D102*
X23389500Y54254000D03*
X26388500Y54254000D03*
X27887500Y54254000D03*
D103*
X21988500Y55039000D03*
X21988500Y56967000D03*
X29289500Y56967000D03*
X29289500Y55039000D03*
%TD*%
D41*
%TO.C,C101*%
X39725000Y41970000D03*
X39725000Y42930000D03*
%TD*%
D33*
%TO.C,TP19*%
X38250000Y32850000D03*
%TD*%
D57*
%TO.C,R48*%
X77842000Y29910000D03*
X77842000Y30308000D03*
X77842000Y30710000D03*
X77842000Y31108000D03*
X78440000Y31108000D03*
X78440000Y30710000D03*
X78440000Y30308000D03*
X78440000Y29910000D03*
%TD*%
D34*
%TO.C,R89*%
X49270000Y21350000D03*
X50230000Y21350000D03*
%TD*%
D45*
%TO.C,R83*%
X62600000Y14030000D03*
X62600000Y13070000D03*
%TD*%
%TO.C,R92*%
X45250000Y23930000D03*
X45250000Y22970000D03*
%TD*%
D104*
%TO.C,J8*%
X46740000Y55160000D03*
X47240000Y55160000D03*
X47740000Y55160000D03*
X48240000Y55160000D03*
X48740000Y55160000D03*
X49240000Y55160000D03*
X49740000Y55160000D03*
X50240000Y55160000D03*
X50740000Y55160000D03*
X51240000Y55160000D03*
X51740000Y55160000D03*
X52240000Y55160000D03*
X52740000Y55160000D03*
X53240000Y55160000D03*
X53740000Y55160000D03*
X54240000Y55160000D03*
X54740000Y55160000D03*
X55240000Y55160000D03*
X55740000Y55160000D03*
X56240000Y55160000D03*
X56740000Y55160000D03*
X57240000Y55160000D03*
X57740000Y55160000D03*
X58240000Y55160000D03*
X58740000Y55160000D03*
X59238000Y55160000D03*
X59738000Y55160000D03*
X60239000Y55160000D03*
X60739000Y55160000D03*
X61239000Y55160000D03*
X61739000Y55160000D03*
X62239000Y55160000D03*
X62739000Y55160000D03*
X63238000Y55160000D03*
X63738000Y55160000D03*
X64238000Y55160000D03*
X64739000Y55160000D03*
X65239000Y55160000D03*
X65739000Y55160000D03*
X66239000Y55160000D03*
X66739000Y55160000D03*
X67239000Y55160000D03*
X67739000Y55160000D03*
X68239000Y55160000D03*
X68739000Y55160000D03*
X69239000Y55160000D03*
X69739000Y55160000D03*
X70239000Y55160000D03*
X70739000Y55160000D03*
X71239000Y55160000D03*
D105*
X44792000Y57010000D03*
X73188000Y57010000D03*
%TD*%
D48*
%TO.C,R253*%
X42550000Y17350000D03*
X41150000Y17350000D03*
%TD*%
D29*
%TO.C,R255*%
X17270000Y54275000D03*
X16310000Y54275000D03*
%TD*%
D41*
%TO.C,R1*%
X60250000Y15670000D03*
X60250000Y16630000D03*
%TD*%
D34*
%TO.C,C160*%
X23190000Y45720000D03*
X24150000Y45720000D03*
%TD*%
D41*
%TO.C,R147*%
X8858000Y10414000D03*
X8858000Y11374000D03*
%TD*%
D85*
%TO.C,U31*%
X110000000Y29497500D03*
D86*
X109500000Y29497500D03*
X109000000Y29497500D03*
D85*
X108500000Y29497500D03*
X108500000Y30397500D03*
D86*
X109000000Y30397500D03*
X109500000Y30397500D03*
D85*
X110000000Y30397500D03*
%TD*%
D34*
%TO.C,R123*%
X16670000Y41112500D03*
X17630000Y41112500D03*
%TD*%
%TO.C,R156*%
X26320000Y21490000D03*
X27280000Y21490000D03*
%TD*%
D29*
%TO.C,R260*%
X36030000Y51250000D03*
X35070000Y51250000D03*
%TD*%
D48*
%TO.C,R157*%
X14525000Y58950000D03*
X13125000Y58950000D03*
%TD*%
D106*
%TO.C,BT1*%
X102298313Y56730000D03*
X102298313Y55230000D03*
%TD*%
D33*
%TO.C,TP31*%
X78315000Y13315000D03*
%TD*%
D34*
%TO.C,C59*%
X41570000Y26850000D03*
X42530000Y26850000D03*
%TD*%
%TO.C,C29*%
X27320000Y17300000D03*
X28280000Y17300000D03*
%TD*%
D41*
%TO.C,R71*%
X30390000Y29650000D03*
X30390000Y30610000D03*
%TD*%
D34*
%TO.C,C18*%
X96505000Y41000000D03*
X97465000Y41000000D03*
%TD*%
D45*
%TO.C,R166*%
X66450000Y18330000D03*
X66450000Y17370000D03*
%TD*%
D41*
%TO.C,R225*%
X61550000Y29820000D03*
X61550000Y30780000D03*
%TD*%
D34*
%TO.C,C20*%
X96520000Y35000000D03*
X97480000Y35000000D03*
%TD*%
D52*
%TO.C,D20*%
X115450000Y16250000D03*
X114050000Y16250000D03*
%TD*%
D45*
%TO.C,C28*%
X36325000Y31180000D03*
X36325000Y30220000D03*
%TD*%
D49*
%TO.C,R224*%
X60300589Y24100589D03*
X60979411Y24779411D03*
%TD*%
D41*
%TO.C,R109*%
X45480000Y12270000D03*
X45480000Y13230000D03*
%TD*%
D34*
%TO.C,R160*%
X65745000Y41600000D03*
X66705000Y41600000D03*
%TD*%
D51*
%TO.C,FB2*%
X24750000Y33962500D03*
X24750000Y36162500D03*
%TD*%
D29*
%TO.C,R46*%
X20705000Y12750000D03*
X19745000Y12750000D03*
%TD*%
D107*
%TO.C,U37*%
X31200000Y51196000D03*
X31200000Y52147000D03*
X31200000Y53097000D03*
X33514000Y53097000D03*
X33514000Y52147000D03*
X33514000Y51196000D03*
%TD*%
D108*
%TO.C,D17*%
X86301000Y57650000D03*
X85601000Y57650000D03*
%TD*%
D34*
%TO.C,C19*%
X96505000Y38000000D03*
X97465000Y38000000D03*
%TD*%
D45*
%TO.C,C56*%
X41950000Y25880000D03*
X41950000Y24920000D03*
%TD*%
D41*
%TO.C,C150*%
X17550000Y48170000D03*
X17550000Y49130000D03*
%TD*%
D34*
%TO.C,R142*%
X16670000Y40112500D03*
X17630000Y40112500D03*
%TD*%
D45*
%TO.C,R127*%
X24150000Y12430000D03*
X24150000Y11470000D03*
%TD*%
%TO.C,R193*%
X58950000Y22630000D03*
X58950000Y21670000D03*
%TD*%
D41*
%TO.C,R72*%
X14020000Y4800000D03*
X14020000Y5760000D03*
%TD*%
D52*
%TO.C,R196*%
X19600000Y37400000D03*
X21000000Y37400000D03*
%TD*%
D48*
%TO.C,C24*%
X85450000Y33750000D03*
X84050000Y33750000D03*
%TD*%
D94*
%TO.C,Q20*%
X17575000Y12650000D03*
X18573000Y12650000D03*
X18075000Y11348000D03*
%TD*%
D34*
%TO.C,R168*%
X66270000Y30320000D03*
X67230000Y30320000D03*
%TD*%
%TO.C,R171*%
X69945000Y24125000D03*
X70905000Y24125000D03*
%TD*%
D52*
%TO.C,D18*%
X115450000Y14750000D03*
X114050000Y14750000D03*
%TD*%
D109*
%TO.C,C84*%
X1749000Y49500000D03*
X1749000Y52500000D03*
%TD*%
D52*
%TO.C,R243*%
X9350000Y58950000D03*
X10750000Y58950000D03*
%TD*%
D45*
%TO.C,R130*%
X38850000Y34830000D03*
X38850000Y33870000D03*
%TD*%
%TO.C,R219*%
X59250000Y16630000D03*
X59250000Y15670000D03*
%TD*%
D33*
%TO.C,TP56*%
X59999200Y14350000D03*
%TD*%
%TO.C,TP33*%
X33455000Y58580000D03*
%TD*%
D34*
%TO.C,R79*%
X42070000Y22550000D03*
X43030000Y22550000D03*
%TD*%
%TO.C,R256*%
X28670000Y48800000D03*
X29630000Y48800000D03*
%TD*%
D45*
%TO.C,R60*%
X79350000Y17230000D03*
X79350000Y16270000D03*
%TD*%
D33*
%TO.C,TP22*%
X56750000Y26449200D03*
%TD*%
D40*
%TO.C,C134*%
X46510000Y49900000D03*
X46510000Y48500000D03*
%TD*%
D100*
%TO.C,U2*%
X80450000Y37680000D03*
X80450000Y36730000D03*
X80450000Y35780000D03*
X78050000Y35780000D03*
X78050000Y36730000D03*
X78050000Y37680000D03*
%TD*%
D33*
%TO.C,TP20*%
X39250000Y32450000D03*
%TD*%
D41*
%TO.C,R13*%
X81850000Y36270000D03*
X81850000Y37230000D03*
%TD*%
D34*
%TO.C,R19*%
X82270000Y48350000D03*
X83230000Y48350000D03*
%TD*%
D110*
%TO.C,D29*%
X23650000Y51512000D03*
X23650000Y52386000D03*
%TD*%
D45*
%TO.C,C78*%
X9858000Y11374000D03*
X9858000Y10414000D03*
%TD*%
D34*
%TO.C,C15*%
X96505000Y39000000D03*
X97465000Y39000000D03*
%TD*%
D41*
%TO.C,R42*%
X37450000Y18020000D03*
X37450000Y18980000D03*
%TD*%
D47*
%TO.C,D58*%
X90149000Y1650000D03*
X90849000Y1650000D03*
%TD*%
D29*
%TO.C,R111*%
X23280000Y18600000D03*
X22320000Y18600000D03*
%TD*%
D56*
%TO.C,Q7*%
X30600000Y55150000D03*
X30600000Y56148000D03*
X31902000Y55650000D03*
%TD*%
D45*
%TO.C,C65*%
X38450000Y21030000D03*
X38450000Y20070000D03*
%TD*%
D41*
%TO.C,R261*%
X42550000Y52570000D03*
X42550000Y53530000D03*
%TD*%
D35*
%TO.C,U24*%
X106833000Y16101000D03*
X107784000Y16101000D03*
X108734000Y16101000D03*
X108734000Y13501000D03*
X107784000Y13501000D03*
X106833000Y13501000D03*
%TD*%
D34*
%TO.C,R265*%
X79570000Y23350000D03*
X80530000Y23350000D03*
%TD*%
D111*
%TO.C,U39*%
X27510000Y23700000D03*
X26241000Y23700000D03*
X26241000Y29949000D03*
X27510000Y29949000D03*
%TD*%
D33*
%TO.C,TP11*%
X100335000Y40980000D03*
%TD*%
D34*
%TO.C,C43*%
X103220000Y11200000D03*
X104180000Y11200000D03*
%TD*%
%TO.C,R189*%
X110470000Y5750000D03*
X111430000Y5750000D03*
%TD*%
%TO.C,R249*%
X29110000Y53850000D03*
X30070000Y53850000D03*
%TD*%
D48*
%TO.C,C23*%
X85450000Y35750000D03*
X84050000Y35750000D03*
%TD*%
D34*
%TO.C,R257*%
X26070000Y52550000D03*
X27030000Y52550000D03*
%TD*%
D59*
%TO.C,D10*%
X85229500Y10925000D03*
X86103500Y10925000D03*
%TD*%
D52*
%TO.C,R175*%
X19140000Y51090000D03*
X20540000Y51090000D03*
%TD*%
D27*
%TO.C,J2*%
X89342000Y31999000D03*
D28*
X89342000Y51996000D03*
D112*
X94616000Y32749000D03*
X87068000Y32996000D03*
X94616000Y33246000D03*
X87068000Y33496000D03*
X94616000Y33746000D03*
X87068000Y33998000D03*
X94616000Y34247000D03*
X87068000Y34497000D03*
X94616000Y34747000D03*
X87068000Y34997000D03*
X94616000Y35247000D03*
X87068000Y35497000D03*
X94616000Y35747000D03*
X87068000Y35997000D03*
X94616000Y36247000D03*
X87068000Y36497000D03*
X94616000Y36747000D03*
X87068000Y36997000D03*
X94616000Y37247000D03*
X87068000Y37497000D03*
X94616000Y37747000D03*
X87068000Y37997000D03*
X94616000Y38248000D03*
X87068000Y38498000D03*
X94616000Y38748000D03*
X87068000Y38998000D03*
X94616000Y39248000D03*
X87068000Y39498000D03*
X94616000Y39748000D03*
X87068000Y39998000D03*
X94616000Y40247000D03*
X87068000Y40497000D03*
X94616000Y40747000D03*
X87068000Y40997000D03*
X94616000Y41248000D03*
X87068000Y41498000D03*
X94616000Y41748000D03*
X87068000Y41998000D03*
X94616000Y42247000D03*
X87068000Y42497000D03*
X94616000Y42747000D03*
X87068000Y42997000D03*
X94616000Y43248000D03*
X87068000Y43498000D03*
X94616000Y43748000D03*
X87068000Y43998000D03*
X94616000Y44248000D03*
X87068000Y44498000D03*
X94616000Y44748000D03*
X87068000Y44998000D03*
X94616000Y45248000D03*
X87068000Y45498000D03*
X94616000Y45748000D03*
X87068000Y45998000D03*
X94616000Y46247000D03*
X87068000Y46497000D03*
X94616000Y46747000D03*
X87068000Y46997000D03*
X94616000Y49247000D03*
X87068000Y49497000D03*
X94616000Y49747000D03*
X87068000Y49997000D03*
X94616000Y50246000D03*
X87068000Y50496000D03*
X94616000Y50746000D03*
X87068000Y50996000D03*
X94616000Y51246000D03*
D113*
X93841000Y31647000D03*
X93841000Y52348000D03*
%TD*%
D50*
%TO.C,C32*%
X15425000Y3805000D03*
X15425000Y5205000D03*
%TD*%
D114*
%TO.C,U34*%
X59000000Y20650000D03*
X59500000Y20650000D03*
X60000000Y20650000D03*
X60500000Y20650000D03*
D115*
X61150000Y20000000D03*
X61150000Y19500000D03*
X61150000Y19000000D03*
X61150000Y18500000D03*
D116*
X60500000Y17850000D03*
X60000000Y17850000D03*
X59500000Y17850000D03*
X59000000Y17850000D03*
D117*
X58350000Y18500000D03*
X58350000Y19000000D03*
X58350000Y19500000D03*
X58350000Y20000000D03*
D118*
X59750000Y19250000D03*
%TD*%
D29*
%TO.C,R165*%
X17571428Y47135000D03*
X16611428Y47135000D03*
%TD*%
D40*
%TO.C,R143*%
X89810000Y29460000D03*
X89810000Y28060000D03*
%TD*%
D52*
%TO.C,D3*%
X15150000Y1800000D03*
X13750000Y1800000D03*
%TD*%
D119*
%TO.C,U35*%
X108729000Y3278000D03*
X108729000Y3930000D03*
X108729000Y4580000D03*
X110830000Y4580000D03*
X110830000Y3930000D03*
X110830000Y3278000D03*
D120*
X109780000Y3930000D03*
%TD*%
D41*
%TO.C,R268*%
X28900000Y41500000D03*
X28900000Y42460000D03*
%TD*%
D34*
%TO.C,C25*%
X84370000Y48350000D03*
X85330000Y48350000D03*
%TD*%
D40*
%TO.C,R252*%
X33900000Y19550000D03*
X33900000Y18150000D03*
%TD*%
D34*
%TO.C,C117*%
X26070000Y51550000D03*
X27030000Y51550000D03*
%TD*%
D41*
%TO.C,R43*%
X38450000Y18020000D03*
X38450000Y18980000D03*
%TD*%
D33*
%TO.C,TP10*%
X100335000Y42030800D03*
%TD*%
D121*
%TO.C,U41*%
X43075000Y47998000D03*
X43075000Y48650000D03*
X43075000Y49300000D03*
X45023000Y49300000D03*
X45023000Y48650000D03*
X45023000Y47998000D03*
D122*
X44050000Y48650000D03*
%TD*%
D95*
%TO.C,R195*%
X62450000Y16202000D03*
X62052000Y16202000D03*
X61650000Y16202000D03*
X61252000Y16202000D03*
X61252000Y16800000D03*
X61650000Y16800000D03*
X62052000Y16800000D03*
X62450000Y16800000D03*
%TD*%
D34*
%TO.C,R271*%
X14920000Y8825000D03*
X15880000Y8825000D03*
%TD*%
D31*
%TO.C,FID5*%
X1500000Y1500000D03*
%TD*%
D29*
%TO.C,C27*%
X20480000Y15000000D03*
X19520000Y15000000D03*
%TD*%
%TO.C,R197*%
X112730000Y16350000D03*
X111770000Y16350000D03*
%TD*%
%TO.C,C159*%
X18530000Y16070000D03*
X17570000Y16070000D03*
%TD*%
%TO.C,C52*%
X6715000Y59250000D03*
X5755000Y59250000D03*
%TD*%
D40*
%TO.C,D5*%
X47500000Y22600000D03*
X47500000Y24000000D03*
%TD*%
D123*
%TO.C,U48*%
X22425000Y48575000D03*
D124*
X22250000Y48400000D03*
D114*
X22900000Y48575000D03*
X23350000Y48575000D03*
D123*
X23825000Y48575000D03*
D124*
X24000000Y48400000D03*
D125*
X23125000Y47925000D03*
X23125000Y47425000D03*
D124*
X24000000Y46950000D03*
D126*
X23825000Y46775000D03*
D116*
X23350000Y46775000D03*
X22900000Y46775000D03*
D124*
X22250000Y46950000D03*
D126*
X22425000Y46775000D03*
%TD*%
D33*
%TO.C,TP32*%
X82150000Y24650000D03*
%TD*%
D127*
%TO.C,D31*%
X34268000Y44610000D03*
X33394000Y44610000D03*
%TD*%
D29*
%TO.C,C40*%
X37190000Y47440000D03*
X36230000Y47440000D03*
%TD*%
D41*
%TO.C,R87*%
X46250000Y24870000D03*
X46250000Y25830000D03*
%TD*%
D34*
%TO.C,C148*%
X43270000Y20550000D03*
X44230000Y20550000D03*
%TD*%
%TO.C,R82*%
X42070000Y23550000D03*
X43030000Y23550000D03*
%TD*%
%TO.C,R113*%
X82170000Y22650000D03*
X83130000Y22650000D03*
%TD*%
%TO.C,R153*%
X24895000Y40325000D03*
X25855000Y40325000D03*
%TD*%
%TO.C,R259*%
X37470000Y55850000D03*
X38430000Y55850000D03*
%TD*%
%TO.C,C119*%
X35070000Y53250000D03*
X36030000Y53250000D03*
%TD*%
D12*
%TO.C,SP8*%
X11000000Y42000000D03*
%TD*%
D41*
%TO.C,R174*%
X77401750Y32745000D03*
X77401750Y33705000D03*
%TD*%
%TO.C,C124*%
X41550000Y52570000D03*
X41550000Y53530000D03*
%TD*%
D34*
%TO.C,C58*%
X43270000Y21550000D03*
X44230000Y21550000D03*
%TD*%
%TO.C,R258*%
X31570000Y49800000D03*
X32530000Y49800000D03*
%TD*%
D65*
%TO.C,C5*%
X31825000Y35800000D03*
X34025000Y35800000D03*
%TD*%
D29*
%TO.C,R59*%
X28280000Y15300000D03*
X27320000Y15300000D03*
%TD*%
%TO.C,R218*%
X57330000Y20550000D03*
X56370000Y20550000D03*
%TD*%
D41*
%TO.C,R16*%
X81850000Y38250000D03*
X81850000Y39210000D03*
%TD*%
D29*
%TO.C,R129*%
X17630000Y42112500D03*
X16670000Y42112500D03*
%TD*%
D41*
%TO.C,R75*%
X44225000Y17645000D03*
X44225000Y18605000D03*
%TD*%
D29*
%TO.C,R132*%
X112730000Y14750000D03*
X111770000Y14750000D03*
%TD*%
D34*
%TO.C,C116*%
X29670000Y49800000D03*
X30630000Y49800000D03*
%TD*%
D33*
%TO.C,TP25*%
X30250000Y25350000D03*
%TD*%
D29*
%TO.C,C130*%
X110740000Y2150000D03*
X109780000Y2150000D03*
%TD*%
D33*
%TO.C,TP14*%
X38415000Y8680000D03*
%TD*%
D108*
%TO.C,D23*%
X99551000Y34250000D03*
X98851000Y34250000D03*
%TD*%
D41*
%TO.C,C104*%
X57250000Y17970000D03*
X57250000Y18930000D03*
%TD*%
D95*
%TO.C,R204*%
X54060000Y6342000D03*
X53662000Y6342000D03*
X53260000Y6342000D03*
X52862000Y6342000D03*
X52862000Y6940000D03*
X53260000Y6940000D03*
X53662000Y6940000D03*
X54060000Y6940000D03*
%TD*%
D12*
%TO.C,H6*%
X7500000Y52500000D03*
%TD*%
D41*
%TO.C,C95*%
X108250000Y20520000D03*
X108250000Y21480000D03*
%TD*%
D33*
%TO.C,TP40*%
X71399990Y25199200D03*
%TD*%
D29*
%TO.C,R56*%
X28280000Y19300000D03*
X27320000Y19300000D03*
%TD*%
%TO.C,C96*%
X109640000Y28640000D03*
X108680000Y28640000D03*
%TD*%
D45*
%TO.C,C26*%
X37450000Y21030000D03*
X37450000Y20070000D03*
%TD*%
D41*
%TO.C,R164*%
X16550000Y48170000D03*
X16550000Y49130000D03*
%TD*%
D34*
%TO.C,C138*%
X59795000Y45250000D03*
X60755000Y45250000D03*
%TD*%
D30*
%TO.C,C79*%
X14540000Y25520000D03*
X9440000Y25520000D03*
%TD*%
D128*
%TO.C,U6*%
X37550000Y22299000D03*
X37150000Y22299000D03*
X36752000Y22299000D03*
X36350000Y22299000D03*
X35952000Y22299000D03*
X35552000Y22299000D03*
D129*
X33200000Y23049000D03*
X33200000Y23448000D03*
X33200000Y23849000D03*
X33200000Y24249000D03*
X33200000Y24650000D03*
X33200000Y25050000D03*
X33200000Y25448000D03*
X33200000Y25850000D03*
X33200000Y26248000D03*
X33200000Y26648000D03*
X33200000Y27048000D03*
X33200000Y27450000D03*
X33200000Y27850000D03*
X33200000Y28250000D03*
D128*
X33950000Y29000000D03*
X34350000Y29000000D03*
X34750000Y29000000D03*
X35152000Y29000000D03*
X35552000Y29000000D03*
X35952000Y29000000D03*
X36350000Y29000000D03*
X36752000Y29000000D03*
X37150000Y29000000D03*
X37550000Y29000000D03*
X37951000Y29000000D03*
X38351000Y29000000D03*
X38752000Y29000000D03*
X39151000Y29000000D03*
D129*
X39901000Y28250000D03*
X39901000Y27850000D03*
X39901000Y27450000D03*
X39901000Y27048000D03*
X39901000Y26648000D03*
X39901000Y26248000D03*
X39901000Y25850000D03*
X39901000Y25448000D03*
X39901000Y25050000D03*
X39901000Y24650000D03*
X39901000Y24249000D03*
X39901000Y23849000D03*
X39901000Y23448000D03*
X39901000Y23049000D03*
D130*
X38000000Y23775000D03*
D131*
X35075000Y23775000D03*
D132*
X36550000Y26700000D03*
%TD*%
D133*
%TO.C,Q18*%
X18775000Y47699000D03*
X18775000Y49599000D03*
X20975000Y48649500D03*
%TD*%
D134*
%TO.C,J7*%
X113390000Y46270000D03*
X113390000Y45770000D03*
X113390000Y45270000D03*
X113390000Y44770000D03*
X113390000Y44270000D03*
X113390000Y43770000D03*
X113390000Y43270000D03*
X113390000Y42770000D03*
X113390000Y42270000D03*
X113390000Y41770000D03*
X113390000Y41270000D03*
X113390000Y40770000D03*
X113390000Y40270000D03*
X113390000Y39770000D03*
X113390000Y39270000D03*
X113390000Y38770000D03*
X113390000Y38270000D03*
X113390000Y37770000D03*
X113390000Y37270000D03*
X113390000Y36770000D03*
X113390000Y36270000D03*
X113390000Y35770000D03*
X113390000Y35270000D03*
X113390000Y34770000D03*
X113390000Y34270000D03*
X113390000Y33772000D03*
X113390000Y33272000D03*
X113390000Y32771000D03*
X113390000Y32271000D03*
X113390000Y31771000D03*
X113390000Y31271000D03*
X113390000Y30771000D03*
X113390000Y30271000D03*
X113390000Y29772000D03*
X113390000Y29272000D03*
X113390000Y28772000D03*
X113390000Y28271000D03*
X113390000Y27771000D03*
X113390000Y27271000D03*
X113390000Y26771000D03*
X113390000Y26271000D03*
X113390000Y25771000D03*
X113390000Y25271000D03*
X113390000Y24771000D03*
X113390000Y24271000D03*
X113390000Y23771000D03*
X113390000Y23271000D03*
X113390000Y22771000D03*
X113390000Y22271000D03*
X113390000Y21771000D03*
D135*
X115240000Y48218000D03*
X115240000Y19822000D03*
%TD*%
M02*
