%TF.GenerationSoftware,KiCad,Pcbnew,8.0.8*%
%TF.CreationDate,2025-02-13T16:32:43+11:00*%
%TF.ProjectId,jetson-orin-baseboard,6a657473-6f6e-42d6-9f72-696e2d626173,1.3.0*%
%TF.SameCoordinates,PX1c5f2f0PY7ac91b0*%
%TF.FileFunction,Soldermask,Top*%
%TF.FilePolarity,Negative*%
%FSLAX46Y46*%
G04 Gerber Fmt 4.6, Leading zero omitted, Abs format (unit mm)*
G04 Created by KiCad (PCBNEW 8.0.8) date 2025-02-13 16:32:43*
%MOMM*%
%LPD*%
G01*
G04 APERTURE LIST*
G04 Aperture macros list*
%AMRoundRect*
0 Rectangle with rounded corners*
0 $1 Rounding radius*
0 $2 $3 $4 $5 $6 $7 $8 $9 X,Y pos of 4 corners*
0 Add a 4 corners polygon primitive as box body*
4,1,4,$2,$3,$4,$5,$6,$7,$8,$9,$2,$3,0*
0 Add four circle primitives for the rounded corners*
1,1,$1+$1,$2,$3*
1,1,$1+$1,$4,$5*
1,1,$1+$1,$6,$7*
1,1,$1+$1,$8,$9*
0 Add four rect primitives between the rounded corners*
20,1,$1+$1,$2,$3,$4,$5,0*
20,1,$1+$1,$4,$5,$6,$7,0*
20,1,$1+$1,$6,$7,$8,$9,0*
20,1,$1+$1,$8,$9,$2,$3,0*%
%AMFreePoly0*
4,1,5,0.300000,-0.300000,-0.300000,-0.300000,-0.300000,0.300000,0.300000,0.300000,0.300000,-0.300000,0.300000,-0.300000,$1*%
%AMFreePoly1*
4,1,15,2.200000,0.087500,0.150000,0.087500,0.150000,-0.287500,0.144291,-0.316201,0.128033,-0.340533,0.103701,-0.356791,0.075000,-0.362500,-0.075000,-0.362500,-0.103701,-0.356791,-0.128033,-0.340533,-0.144291,-0.316201,-0.150000,-0.287500,-0.150000,0.362500,2.200000,0.362500,2.200000,0.087500,2.200000,0.087500,$1*%
%AMFreePoly2*
4,1,9,1.825000,0.245000,1.175000,0.245000,1.175000,-0.500000,0.500000,-0.500000,-0.500000,-0.500000,-1.000000,-0.500000,-1.000000,0.700000,1.825000,0.700000,1.825000,0.245000,1.825000,0.245000,$1*%
G04 Aperture macros list end*
%ADD10C,0.125000*%
%ADD11C,0.001395*%
%ADD12C,0.010000*%
%ADD13RoundRect,0.147500X0.172500X-0.147500X0.172500X0.147500X-0.172500X0.147500X-0.172500X-0.147500X0*%
%ADD14RoundRect,0.147500X-0.147500X-0.172500X0.147500X-0.172500X0.147500X0.172500X-0.147500X0.172500X0*%
%ADD15RoundRect,0.147500X-0.172500X0.147500X-0.172500X-0.147500X0.172500X-0.147500X0.172500X0.147500X0*%
%ADD16RoundRect,0.160000X0.240000X0.340000X-0.240000X0.340000X-0.240000X-0.340000X0.240000X-0.340000X0*%
%ADD17RoundRect,0.160000X-0.240000X-0.340000X0.240000X-0.340000X0.240000X0.340000X-0.240000X0.340000X0*%
%ADD18RoundRect,0.062500X-0.062500X-0.212500X0.062500X-0.212500X0.062500X0.212500X-0.062500X0.212500X0*%
%ADD19RoundRect,0.100000X-0.100000X-0.175000X0.100000X-0.175000X0.100000X0.175000X-0.100000X0.175000X0*%
%ADD20RoundRect,0.075000X0.175000X-0.075000X0.175000X0.075000X-0.175000X0.075000X-0.175000X-0.075000X0*%
%ADD21RoundRect,0.160000X0.390000X-0.240000X0.390000X0.240000X-0.390000X0.240000X-0.390000X-0.240000X0*%
%ADD22RoundRect,0.075000X-0.175000X0.075000X-0.175000X-0.075000X0.175000X-0.075000X0.175000X0.075000X0*%
%ADD23RoundRect,0.100000X0.150000X-0.100000X0.150000X0.100000X-0.150000X0.100000X-0.150000X-0.100000X0*%
%ADD24RoundRect,0.155000X0.620000X2.645000X-0.620000X2.645000X-0.620000X-2.645000X0.620000X-2.645000X0*%
%ADD25R,0.510000X0.400000*%
%ADD26RoundRect,0.300000X-0.300000X-0.350000X0.300000X-0.350000X0.300000X0.350000X-0.300000X0.350000X0*%
%ADD27RoundRect,0.125000X0.125000X0.175000X-0.125000X0.175000X-0.125000X-0.175000X0.125000X-0.175000X0*%
%ADD28RoundRect,0.147500X0.147500X0.172500X-0.147500X0.172500X-0.147500X-0.172500X0.147500X-0.172500X0*%
%ADD29RoundRect,0.100000X-0.150000X0.100000X-0.150000X-0.100000X0.150000X-0.100000X0.150000X0.100000X0*%
%ADD30RoundRect,0.160000X-0.340000X0.240000X-0.340000X-0.240000X0.340000X-0.240000X0.340000X0.240000X0*%
%ADD31RoundRect,0.160000X0.340000X-0.240000X0.340000X0.240000X-0.340000X0.240000X-0.340000X-0.240000X0*%
%ADD32C,6.000000*%
%ADD33R,0.400000X0.510000*%
%ADD34C,0.750000*%
%ADD35RoundRect,0.081250X0.118750X0.081250X-0.118750X0.081250X-0.118750X-0.081250X0.118750X-0.081250X0*%
%ADD36R,0.900000X1.000000*%
%ADD37C,2.000000*%
%ADD38C,1.150000*%
%ADD39C,1.650000*%
%ADD40R,0.300000X1.750000*%
%ADD41R,2.000000X3.500000*%
%ADD42RoundRect,0.160000X-0.390000X0.240000X-0.390000X-0.240000X0.390000X-0.240000X0.390000X0.240000X0*%
%ADD43RoundRect,0.050000X-0.050000X-0.450000X0.050000X-0.450000X0.050000X0.450000X-0.050000X0.450000X0*%
%ADD44RoundRect,0.075000X-0.075000X-0.525000X0.075000X-0.525000X0.075000X0.525000X-0.075000X0.525000X0*%
%ADD45C,0.650000*%
%ADD46O,1.000000X1.600000*%
%ADD47RoundRect,0.062500X-0.212500X0.062500X-0.212500X-0.062500X0.212500X-0.062500X0.212500X0.062500X0*%
%ADD48RoundRect,0.100000X-0.175000X0.100000X-0.175000X-0.100000X0.175000X-0.100000X0.175000X0.100000X0*%
%ADD49FreePoly0,270.000000*%
%ADD50R,0.600000X0.400000*%
%ADD51RoundRect,0.050000X-0.050000X-0.150000X0.050000X-0.150000X0.050000X0.150000X-0.050000X0.150000X0*%
%ADD52R,0.700000X1.200000*%
%ADD53RoundRect,0.075000X-0.075000X-0.287500X0.075000X-0.287500X0.075000X0.287500X-0.075000X0.287500X0*%
%ADD54FreePoly1,270.000000*%
%ADD55RoundRect,0.075000X-0.287500X0.075000X-0.287500X-0.075000X0.287500X-0.075000X0.287500X0.075000X0*%
%ADD56R,1.050000X1.575000*%
%ADD57R,1.050000X1.150000*%
%ADD58FreePoly2,270.000000*%
%ADD59R,0.380000X0.580000*%
%ADD60RoundRect,0.075000X-0.225000X-0.075000X0.225000X-0.075000X0.225000X0.075000X-0.225000X0.075000X0*%
%ADD61RoundRect,0.062500X-0.237500X-0.062500X0.237500X-0.062500X0.237500X0.062500X-0.237500X0.062500X0*%
%ADD62R,2.540000X2.540000*%
%ADD63C,2.540000*%
%ADD64RoundRect,0.125000X-0.125000X-0.175000X0.125000X-0.175000X0.125000X0.175000X-0.125000X0.175000X0*%
%ADD65RoundRect,0.147500X-0.017678X0.226274X-0.226274X0.017678X0.017678X-0.226274X0.226274X-0.017678X0*%
%ADD66RoundRect,0.147500X0.017678X-0.226274X0.226274X-0.017678X-0.017678X0.226274X-0.226274X0.017678X0*%
%ADD67R,0.450000X0.200000*%
%ADD68R,0.500000X0.200000*%
%ADD69R,0.200000X0.450000*%
%ADD70R,0.200000X0.500000*%
%ADD71R,1.200000X3.200000*%
%ADD72RoundRect,0.233000X-1.017000X-0.932000X1.017000X-0.932000X1.017000X0.932000X-1.017000X0.932000X0*%
%ADD73RoundRect,0.081250X0.081250X-0.118750X0.081250X0.118750X-0.081250X0.118750X-0.081250X-0.118750X0*%
%ADD74C,3.250000*%
%ADD75C,1.397000*%
%ADD76C,1.524000*%
%ADD77C,2.100000*%
%ADD78C,2.108200*%
%ADD79RoundRect,0.090000X-0.210000X0.410000X-0.210000X-0.410000X0.210000X-0.410000X0.210000X0.410000X0*%
%ADD80RoundRect,0.075000X0.075000X0.275000X-0.075000X0.275000X-0.075000X-0.275000X0.075000X-0.275000X0*%
%ADD81RoundRect,0.050000X-0.750000X0.050000X-0.750000X-0.050000X0.750000X-0.050000X0.750000X0.050000X0*%
%ADD82RoundRect,0.200000X-0.450000X0.200000X-0.450000X-0.200000X0.450000X-0.200000X0.450000X0.200000X0*%
%ADD83RoundRect,0.250001X-1.249999X0.799999X-1.249999X-0.799999X1.249999X-0.799999X1.249999X0.799999X0*%
%ADD84RoundRect,0.081250X-0.118750X-0.081250X0.118750X-0.081250X0.118750X0.081250X-0.118750X0.081250X0*%
%ADD85RoundRect,0.050000X-0.070711X0.141421X-0.141421X0.070711X0.070711X-0.141421X0.141421X-0.070711X0*%
%ADD86RoundRect,0.050000X-0.250000X0.050000X-0.250000X-0.050000X0.250000X-0.050000X0.250000X0.050000X0*%
%ADD87RoundRect,0.050000X-0.050000X-0.250000X0.050000X-0.250000X0.050000X0.250000X-0.050000X0.250000X0*%
%ADD88RoundRect,0.050000X0.250000X-0.050000X0.250000X0.050000X-0.250000X0.050000X-0.250000X-0.050000X0*%
%ADD89RoundRect,0.050000X0.050000X0.250000X-0.050000X0.250000X-0.050000X-0.250000X0.050000X-0.250000X0*%
%ADD90RoundRect,0.040000X-0.460000X-0.360000X0.460000X-0.360000X0.460000X0.360000X-0.460000X0.360000X0*%
%ADD91RoundRect,0.050000X-2.300000X-1.300000X2.300000X-1.300000X2.300000X1.300000X-2.300000X1.300000X0*%
%ADD92R,0.230000X1.000000*%
%ADD93O,1.200000X1.900000*%
%ADD94O,1.200000X1.700000*%
%ADD95C,1.450000*%
%ADD96R,1.100000X0.500000*%
%ADD97RoundRect,0.050000X-0.150000X0.050000X-0.150000X-0.050000X0.150000X-0.050000X0.150000X0.050000X0*%
%ADD98RoundRect,0.310000X0.310000X-0.940000X0.310000X0.940000X-0.310000X0.940000X-0.310000X-0.940000X0*%
%ADD99RoundRect,0.275000X-0.275000X-3.825000X0.275000X-3.825000X0.275000X3.825000X-0.275000X3.825000X0*%
%ADD100RoundRect,0.075000X0.287500X-0.075000X0.287500X0.075000X-0.287500X0.075000X-0.287500X-0.075000X0*%
%ADD101FreePoly1,0.000000*%
%ADD102R,1.575000X1.050000*%
%ADD103R,1.150000X1.050000*%
%ADD104FreePoly2,0.000000*%
%ADD105R,0.580000X0.380000*%
%ADD106RoundRect,0.125000X0.500000X2.225000X-0.500000X2.225000X-0.500000X-2.225000X0.500000X-2.225000X0*%
%ADD107C,1.100000*%
%ADD108C,1.600000*%
%ADD109R,1.550000X0.300000*%
%ADD110R,2.750000X1.200000*%
%ADD111RoundRect,0.050000X0.250000X0.100000X-0.250000X0.100000X-0.250000X-0.100000X0.250000X-0.100000X0*%
%ADD112RoundRect,0.050000X-0.075000X-0.275000X0.075000X-0.275000X0.075000X0.275000X-0.075000X0.275000X0*%
%ADD113RoundRect,0.050000X0.250000X0.075000X-0.250000X0.075000X-0.250000X-0.075000X0.250000X-0.075000X0*%
%ADD114RoundRect,0.075000X0.075000X1.125000X-0.075000X1.125000X-0.075000X-1.125000X0.075000X-1.125000X0*%
%ADD115RoundRect,0.050000X-0.250000X-0.100000X0.250000X-0.100000X0.250000X0.100000X-0.250000X0.100000X0*%
%ADD116RoundRect,0.050000X-0.250000X-0.075000X0.250000X-0.075000X0.250000X0.075000X-0.250000X0.075000X0*%
%ADD117RoundRect,0.287500X-0.287500X-0.612500X0.287500X-0.612500X0.287500X0.612500X-0.287500X0.612500X0*%
%ADD118C,0.990600*%
%ADD119O,1.000000X2.000000*%
%ADD120O,1.050000X2.100000*%
%ADD121C,0.900000*%
G04 APERTURE END LIST*
D10*
X106594140Y50927677D02*
X106594140Y50570534D01*
X106594140Y50570534D02*
X106570331Y50499106D01*
X106570331Y50499106D02*
X106522712Y50451486D01*
X106522712Y50451486D02*
X106451283Y50427677D01*
X106451283Y50427677D02*
X106403664Y50427677D01*
X107022711Y50451486D02*
X106975092Y50427677D01*
X106975092Y50427677D02*
X106879854Y50427677D01*
X106879854Y50427677D02*
X106832235Y50451486D01*
X106832235Y50451486D02*
X106808426Y50499106D01*
X106808426Y50499106D02*
X106808426Y50689582D01*
X106808426Y50689582D02*
X106832235Y50737201D01*
X106832235Y50737201D02*
X106879854Y50761010D01*
X106879854Y50761010D02*
X106975092Y50761010D01*
X106975092Y50761010D02*
X107022711Y50737201D01*
X107022711Y50737201D02*
X107046521Y50689582D01*
X107046521Y50689582D02*
X107046521Y50641963D01*
X107046521Y50641963D02*
X106808426Y50594344D01*
X107189378Y50761010D02*
X107379854Y50761010D01*
X107260806Y50927677D02*
X107260806Y50499106D01*
X107260806Y50499106D02*
X107284616Y50451486D01*
X107284616Y50451486D02*
X107332235Y50427677D01*
X107332235Y50427677D02*
X107379854Y50427677D01*
X107522711Y50451486D02*
X107570330Y50427677D01*
X107570330Y50427677D02*
X107665568Y50427677D01*
X107665568Y50427677D02*
X107713187Y50451486D01*
X107713187Y50451486D02*
X107736996Y50499106D01*
X107736996Y50499106D02*
X107736996Y50522915D01*
X107736996Y50522915D02*
X107713187Y50570534D01*
X107713187Y50570534D02*
X107665568Y50594344D01*
X107665568Y50594344D02*
X107594139Y50594344D01*
X107594139Y50594344D02*
X107546520Y50618153D01*
X107546520Y50618153D02*
X107522711Y50665772D01*
X107522711Y50665772D02*
X107522711Y50689582D01*
X107522711Y50689582D02*
X107546520Y50737201D01*
X107546520Y50737201D02*
X107594139Y50761010D01*
X107594139Y50761010D02*
X107665568Y50761010D01*
X107665568Y50761010D02*
X107713187Y50737201D01*
X108022711Y50427677D02*
X107975092Y50451486D01*
X107975092Y50451486D02*
X107951282Y50475296D01*
X107951282Y50475296D02*
X107927473Y50522915D01*
X107927473Y50522915D02*
X107927473Y50665772D01*
X107927473Y50665772D02*
X107951282Y50713391D01*
X107951282Y50713391D02*
X107975092Y50737201D01*
X107975092Y50737201D02*
X108022711Y50761010D01*
X108022711Y50761010D02*
X108094139Y50761010D01*
X108094139Y50761010D02*
X108141758Y50737201D01*
X108141758Y50737201D02*
X108165568Y50713391D01*
X108165568Y50713391D02*
X108189377Y50665772D01*
X108189377Y50665772D02*
X108189377Y50522915D01*
X108189377Y50522915D02*
X108165568Y50475296D01*
X108165568Y50475296D02*
X108141758Y50451486D01*
X108141758Y50451486D02*
X108094139Y50427677D01*
X108094139Y50427677D02*
X108022711Y50427677D01*
X108403663Y50761010D02*
X108403663Y50427677D01*
X108403663Y50713391D02*
X108427473Y50737201D01*
X108427473Y50737201D02*
X108475092Y50761010D01*
X108475092Y50761010D02*
X108546520Y50761010D01*
X108546520Y50761010D02*
X108594139Y50737201D01*
X108594139Y50737201D02*
X108617949Y50689582D01*
X108617949Y50689582D02*
X108617949Y50427677D01*
X109332234Y50927677D02*
X109427472Y50927677D01*
X109427472Y50927677D02*
X109475091Y50903867D01*
X109475091Y50903867D02*
X109522710Y50856248D01*
X109522710Y50856248D02*
X109546520Y50761010D01*
X109546520Y50761010D02*
X109546520Y50594344D01*
X109546520Y50594344D02*
X109522710Y50499106D01*
X109522710Y50499106D02*
X109475091Y50451486D01*
X109475091Y50451486D02*
X109427472Y50427677D01*
X109427472Y50427677D02*
X109332234Y50427677D01*
X109332234Y50427677D02*
X109284615Y50451486D01*
X109284615Y50451486D02*
X109236996Y50499106D01*
X109236996Y50499106D02*
X109213187Y50594344D01*
X109213187Y50594344D02*
X109213187Y50761010D01*
X109213187Y50761010D02*
X109236996Y50856248D01*
X109236996Y50856248D02*
X109284615Y50903867D01*
X109284615Y50903867D02*
X109332234Y50927677D01*
X109760806Y50427677D02*
X109760806Y50761010D01*
X109760806Y50665772D02*
X109784616Y50713391D01*
X109784616Y50713391D02*
X109808425Y50737201D01*
X109808425Y50737201D02*
X109856044Y50761010D01*
X109856044Y50761010D02*
X109903663Y50761010D01*
X110070330Y50427677D02*
X110070330Y50761010D01*
X110070330Y50927677D02*
X110046521Y50903867D01*
X110046521Y50903867D02*
X110070330Y50880058D01*
X110070330Y50880058D02*
X110094140Y50903867D01*
X110094140Y50903867D02*
X110070330Y50927677D01*
X110070330Y50927677D02*
X110070330Y50880058D01*
X110308425Y50761010D02*
X110308425Y50427677D01*
X110308425Y50713391D02*
X110332235Y50737201D01*
X110332235Y50737201D02*
X110379854Y50761010D01*
X110379854Y50761010D02*
X110451282Y50761010D01*
X110451282Y50761010D02*
X110498901Y50737201D01*
X110498901Y50737201D02*
X110522711Y50689582D01*
X110522711Y50689582D02*
X110522711Y50427677D01*
X111308425Y50689582D02*
X111379853Y50665772D01*
X111379853Y50665772D02*
X111403663Y50641963D01*
X111403663Y50641963D02*
X111427472Y50594344D01*
X111427472Y50594344D02*
X111427472Y50522915D01*
X111427472Y50522915D02*
X111403663Y50475296D01*
X111403663Y50475296D02*
X111379853Y50451486D01*
X111379853Y50451486D02*
X111332234Y50427677D01*
X111332234Y50427677D02*
X111141758Y50427677D01*
X111141758Y50427677D02*
X111141758Y50927677D01*
X111141758Y50927677D02*
X111308425Y50927677D01*
X111308425Y50927677D02*
X111356044Y50903867D01*
X111356044Y50903867D02*
X111379853Y50880058D01*
X111379853Y50880058D02*
X111403663Y50832439D01*
X111403663Y50832439D02*
X111403663Y50784820D01*
X111403663Y50784820D02*
X111379853Y50737201D01*
X111379853Y50737201D02*
X111356044Y50713391D01*
X111356044Y50713391D02*
X111308425Y50689582D01*
X111308425Y50689582D02*
X111141758Y50689582D01*
X111856044Y50427677D02*
X111856044Y50689582D01*
X111856044Y50689582D02*
X111832234Y50737201D01*
X111832234Y50737201D02*
X111784615Y50761010D01*
X111784615Y50761010D02*
X111689377Y50761010D01*
X111689377Y50761010D02*
X111641758Y50737201D01*
X111856044Y50451486D02*
X111808425Y50427677D01*
X111808425Y50427677D02*
X111689377Y50427677D01*
X111689377Y50427677D02*
X111641758Y50451486D01*
X111641758Y50451486D02*
X111617949Y50499106D01*
X111617949Y50499106D02*
X111617949Y50546725D01*
X111617949Y50546725D02*
X111641758Y50594344D01*
X111641758Y50594344D02*
X111689377Y50618153D01*
X111689377Y50618153D02*
X111808425Y50618153D01*
X111808425Y50618153D02*
X111856044Y50641963D01*
X112070330Y50451486D02*
X112117949Y50427677D01*
X112117949Y50427677D02*
X112213187Y50427677D01*
X112213187Y50427677D02*
X112260806Y50451486D01*
X112260806Y50451486D02*
X112284615Y50499106D01*
X112284615Y50499106D02*
X112284615Y50522915D01*
X112284615Y50522915D02*
X112260806Y50570534D01*
X112260806Y50570534D02*
X112213187Y50594344D01*
X112213187Y50594344D02*
X112141758Y50594344D01*
X112141758Y50594344D02*
X112094139Y50618153D01*
X112094139Y50618153D02*
X112070330Y50665772D01*
X112070330Y50665772D02*
X112070330Y50689582D01*
X112070330Y50689582D02*
X112094139Y50737201D01*
X112094139Y50737201D02*
X112141758Y50761010D01*
X112141758Y50761010D02*
X112213187Y50761010D01*
X112213187Y50761010D02*
X112260806Y50737201D01*
X112689377Y50451486D02*
X112641758Y50427677D01*
X112641758Y50427677D02*
X112546520Y50427677D01*
X112546520Y50427677D02*
X112498901Y50451486D01*
X112498901Y50451486D02*
X112475092Y50499106D01*
X112475092Y50499106D02*
X112475092Y50689582D01*
X112475092Y50689582D02*
X112498901Y50737201D01*
X112498901Y50737201D02*
X112546520Y50761010D01*
X112546520Y50761010D02*
X112641758Y50761010D01*
X112641758Y50761010D02*
X112689377Y50737201D01*
X112689377Y50737201D02*
X112713187Y50689582D01*
X112713187Y50689582D02*
X112713187Y50641963D01*
X112713187Y50641963D02*
X112475092Y50594344D01*
X112927472Y50427677D02*
X112927472Y50927677D01*
X112927472Y50737201D02*
X112975091Y50761010D01*
X112975091Y50761010D02*
X113070329Y50761010D01*
X113070329Y50761010D02*
X113117948Y50737201D01*
X113117948Y50737201D02*
X113141758Y50713391D01*
X113141758Y50713391D02*
X113165567Y50665772D01*
X113165567Y50665772D02*
X113165567Y50522915D01*
X113165567Y50522915D02*
X113141758Y50475296D01*
X113141758Y50475296D02*
X113117948Y50451486D01*
X113117948Y50451486D02*
X113070329Y50427677D01*
X113070329Y50427677D02*
X112975091Y50427677D01*
X112975091Y50427677D02*
X112927472Y50451486D01*
X113451282Y50427677D02*
X113403663Y50451486D01*
X113403663Y50451486D02*
X113379853Y50475296D01*
X113379853Y50475296D02*
X113356044Y50522915D01*
X113356044Y50522915D02*
X113356044Y50665772D01*
X113356044Y50665772D02*
X113379853Y50713391D01*
X113379853Y50713391D02*
X113403663Y50737201D01*
X113403663Y50737201D02*
X113451282Y50761010D01*
X113451282Y50761010D02*
X113522710Y50761010D01*
X113522710Y50761010D02*
X113570329Y50737201D01*
X113570329Y50737201D02*
X113594139Y50713391D01*
X113594139Y50713391D02*
X113617948Y50665772D01*
X113617948Y50665772D02*
X113617948Y50522915D01*
X113617948Y50522915D02*
X113594139Y50475296D01*
X113594139Y50475296D02*
X113570329Y50451486D01*
X113570329Y50451486D02*
X113522710Y50427677D01*
X113522710Y50427677D02*
X113451282Y50427677D01*
X114046520Y50427677D02*
X114046520Y50689582D01*
X114046520Y50689582D02*
X114022710Y50737201D01*
X114022710Y50737201D02*
X113975091Y50761010D01*
X113975091Y50761010D02*
X113879853Y50761010D01*
X113879853Y50761010D02*
X113832234Y50737201D01*
X114046520Y50451486D02*
X113998901Y50427677D01*
X113998901Y50427677D02*
X113879853Y50427677D01*
X113879853Y50427677D02*
X113832234Y50451486D01*
X113832234Y50451486D02*
X113808425Y50499106D01*
X113808425Y50499106D02*
X113808425Y50546725D01*
X113808425Y50546725D02*
X113832234Y50594344D01*
X113832234Y50594344D02*
X113879853Y50618153D01*
X113879853Y50618153D02*
X113998901Y50618153D01*
X113998901Y50618153D02*
X114046520Y50641963D01*
X114284615Y50427677D02*
X114284615Y50761010D01*
X114284615Y50665772D02*
X114308425Y50713391D01*
X114308425Y50713391D02*
X114332234Y50737201D01*
X114332234Y50737201D02*
X114379853Y50761010D01*
X114379853Y50761010D02*
X114427472Y50761010D01*
X114808425Y50427677D02*
X114808425Y50927677D01*
X114808425Y50451486D02*
X114760806Y50427677D01*
X114760806Y50427677D02*
X114665568Y50427677D01*
X114665568Y50427677D02*
X114617949Y50451486D01*
X114617949Y50451486D02*
X114594139Y50475296D01*
X114594139Y50475296D02*
X114570330Y50522915D01*
X114570330Y50522915D02*
X114570330Y50665772D01*
X114570330Y50665772D02*
X114594139Y50713391D01*
X114594139Y50713391D02*
X114617949Y50737201D01*
X114617949Y50737201D02*
X114665568Y50761010D01*
X114665568Y50761010D02*
X114760806Y50761010D01*
X114760806Y50761010D02*
X114808425Y50737201D01*
X106736997Y49622705D02*
X106570331Y49860800D01*
X106451283Y49622705D02*
X106451283Y50122705D01*
X106451283Y50122705D02*
X106641759Y50122705D01*
X106641759Y50122705D02*
X106689378Y50098895D01*
X106689378Y50098895D02*
X106713188Y50075086D01*
X106713188Y50075086D02*
X106736997Y50027467D01*
X106736997Y50027467D02*
X106736997Y49956038D01*
X106736997Y49956038D02*
X106713188Y49908419D01*
X106713188Y49908419D02*
X106689378Y49884610D01*
X106689378Y49884610D02*
X106641759Y49860800D01*
X106641759Y49860800D02*
X106451283Y49860800D01*
X107141759Y49646514D02*
X107094140Y49622705D01*
X107094140Y49622705D02*
X106998902Y49622705D01*
X106998902Y49622705D02*
X106951283Y49646514D01*
X106951283Y49646514D02*
X106927474Y49694134D01*
X106927474Y49694134D02*
X106927474Y49884610D01*
X106927474Y49884610D02*
X106951283Y49932229D01*
X106951283Y49932229D02*
X106998902Y49956038D01*
X106998902Y49956038D02*
X107094140Y49956038D01*
X107094140Y49956038D02*
X107141759Y49932229D01*
X107141759Y49932229D02*
X107165569Y49884610D01*
X107165569Y49884610D02*
X107165569Y49836991D01*
X107165569Y49836991D02*
X106927474Y49789372D01*
X107332235Y49956038D02*
X107451283Y49622705D01*
X107451283Y49622705D02*
X107570330Y49956038D01*
X107760806Y49670324D02*
X107784616Y49646514D01*
X107784616Y49646514D02*
X107760806Y49622705D01*
X107760806Y49622705D02*
X107736997Y49646514D01*
X107736997Y49646514D02*
X107760806Y49670324D01*
X107760806Y49670324D02*
X107760806Y49622705D01*
X108641758Y49622705D02*
X108356044Y49622705D01*
X108498901Y49622705D02*
X108498901Y50122705D01*
X108498901Y50122705D02*
X108451282Y50051276D01*
X108451282Y50051276D02*
X108403663Y50003657D01*
X108403663Y50003657D02*
X108356044Y49979848D01*
X108856043Y49670324D02*
X108879853Y49646514D01*
X108879853Y49646514D02*
X108856043Y49622705D01*
X108856043Y49622705D02*
X108832234Y49646514D01*
X108832234Y49646514D02*
X108856043Y49670324D01*
X108856043Y49670324D02*
X108856043Y49622705D01*
X109046519Y50122705D02*
X109356043Y50122705D01*
X109356043Y50122705D02*
X109189376Y49932229D01*
X109189376Y49932229D02*
X109260805Y49932229D01*
X109260805Y49932229D02*
X109308424Y49908419D01*
X109308424Y49908419D02*
X109332233Y49884610D01*
X109332233Y49884610D02*
X109356043Y49836991D01*
X109356043Y49836991D02*
X109356043Y49717943D01*
X109356043Y49717943D02*
X109332233Y49670324D01*
X109332233Y49670324D02*
X109308424Y49646514D01*
X109308424Y49646514D02*
X109260805Y49622705D01*
X109260805Y49622705D02*
X109117948Y49622705D01*
X109117948Y49622705D02*
X109070329Y49646514D01*
X109070329Y49646514D02*
X109046519Y49670324D01*
X109570328Y49670324D02*
X109594138Y49646514D01*
X109594138Y49646514D02*
X109570328Y49622705D01*
X109570328Y49622705D02*
X109546519Y49646514D01*
X109546519Y49646514D02*
X109570328Y49670324D01*
X109570328Y49670324D02*
X109570328Y49622705D01*
X109903661Y50122705D02*
X109951280Y50122705D01*
X109951280Y50122705D02*
X109998899Y50098895D01*
X109998899Y50098895D02*
X110022709Y50075086D01*
X110022709Y50075086D02*
X110046518Y50027467D01*
X110046518Y50027467D02*
X110070328Y49932229D01*
X110070328Y49932229D02*
X110070328Y49813181D01*
X110070328Y49813181D02*
X110046518Y49717943D01*
X110046518Y49717943D02*
X110022709Y49670324D01*
X110022709Y49670324D02*
X109998899Y49646514D01*
X109998899Y49646514D02*
X109951280Y49622705D01*
X109951280Y49622705D02*
X109903661Y49622705D01*
X109903661Y49622705D02*
X109856042Y49646514D01*
X109856042Y49646514D02*
X109832233Y49670324D01*
X109832233Y49670324D02*
X109808423Y49717943D01*
X109808423Y49717943D02*
X109784614Y49813181D01*
X109784614Y49813181D02*
X109784614Y49932229D01*
X109784614Y49932229D02*
X109808423Y50027467D01*
X109808423Y50027467D02*
X109832233Y50075086D01*
X109832233Y50075086D02*
X109856042Y50098895D01*
X109856042Y50098895D02*
X109903661Y50122705D01*
X111689374Y49622705D02*
X111403660Y49622705D01*
X111546517Y49622705D02*
X111546517Y50122705D01*
X111546517Y50122705D02*
X111498898Y50051276D01*
X111498898Y50051276D02*
X111451279Y50003657D01*
X111451279Y50003657D02*
X111403660Y49979848D01*
X112260802Y50146514D02*
X111832231Y49503657D01*
X112403660Y50075086D02*
X112427469Y50098895D01*
X112427469Y50098895D02*
X112475088Y50122705D01*
X112475088Y50122705D02*
X112594136Y50122705D01*
X112594136Y50122705D02*
X112641755Y50098895D01*
X112641755Y50098895D02*
X112665564Y50075086D01*
X112665564Y50075086D02*
X112689374Y50027467D01*
X112689374Y50027467D02*
X112689374Y49979848D01*
X112689374Y49979848D02*
X112665564Y49908419D01*
X112665564Y49908419D02*
X112379850Y49622705D01*
X112379850Y49622705D02*
X112689374Y49622705D01*
X112998897Y50122705D02*
X113046516Y50122705D01*
X113046516Y50122705D02*
X113094135Y50098895D01*
X113094135Y50098895D02*
X113117945Y50075086D01*
X113117945Y50075086D02*
X113141754Y50027467D01*
X113141754Y50027467D02*
X113165564Y49932229D01*
X113165564Y49932229D02*
X113165564Y49813181D01*
X113165564Y49813181D02*
X113141754Y49717943D01*
X113141754Y49717943D02*
X113117945Y49670324D01*
X113117945Y49670324D02*
X113094135Y49646514D01*
X113094135Y49646514D02*
X113046516Y49622705D01*
X113046516Y49622705D02*
X112998897Y49622705D01*
X112998897Y49622705D02*
X112951278Y49646514D01*
X112951278Y49646514D02*
X112927469Y49670324D01*
X112927469Y49670324D02*
X112903659Y49717943D01*
X112903659Y49717943D02*
X112879850Y49813181D01*
X112879850Y49813181D02*
X112879850Y49932229D01*
X112879850Y49932229D02*
X112903659Y50027467D01*
X112903659Y50027467D02*
X112927469Y50075086D01*
X112927469Y50075086D02*
X112951278Y50098895D01*
X112951278Y50098895D02*
X112998897Y50122705D01*
X113356040Y50075086D02*
X113379849Y50098895D01*
X113379849Y50098895D02*
X113427468Y50122705D01*
X113427468Y50122705D02*
X113546516Y50122705D01*
X113546516Y50122705D02*
X113594135Y50098895D01*
X113594135Y50098895D02*
X113617944Y50075086D01*
X113617944Y50075086D02*
X113641754Y50027467D01*
X113641754Y50027467D02*
X113641754Y49979848D01*
X113641754Y49979848D02*
X113617944Y49908419D01*
X113617944Y49908419D02*
X113332230Y49622705D01*
X113332230Y49622705D02*
X113641754Y49622705D01*
X114094134Y50122705D02*
X113856039Y50122705D01*
X113856039Y50122705D02*
X113832230Y49884610D01*
X113832230Y49884610D02*
X113856039Y49908419D01*
X113856039Y49908419D02*
X113903658Y49932229D01*
X113903658Y49932229D02*
X114022706Y49932229D01*
X114022706Y49932229D02*
X114070325Y49908419D01*
X114070325Y49908419D02*
X114094134Y49884610D01*
X114094134Y49884610D02*
X114117944Y49836991D01*
X114117944Y49836991D02*
X114117944Y49717943D01*
X114117944Y49717943D02*
X114094134Y49670324D01*
X114094134Y49670324D02*
X114070325Y49646514D01*
X114070325Y49646514D02*
X114022706Y49622705D01*
X114022706Y49622705D02*
X113903658Y49622705D01*
X113903658Y49622705D02*
X113856039Y49646514D01*
X113856039Y49646514D02*
X113832230Y49670324D01*
D11*
%TO.C,REF\u002A\u002A*%
X111505000Y51172000D02*
X111222000Y51172000D01*
X111222000Y52850000D01*
X111505000Y52850000D01*
X111505000Y51172000D01*
G36*
X111505000Y51172000D02*
G01*
X111222000Y51172000D01*
X111222000Y52850000D01*
X111505000Y52850000D01*
X111505000Y51172000D01*
G37*
X113719000Y52872000D02*
X113740000Y52869000D01*
X113748000Y52864000D01*
X113750000Y52862000D01*
X113745000Y52844000D01*
X113737000Y52810000D01*
X113724000Y52766000D01*
X113718000Y52748000D01*
X113702000Y52699000D01*
X113690000Y52670000D01*
X113679000Y52656000D01*
X113668000Y52654000D01*
X113666000Y52654000D01*
X113593000Y52670000D01*
X113511000Y52675000D01*
X113429000Y52670000D01*
X113359000Y52655000D01*
X113344000Y52650000D01*
X113312000Y52638000D01*
X113312000Y51172000D01*
X113028000Y51172000D01*
X113028000Y52764000D01*
X113115000Y52795000D01*
X113189000Y52820000D01*
X113256000Y52838000D01*
X113325000Y52853000D01*
X113399000Y52862000D01*
X113487000Y52868000D01*
X113551000Y52870000D01*
X113628000Y52873000D01*
X113682000Y52873000D01*
X113719000Y52872000D01*
G36*
X113719000Y52872000D02*
G01*
X113740000Y52869000D01*
X113748000Y52864000D01*
X113750000Y52862000D01*
X113745000Y52844000D01*
X113737000Y52810000D01*
X113724000Y52766000D01*
X113718000Y52748000D01*
X113702000Y52699000D01*
X113690000Y52670000D01*
X113679000Y52656000D01*
X113668000Y52654000D01*
X113666000Y52654000D01*
X113593000Y52670000D01*
X113511000Y52675000D01*
X113429000Y52670000D01*
X113359000Y52655000D01*
X113344000Y52650000D01*
X113312000Y52638000D01*
X113312000Y51172000D01*
X113028000Y51172000D01*
X113028000Y52764000D01*
X113115000Y52795000D01*
X113189000Y52820000D01*
X113256000Y52838000D01*
X113325000Y52853000D01*
X113399000Y52862000D01*
X113487000Y52868000D01*
X113551000Y52870000D01*
X113628000Y52873000D01*
X113682000Y52873000D01*
X113719000Y52872000D01*
G37*
X108192000Y53299000D02*
X108194000Y53267000D01*
X108196000Y53220000D01*
X108197000Y53160000D01*
X108197000Y53089000D01*
X108197000Y53080000D01*
X108197000Y52850000D01*
X108481000Y52850000D01*
X108481000Y52660000D01*
X108197000Y52660000D01*
X108197000Y51508000D01*
X108224000Y51457000D01*
X108259000Y51407000D01*
X108303000Y51378000D01*
X108361000Y51365000D01*
X108407000Y51364000D01*
X108481000Y51368000D01*
X108481000Y51276000D01*
X108479000Y51221000D01*
X108473000Y51187000D01*
X108466000Y51176000D01*
X108450000Y51172000D01*
X108413000Y51168000D01*
X108366000Y51165000D01*
X108333000Y51163000D01*
X108269000Y51163000D01*
X108221000Y51166000D01*
X108180000Y51174000D01*
X108153000Y51182000D01*
X108082000Y51217000D01*
X108024000Y51263000D01*
X107977000Y51329000D01*
X107962000Y51356000D01*
X107920000Y51435000D01*
X107917000Y52049000D01*
X107913000Y52660000D01*
X107725000Y52660000D01*
X107725000Y52850000D01*
X107914000Y52850000D01*
X107914000Y53226000D01*
X108049000Y53269000D01*
X108101000Y53285000D01*
X108146000Y53299000D01*
X108176000Y53307000D01*
X108190000Y53311000D01*
X108192000Y53299000D01*
G36*
X108192000Y53299000D02*
G01*
X108194000Y53267000D01*
X108196000Y53220000D01*
X108197000Y53160000D01*
X108197000Y53089000D01*
X108197000Y53080000D01*
X108197000Y52850000D01*
X108481000Y52850000D01*
X108481000Y52660000D01*
X108197000Y52660000D01*
X108197000Y51508000D01*
X108224000Y51457000D01*
X108259000Y51407000D01*
X108303000Y51378000D01*
X108361000Y51365000D01*
X108407000Y51364000D01*
X108481000Y51368000D01*
X108481000Y51276000D01*
X108479000Y51221000D01*
X108473000Y51187000D01*
X108466000Y51176000D01*
X108450000Y51172000D01*
X108413000Y51168000D01*
X108366000Y51165000D01*
X108333000Y51163000D01*
X108269000Y51163000D01*
X108221000Y51166000D01*
X108180000Y51174000D01*
X108153000Y51182000D01*
X108082000Y51217000D01*
X108024000Y51263000D01*
X107977000Y51329000D01*
X107962000Y51356000D01*
X107920000Y51435000D01*
X107917000Y52049000D01*
X107913000Y52660000D01*
X107725000Y52660000D01*
X107725000Y52850000D01*
X107914000Y52850000D01*
X107914000Y53226000D01*
X108049000Y53269000D01*
X108101000Y53285000D01*
X108146000Y53299000D01*
X108176000Y53307000D01*
X108190000Y53311000D01*
X108192000Y53299000D01*
G37*
X106981000Y52867000D02*
X107044000Y52866000D01*
X107092000Y52863000D01*
X107130000Y52857000D01*
X107164000Y52850000D01*
X107176000Y52845000D01*
X107283000Y52804000D01*
X107369000Y52754000D01*
X107437000Y52692000D01*
X107481000Y52629000D01*
X107494000Y52602000D01*
X107506000Y52576000D01*
X107516000Y52550000D01*
X107525000Y52522000D01*
X107531000Y52490000D01*
X107538000Y52449000D01*
X107542000Y52401000D01*
X107545000Y52341000D01*
X107547000Y52266000D01*
X107548000Y52179000D01*
X107549000Y52072000D01*
X107549000Y51947000D01*
X107549000Y51802000D01*
X107549000Y51172000D01*
X107264000Y51172000D01*
X107264000Y51797000D01*
X107264000Y51943000D01*
X107264000Y52068000D01*
X107263000Y52174000D01*
X107262000Y52261000D01*
X107260000Y52334000D01*
X107257000Y52392000D01*
X107252000Y52439000D01*
X107247000Y52477000D01*
X107240000Y52506000D01*
X107232000Y52528000D01*
X107221000Y52548000D01*
X107208000Y52565000D01*
X107193000Y52583000D01*
X107192000Y52584000D01*
X107142000Y52629000D01*
X107084000Y52659000D01*
X107007000Y52680000D01*
X106979000Y52684000D01*
X106901000Y52689000D01*
X106812000Y52685000D01*
X106727000Y52672000D01*
X106666000Y52656000D01*
X106622000Y52640000D01*
X106618000Y51907000D01*
X106616000Y51172000D01*
X106332000Y51172000D01*
X106332000Y52764000D01*
X106441000Y52799000D01*
X106517000Y52823000D01*
X106580000Y52841000D01*
X106640000Y52854000D01*
X106699000Y52862000D01*
X106767000Y52866000D01*
X106850000Y52868000D01*
X106899000Y52868000D01*
X106981000Y52867000D01*
G36*
X106981000Y52867000D02*
G01*
X107044000Y52866000D01*
X107092000Y52863000D01*
X107130000Y52857000D01*
X107164000Y52850000D01*
X107176000Y52845000D01*
X107283000Y52804000D01*
X107369000Y52754000D01*
X107437000Y52692000D01*
X107481000Y52629000D01*
X107494000Y52602000D01*
X107506000Y52576000D01*
X107516000Y52550000D01*
X107525000Y52522000D01*
X107531000Y52490000D01*
X107538000Y52449000D01*
X107542000Y52401000D01*
X107545000Y52341000D01*
X107547000Y52266000D01*
X107548000Y52179000D01*
X107549000Y52072000D01*
X107549000Y51947000D01*
X107549000Y51802000D01*
X107549000Y51172000D01*
X107264000Y51172000D01*
X107264000Y51797000D01*
X107264000Y51943000D01*
X107264000Y52068000D01*
X107263000Y52174000D01*
X107262000Y52261000D01*
X107260000Y52334000D01*
X107257000Y52392000D01*
X107252000Y52439000D01*
X107247000Y52477000D01*
X107240000Y52506000D01*
X107232000Y52528000D01*
X107221000Y52548000D01*
X107208000Y52565000D01*
X107193000Y52583000D01*
X107192000Y52584000D01*
X107142000Y52629000D01*
X107084000Y52659000D01*
X107007000Y52680000D01*
X106979000Y52684000D01*
X106901000Y52689000D01*
X106812000Y52685000D01*
X106727000Y52672000D01*
X106666000Y52656000D01*
X106622000Y52640000D01*
X106618000Y51907000D01*
X106616000Y51172000D01*
X106332000Y51172000D01*
X106332000Y52764000D01*
X106441000Y52799000D01*
X106517000Y52823000D01*
X106580000Y52841000D01*
X106640000Y52854000D01*
X106699000Y52862000D01*
X106767000Y52866000D01*
X106850000Y52868000D01*
X106899000Y52868000D01*
X106981000Y52867000D01*
G37*
X110413000Y52865000D02*
X110529000Y52839000D01*
X110627000Y52797000D01*
X110710000Y52741000D01*
X110776000Y52666000D01*
X110807000Y52614000D01*
X110820000Y52588000D01*
X110831000Y52563000D01*
X110839000Y52537000D01*
X110847000Y52509000D01*
X110852000Y52474000D01*
X110857000Y52431000D01*
X110861000Y52379000D01*
X110863000Y52316000D01*
X110865000Y52239000D01*
X110867000Y52147000D01*
X110868000Y52036000D01*
X110868000Y51904000D01*
X110868000Y51798000D01*
X110868000Y51172000D01*
X110585000Y51172000D01*
X110581000Y51826000D01*
X110577000Y52478000D01*
X110544000Y52539000D01*
X110497000Y52602000D01*
X110436000Y52647000D01*
X110364000Y52677000D01*
X110286000Y52689000D01*
X110202000Y52685000D01*
X110121000Y52664000D01*
X110041000Y52627000D01*
X109985000Y52584000D01*
X109934000Y52540000D01*
X109934000Y51172000D01*
X109650000Y51172000D01*
X109650000Y51811000D01*
X109650000Y51972000D01*
X109650000Y52109000D01*
X109648000Y52226000D01*
X109648000Y52319000D01*
X109646000Y52393000D01*
X109642000Y52447000D01*
X109640000Y52483000D01*
X109638000Y52497000D01*
X109606000Y52563000D01*
X109555000Y52617000D01*
X109489000Y52656000D01*
X109406000Y52680000D01*
X109309000Y52690000D01*
X109211000Y52685000D01*
X109158000Y52678000D01*
X109120000Y52672000D01*
X109088000Y52665000D01*
X109054000Y52654000D01*
X109033000Y52646000D01*
X109001000Y52635000D01*
X109001000Y51172000D01*
X108730000Y51172000D01*
X108730000Y52765000D01*
X108842000Y52802000D01*
X108969000Y52837000D01*
X109088000Y52861000D01*
X109207000Y52871000D01*
X109332000Y52871000D01*
X109431000Y52865000D01*
X109513000Y52854000D01*
X109583000Y52835000D01*
X109644000Y52808000D01*
X109703000Y52772000D01*
X109729000Y52755000D01*
X109805000Y52695000D01*
X109856000Y52737000D01*
X109950000Y52799000D01*
X110058000Y52842000D01*
X110178000Y52868000D01*
X110283000Y52873000D01*
X110413000Y52865000D01*
G36*
X110413000Y52865000D02*
G01*
X110529000Y52839000D01*
X110627000Y52797000D01*
X110710000Y52741000D01*
X110776000Y52666000D01*
X110807000Y52614000D01*
X110820000Y52588000D01*
X110831000Y52563000D01*
X110839000Y52537000D01*
X110847000Y52509000D01*
X110852000Y52474000D01*
X110857000Y52431000D01*
X110861000Y52379000D01*
X110863000Y52316000D01*
X110865000Y52239000D01*
X110867000Y52147000D01*
X110868000Y52036000D01*
X110868000Y51904000D01*
X110868000Y51798000D01*
X110868000Y51172000D01*
X110585000Y51172000D01*
X110581000Y51826000D01*
X110577000Y52478000D01*
X110544000Y52539000D01*
X110497000Y52602000D01*
X110436000Y52647000D01*
X110364000Y52677000D01*
X110286000Y52689000D01*
X110202000Y52685000D01*
X110121000Y52664000D01*
X110041000Y52627000D01*
X109985000Y52584000D01*
X109934000Y52540000D01*
X109934000Y51172000D01*
X109650000Y51172000D01*
X109650000Y51811000D01*
X109650000Y51972000D01*
X109650000Y52109000D01*
X109648000Y52226000D01*
X109648000Y52319000D01*
X109646000Y52393000D01*
X109642000Y52447000D01*
X109640000Y52483000D01*
X109638000Y52497000D01*
X109606000Y52563000D01*
X109555000Y52617000D01*
X109489000Y52656000D01*
X109406000Y52680000D01*
X109309000Y52690000D01*
X109211000Y52685000D01*
X109158000Y52678000D01*
X109120000Y52672000D01*
X109088000Y52665000D01*
X109054000Y52654000D01*
X109033000Y52646000D01*
X109001000Y52635000D01*
X109001000Y51172000D01*
X108730000Y51172000D01*
X108730000Y52765000D01*
X108842000Y52802000D01*
X108969000Y52837000D01*
X109088000Y52861000D01*
X109207000Y52871000D01*
X109332000Y52871000D01*
X109431000Y52865000D01*
X109513000Y52854000D01*
X109583000Y52835000D01*
X109644000Y52808000D01*
X109703000Y52772000D01*
X109729000Y52755000D01*
X109805000Y52695000D01*
X109856000Y52737000D01*
X109950000Y52799000D01*
X110058000Y52842000D01*
X110178000Y52868000D01*
X110283000Y52873000D01*
X110413000Y52865000D01*
G37*
X114554000Y52866000D02*
X114660000Y52841000D01*
X114753000Y52799000D01*
X114838000Y52741000D01*
X114878000Y52703000D01*
X114951000Y52613000D01*
X115011000Y52505000D01*
X115056000Y52380000D01*
X115084000Y52238000D01*
X115094000Y52147000D01*
X115099000Y51981000D01*
X115091000Y51827000D01*
X115065000Y51684000D01*
X115027000Y51555000D01*
X114974000Y51443000D01*
X114907000Y51346000D01*
X114828000Y51266000D01*
X114780000Y51231000D01*
X114702000Y51193000D01*
X114609000Y51163000D01*
X114511000Y51146000D01*
X114410000Y51141000D01*
X114320000Y51149000D01*
X114203000Y51181000D01*
X114101000Y51233000D01*
X114011000Y51302000D01*
X113935000Y51391000D01*
X113875000Y51497000D01*
X113828000Y51621000D01*
X113803000Y51730000D01*
X113782000Y51890000D01*
X113778000Y52018000D01*
X114060000Y52018000D01*
X114065000Y51885000D01*
X114081000Y51758000D01*
X114107000Y51643000D01*
X114144000Y51544000D01*
X114189000Y51467000D01*
X114248000Y51405000D01*
X114317000Y51364000D01*
X114391000Y51341000D01*
X114468000Y51338000D01*
X114548000Y51357000D01*
X114573000Y51369000D01*
X114639000Y51411000D01*
X114694000Y51472000D01*
X114738000Y51548000D01*
X114772000Y51645000D01*
X114798000Y51760000D01*
X114811000Y51881000D01*
X114817000Y52029000D01*
X114811000Y52167000D01*
X114793000Y52294000D01*
X114764000Y52405000D01*
X114724000Y52500000D01*
X114674000Y52576000D01*
X114644000Y52610000D01*
X114576000Y52657000D01*
X114503000Y52683000D01*
X114427000Y52690000D01*
X114352000Y52677000D01*
X114282000Y52645000D01*
X114219000Y52596000D01*
X114166000Y52528000D01*
X114145000Y52491000D01*
X114109000Y52391000D01*
X114081000Y52276000D01*
X114065000Y52150000D01*
X114060000Y52018000D01*
X113778000Y52018000D01*
X113777000Y52044000D01*
X113788000Y52193000D01*
X113811000Y52332000D01*
X113851000Y52459000D01*
X113903000Y52572000D01*
X113969000Y52669000D01*
X113988000Y52691000D01*
X114073000Y52767000D01*
X114169000Y52822000D01*
X114277000Y52858000D01*
X114397000Y52873000D01*
X114434000Y52874000D01*
X114554000Y52866000D01*
G36*
X114554000Y52866000D02*
G01*
X114660000Y52841000D01*
X114753000Y52799000D01*
X114838000Y52741000D01*
X114878000Y52703000D01*
X114951000Y52613000D01*
X115011000Y52505000D01*
X115056000Y52380000D01*
X115084000Y52238000D01*
X115094000Y52147000D01*
X115099000Y51981000D01*
X115091000Y51827000D01*
X115065000Y51684000D01*
X115027000Y51555000D01*
X114974000Y51443000D01*
X114907000Y51346000D01*
X114828000Y51266000D01*
X114780000Y51231000D01*
X114702000Y51193000D01*
X114609000Y51163000D01*
X114511000Y51146000D01*
X114410000Y51141000D01*
X114320000Y51149000D01*
X114203000Y51181000D01*
X114101000Y51233000D01*
X114011000Y51302000D01*
X113935000Y51391000D01*
X113875000Y51497000D01*
X113828000Y51621000D01*
X113803000Y51730000D01*
X113782000Y51890000D01*
X113778000Y52018000D01*
X114060000Y52018000D01*
X114065000Y51885000D01*
X114081000Y51758000D01*
X114107000Y51643000D01*
X114144000Y51544000D01*
X114189000Y51467000D01*
X114248000Y51405000D01*
X114317000Y51364000D01*
X114391000Y51341000D01*
X114468000Y51338000D01*
X114548000Y51357000D01*
X114573000Y51369000D01*
X114639000Y51411000D01*
X114694000Y51472000D01*
X114738000Y51548000D01*
X114772000Y51645000D01*
X114798000Y51760000D01*
X114811000Y51881000D01*
X114817000Y52029000D01*
X114811000Y52167000D01*
X114793000Y52294000D01*
X114764000Y52405000D01*
X114724000Y52500000D01*
X114674000Y52576000D01*
X114644000Y52610000D01*
X114576000Y52657000D01*
X114503000Y52683000D01*
X114427000Y52690000D01*
X114352000Y52677000D01*
X114282000Y52645000D01*
X114219000Y52596000D01*
X114166000Y52528000D01*
X114145000Y52491000D01*
X114109000Y52391000D01*
X114081000Y52276000D01*
X114065000Y52150000D01*
X114060000Y52018000D01*
X113778000Y52018000D01*
X113777000Y52044000D01*
X113788000Y52193000D01*
X113811000Y52332000D01*
X113851000Y52459000D01*
X113903000Y52572000D01*
X113969000Y52669000D01*
X113988000Y52691000D01*
X114073000Y52767000D01*
X114169000Y52822000D01*
X114277000Y52858000D01*
X114397000Y52873000D01*
X114434000Y52874000D01*
X114554000Y52866000D01*
G37*
X112456000Y52872000D02*
X112533000Y52864000D01*
X112577000Y52856000D01*
X112621000Y52842000D01*
X112670000Y52825000D01*
X112714000Y52805000D01*
X112750000Y52787000D01*
X112772000Y52772000D01*
X112772000Y52770000D01*
X112772000Y52756000D01*
X112762000Y52727000D01*
X112750000Y52690000D01*
X112734000Y52653000D01*
X112721000Y52623000D01*
X112710000Y52606000D01*
X112708000Y52604000D01*
X112692000Y52608000D01*
X112663000Y52620000D01*
X112634000Y52633000D01*
X112543000Y52663000D01*
X112455000Y52675000D01*
X112370000Y52668000D01*
X112296000Y52642000D01*
X112234000Y52599000D01*
X112178000Y52533000D01*
X112128000Y52450000D01*
X112086000Y52353000D01*
X112069000Y52296000D01*
X112056000Y52227000D01*
X112046000Y52140000D01*
X112042000Y52046000D01*
X112044000Y51949000D01*
X112049000Y51858000D01*
X112061000Y51778000D01*
X112069000Y51738000D01*
X112109000Y51620000D01*
X112160000Y51525000D01*
X112221000Y51449000D01*
X112293000Y51393000D01*
X112298000Y51390000D01*
X112335000Y51373000D01*
X112365000Y51362000D01*
X112402000Y51358000D01*
X112453000Y51357000D01*
X112455000Y51357000D01*
X112509000Y51359000D01*
X112556000Y51367000D01*
X112604000Y51383000D01*
X112658000Y51407000D01*
X112700000Y51429000D01*
X112705000Y51426000D01*
X112713000Y51410000D01*
X112727000Y51381000D01*
X112748000Y51334000D01*
X112774000Y51266000D01*
X112777000Y51261000D01*
X112769000Y51248000D01*
X112745000Y51230000D01*
X112710000Y51210000D01*
X112665000Y51190000D01*
X112618000Y51172000D01*
X112607000Y51168000D01*
X112543000Y51154000D01*
X112466000Y51146000D01*
X112386000Y51142000D01*
X112314000Y51145000D01*
X112285000Y51149000D01*
X112240000Y51160000D01*
X112187000Y51179000D01*
X112136000Y51202000D01*
X112038000Y51263000D01*
X111954000Y51343000D01*
X111883000Y51442000D01*
X111827000Y51557000D01*
X111784000Y51692000D01*
X111771000Y51757000D01*
X111760000Y51834000D01*
X111754000Y51926000D01*
X111754000Y52025000D01*
X111758000Y52126000D01*
X111766000Y52221000D01*
X111778000Y52303000D01*
X111787000Y52348000D01*
X111833000Y52479000D01*
X111895000Y52593000D01*
X111968000Y52688000D01*
X112056000Y52766000D01*
X112157000Y52824000D01*
X112237000Y52855000D01*
X112298000Y52867000D01*
X112375000Y52873000D01*
X112456000Y52872000D01*
G36*
X112456000Y52872000D02*
G01*
X112533000Y52864000D01*
X112577000Y52856000D01*
X112621000Y52842000D01*
X112670000Y52825000D01*
X112714000Y52805000D01*
X112750000Y52787000D01*
X112772000Y52772000D01*
X112772000Y52770000D01*
X112772000Y52756000D01*
X112762000Y52727000D01*
X112750000Y52690000D01*
X112734000Y52653000D01*
X112721000Y52623000D01*
X112710000Y52606000D01*
X112708000Y52604000D01*
X112692000Y52608000D01*
X112663000Y52620000D01*
X112634000Y52633000D01*
X112543000Y52663000D01*
X112455000Y52675000D01*
X112370000Y52668000D01*
X112296000Y52642000D01*
X112234000Y52599000D01*
X112178000Y52533000D01*
X112128000Y52450000D01*
X112086000Y52353000D01*
X112069000Y52296000D01*
X112056000Y52227000D01*
X112046000Y52140000D01*
X112042000Y52046000D01*
X112044000Y51949000D01*
X112049000Y51858000D01*
X112061000Y51778000D01*
X112069000Y51738000D01*
X112109000Y51620000D01*
X112160000Y51525000D01*
X112221000Y51449000D01*
X112293000Y51393000D01*
X112298000Y51390000D01*
X112335000Y51373000D01*
X112365000Y51362000D01*
X112402000Y51358000D01*
X112453000Y51357000D01*
X112455000Y51357000D01*
X112509000Y51359000D01*
X112556000Y51367000D01*
X112604000Y51383000D01*
X112658000Y51407000D01*
X112700000Y51429000D01*
X112705000Y51426000D01*
X112713000Y51410000D01*
X112727000Y51381000D01*
X112748000Y51334000D01*
X112774000Y51266000D01*
X112777000Y51261000D01*
X112769000Y51248000D01*
X112745000Y51230000D01*
X112710000Y51210000D01*
X112665000Y51190000D01*
X112618000Y51172000D01*
X112607000Y51168000D01*
X112543000Y51154000D01*
X112466000Y51146000D01*
X112386000Y51142000D01*
X112314000Y51145000D01*
X112285000Y51149000D01*
X112240000Y51160000D01*
X112187000Y51179000D01*
X112136000Y51202000D01*
X112038000Y51263000D01*
X111954000Y51343000D01*
X111883000Y51442000D01*
X111827000Y51557000D01*
X111784000Y51692000D01*
X111771000Y51757000D01*
X111760000Y51834000D01*
X111754000Y51926000D01*
X111754000Y52025000D01*
X111758000Y52126000D01*
X111766000Y52221000D01*
X111778000Y52303000D01*
X111787000Y52348000D01*
X111833000Y52479000D01*
X111895000Y52593000D01*
X111968000Y52688000D01*
X112056000Y52766000D01*
X112157000Y52824000D01*
X112237000Y52855000D01*
X112298000Y52867000D01*
X112375000Y52873000D01*
X112456000Y52872000D01*
G37*
X105524000Y52866000D02*
X105598000Y52852000D01*
X105683000Y52825000D01*
X105752000Y52793000D01*
X105812000Y52751000D01*
X105840000Y52724000D01*
X105884000Y52670000D01*
X105921000Y52602000D01*
X105952000Y52526000D01*
X105965000Y52474000D01*
X105969000Y52446000D01*
X105970000Y52398000D01*
X105973000Y52330000D01*
X105974000Y52244000D01*
X105976000Y52144000D01*
X105977000Y52028000D01*
X105977000Y51901000D01*
X105977000Y51833000D01*
X105977000Y51257000D01*
X105923000Y51232000D01*
X105824000Y51197000D01*
X105708000Y51168000D01*
X105585000Y51150000D01*
X105458000Y51141000D01*
X105337000Y51143000D01*
X105274000Y51149000D01*
X105149000Y51174000D01*
X105042000Y51215000D01*
X104953000Y51268000D01*
X104883000Y51337000D01*
X104832000Y51419000D01*
X104800000Y51516000D01*
X104787000Y51625000D01*
X104787000Y51680000D01*
X104788000Y51690000D01*
X105058000Y51690000D01*
X105062000Y51593000D01*
X105082000Y51509000D01*
X105123000Y51437000D01*
X105180000Y51383000D01*
X105256000Y51342000D01*
X105292000Y51330000D01*
X105339000Y51322000D01*
X105401000Y51319000D01*
X105470000Y51319000D01*
X105541000Y51323000D01*
X105605000Y51331000D01*
X105655000Y51342000D01*
X105662000Y51344000D01*
X105718000Y51364000D01*
X105718000Y52107000D01*
X105650000Y52099000D01*
X105606000Y52092000D01*
X105550000Y52082000D01*
X105492000Y52068000D01*
X105473000Y52064000D01*
X105352000Y52026000D01*
X105252000Y51980000D01*
X105175000Y51925000D01*
X105117000Y51862000D01*
X105078000Y51787000D01*
X105059000Y51703000D01*
X105058000Y51690000D01*
X104788000Y51690000D01*
X104803000Y51786000D01*
X104837000Y51881000D01*
X104895000Y51965000D01*
X104926000Y52000000D01*
X104998000Y52055000D01*
X105089000Y52107000D01*
X105198000Y52154000D01*
X105320000Y52193000D01*
X105454000Y52226000D01*
X105597000Y52248000D01*
X105598000Y52248000D01*
X105720000Y52263000D01*
X105714000Y52363000D01*
X105700000Y52458000D01*
X105673000Y52534000D01*
X105631000Y52593000D01*
X105574000Y52636000D01*
X105498000Y52664000D01*
X105462000Y52672000D01*
X105365000Y52681000D01*
X105256000Y52673000D01*
X105142000Y52649000D01*
X105026000Y52611000D01*
X105017000Y52606000D01*
X104981000Y52592000D01*
X104953000Y52582000D01*
X104944000Y52581000D01*
X104937000Y52594000D01*
X104925000Y52622000D01*
X104912000Y52657000D01*
X104897000Y52695000D01*
X104887000Y52728000D01*
X104880000Y52748000D01*
X104880000Y52751000D01*
X104889000Y52758000D01*
X104915000Y52771000D01*
X104944000Y52785000D01*
X105050000Y52823000D01*
X105167000Y52852000D01*
X105290000Y52868000D01*
X105411000Y52873000D01*
X105524000Y52866000D01*
G36*
X105524000Y52866000D02*
G01*
X105598000Y52852000D01*
X105683000Y52825000D01*
X105752000Y52793000D01*
X105812000Y52751000D01*
X105840000Y52724000D01*
X105884000Y52670000D01*
X105921000Y52602000D01*
X105952000Y52526000D01*
X105965000Y52474000D01*
X105969000Y52446000D01*
X105970000Y52398000D01*
X105973000Y52330000D01*
X105974000Y52244000D01*
X105976000Y52144000D01*
X105977000Y52028000D01*
X105977000Y51901000D01*
X105977000Y51833000D01*
X105977000Y51257000D01*
X105923000Y51232000D01*
X105824000Y51197000D01*
X105708000Y51168000D01*
X105585000Y51150000D01*
X105458000Y51141000D01*
X105337000Y51143000D01*
X105274000Y51149000D01*
X105149000Y51174000D01*
X105042000Y51215000D01*
X104953000Y51268000D01*
X104883000Y51337000D01*
X104832000Y51419000D01*
X104800000Y51516000D01*
X104787000Y51625000D01*
X104787000Y51680000D01*
X104788000Y51690000D01*
X105058000Y51690000D01*
X105062000Y51593000D01*
X105082000Y51509000D01*
X105123000Y51437000D01*
X105180000Y51383000D01*
X105256000Y51342000D01*
X105292000Y51330000D01*
X105339000Y51322000D01*
X105401000Y51319000D01*
X105470000Y51319000D01*
X105541000Y51323000D01*
X105605000Y51331000D01*
X105655000Y51342000D01*
X105662000Y51344000D01*
X105718000Y51364000D01*
X105718000Y52107000D01*
X105650000Y52099000D01*
X105606000Y52092000D01*
X105550000Y52082000D01*
X105492000Y52068000D01*
X105473000Y52064000D01*
X105352000Y52026000D01*
X105252000Y51980000D01*
X105175000Y51925000D01*
X105117000Y51862000D01*
X105078000Y51787000D01*
X105059000Y51703000D01*
X105058000Y51690000D01*
X104788000Y51690000D01*
X104803000Y51786000D01*
X104837000Y51881000D01*
X104895000Y51965000D01*
X104926000Y52000000D01*
X104998000Y52055000D01*
X105089000Y52107000D01*
X105198000Y52154000D01*
X105320000Y52193000D01*
X105454000Y52226000D01*
X105597000Y52248000D01*
X105598000Y52248000D01*
X105720000Y52263000D01*
X105714000Y52363000D01*
X105700000Y52458000D01*
X105673000Y52534000D01*
X105631000Y52593000D01*
X105574000Y52636000D01*
X105498000Y52664000D01*
X105462000Y52672000D01*
X105365000Y52681000D01*
X105256000Y52673000D01*
X105142000Y52649000D01*
X105026000Y52611000D01*
X105017000Y52606000D01*
X104981000Y52592000D01*
X104953000Y52582000D01*
X104944000Y52581000D01*
X104937000Y52594000D01*
X104925000Y52622000D01*
X104912000Y52657000D01*
X104897000Y52695000D01*
X104887000Y52728000D01*
X104880000Y52748000D01*
X104880000Y52751000D01*
X104889000Y52758000D01*
X104915000Y52771000D01*
X104944000Y52785000D01*
X105050000Y52823000D01*
X105167000Y52852000D01*
X105290000Y52868000D01*
X105411000Y52873000D01*
X105524000Y52866000D01*
G37*
X102280000Y54394000D02*
X102282000Y54394000D01*
X102297000Y54386000D01*
X102330000Y54367000D01*
X102381000Y54338000D01*
X102447000Y54301000D01*
X102527000Y54257000D01*
X102617000Y54204000D01*
X102718000Y54148000D01*
X102825000Y54085000D01*
X102939000Y54020000D01*
X103058000Y53952000D01*
X103178000Y53884000D01*
X103300000Y53813000D01*
X103420000Y53745000D01*
X103535000Y53678000D01*
X103649000Y53612000D01*
X103753000Y53551000D01*
X103851000Y53495000D01*
X103937000Y53444000D01*
X104013000Y53400000D01*
X104074000Y53366000D01*
X104119000Y53338000D01*
X104147000Y53321000D01*
X104151000Y53319000D01*
X104200000Y53279000D01*
X104239000Y53229000D01*
X104271000Y53174000D01*
X104275000Y52049000D01*
X104275000Y51833000D01*
X104275000Y51639000D01*
X104275000Y51466000D01*
X104275000Y51315000D01*
X104274000Y51186000D01*
X104272000Y51078000D01*
X104271000Y50994000D01*
X104268000Y50932000D01*
X104267000Y50892000D01*
X104266000Y50878000D01*
X104260000Y50860000D01*
X104256000Y50844000D01*
X104248000Y50828000D01*
X104240000Y50814000D01*
X104226000Y50797000D01*
X104207000Y50779000D01*
X104182000Y50759000D01*
X104150000Y50735000D01*
X104107000Y50705000D01*
X104055000Y50673000D01*
X103992000Y50634000D01*
X103917000Y50588000D01*
X103827000Y50535000D01*
X103723000Y50475000D01*
X103601000Y50404000D01*
X103463000Y50325000D01*
X103306000Y50233000D01*
X103237000Y50193000D01*
X102287000Y49644000D01*
X102197000Y49640000D01*
X102109000Y49636000D01*
X101761000Y49835000D01*
X101548000Y49959000D01*
X101354000Y50070000D01*
X101178000Y50171000D01*
X101021000Y50261000D01*
X100880000Y50342000D01*
X100755000Y50416000D01*
X100644000Y50479000D01*
X100548000Y50537000D01*
X100463000Y50586000D01*
X100391000Y50630000D01*
X100330000Y50666000D01*
X100280000Y50700000D01*
X100237000Y50727000D01*
X100204000Y50751000D01*
X100176000Y50771000D01*
X100157000Y50787000D01*
X100141000Y50803000D01*
X100130000Y50817000D01*
X100123000Y50828000D01*
X100117000Y50840000D01*
X100114000Y50852000D01*
X100111000Y50866000D01*
X100107000Y50878000D01*
X100104000Y50900000D01*
X100103000Y50944000D01*
X100101000Y51011000D01*
X100099000Y51101000D01*
X100099000Y51213000D01*
X100099000Y51347000D01*
X100098000Y51504000D01*
X100098000Y51681000D01*
X100098000Y51869000D01*
X100827000Y51869000D01*
X100829000Y51738000D01*
X100829000Y51626000D01*
X100830000Y51533000D01*
X100830000Y51456000D01*
X100833000Y51393000D01*
X100835000Y51344000D01*
X100838000Y51304000D01*
X100843000Y51275000D01*
X100849000Y51253000D01*
X100857000Y51237000D01*
X100865000Y51224000D01*
X100875000Y51213000D01*
X100888000Y51203000D01*
X100889000Y51202000D01*
X100905000Y51191000D01*
X100939000Y51169000D01*
X100989000Y51139000D01*
X101053000Y51102000D01*
X101128000Y51058000D01*
X101213000Y51008000D01*
X101305000Y50955000D01*
X101401000Y50898000D01*
X101500000Y50842000D01*
X101599000Y50783000D01*
X101697000Y50727000D01*
X101792000Y50674000D01*
X101880000Y50624000D01*
X101958000Y50580000D01*
X102027000Y50541000D01*
X102083000Y50511000D01*
X102123000Y50489000D01*
X102147000Y50477000D01*
X102149000Y50475000D01*
X102180000Y50467000D01*
X102200000Y50467000D01*
X102224000Y50475000D01*
X102239000Y50481000D01*
X102258000Y50491000D01*
X102296000Y50511000D01*
X102349000Y50541000D01*
X102415000Y50578000D01*
X102492000Y50622000D01*
X102577000Y50670000D01*
X102671000Y50723000D01*
X102768000Y50779000D01*
X102867000Y50836000D01*
X102966000Y50894000D01*
X103063000Y50951000D01*
X103155000Y51004000D01*
X103240000Y51053000D01*
X103316000Y51099000D01*
X103380000Y51137000D01*
X103431000Y51167000D01*
X103466000Y51189000D01*
X103484000Y51201000D01*
X103497000Y51212000D01*
X103506000Y51223000D01*
X103516000Y51236000D01*
X103522000Y51252000D01*
X103529000Y51273000D01*
X103534000Y51302000D01*
X103537000Y51341000D01*
X103540000Y51388000D01*
X103542000Y51451000D01*
X103543000Y51527000D01*
X103543000Y51618000D01*
X103545000Y51729000D01*
X103545000Y51859000D01*
X103545000Y52009000D01*
X103545000Y52022000D01*
X103545000Y52178000D01*
X103545000Y52309000D01*
X103543000Y52421000D01*
X103543000Y52515000D01*
X103542000Y52594000D01*
X103540000Y52656000D01*
X103537000Y52706000D01*
X103532000Y52746000D01*
X103527000Y52775000D01*
X103521000Y52797000D01*
X103513000Y52814000D01*
X103503000Y52827000D01*
X103492000Y52837000D01*
X103478000Y52849000D01*
X103471000Y52853000D01*
X103455000Y52864000D01*
X103418000Y52886000D01*
X103367000Y52916000D01*
X103300000Y52955000D01*
X103220000Y53003000D01*
X103130000Y53055000D01*
X103030000Y53112000D01*
X102923000Y53174000D01*
X102835000Y53225000D01*
X102708000Y53299000D01*
X102599000Y53362000D01*
X102506000Y53414000D01*
X102431000Y53456000D01*
X102367000Y53491000D01*
X102317000Y53519000D01*
X102277000Y53539000D01*
X102248000Y53553000D01*
X102224000Y53563000D01*
X102207000Y53567000D01*
X102192000Y53571000D01*
X102188000Y53571000D01*
X102176000Y53569000D01*
X102160000Y53565000D01*
X102139000Y53557000D01*
X102112000Y53545000D01*
X102077000Y53529000D01*
X102032000Y53505000D01*
X101976000Y53473000D01*
X101906000Y53434000D01*
X101822000Y53388000D01*
X101721000Y53329000D01*
X101604000Y53263000D01*
X101522000Y53214000D01*
X101410000Y53150000D01*
X101305000Y53089000D01*
X101208000Y53033000D01*
X101119000Y52981000D01*
X101042000Y52935000D01*
X100978000Y52897000D01*
X100928000Y52869000D01*
X100896000Y52849000D01*
X100883000Y52839000D01*
X100872000Y52829000D01*
X100862000Y52819000D01*
X100854000Y52806000D01*
X100848000Y52789000D01*
X100843000Y52767000D01*
X100838000Y52737000D01*
X100835000Y52696000D01*
X100833000Y52644000D01*
X100830000Y52580000D01*
X100830000Y52502000D01*
X100829000Y52405000D01*
X100829000Y52291000D01*
X100827000Y52155000D01*
X100827000Y52022000D01*
X100827000Y51869000D01*
X100098000Y51869000D01*
X100098000Y51880000D01*
X100099000Y52022000D01*
X100099000Y52049000D01*
X100099000Y52240000D01*
X100099000Y52410000D01*
X100099000Y52557000D01*
X100101000Y52686000D01*
X100101000Y52798000D01*
X100103000Y52893000D01*
X100104000Y52973000D01*
X100106000Y53039000D01*
X100109000Y53093000D01*
X100112000Y53138000D01*
X100116000Y53172000D01*
X100120000Y53198000D01*
X100125000Y53218000D01*
X100133000Y53235000D01*
X100141000Y53247000D01*
X100149000Y53257000D01*
X100160000Y53265000D01*
X100172000Y53277000D01*
X100176000Y53281000D01*
X100192000Y53291000D01*
X100226000Y53313000D01*
X100277000Y53343000D01*
X100345000Y53384000D01*
X100426000Y53434000D01*
X100522000Y53489000D01*
X100628000Y53551000D01*
X100745000Y53620000D01*
X100870000Y53692000D01*
X101002000Y53769000D01*
X101139000Y53848000D01*
X101154000Y53857000D01*
X101314000Y53950000D01*
X101455000Y54031000D01*
X101577000Y54103000D01*
X101684000Y54164000D01*
X101777000Y54216000D01*
X101854000Y54261000D01*
X101920000Y54297000D01*
X101974000Y54326000D01*
X102019000Y54350000D01*
X102055000Y54369000D01*
X102083000Y54382000D01*
X102106000Y54393000D01*
X102123000Y54398000D01*
X102139000Y54402000D01*
X102152000Y54406000D01*
X102165000Y54406000D01*
X102168000Y54406000D01*
X102232000Y54406000D01*
X102280000Y54394000D01*
G36*
X102280000Y54394000D02*
G01*
X102282000Y54394000D01*
X102297000Y54386000D01*
X102330000Y54367000D01*
X102381000Y54338000D01*
X102447000Y54301000D01*
X102527000Y54257000D01*
X102617000Y54204000D01*
X102718000Y54148000D01*
X102825000Y54085000D01*
X102939000Y54020000D01*
X103058000Y53952000D01*
X103178000Y53884000D01*
X103300000Y53813000D01*
X103420000Y53745000D01*
X103535000Y53678000D01*
X103649000Y53612000D01*
X103753000Y53551000D01*
X103851000Y53495000D01*
X103937000Y53444000D01*
X104013000Y53400000D01*
X104074000Y53366000D01*
X104119000Y53338000D01*
X104147000Y53321000D01*
X104151000Y53319000D01*
X104200000Y53279000D01*
X104239000Y53229000D01*
X104271000Y53174000D01*
X104275000Y52049000D01*
X104275000Y51833000D01*
X104275000Y51639000D01*
X104275000Y51466000D01*
X104275000Y51315000D01*
X104274000Y51186000D01*
X104272000Y51078000D01*
X104271000Y50994000D01*
X104268000Y50932000D01*
X104267000Y50892000D01*
X104266000Y50878000D01*
X104260000Y50860000D01*
X104256000Y50844000D01*
X104248000Y50828000D01*
X104240000Y50814000D01*
X104226000Y50797000D01*
X104207000Y50779000D01*
X104182000Y50759000D01*
X104150000Y50735000D01*
X104107000Y50705000D01*
X104055000Y50673000D01*
X103992000Y50634000D01*
X103917000Y50588000D01*
X103827000Y50535000D01*
X103723000Y50475000D01*
X103601000Y50404000D01*
X103463000Y50325000D01*
X103306000Y50233000D01*
X103237000Y50193000D01*
X102287000Y49644000D01*
X102197000Y49640000D01*
X102109000Y49636000D01*
X101761000Y49835000D01*
X101548000Y49959000D01*
X101354000Y50070000D01*
X101178000Y50171000D01*
X101021000Y50261000D01*
X100880000Y50342000D01*
X100755000Y50416000D01*
X100644000Y50479000D01*
X100548000Y50537000D01*
X100463000Y50586000D01*
X100391000Y50630000D01*
X100330000Y50666000D01*
X100280000Y50700000D01*
X100237000Y50727000D01*
X100204000Y50751000D01*
X100176000Y50771000D01*
X100157000Y50787000D01*
X100141000Y50803000D01*
X100130000Y50817000D01*
X100123000Y50828000D01*
X100117000Y50840000D01*
X100114000Y50852000D01*
X100111000Y50866000D01*
X100107000Y50878000D01*
X100104000Y50900000D01*
X100103000Y50944000D01*
X100101000Y51011000D01*
X100099000Y51101000D01*
X100099000Y51213000D01*
X100099000Y51347000D01*
X100098000Y51504000D01*
X100098000Y51681000D01*
X100098000Y51869000D01*
X100827000Y51869000D01*
X100829000Y51738000D01*
X100829000Y51626000D01*
X100830000Y51533000D01*
X100830000Y51456000D01*
X100833000Y51393000D01*
X100835000Y51344000D01*
X100838000Y51304000D01*
X100843000Y51275000D01*
X100849000Y51253000D01*
X100857000Y51237000D01*
X100865000Y51224000D01*
X100875000Y51213000D01*
X100888000Y51203000D01*
X100889000Y51202000D01*
X100905000Y51191000D01*
X100939000Y51169000D01*
X100989000Y51139000D01*
X101053000Y51102000D01*
X101128000Y51058000D01*
X101213000Y51008000D01*
X101305000Y50955000D01*
X101401000Y50898000D01*
X101500000Y50842000D01*
X101599000Y50783000D01*
X101697000Y50727000D01*
X101792000Y50674000D01*
X101880000Y50624000D01*
X101958000Y50580000D01*
X102027000Y50541000D01*
X102083000Y50511000D01*
X102123000Y50489000D01*
X102147000Y50477000D01*
X102149000Y50475000D01*
X102180000Y50467000D01*
X102200000Y50467000D01*
X102224000Y50475000D01*
X102239000Y50481000D01*
X102258000Y50491000D01*
X102296000Y50511000D01*
X102349000Y50541000D01*
X102415000Y50578000D01*
X102492000Y50622000D01*
X102577000Y50670000D01*
X102671000Y50723000D01*
X102768000Y50779000D01*
X102867000Y50836000D01*
X102966000Y50894000D01*
X103063000Y50951000D01*
X103155000Y51004000D01*
X103240000Y51053000D01*
X103316000Y51099000D01*
X103380000Y51137000D01*
X103431000Y51167000D01*
X103466000Y51189000D01*
X103484000Y51201000D01*
X103497000Y51212000D01*
X103506000Y51223000D01*
X103516000Y51236000D01*
X103522000Y51252000D01*
X103529000Y51273000D01*
X103534000Y51302000D01*
X103537000Y51341000D01*
X103540000Y51388000D01*
X103542000Y51451000D01*
X103543000Y51527000D01*
X103543000Y51618000D01*
X103545000Y51729000D01*
X103545000Y51859000D01*
X103545000Y52009000D01*
X103545000Y52022000D01*
X103545000Y52178000D01*
X103545000Y52309000D01*
X103543000Y52421000D01*
X103543000Y52515000D01*
X103542000Y52594000D01*
X103540000Y52656000D01*
X103537000Y52706000D01*
X103532000Y52746000D01*
X103527000Y52775000D01*
X103521000Y52797000D01*
X103513000Y52814000D01*
X103503000Y52827000D01*
X103492000Y52837000D01*
X103478000Y52849000D01*
X103471000Y52853000D01*
X103455000Y52864000D01*
X103418000Y52886000D01*
X103367000Y52916000D01*
X103300000Y52955000D01*
X103220000Y53003000D01*
X103130000Y53055000D01*
X103030000Y53112000D01*
X102923000Y53174000D01*
X102835000Y53225000D01*
X102708000Y53299000D01*
X102599000Y53362000D01*
X102506000Y53414000D01*
X102431000Y53456000D01*
X102367000Y53491000D01*
X102317000Y53519000D01*
X102277000Y53539000D01*
X102248000Y53553000D01*
X102224000Y53563000D01*
X102207000Y53567000D01*
X102192000Y53571000D01*
X102188000Y53571000D01*
X102176000Y53569000D01*
X102160000Y53565000D01*
X102139000Y53557000D01*
X102112000Y53545000D01*
X102077000Y53529000D01*
X102032000Y53505000D01*
X101976000Y53473000D01*
X101906000Y53434000D01*
X101822000Y53388000D01*
X101721000Y53329000D01*
X101604000Y53263000D01*
X101522000Y53214000D01*
X101410000Y53150000D01*
X101305000Y53089000D01*
X101208000Y53033000D01*
X101119000Y52981000D01*
X101042000Y52935000D01*
X100978000Y52897000D01*
X100928000Y52869000D01*
X100896000Y52849000D01*
X100883000Y52839000D01*
X100872000Y52829000D01*
X100862000Y52819000D01*
X100854000Y52806000D01*
X100848000Y52789000D01*
X100843000Y52767000D01*
X100838000Y52737000D01*
X100835000Y52696000D01*
X100833000Y52644000D01*
X100830000Y52580000D01*
X100830000Y52502000D01*
X100829000Y52405000D01*
X100829000Y52291000D01*
X100827000Y52155000D01*
X100827000Y52022000D01*
X100827000Y51869000D01*
X100098000Y51869000D01*
X100098000Y51880000D01*
X100099000Y52022000D01*
X100099000Y52049000D01*
X100099000Y52240000D01*
X100099000Y52410000D01*
X100099000Y52557000D01*
X100101000Y52686000D01*
X100101000Y52798000D01*
X100103000Y52893000D01*
X100104000Y52973000D01*
X100106000Y53039000D01*
X100109000Y53093000D01*
X100112000Y53138000D01*
X100116000Y53172000D01*
X100120000Y53198000D01*
X100125000Y53218000D01*
X100133000Y53235000D01*
X100141000Y53247000D01*
X100149000Y53257000D01*
X100160000Y53265000D01*
X100172000Y53277000D01*
X100176000Y53281000D01*
X100192000Y53291000D01*
X100226000Y53313000D01*
X100277000Y53343000D01*
X100345000Y53384000D01*
X100426000Y53434000D01*
X100522000Y53489000D01*
X100628000Y53551000D01*
X100745000Y53620000D01*
X100870000Y53692000D01*
X101002000Y53769000D01*
X101139000Y53848000D01*
X101154000Y53857000D01*
X101314000Y53950000D01*
X101455000Y54031000D01*
X101577000Y54103000D01*
X101684000Y54164000D01*
X101777000Y54216000D01*
X101854000Y54261000D01*
X101920000Y54297000D01*
X101974000Y54326000D01*
X102019000Y54350000D01*
X102055000Y54369000D01*
X102083000Y54382000D01*
X102106000Y54393000D01*
X102123000Y54398000D01*
X102139000Y54402000D01*
X102152000Y54406000D01*
X102165000Y54406000D01*
X102168000Y54406000D01*
X102232000Y54406000D01*
X102280000Y54394000D01*
G37*
X102250000Y52991000D02*
X102261000Y52987000D01*
X102314000Y52951000D01*
X102354000Y52901000D01*
X102377000Y52841000D01*
X102378000Y52777000D01*
X102375000Y52763000D01*
X102353000Y52701000D01*
X102311000Y52656000D01*
X102271000Y52632000D01*
X102221000Y52608000D01*
X102221000Y52330000D01*
X102428000Y52330000D01*
X102513000Y52415000D01*
X102598000Y52499000D01*
X102591000Y52559000D01*
X102591000Y52560000D01*
X102671000Y52560000D01*
X102684000Y52533000D01*
X102713000Y52520000D01*
X102745000Y52523000D01*
X102769000Y52537000D01*
X102787000Y52565000D01*
X102780000Y52594000D01*
X102764000Y52614000D01*
X102742000Y52633000D01*
X102724000Y52635000D01*
X102699000Y52621000D01*
X102697000Y52619000D01*
X102676000Y52593000D01*
X102671000Y52560000D01*
X102591000Y52560000D01*
X102590000Y52599000D01*
X102595000Y52625000D01*
X102609000Y52649000D01*
X102617000Y52657000D01*
X102660000Y52694000D01*
X102707000Y52710000D01*
X102755000Y52709000D01*
X102798000Y52693000D01*
X102835000Y52664000D01*
X102859000Y52624000D01*
X102867000Y52574000D01*
X102859000Y52525000D01*
X102833000Y52479000D01*
X102790000Y52448000D01*
X102734000Y52436000D01*
X102724000Y52436000D01*
X102699000Y52435000D01*
X102678000Y52431000D01*
X102657000Y52420000D01*
X102631000Y52401000D01*
X102596000Y52368000D01*
X102567000Y52342000D01*
X102466000Y52247000D01*
X102221000Y52247000D01*
X102221000Y52058000D01*
X102670000Y52058000D01*
X102688000Y52092000D01*
X102720000Y52130000D01*
X102764000Y52154000D01*
X102814000Y52160000D01*
X102862000Y52151000D01*
X102905000Y52122000D01*
X102909000Y52119000D01*
X102939000Y52070000D01*
X102950000Y52021000D01*
X102942000Y51976000D01*
X102921000Y51934000D01*
X102886000Y51904000D01*
X102843000Y51885000D01*
X102795000Y51882000D01*
X102742000Y51900000D01*
X102732000Y51906000D01*
X102704000Y51926000D01*
X102686000Y51948000D01*
X102686000Y51952000D01*
X102683000Y51960000D01*
X102676000Y51966000D01*
X102660000Y51970000D01*
X102636000Y51973000D01*
X102599000Y51974000D01*
X102543000Y51976000D01*
X102470000Y51976000D01*
X102450000Y51976000D01*
X102221000Y51976000D01*
X102221000Y51799000D01*
X102465000Y51799000D01*
X102660000Y51602000D01*
X102716000Y51607000D01*
X102774000Y51603000D01*
X102821000Y51580000D01*
X102853000Y51539000D01*
X102861000Y51517000D01*
X102869000Y51461000D01*
X102854000Y51411000D01*
X102825000Y51373000D01*
X102780000Y51341000D01*
X102731000Y51330000D01*
X102684000Y51336000D01*
X102641000Y51359000D01*
X102611000Y51395000D01*
X102593000Y51444000D01*
X102591000Y51480000D01*
X102673000Y51480000D01*
X102676000Y51450000D01*
X102688000Y51432000D01*
X102715000Y51412000D01*
X102740000Y51413000D01*
X102764000Y51432000D01*
X102785000Y51462000D01*
X102784000Y51487000D01*
X102766000Y51509000D01*
X102737000Y51524000D01*
X102708000Y51521000D01*
X102684000Y51505000D01*
X102673000Y51480000D01*
X102591000Y51480000D01*
X102591000Y51490000D01*
X102599000Y51546000D01*
X102428000Y51716000D01*
X102221000Y51716000D01*
X102221000Y51436000D01*
X102271000Y51414000D01*
X102322000Y51380000D01*
X102357000Y51333000D01*
X102375000Y51276000D01*
X102380000Y51219000D01*
X102365000Y51161000D01*
X102337000Y51112000D01*
X102290000Y51072000D01*
X102280000Y51066000D01*
X102218000Y51046000D01*
X102152000Y51046000D01*
X102091000Y51066000D01*
X102090000Y51067000D01*
X102042000Y51105000D01*
X102010000Y51153000D01*
X101995000Y51210000D01*
X101995000Y51238000D01*
X102075000Y51238000D01*
X102080000Y51203000D01*
X102098000Y51174000D01*
X102114000Y51159000D01*
X102157000Y51132000D01*
X102200000Y51128000D01*
X102244000Y51146000D01*
X102260000Y51159000D01*
X102285000Y51189000D01*
X102297000Y51219000D01*
X102298000Y51238000D01*
X102287000Y51280000D01*
X102258000Y51318000D01*
X102221000Y51343000D01*
X102186000Y51350000D01*
X102144000Y51340000D01*
X102107000Y51312000D01*
X102083000Y51272000D01*
X102075000Y51238000D01*
X101995000Y51238000D01*
X101995000Y51268000D01*
X102013000Y51325000D01*
X102046000Y51374000D01*
X102093000Y51410000D01*
X102103000Y51414000D01*
X102151000Y51436000D01*
X102151000Y51716000D01*
X101944000Y51716000D01*
X101774000Y51546000D01*
X101781000Y51490000D01*
X101779000Y51434000D01*
X101758000Y51388000D01*
X101724000Y51354000D01*
X101681000Y51334000D01*
X101633000Y51330000D01*
X101585000Y51345000D01*
X101548000Y51373000D01*
X101514000Y51417000D01*
X101503000Y51468000D01*
X101506000Y51482000D01*
X101587000Y51482000D01*
X101590000Y51457000D01*
X101607000Y51432000D01*
X101636000Y51411000D01*
X101662000Y51413000D01*
X101684000Y51431000D01*
X101699000Y51463000D01*
X101694000Y51493000D01*
X101675000Y51517000D01*
X101660000Y51523000D01*
X101625000Y51521000D01*
X101607000Y51509000D01*
X101587000Y51482000D01*
X101506000Y51482000D01*
X101513000Y51517000D01*
X101538000Y51564000D01*
X101577000Y51595000D01*
X101631000Y51607000D01*
X101657000Y51607000D01*
X101712000Y51602000D01*
X101909000Y51799000D01*
X102151000Y51799000D01*
X102151000Y51976000D01*
X101922000Y51976000D01*
X101843000Y51976000D01*
X101784000Y51976000D01*
X101742000Y51973000D01*
X101715000Y51972000D01*
X101699000Y51968000D01*
X101689000Y51962000D01*
X101686000Y51954000D01*
X101684000Y51951000D01*
X101665000Y51925000D01*
X101631000Y51900000D01*
X101590000Y51884000D01*
X101563000Y51881000D01*
X101508000Y51892000D01*
X101466000Y51917000D01*
X101436000Y51957000D01*
X101423000Y52004000D01*
X101425000Y52021000D01*
X101503000Y52021000D01*
X101506000Y52003000D01*
X101519000Y51988000D01*
X101550000Y51968000D01*
X101580000Y51968000D01*
X101601000Y51982000D01*
X101617000Y52012000D01*
X101615000Y52033000D01*
X102755000Y52033000D01*
X102760000Y52000000D01*
X102772000Y51982000D01*
X102801000Y51965000D01*
X102833000Y51972000D01*
X102854000Y51988000D01*
X102869000Y52008000D01*
X102867000Y52025000D01*
X102859000Y52044000D01*
X102833000Y52071000D01*
X102803000Y52080000D01*
X102774000Y52067000D01*
X102772000Y52065000D01*
X102755000Y52033000D01*
X101615000Y52033000D01*
X101612000Y52044000D01*
X101596000Y52064000D01*
X101567000Y52080000D01*
X101538000Y52072000D01*
X101514000Y52044000D01*
X101503000Y52021000D01*
X101425000Y52021000D01*
X101428000Y52054000D01*
X101452000Y52103000D01*
X101463000Y52119000D01*
X101506000Y52150000D01*
X101555000Y52161000D01*
X101606000Y52154000D01*
X101651000Y52130000D01*
X101683000Y52093000D01*
X101704000Y52058000D01*
X102151000Y52058000D01*
X102151000Y52247000D01*
X101907000Y52247000D01*
X101806000Y52342000D01*
X101761000Y52382000D01*
X101731000Y52410000D01*
X101708000Y52425000D01*
X101686000Y52433000D01*
X101665000Y52436000D01*
X101646000Y52436000D01*
X101588000Y52444000D01*
X101546000Y52471000D01*
X101518000Y52515000D01*
X101511000Y52530000D01*
X101506000Y52573000D01*
X101583000Y52573000D01*
X101593000Y52546000D01*
X101619000Y52527000D01*
X101651000Y52519000D01*
X101680000Y52526000D01*
X101688000Y52533000D01*
X101702000Y52561000D01*
X101697000Y52593000D01*
X101676000Y52619000D01*
X101654000Y52633000D01*
X101641000Y52638000D01*
X101623000Y52629000D01*
X101603000Y52608000D01*
X101588000Y52584000D01*
X101583000Y52573000D01*
X101506000Y52573000D01*
X101506000Y52585000D01*
X101518000Y52634000D01*
X101545000Y52672000D01*
X101583000Y52698000D01*
X101628000Y52711000D01*
X101676000Y52709000D01*
X101723000Y52688000D01*
X101756000Y52657000D01*
X101774000Y52632000D01*
X101782000Y52608000D01*
X101782000Y52573000D01*
X101782000Y52559000D01*
X101774000Y52499000D01*
X101859000Y52415000D01*
X101944000Y52330000D01*
X102151000Y52330000D01*
X102151000Y52609000D01*
X102104000Y52630000D01*
X102048000Y52665000D01*
X102011000Y52716000D01*
X101998000Y52756000D01*
X101992000Y52810000D01*
X102072000Y52810000D01*
X102077000Y52783000D01*
X102085000Y52763000D01*
X102115000Y52723000D01*
X102155000Y52700000D01*
X102200000Y52698000D01*
X102245000Y52717000D01*
X102250000Y52722000D01*
X102285000Y52759000D01*
X102298000Y52799000D01*
X102288000Y52842000D01*
X102260000Y52888000D01*
X102221000Y52912000D01*
X102180000Y52918000D01*
X102138000Y52906000D01*
X102101000Y52876000D01*
X102080000Y52839000D01*
X102072000Y52810000D01*
X101992000Y52810000D01*
X101990000Y52818000D01*
X102005000Y52878000D01*
X102035000Y52927000D01*
X102077000Y52967000D01*
X102130000Y52993000D01*
X102189000Y53003000D01*
X102250000Y52991000D01*
G36*
X102250000Y52991000D02*
G01*
X102261000Y52987000D01*
X102314000Y52951000D01*
X102354000Y52901000D01*
X102377000Y52841000D01*
X102378000Y52777000D01*
X102375000Y52763000D01*
X102353000Y52701000D01*
X102311000Y52656000D01*
X102271000Y52632000D01*
X102221000Y52608000D01*
X102221000Y52330000D01*
X102428000Y52330000D01*
X102513000Y52415000D01*
X102598000Y52499000D01*
X102591000Y52559000D01*
X102591000Y52560000D01*
X102671000Y52560000D01*
X102684000Y52533000D01*
X102713000Y52520000D01*
X102745000Y52523000D01*
X102769000Y52537000D01*
X102787000Y52565000D01*
X102780000Y52594000D01*
X102764000Y52614000D01*
X102742000Y52633000D01*
X102724000Y52635000D01*
X102699000Y52621000D01*
X102697000Y52619000D01*
X102676000Y52593000D01*
X102671000Y52560000D01*
X102591000Y52560000D01*
X102590000Y52599000D01*
X102595000Y52625000D01*
X102609000Y52649000D01*
X102617000Y52657000D01*
X102660000Y52694000D01*
X102707000Y52710000D01*
X102755000Y52709000D01*
X102798000Y52693000D01*
X102835000Y52664000D01*
X102859000Y52624000D01*
X102867000Y52574000D01*
X102859000Y52525000D01*
X102833000Y52479000D01*
X102790000Y52448000D01*
X102734000Y52436000D01*
X102724000Y52436000D01*
X102699000Y52435000D01*
X102678000Y52431000D01*
X102657000Y52420000D01*
X102631000Y52401000D01*
X102596000Y52368000D01*
X102567000Y52342000D01*
X102466000Y52247000D01*
X102221000Y52247000D01*
X102221000Y52058000D01*
X102670000Y52058000D01*
X102688000Y52092000D01*
X102720000Y52130000D01*
X102764000Y52154000D01*
X102814000Y52160000D01*
X102862000Y52151000D01*
X102905000Y52122000D01*
X102909000Y52119000D01*
X102939000Y52070000D01*
X102950000Y52021000D01*
X102942000Y51976000D01*
X102921000Y51934000D01*
X102886000Y51904000D01*
X102843000Y51885000D01*
X102795000Y51882000D01*
X102742000Y51900000D01*
X102732000Y51906000D01*
X102704000Y51926000D01*
X102686000Y51948000D01*
X102686000Y51952000D01*
X102683000Y51960000D01*
X102676000Y51966000D01*
X102660000Y51970000D01*
X102636000Y51973000D01*
X102599000Y51974000D01*
X102543000Y51976000D01*
X102470000Y51976000D01*
X102450000Y51976000D01*
X102221000Y51976000D01*
X102221000Y51799000D01*
X102465000Y51799000D01*
X102660000Y51602000D01*
X102716000Y51607000D01*
X102774000Y51603000D01*
X102821000Y51580000D01*
X102853000Y51539000D01*
X102861000Y51517000D01*
X102869000Y51461000D01*
X102854000Y51411000D01*
X102825000Y51373000D01*
X102780000Y51341000D01*
X102731000Y51330000D01*
X102684000Y51336000D01*
X102641000Y51359000D01*
X102611000Y51395000D01*
X102593000Y51444000D01*
X102591000Y51480000D01*
X102673000Y51480000D01*
X102676000Y51450000D01*
X102688000Y51432000D01*
X102715000Y51412000D01*
X102740000Y51413000D01*
X102764000Y51432000D01*
X102785000Y51462000D01*
X102784000Y51487000D01*
X102766000Y51509000D01*
X102737000Y51524000D01*
X102708000Y51521000D01*
X102684000Y51505000D01*
X102673000Y51480000D01*
X102591000Y51480000D01*
X102591000Y51490000D01*
X102599000Y51546000D01*
X102428000Y51716000D01*
X102221000Y51716000D01*
X102221000Y51436000D01*
X102271000Y51414000D01*
X102322000Y51380000D01*
X102357000Y51333000D01*
X102375000Y51276000D01*
X102380000Y51219000D01*
X102365000Y51161000D01*
X102337000Y51112000D01*
X102290000Y51072000D01*
X102280000Y51066000D01*
X102218000Y51046000D01*
X102152000Y51046000D01*
X102091000Y51066000D01*
X102090000Y51067000D01*
X102042000Y51105000D01*
X102010000Y51153000D01*
X101995000Y51210000D01*
X101995000Y51238000D01*
X102075000Y51238000D01*
X102080000Y51203000D01*
X102098000Y51174000D01*
X102114000Y51159000D01*
X102157000Y51132000D01*
X102200000Y51128000D01*
X102244000Y51146000D01*
X102260000Y51159000D01*
X102285000Y51189000D01*
X102297000Y51219000D01*
X102298000Y51238000D01*
X102287000Y51280000D01*
X102258000Y51318000D01*
X102221000Y51343000D01*
X102186000Y51350000D01*
X102144000Y51340000D01*
X102107000Y51312000D01*
X102083000Y51272000D01*
X102075000Y51238000D01*
X101995000Y51238000D01*
X101995000Y51268000D01*
X102013000Y51325000D01*
X102046000Y51374000D01*
X102093000Y51410000D01*
X102103000Y51414000D01*
X102151000Y51436000D01*
X102151000Y51716000D01*
X101944000Y51716000D01*
X101774000Y51546000D01*
X101781000Y51490000D01*
X101779000Y51434000D01*
X101758000Y51388000D01*
X101724000Y51354000D01*
X101681000Y51334000D01*
X101633000Y51330000D01*
X101585000Y51345000D01*
X101548000Y51373000D01*
X101514000Y51417000D01*
X101503000Y51468000D01*
X101506000Y51482000D01*
X101587000Y51482000D01*
X101590000Y51457000D01*
X101607000Y51432000D01*
X101636000Y51411000D01*
X101662000Y51413000D01*
X101684000Y51431000D01*
X101699000Y51463000D01*
X101694000Y51493000D01*
X101675000Y51517000D01*
X101660000Y51523000D01*
X101625000Y51521000D01*
X101607000Y51509000D01*
X101587000Y51482000D01*
X101506000Y51482000D01*
X101513000Y51517000D01*
X101538000Y51564000D01*
X101577000Y51595000D01*
X101631000Y51607000D01*
X101657000Y51607000D01*
X101712000Y51602000D01*
X101909000Y51799000D01*
X102151000Y51799000D01*
X102151000Y51976000D01*
X101922000Y51976000D01*
X101843000Y51976000D01*
X101784000Y51976000D01*
X101742000Y51973000D01*
X101715000Y51972000D01*
X101699000Y51968000D01*
X101689000Y51962000D01*
X101686000Y51954000D01*
X101684000Y51951000D01*
X101665000Y51925000D01*
X101631000Y51900000D01*
X101590000Y51884000D01*
X101563000Y51881000D01*
X101508000Y51892000D01*
X101466000Y51917000D01*
X101436000Y51957000D01*
X101423000Y52004000D01*
X101425000Y52021000D01*
X101503000Y52021000D01*
X101506000Y52003000D01*
X101519000Y51988000D01*
X101550000Y51968000D01*
X101580000Y51968000D01*
X101601000Y51982000D01*
X101617000Y52012000D01*
X101615000Y52033000D01*
X102755000Y52033000D01*
X102760000Y52000000D01*
X102772000Y51982000D01*
X102801000Y51965000D01*
X102833000Y51972000D01*
X102854000Y51988000D01*
X102869000Y52008000D01*
X102867000Y52025000D01*
X102859000Y52044000D01*
X102833000Y52071000D01*
X102803000Y52080000D01*
X102774000Y52067000D01*
X102772000Y52065000D01*
X102755000Y52033000D01*
X101615000Y52033000D01*
X101612000Y52044000D01*
X101596000Y52064000D01*
X101567000Y52080000D01*
X101538000Y52072000D01*
X101514000Y52044000D01*
X101503000Y52021000D01*
X101425000Y52021000D01*
X101428000Y52054000D01*
X101452000Y52103000D01*
X101463000Y52119000D01*
X101506000Y52150000D01*
X101555000Y52161000D01*
X101606000Y52154000D01*
X101651000Y52130000D01*
X101683000Y52093000D01*
X101704000Y52058000D01*
X102151000Y52058000D01*
X102151000Y52247000D01*
X101907000Y52247000D01*
X101806000Y52342000D01*
X101761000Y52382000D01*
X101731000Y52410000D01*
X101708000Y52425000D01*
X101686000Y52433000D01*
X101665000Y52436000D01*
X101646000Y52436000D01*
X101588000Y52444000D01*
X101546000Y52471000D01*
X101518000Y52515000D01*
X101511000Y52530000D01*
X101506000Y52573000D01*
X101583000Y52573000D01*
X101593000Y52546000D01*
X101619000Y52527000D01*
X101651000Y52519000D01*
X101680000Y52526000D01*
X101688000Y52533000D01*
X101702000Y52561000D01*
X101697000Y52593000D01*
X101676000Y52619000D01*
X101654000Y52633000D01*
X101641000Y52638000D01*
X101623000Y52629000D01*
X101603000Y52608000D01*
X101588000Y52584000D01*
X101583000Y52573000D01*
X101506000Y52573000D01*
X101506000Y52585000D01*
X101518000Y52634000D01*
X101545000Y52672000D01*
X101583000Y52698000D01*
X101628000Y52711000D01*
X101676000Y52709000D01*
X101723000Y52688000D01*
X101756000Y52657000D01*
X101774000Y52632000D01*
X101782000Y52608000D01*
X101782000Y52573000D01*
X101782000Y52559000D01*
X101774000Y52499000D01*
X101859000Y52415000D01*
X101944000Y52330000D01*
X102151000Y52330000D01*
X102151000Y52609000D01*
X102104000Y52630000D01*
X102048000Y52665000D01*
X102011000Y52716000D01*
X101998000Y52756000D01*
X101992000Y52810000D01*
X102072000Y52810000D01*
X102077000Y52783000D01*
X102085000Y52763000D01*
X102115000Y52723000D01*
X102155000Y52700000D01*
X102200000Y52698000D01*
X102245000Y52717000D01*
X102250000Y52722000D01*
X102285000Y52759000D01*
X102298000Y52799000D01*
X102288000Y52842000D01*
X102260000Y52888000D01*
X102221000Y52912000D01*
X102180000Y52918000D01*
X102138000Y52906000D01*
X102101000Y52876000D01*
X102080000Y52839000D01*
X102072000Y52810000D01*
X101992000Y52810000D01*
X101990000Y52818000D01*
X102005000Y52878000D01*
X102035000Y52927000D01*
X102077000Y52967000D01*
X102130000Y52993000D01*
X102189000Y53003000D01*
X102250000Y52991000D01*
G37*
D12*
X110654000Y1992000D02*
X110697000Y1979000D01*
X110725000Y1963000D01*
X110734000Y1949000D01*
X110732000Y1934000D01*
X110715000Y1909000D01*
X110702000Y1892000D01*
X110673000Y1860000D01*
X110652000Y1847000D01*
X110634000Y1848000D01*
X110581000Y1861000D01*
X110541000Y1861000D01*
X110509000Y1845000D01*
X110498000Y1836000D01*
X110464000Y1804000D01*
X110464000Y1388000D01*
X110326000Y1388000D01*
X110326000Y1992000D01*
X110395000Y1992000D01*
X110436000Y1990000D01*
X110458000Y1984000D01*
X110464000Y1973000D01*
X110467000Y1961000D01*
X110480000Y1962000D01*
X110499000Y1971000D01*
X110537000Y1987000D01*
X110567000Y1997000D01*
X110607000Y1999000D01*
X110654000Y1992000D01*
G36*
X110654000Y1992000D02*
G01*
X110697000Y1979000D01*
X110725000Y1963000D01*
X110734000Y1949000D01*
X110732000Y1934000D01*
X110715000Y1909000D01*
X110702000Y1892000D01*
X110673000Y1860000D01*
X110652000Y1847000D01*
X110634000Y1848000D01*
X110581000Y1861000D01*
X110541000Y1861000D01*
X110509000Y1845000D01*
X110498000Y1836000D01*
X110464000Y1804000D01*
X110464000Y1388000D01*
X110326000Y1388000D01*
X110326000Y1992000D01*
X110395000Y1992000D01*
X110436000Y1990000D01*
X110458000Y1984000D01*
X110464000Y1973000D01*
X110467000Y1961000D01*
X110480000Y1962000D01*
X110499000Y1971000D01*
X110537000Y1987000D01*
X110567000Y1997000D01*
X110607000Y1999000D01*
X110654000Y1992000D01*
G37*
X110284000Y1048000D02*
X110305000Y1043000D01*
X110312000Y1033000D01*
X110313000Y1023000D01*
X110313000Y997000D01*
X110346000Y1023000D01*
X110384000Y1041000D01*
X110435000Y1049000D01*
X110490000Y1049000D01*
X110538000Y1039000D01*
X110566000Y1025000D01*
X110595000Y1002000D01*
X110553000Y950000D01*
X110528000Y918000D01*
X110511000Y903000D01*
X110494000Y901000D01*
X110469000Y908000D01*
X110457000Y913000D01*
X110409000Y919000D01*
X110365000Y905000D01*
X110333000Y875000D01*
X110327000Y865000D01*
X110322000Y839000D01*
X110317000Y792000D01*
X110314000Y726000D01*
X110313000Y645000D01*
X110313000Y633000D01*
X110313000Y433000D01*
X110175000Y433000D01*
X110175000Y1049000D01*
X110244000Y1049000D01*
X110284000Y1048000D01*
G36*
X110284000Y1048000D02*
G01*
X110305000Y1043000D01*
X110312000Y1033000D01*
X110313000Y1023000D01*
X110313000Y997000D01*
X110346000Y1023000D01*
X110384000Y1041000D01*
X110435000Y1049000D01*
X110490000Y1049000D01*
X110538000Y1039000D01*
X110566000Y1025000D01*
X110595000Y1002000D01*
X110553000Y950000D01*
X110528000Y918000D01*
X110511000Y903000D01*
X110494000Y901000D01*
X110469000Y908000D01*
X110457000Y913000D01*
X110409000Y919000D01*
X110365000Y905000D01*
X110333000Y875000D01*
X110327000Y865000D01*
X110322000Y839000D01*
X110317000Y792000D01*
X110314000Y726000D01*
X110313000Y645000D01*
X110313000Y633000D01*
X110313000Y433000D01*
X110175000Y433000D01*
X110175000Y1049000D01*
X110244000Y1049000D01*
X110284000Y1048000D01*
G37*
X107861000Y1047000D02*
X107880000Y1042000D01*
X107886000Y1029000D01*
X107886000Y1024000D01*
X107887000Y1008000D01*
X107895000Y1006000D01*
X107915000Y1017000D01*
X107927000Y1024000D01*
X107965000Y1039000D01*
X108010000Y1047000D01*
X108058000Y1048000D01*
X108103000Y1042000D01*
X108139000Y1031000D01*
X108162000Y1014000D01*
X108167000Y994000D01*
X108164000Y989000D01*
X108147000Y966000D01*
X108122000Y938000D01*
X108117000Y933000D01*
X108092000Y912000D01*
X108071000Y906000D01*
X108041000Y910000D01*
X108029000Y914000D01*
X107992000Y921000D01*
X107966000Y918000D01*
X107944000Y906000D01*
X107923000Y890000D01*
X107908000Y870000D01*
X107898000Y842000D01*
X107891000Y802000D01*
X107888000Y747000D01*
X107886000Y672000D01*
X107886000Y627000D01*
X107886000Y433000D01*
X107761000Y433000D01*
X107761000Y1049000D01*
X107823000Y1049000D01*
X107861000Y1047000D01*
G36*
X107861000Y1047000D02*
G01*
X107880000Y1042000D01*
X107886000Y1029000D01*
X107886000Y1024000D01*
X107887000Y1008000D01*
X107895000Y1006000D01*
X107915000Y1017000D01*
X107927000Y1024000D01*
X107965000Y1039000D01*
X108010000Y1047000D01*
X108058000Y1048000D01*
X108103000Y1042000D01*
X108139000Y1031000D01*
X108162000Y1014000D01*
X108167000Y994000D01*
X108164000Y989000D01*
X108147000Y966000D01*
X108122000Y938000D01*
X108117000Y933000D01*
X108092000Y912000D01*
X108071000Y906000D01*
X108041000Y910000D01*
X108029000Y914000D01*
X107992000Y921000D01*
X107966000Y918000D01*
X107944000Y906000D01*
X107923000Y890000D01*
X107908000Y870000D01*
X107898000Y842000D01*
X107891000Y802000D01*
X107888000Y747000D01*
X107886000Y672000D01*
X107886000Y627000D01*
X107886000Y433000D01*
X107761000Y433000D01*
X107761000Y1049000D01*
X107823000Y1049000D01*
X107861000Y1047000D01*
G37*
X109848000Y1796000D02*
X109849000Y1704000D01*
X109853000Y1634000D01*
X109862000Y1583000D01*
X109876000Y1549000D01*
X109897000Y1528000D01*
X109926000Y1517000D01*
X109961000Y1515000D01*
X109998000Y1518000D01*
X110026000Y1529000D01*
X110047000Y1550000D01*
X110061000Y1585000D01*
X110069000Y1637000D01*
X110073000Y1708000D01*
X110074000Y1796000D01*
X110074000Y1992000D01*
X110213000Y1992000D01*
X110213000Y1388000D01*
X110143000Y1388000D01*
X110102000Y1390000D01*
X110080000Y1396000D01*
X110074000Y1407000D01*
X110071000Y1417000D01*
X110056000Y1415000D01*
X110027000Y1401000D01*
X109961000Y1379000D01*
X109890000Y1381000D01*
X109823000Y1404000D01*
X109791000Y1423000D01*
X109766000Y1443000D01*
X109748000Y1469000D01*
X109736000Y1503000D01*
X109728000Y1549000D01*
X109724000Y1611000D01*
X109722000Y1693000D01*
X109722000Y1756000D01*
X109722000Y1992000D01*
X109848000Y1992000D01*
X109848000Y1796000D01*
G36*
X109848000Y1796000D02*
G01*
X109849000Y1704000D01*
X109853000Y1634000D01*
X109862000Y1583000D01*
X109876000Y1549000D01*
X109897000Y1528000D01*
X109926000Y1517000D01*
X109961000Y1515000D01*
X109998000Y1518000D01*
X110026000Y1529000D01*
X110047000Y1550000D01*
X110061000Y1585000D01*
X110069000Y1637000D01*
X110073000Y1708000D01*
X110074000Y1796000D01*
X110074000Y1992000D01*
X110213000Y1992000D01*
X110213000Y1388000D01*
X110143000Y1388000D01*
X110102000Y1390000D01*
X110080000Y1396000D01*
X110074000Y1407000D01*
X110071000Y1417000D01*
X110056000Y1415000D01*
X110027000Y1401000D01*
X109961000Y1379000D01*
X109890000Y1381000D01*
X109823000Y1404000D01*
X109791000Y1423000D01*
X109766000Y1443000D01*
X109748000Y1469000D01*
X109736000Y1503000D01*
X109728000Y1549000D01*
X109724000Y1611000D01*
X109722000Y1693000D01*
X109722000Y1756000D01*
X109722000Y1992000D01*
X109848000Y1992000D01*
X109848000Y1796000D01*
G37*
X108100000Y1981000D02*
X108132000Y1967000D01*
X108162000Y1945000D01*
X108185000Y1920000D01*
X108202000Y1888000D01*
X108213000Y1846000D01*
X108221000Y1790000D01*
X108224000Y1716000D01*
X108225000Y1621000D01*
X108226000Y1612000D01*
X108226000Y1388000D01*
X108087000Y1388000D01*
X108087000Y1594000D01*
X108087000Y1670000D01*
X108087000Y1726000D01*
X108085000Y1764000D01*
X108081000Y1790000D01*
X108075000Y1807000D01*
X108067000Y1820000D01*
X108054000Y1833000D01*
X108011000Y1861000D01*
X107965000Y1866000D01*
X107920000Y1848000D01*
X107905000Y1835000D01*
X107893000Y1823000D01*
X107885000Y1810000D01*
X107880000Y1792000D01*
X107876000Y1765000D01*
X107874000Y1724000D01*
X107874000Y1667000D01*
X107874000Y1596000D01*
X107874000Y1388000D01*
X107735000Y1388000D01*
X107735000Y1992000D01*
X107805000Y1992000D01*
X107846000Y1990000D01*
X107867000Y1984000D01*
X107874000Y1973000D01*
X107877000Y1962000D01*
X107889000Y1963000D01*
X107915000Y1975000D01*
X107972000Y1993000D01*
X108037000Y1995000D01*
X108100000Y1981000D01*
G36*
X108100000Y1981000D02*
G01*
X108132000Y1967000D01*
X108162000Y1945000D01*
X108185000Y1920000D01*
X108202000Y1888000D01*
X108213000Y1846000D01*
X108221000Y1790000D01*
X108224000Y1716000D01*
X108225000Y1621000D01*
X108226000Y1612000D01*
X108226000Y1388000D01*
X108087000Y1388000D01*
X108087000Y1594000D01*
X108087000Y1670000D01*
X108087000Y1726000D01*
X108085000Y1764000D01*
X108081000Y1790000D01*
X108075000Y1807000D01*
X108067000Y1820000D01*
X108054000Y1833000D01*
X108011000Y1861000D01*
X107965000Y1866000D01*
X107920000Y1848000D01*
X107905000Y1835000D01*
X107893000Y1823000D01*
X107885000Y1810000D01*
X107880000Y1792000D01*
X107876000Y1765000D01*
X107874000Y1724000D01*
X107874000Y1667000D01*
X107874000Y1596000D01*
X107874000Y1388000D01*
X107735000Y1388000D01*
X107735000Y1992000D01*
X107805000Y1992000D01*
X107846000Y1990000D01*
X107867000Y1984000D01*
X107874000Y1973000D01*
X107877000Y1962000D01*
X107889000Y1963000D01*
X107915000Y1975000D01*
X107972000Y1993000D01*
X108037000Y1995000D01*
X108100000Y1981000D01*
G37*
X111072000Y1987000D02*
X111145000Y1956000D01*
X111168000Y1941000D01*
X111197000Y1917000D01*
X111215000Y1899000D01*
X111218000Y1893000D01*
X111209000Y1880000D01*
X111186000Y1858000D01*
X111168000Y1842000D01*
X111117000Y1802000D01*
X111077000Y1835000D01*
X111046000Y1857000D01*
X111016000Y1864000D01*
X110982000Y1863000D01*
X110927000Y1849000D01*
X110889000Y1821000D01*
X110866000Y1775000D01*
X110856000Y1709000D01*
X110857000Y1636000D01*
X110871000Y1582000D01*
X110899000Y1545000D01*
X110918000Y1532000D01*
X110968000Y1517000D01*
X111022000Y1517000D01*
X111069000Y1532000D01*
X111080000Y1539000D01*
X111108000Y1558000D01*
X111130000Y1561000D01*
X111153000Y1547000D01*
X111179000Y1522000D01*
X111220000Y1480000D01*
X111175000Y1442000D01*
X111104000Y1400000D01*
X111025000Y1379000D01*
X110942000Y1380000D01*
X110887000Y1394000D01*
X110823000Y1428000D01*
X110773000Y1482000D01*
X110749000Y1520000D01*
X110731000Y1575000D01*
X110721000Y1644000D01*
X110721000Y1719000D01*
X110730000Y1791000D01*
X110749000Y1851000D01*
X110752000Y1858000D01*
X110794000Y1918000D01*
X110852000Y1962000D01*
X110921000Y1989000D01*
X110996000Y1997000D01*
X111072000Y1987000D01*
G36*
X111072000Y1987000D02*
G01*
X111145000Y1956000D01*
X111168000Y1941000D01*
X111197000Y1917000D01*
X111215000Y1899000D01*
X111218000Y1893000D01*
X111209000Y1880000D01*
X111186000Y1858000D01*
X111168000Y1842000D01*
X111117000Y1802000D01*
X111077000Y1835000D01*
X111046000Y1857000D01*
X111016000Y1864000D01*
X110982000Y1863000D01*
X110927000Y1849000D01*
X110889000Y1821000D01*
X110866000Y1775000D01*
X110856000Y1709000D01*
X110857000Y1636000D01*
X110871000Y1582000D01*
X110899000Y1545000D01*
X110918000Y1532000D01*
X110968000Y1517000D01*
X111022000Y1517000D01*
X111069000Y1532000D01*
X111080000Y1539000D01*
X111108000Y1558000D01*
X111130000Y1561000D01*
X111153000Y1547000D01*
X111179000Y1522000D01*
X111220000Y1480000D01*
X111175000Y1442000D01*
X111104000Y1400000D01*
X111025000Y1379000D01*
X110942000Y1380000D01*
X110887000Y1394000D01*
X110823000Y1428000D01*
X110773000Y1482000D01*
X110749000Y1520000D01*
X110731000Y1575000D01*
X110721000Y1644000D01*
X110721000Y1719000D01*
X110730000Y1791000D01*
X110749000Y1851000D01*
X110752000Y1858000D01*
X110794000Y1918000D01*
X110852000Y1962000D01*
X110921000Y1989000D01*
X110996000Y1997000D01*
X111072000Y1987000D01*
G37*
X109465000Y1984000D02*
X109529000Y1950000D01*
X109579000Y1895000D01*
X109602000Y1851000D01*
X109612000Y1811000D01*
X109619000Y1755000D01*
X109621000Y1691000D01*
X109620000Y1626000D01*
X109615000Y1569000D01*
X109609000Y1539000D01*
X109589000Y1497000D01*
X109553000Y1453000D01*
X109510000Y1414000D01*
X109468000Y1389000D01*
X109467000Y1389000D01*
X109414000Y1378000D01*
X109352000Y1378000D01*
X109292000Y1388000D01*
X109270000Y1396000D01*
X109211000Y1429000D01*
X109168000Y1473000D01*
X109141000Y1531000D01*
X109125000Y1607000D01*
X109122000Y1647000D01*
X109122000Y1697000D01*
X109122375Y1718000D01*
X109257000Y1718000D01*
X109257000Y1697000D01*
X109261000Y1624000D01*
X109274000Y1568000D01*
X109295000Y1533000D01*
X109310000Y1522000D01*
X109348000Y1515000D01*
X109393000Y1517000D01*
X109432000Y1528000D01*
X109442000Y1533000D01*
X109469000Y1566000D01*
X109487000Y1616000D01*
X109495000Y1677000D01*
X109491000Y1742000D01*
X109483000Y1781000D01*
X109459000Y1827000D01*
X109421000Y1855000D01*
X109376000Y1865000D01*
X109330000Y1855000D01*
X109294000Y1829000D01*
X109275000Y1809000D01*
X109264000Y1788000D01*
X109259000Y1760000D01*
X109257000Y1718000D01*
X109122375Y1718000D01*
X109123000Y1753000D01*
X109140000Y1840000D01*
X109174000Y1908000D01*
X109224000Y1957000D01*
X109290000Y1987000D01*
X109304000Y1990000D01*
X109390000Y1998000D01*
X109465000Y1984000D01*
G36*
X109465000Y1984000D02*
G01*
X109529000Y1950000D01*
X109579000Y1895000D01*
X109602000Y1851000D01*
X109612000Y1811000D01*
X109619000Y1755000D01*
X109621000Y1691000D01*
X109620000Y1626000D01*
X109615000Y1569000D01*
X109609000Y1539000D01*
X109589000Y1497000D01*
X109553000Y1453000D01*
X109510000Y1414000D01*
X109468000Y1389000D01*
X109467000Y1389000D01*
X109414000Y1378000D01*
X109352000Y1378000D01*
X109292000Y1388000D01*
X109270000Y1396000D01*
X109211000Y1429000D01*
X109168000Y1473000D01*
X109141000Y1531000D01*
X109125000Y1607000D01*
X109122000Y1647000D01*
X109122000Y1697000D01*
X109122375Y1718000D01*
X109257000Y1718000D01*
X109257000Y1697000D01*
X109261000Y1624000D01*
X109274000Y1568000D01*
X109295000Y1533000D01*
X109310000Y1522000D01*
X109348000Y1515000D01*
X109393000Y1517000D01*
X109432000Y1528000D01*
X109442000Y1533000D01*
X109469000Y1566000D01*
X109487000Y1616000D01*
X109495000Y1677000D01*
X109491000Y1742000D01*
X109483000Y1781000D01*
X109459000Y1827000D01*
X109421000Y1855000D01*
X109376000Y1865000D01*
X109330000Y1855000D01*
X109294000Y1829000D01*
X109275000Y1809000D01*
X109264000Y1788000D01*
X109259000Y1760000D01*
X109257000Y1718000D01*
X109122375Y1718000D01*
X109123000Y1753000D01*
X109140000Y1840000D01*
X109174000Y1908000D01*
X109224000Y1957000D01*
X109290000Y1987000D01*
X109304000Y1990000D01*
X109390000Y1998000D01*
X109465000Y1984000D01*
G37*
X109136000Y1046000D02*
X109186000Y1043000D01*
X109316000Y653000D01*
X109336000Y722000D01*
X109348000Y765000D01*
X109365000Y822000D01*
X109382000Y886000D01*
X109391000Y920000D01*
X109426000Y1049000D01*
X109569000Y1049000D01*
X109526000Y914000D01*
X109505000Y847000D01*
X109480000Y767000D01*
X109453000Y683000D01*
X109429000Y609000D01*
X109375000Y439000D01*
X109317000Y435000D01*
X109259000Y431000D01*
X109227000Y536000D01*
X109208000Y601000D01*
X109186000Y672000D01*
X109168000Y735000D01*
X109167000Y738000D01*
X109153000Y781000D01*
X109141000Y810000D01*
X109132000Y821000D01*
X109131000Y819000D01*
X109124000Y802000D01*
X109113000Y766000D01*
X109097000Y714000D01*
X109078000Y652000D01*
X109068000Y618000D01*
X109014000Y433000D01*
X108898000Y433000D01*
X108805000Y725000D01*
X108779000Y807000D01*
X108756000Y882000D01*
X108735000Y945000D01*
X108720000Y994000D01*
X108710000Y1025000D01*
X108707000Y1034000D01*
X108709000Y1043000D01*
X108728000Y1047000D01*
X108767000Y1047000D01*
X108773000Y1046000D01*
X108847000Y1043000D01*
X108894000Y866000D01*
X108912000Y802000D01*
X108928000Y746000D01*
X108940000Y702000D01*
X108948000Y676000D01*
X108950000Y672000D01*
X108956000Y677000D01*
X108968000Y702000D01*
X108984000Y745000D01*
X109005000Y801000D01*
X109022000Y851000D01*
X109086000Y1050000D01*
X109136000Y1046000D01*
G36*
X109136000Y1046000D02*
G01*
X109186000Y1043000D01*
X109316000Y653000D01*
X109336000Y722000D01*
X109348000Y765000D01*
X109365000Y822000D01*
X109382000Y886000D01*
X109391000Y920000D01*
X109426000Y1049000D01*
X109569000Y1049000D01*
X109526000Y914000D01*
X109505000Y847000D01*
X109480000Y767000D01*
X109453000Y683000D01*
X109429000Y609000D01*
X109375000Y439000D01*
X109317000Y435000D01*
X109259000Y431000D01*
X109227000Y536000D01*
X109208000Y601000D01*
X109186000Y672000D01*
X109168000Y735000D01*
X109167000Y738000D01*
X109153000Y781000D01*
X109141000Y810000D01*
X109132000Y821000D01*
X109131000Y819000D01*
X109124000Y802000D01*
X109113000Y766000D01*
X109097000Y714000D01*
X109078000Y652000D01*
X109068000Y618000D01*
X109014000Y433000D01*
X108898000Y433000D01*
X108805000Y725000D01*
X108779000Y807000D01*
X108756000Y882000D01*
X108735000Y945000D01*
X108720000Y994000D01*
X108710000Y1025000D01*
X108707000Y1034000D01*
X108709000Y1043000D01*
X108728000Y1047000D01*
X108767000Y1047000D01*
X108773000Y1046000D01*
X108847000Y1043000D01*
X108894000Y866000D01*
X108912000Y802000D01*
X108928000Y746000D01*
X108940000Y702000D01*
X108948000Y676000D01*
X108950000Y672000D01*
X108956000Y677000D01*
X108968000Y702000D01*
X108984000Y745000D01*
X109005000Y801000D01*
X109022000Y851000D01*
X109086000Y1050000D01*
X109136000Y1046000D01*
G37*
X106316000Y1985000D02*
X106382000Y1956000D01*
X106432000Y1908000D01*
X106466000Y1840000D01*
X106485000Y1752000D01*
X106486000Y1738000D01*
X106487000Y1642000D01*
X106474000Y1557000D01*
X106446000Y1488000D01*
X106432000Y1466000D01*
X106381000Y1419000D01*
X106317000Y1389000D01*
X106245000Y1377000D01*
X106171000Y1383000D01*
X106115000Y1403000D01*
X106067000Y1436000D01*
X106028000Y1479000D01*
X106027000Y1480000D01*
X106011000Y1507000D01*
X106001000Y1534000D01*
X105995000Y1568000D01*
X105991000Y1616000D01*
X105990000Y1656000D01*
X105989000Y1691000D01*
X106115000Y1691000D01*
X106116000Y1656000D01*
X106120000Y1608000D01*
X106128000Y1578000D01*
X106142000Y1556000D01*
X106156000Y1544000D01*
X106203000Y1517000D01*
X106252000Y1514000D01*
X106298000Y1533000D01*
X106321000Y1554000D01*
X106337000Y1576000D01*
X106347000Y1596000D01*
X106351000Y1623000D01*
X106352000Y1663000D01*
X106350000Y1700000D01*
X106347000Y1753000D01*
X106343000Y1787000D01*
X106335000Y1809000D01*
X106321000Y1826000D01*
X106311000Y1836000D01*
X106266000Y1861000D01*
X106217000Y1863000D01*
X106177000Y1848000D01*
X106142000Y1816000D01*
X106121000Y1764000D01*
X106115000Y1691000D01*
X105989000Y1691000D01*
X105988000Y1734000D01*
X105991000Y1792000D01*
X105998000Y1836000D01*
X106012000Y1871000D01*
X106033000Y1902000D01*
X106040000Y1911000D01*
X106089000Y1956000D01*
X106140000Y1983000D01*
X106204000Y1994000D01*
X106235000Y1995000D01*
X106316000Y1985000D01*
G36*
X106316000Y1985000D02*
G01*
X106382000Y1956000D01*
X106432000Y1908000D01*
X106466000Y1840000D01*
X106485000Y1752000D01*
X106486000Y1738000D01*
X106487000Y1642000D01*
X106474000Y1557000D01*
X106446000Y1488000D01*
X106432000Y1466000D01*
X106381000Y1419000D01*
X106317000Y1389000D01*
X106245000Y1377000D01*
X106171000Y1383000D01*
X106115000Y1403000D01*
X106067000Y1436000D01*
X106028000Y1479000D01*
X106027000Y1480000D01*
X106011000Y1507000D01*
X106001000Y1534000D01*
X105995000Y1568000D01*
X105991000Y1616000D01*
X105990000Y1656000D01*
X105989000Y1691000D01*
X106115000Y1691000D01*
X106116000Y1656000D01*
X106120000Y1608000D01*
X106128000Y1578000D01*
X106142000Y1556000D01*
X106156000Y1544000D01*
X106203000Y1517000D01*
X106252000Y1514000D01*
X106298000Y1533000D01*
X106321000Y1554000D01*
X106337000Y1576000D01*
X106347000Y1596000D01*
X106351000Y1623000D01*
X106352000Y1663000D01*
X106350000Y1700000D01*
X106347000Y1753000D01*
X106343000Y1787000D01*
X106335000Y1809000D01*
X106321000Y1826000D01*
X106311000Y1836000D01*
X106266000Y1861000D01*
X106217000Y1863000D01*
X106177000Y1848000D01*
X106142000Y1816000D01*
X106121000Y1764000D01*
X106115000Y1691000D01*
X105989000Y1691000D01*
X105988000Y1734000D01*
X105991000Y1792000D01*
X105998000Y1836000D01*
X106012000Y1871000D01*
X106033000Y1902000D01*
X106040000Y1911000D01*
X106089000Y1956000D01*
X106140000Y1983000D01*
X106204000Y1994000D01*
X106235000Y1995000D01*
X106316000Y1985000D01*
G37*
X108653000Y433000D02*
X108584000Y433000D01*
X108544000Y434000D01*
X108523000Y439000D01*
X108516000Y449000D01*
X108515000Y456000D01*
X108514000Y471000D01*
X108506000Y474000D01*
X108485000Y465000D01*
X108468000Y456000D01*
X108406000Y437000D01*
X108337000Y436000D01*
X108282000Y450000D01*
X108230000Y486000D01*
X108191000Y538000D01*
X108169000Y599000D01*
X108169000Y602000D01*
X108165000Y640000D01*
X108164000Y694000D01*
X108164000Y734000D01*
X108301000Y734000D01*
X108304000Y680000D01*
X108312000Y636000D01*
X108321000Y611000D01*
X108359000Y576000D01*
X108403000Y564000D01*
X108448000Y574000D01*
X108487000Y604000D01*
X108501000Y624000D01*
X108510000Y647000D01*
X108514000Y682000D01*
X108515000Y735000D01*
X108513000Y786000D01*
X108509000Y832000D01*
X108502000Y862000D01*
X108501000Y865000D01*
X108474000Y898000D01*
X108435000Y915000D01*
X108391000Y918000D01*
X108350000Y906000D01*
X108320000Y878000D01*
X108317000Y872000D01*
X108308000Y838000D01*
X108302000Y790000D01*
X108301000Y734000D01*
X108164000Y734000D01*
X108164000Y755000D01*
X108165000Y788000D01*
X108171000Y870000D01*
X108184000Y931000D01*
X108205000Y976000D01*
X108237000Y1010000D01*
X108267000Y1029000D01*
X108310000Y1043000D01*
X108363000Y1048000D01*
X108418000Y1044000D01*
X108465000Y1032000D01*
X108489000Y1018000D01*
X108515000Y995000D01*
X108515000Y1288000D01*
X108653000Y1288000D01*
X108653000Y433000D01*
G36*
X108653000Y433000D02*
G01*
X108584000Y433000D01*
X108544000Y434000D01*
X108523000Y439000D01*
X108516000Y449000D01*
X108515000Y456000D01*
X108514000Y471000D01*
X108506000Y474000D01*
X108485000Y465000D01*
X108468000Y456000D01*
X108406000Y437000D01*
X108337000Y436000D01*
X108282000Y450000D01*
X108230000Y486000D01*
X108191000Y538000D01*
X108169000Y599000D01*
X108169000Y602000D01*
X108165000Y640000D01*
X108164000Y694000D01*
X108164000Y734000D01*
X108301000Y734000D01*
X108304000Y680000D01*
X108312000Y636000D01*
X108321000Y611000D01*
X108359000Y576000D01*
X108403000Y564000D01*
X108448000Y574000D01*
X108487000Y604000D01*
X108501000Y624000D01*
X108510000Y647000D01*
X108514000Y682000D01*
X108515000Y735000D01*
X108513000Y786000D01*
X108509000Y832000D01*
X108502000Y862000D01*
X108501000Y865000D01*
X108474000Y898000D01*
X108435000Y915000D01*
X108391000Y918000D01*
X108350000Y906000D01*
X108320000Y878000D01*
X108317000Y872000D01*
X108308000Y838000D01*
X108302000Y790000D01*
X108301000Y734000D01*
X108164000Y734000D01*
X108164000Y755000D01*
X108165000Y788000D01*
X108171000Y870000D01*
X108184000Y931000D01*
X108205000Y976000D01*
X108237000Y1010000D01*
X108267000Y1029000D01*
X108310000Y1043000D01*
X108363000Y1048000D01*
X108418000Y1044000D01*
X108465000Y1032000D01*
X108489000Y1018000D01*
X108515000Y995000D01*
X108515000Y1288000D01*
X108653000Y1288000D01*
X108653000Y433000D01*
G37*
X111532000Y1994000D02*
X111565000Y1986000D01*
X111626000Y1958000D01*
X111679000Y1914000D01*
X111716000Y1861000D01*
X111721000Y1850000D01*
X111728000Y1819000D01*
X111732000Y1773000D01*
X111734000Y1727000D01*
X111734000Y1640000D01*
X111552000Y1640000D01*
X111476000Y1640000D01*
X111424000Y1638000D01*
X111390000Y1633000D01*
X111373000Y1625000D01*
X111369000Y1611000D01*
X111375000Y1590000D01*
X111387000Y1566000D01*
X111421000Y1526000D01*
X111467000Y1506000D01*
X111523000Y1507000D01*
X111588000Y1528000D01*
X111643000Y1555000D01*
X111689000Y1519000D01*
X111735000Y1483000D01*
X111692000Y1443000D01*
X111634000Y1405000D01*
X111563000Y1382000D01*
X111487000Y1376000D01*
X111413000Y1387000D01*
X111401000Y1391000D01*
X111336000Y1425000D01*
X111288000Y1476000D01*
X111255000Y1544000D01*
X111237000Y1632000D01*
X111237000Y1634000D01*
X111235000Y1731000D01*
X111242000Y1765000D01*
X111369000Y1765000D01*
X111381000Y1760000D01*
X111413000Y1756000D01*
X111460000Y1753000D01*
X111490000Y1753000D01*
X111545000Y1753000D01*
X111580000Y1755000D01*
X111598000Y1758000D01*
X111604000Y1765000D01*
X111603000Y1777000D01*
X111601000Y1781000D01*
X111579000Y1823000D01*
X111544000Y1857000D01*
X111512000Y1872000D01*
X111471000Y1871000D01*
X111429000Y1852000D01*
X111394000Y1822000D01*
X111372000Y1784000D01*
X111369000Y1765000D01*
X111242000Y1765000D01*
X111251000Y1815000D01*
X111283000Y1886000D01*
X111329000Y1942000D01*
X111387000Y1979000D01*
X111456000Y1998000D01*
X111532000Y1994000D01*
G36*
X111532000Y1994000D02*
G01*
X111565000Y1986000D01*
X111626000Y1958000D01*
X111679000Y1914000D01*
X111716000Y1861000D01*
X111721000Y1850000D01*
X111728000Y1819000D01*
X111732000Y1773000D01*
X111734000Y1727000D01*
X111734000Y1640000D01*
X111552000Y1640000D01*
X111476000Y1640000D01*
X111424000Y1638000D01*
X111390000Y1633000D01*
X111373000Y1625000D01*
X111369000Y1611000D01*
X111375000Y1590000D01*
X111387000Y1566000D01*
X111421000Y1526000D01*
X111467000Y1506000D01*
X111523000Y1507000D01*
X111588000Y1528000D01*
X111643000Y1555000D01*
X111689000Y1519000D01*
X111735000Y1483000D01*
X111692000Y1443000D01*
X111634000Y1405000D01*
X111563000Y1382000D01*
X111487000Y1376000D01*
X111413000Y1387000D01*
X111401000Y1391000D01*
X111336000Y1425000D01*
X111288000Y1476000D01*
X111255000Y1544000D01*
X111237000Y1632000D01*
X111237000Y1634000D01*
X111235000Y1731000D01*
X111242000Y1765000D01*
X111369000Y1765000D01*
X111381000Y1760000D01*
X111413000Y1756000D01*
X111460000Y1753000D01*
X111490000Y1753000D01*
X111545000Y1753000D01*
X111580000Y1755000D01*
X111598000Y1758000D01*
X111604000Y1765000D01*
X111603000Y1777000D01*
X111601000Y1781000D01*
X111579000Y1823000D01*
X111544000Y1857000D01*
X111512000Y1872000D01*
X111471000Y1871000D01*
X111429000Y1852000D01*
X111394000Y1822000D01*
X111372000Y1784000D01*
X111369000Y1765000D01*
X111242000Y1765000D01*
X111251000Y1815000D01*
X111283000Y1886000D01*
X111329000Y1942000D01*
X111387000Y1979000D01*
X111456000Y1998000D01*
X111532000Y1994000D01*
G37*
X108869000Y1994000D02*
X108916000Y1985000D01*
X108966000Y1966000D01*
X108971000Y1964000D01*
X109008000Y1944000D01*
X109034000Y1926000D01*
X109043000Y1914000D01*
X109035000Y1895000D01*
X109015000Y1867000D01*
X109007000Y1856000D01*
X108971000Y1815000D01*
X108925000Y1842000D01*
X108882000Y1860000D01*
X108832000Y1869000D01*
X108783000Y1870000D01*
X108746000Y1861000D01*
X108737000Y1855000D01*
X108720000Y1829000D01*
X108718000Y1800000D01*
X108731000Y1776000D01*
X108738000Y1772000D01*
X108761000Y1766000D01*
X108801000Y1760000D01*
X108850000Y1753000D01*
X108859000Y1752000D01*
X108937000Y1739000D01*
X108995000Y1716000D01*
X109033000Y1681000D01*
X109054000Y1632000D01*
X109060000Y1573000D01*
X109051000Y1505000D01*
X109022000Y1452000D01*
X108972000Y1414000D01*
X108901000Y1389000D01*
X108823000Y1380000D01*
X108759000Y1380000D01*
X108708000Y1389000D01*
X108672000Y1401000D01*
X108628000Y1422000D01*
X108586000Y1446000D01*
X108572000Y1457000D01*
X108534000Y1487000D01*
X108579000Y1533000D01*
X108625000Y1579000D01*
X108677000Y1545000D01*
X108728000Y1520000D01*
X108784000Y1506000D01*
X108837000Y1505000D01*
X108883000Y1515000D01*
X108915000Y1537000D01*
X108925000Y1556000D01*
X108923000Y1585000D01*
X108898000Y1608000D01*
X108848000Y1624000D01*
X108794000Y1631000D01*
X108710000Y1645000D01*
X108648000Y1671000D01*
X108606000Y1710000D01*
X108584000Y1763000D01*
X108581000Y1825000D01*
X108596000Y1891000D01*
X108630000Y1940000D01*
X108683000Y1974000D01*
X108756000Y1992000D01*
X108809000Y1996000D01*
X108869000Y1994000D01*
G36*
X108869000Y1994000D02*
G01*
X108916000Y1985000D01*
X108966000Y1966000D01*
X108971000Y1964000D01*
X109008000Y1944000D01*
X109034000Y1926000D01*
X109043000Y1914000D01*
X109035000Y1895000D01*
X109015000Y1867000D01*
X109007000Y1856000D01*
X108971000Y1815000D01*
X108925000Y1842000D01*
X108882000Y1860000D01*
X108832000Y1869000D01*
X108783000Y1870000D01*
X108746000Y1861000D01*
X108737000Y1855000D01*
X108720000Y1829000D01*
X108718000Y1800000D01*
X108731000Y1776000D01*
X108738000Y1772000D01*
X108761000Y1766000D01*
X108801000Y1760000D01*
X108850000Y1753000D01*
X108859000Y1752000D01*
X108937000Y1739000D01*
X108995000Y1716000D01*
X109033000Y1681000D01*
X109054000Y1632000D01*
X109060000Y1573000D01*
X109051000Y1505000D01*
X109022000Y1452000D01*
X108972000Y1414000D01*
X108901000Y1389000D01*
X108823000Y1380000D01*
X108759000Y1380000D01*
X108708000Y1389000D01*
X108672000Y1401000D01*
X108628000Y1422000D01*
X108586000Y1446000D01*
X108572000Y1457000D01*
X108534000Y1487000D01*
X108579000Y1533000D01*
X108625000Y1579000D01*
X108677000Y1545000D01*
X108728000Y1520000D01*
X108784000Y1506000D01*
X108837000Y1505000D01*
X108883000Y1515000D01*
X108915000Y1537000D01*
X108925000Y1556000D01*
X108923000Y1585000D01*
X108898000Y1608000D01*
X108848000Y1624000D01*
X108794000Y1631000D01*
X108710000Y1645000D01*
X108648000Y1671000D01*
X108606000Y1710000D01*
X108584000Y1763000D01*
X108581000Y1825000D01*
X108596000Y1891000D01*
X108630000Y1940000D01*
X108683000Y1974000D01*
X108756000Y1992000D01*
X108809000Y1996000D01*
X108869000Y1994000D01*
G37*
X110887000Y1046000D02*
X110947000Y1030000D01*
X110998000Y998000D01*
X111022000Y974000D01*
X111062000Y917000D01*
X111085000Y851000D01*
X111093000Y769000D01*
X111093000Y763000D01*
X111093000Y697000D01*
X110713000Y697000D01*
X110721000Y662000D01*
X110735000Y631000D01*
X110761000Y598000D01*
X110766000Y593000D01*
X110812000Y565000D01*
X110865000Y560000D01*
X110925000Y579000D01*
X110936000Y584000D01*
X110967000Y599000D01*
X110988000Y607000D01*
X110992000Y608000D01*
X111004000Y600000D01*
X111029000Y581000D01*
X111041000Y571000D01*
X111067000Y547000D01*
X111075000Y531000D01*
X111070000Y517000D01*
X111066000Y513000D01*
X111045000Y496000D01*
X111010000Y475000D01*
X110986000Y462000D01*
X110917000Y441000D01*
X110840000Y434000D01*
X110767000Y442000D01*
X110747000Y448000D01*
X110684000Y482000D01*
X110637000Y533000D01*
X110607000Y604000D01*
X110592000Y694000D01*
X110590000Y741000D01*
X110595000Y809000D01*
X110715000Y809000D01*
X110727000Y804000D01*
X110758000Y800000D01*
X110804000Y798000D01*
X110835000Y797000D01*
X110890000Y798000D01*
X110926000Y800000D01*
X110945000Y804000D01*
X110953000Y811000D01*
X110954000Y822000D01*
X110944000Y856000D01*
X110916000Y890000D01*
X110881000Y915000D01*
X110845000Y926000D01*
X110797000Y916000D01*
X110755000Y889000D01*
X110725000Y851000D01*
X110715000Y809000D01*
X110595000Y809000D01*
X110597000Y840000D01*
X110619000Y920000D01*
X110655000Y979000D01*
X110707000Y1020000D01*
X110774000Y1042000D01*
X110811000Y1047000D01*
X110887000Y1046000D01*
G36*
X110887000Y1046000D02*
G01*
X110947000Y1030000D01*
X110998000Y998000D01*
X111022000Y974000D01*
X111062000Y917000D01*
X111085000Y851000D01*
X111093000Y769000D01*
X111093000Y763000D01*
X111093000Y697000D01*
X110713000Y697000D01*
X110721000Y662000D01*
X110735000Y631000D01*
X110761000Y598000D01*
X110766000Y593000D01*
X110812000Y565000D01*
X110865000Y560000D01*
X110925000Y579000D01*
X110936000Y584000D01*
X110967000Y599000D01*
X110988000Y607000D01*
X110992000Y608000D01*
X111004000Y600000D01*
X111029000Y581000D01*
X111041000Y571000D01*
X111067000Y547000D01*
X111075000Y531000D01*
X111070000Y517000D01*
X111066000Y513000D01*
X111045000Y496000D01*
X111010000Y475000D01*
X110986000Y462000D01*
X110917000Y441000D01*
X110840000Y434000D01*
X110767000Y442000D01*
X110747000Y448000D01*
X110684000Y482000D01*
X110637000Y533000D01*
X110607000Y604000D01*
X110592000Y694000D01*
X110590000Y741000D01*
X110595000Y809000D01*
X110715000Y809000D01*
X110727000Y804000D01*
X110758000Y800000D01*
X110804000Y798000D01*
X110835000Y797000D01*
X110890000Y798000D01*
X110926000Y800000D01*
X110945000Y804000D01*
X110953000Y811000D01*
X110954000Y822000D01*
X110944000Y856000D01*
X110916000Y890000D01*
X110881000Y915000D01*
X110845000Y926000D01*
X110797000Y916000D01*
X110755000Y889000D01*
X110725000Y851000D01*
X110715000Y809000D01*
X110595000Y809000D01*
X110597000Y840000D01*
X110619000Y920000D01*
X110655000Y979000D01*
X110707000Y1020000D01*
X110774000Y1042000D01*
X110811000Y1047000D01*
X110887000Y1046000D01*
G37*
X107498000Y1978000D02*
X107510000Y1972000D01*
X107554000Y1940000D01*
X107595000Y1894000D01*
X107625000Y1843000D01*
X107634000Y1819000D01*
X107642000Y1777000D01*
X107647000Y1727000D01*
X107647000Y1706000D01*
X107647000Y1640000D01*
X107267000Y1640000D01*
X107276000Y1605000D01*
X107295000Y1564000D01*
X107330000Y1529000D01*
X107372000Y1506000D01*
X107398000Y1501000D01*
X107434000Y1507000D01*
X107476000Y1522000D01*
X107491000Y1528000D01*
X107544000Y1555000D01*
X107590000Y1520000D01*
X107616000Y1497000D01*
X107630000Y1477000D01*
X107631000Y1471000D01*
X107619000Y1458000D01*
X107591000Y1436000D01*
X107566000Y1420000D01*
X107499000Y1391000D01*
X107423000Y1377000D01*
X107349000Y1381000D01*
X107289000Y1399000D01*
X107228000Y1438000D01*
X107184000Y1489000D01*
X107157000Y1555000D01*
X107144000Y1639000D01*
X107143000Y1678000D01*
X107147000Y1766000D01*
X107148000Y1768000D01*
X107274000Y1768000D01*
X107277000Y1760000D01*
X107292000Y1755000D01*
X107321000Y1753000D01*
X107370000Y1753000D01*
X107389000Y1753000D01*
X107446000Y1754000D01*
X107482000Y1756000D01*
X107502000Y1761000D01*
X107509000Y1769000D01*
X107509000Y1772000D01*
X107501000Y1792000D01*
X107481000Y1821000D01*
X107473000Y1831000D01*
X107441000Y1859000D01*
X107409000Y1870000D01*
X107391000Y1871000D01*
X107343000Y1860000D01*
X107303000Y1828000D01*
X107277000Y1783000D01*
X107277000Y1781000D01*
X107274000Y1768000D01*
X107148000Y1768000D01*
X107162000Y1835000D01*
X107188000Y1890000D01*
X107221000Y1930000D01*
X107280000Y1973000D01*
X107350000Y1995000D01*
X107425000Y1997000D01*
X107498000Y1978000D01*
G36*
X107498000Y1978000D02*
G01*
X107510000Y1972000D01*
X107554000Y1940000D01*
X107595000Y1894000D01*
X107625000Y1843000D01*
X107634000Y1819000D01*
X107642000Y1777000D01*
X107647000Y1727000D01*
X107647000Y1706000D01*
X107647000Y1640000D01*
X107267000Y1640000D01*
X107276000Y1605000D01*
X107295000Y1564000D01*
X107330000Y1529000D01*
X107372000Y1506000D01*
X107398000Y1501000D01*
X107434000Y1507000D01*
X107476000Y1522000D01*
X107491000Y1528000D01*
X107544000Y1555000D01*
X107590000Y1520000D01*
X107616000Y1497000D01*
X107630000Y1477000D01*
X107631000Y1471000D01*
X107619000Y1458000D01*
X107591000Y1436000D01*
X107566000Y1420000D01*
X107499000Y1391000D01*
X107423000Y1377000D01*
X107349000Y1381000D01*
X107289000Y1399000D01*
X107228000Y1438000D01*
X107184000Y1489000D01*
X107157000Y1555000D01*
X107144000Y1639000D01*
X107143000Y1678000D01*
X107147000Y1766000D01*
X107148000Y1768000D01*
X107274000Y1768000D01*
X107277000Y1760000D01*
X107292000Y1755000D01*
X107321000Y1753000D01*
X107370000Y1753000D01*
X107389000Y1753000D01*
X107446000Y1754000D01*
X107482000Y1756000D01*
X107502000Y1761000D01*
X107509000Y1769000D01*
X107509000Y1772000D01*
X107501000Y1792000D01*
X107481000Y1821000D01*
X107473000Y1831000D01*
X107441000Y1859000D01*
X107409000Y1870000D01*
X107391000Y1871000D01*
X107343000Y1860000D01*
X107303000Y1828000D01*
X107277000Y1783000D01*
X107277000Y1781000D01*
X107274000Y1768000D01*
X107148000Y1768000D01*
X107162000Y1835000D01*
X107188000Y1890000D01*
X107221000Y1930000D01*
X107280000Y1973000D01*
X107350000Y1995000D01*
X107425000Y1997000D01*
X107498000Y1978000D01*
G37*
X109893000Y1045000D02*
X109946000Y1032000D01*
X109961000Y1025000D01*
X109991000Y1008000D01*
X110014000Y987000D01*
X110031000Y962000D01*
X110042000Y926000D01*
X110050000Y879000D01*
X110055000Y815000D01*
X110058000Y731000D01*
X110059000Y675000D01*
X110064000Y433000D01*
X109993000Y433000D01*
X109951000Y434000D01*
X109929000Y441000D01*
X109923000Y451000D01*
X109920000Y462000D01*
X109907000Y460000D01*
X109889000Y451000D01*
X109843000Y437000D01*
X109785000Y434000D01*
X109723000Y440000D01*
X109668000Y455000D01*
X109663000Y457000D01*
X109613000Y492000D01*
X109580000Y541000D01*
X109565000Y598000D01*
X109566000Y619000D01*
X109690000Y619000D01*
X109701000Y591000D01*
X109733000Y571000D01*
X109785000Y561000D01*
X109813000Y559000D01*
X109860000Y563000D01*
X109891000Y577000D01*
X109898000Y584000D01*
X109919000Y620000D01*
X109923000Y653000D01*
X109923000Y697000D01*
X109862000Y697000D01*
X109791000Y693000D01*
X109741000Y682000D01*
X109709000Y662000D01*
X109702000Y653000D01*
X109690000Y619000D01*
X109566000Y619000D01*
X109568000Y658000D01*
X109591000Y715000D01*
X109622000Y754000D01*
X109641000Y771000D01*
X109659000Y782000D01*
X109683000Y788000D01*
X109718000Y792000D01*
X109771000Y795000D01*
X109792000Y795000D01*
X109923000Y800000D01*
X109923000Y839000D01*
X109918000Y881000D01*
X109900000Y906000D01*
X109863000Y922000D01*
X109862000Y923000D01*
X109809000Y929000D01*
X109757000Y921000D01*
X109719000Y901000D01*
X109704000Y891000D01*
X109687000Y892000D01*
X109662000Y907000D01*
X109647000Y917000D01*
X109618000Y938000D01*
X109599000Y955000D01*
X109597000Y959000D01*
X109609000Y983000D01*
X109644000Y1012000D01*
X109659000Y1022000D01*
X109703000Y1039000D01*
X109763000Y1048000D01*
X109829000Y1050000D01*
X109893000Y1045000D01*
G36*
X109893000Y1045000D02*
G01*
X109946000Y1032000D01*
X109961000Y1025000D01*
X109991000Y1008000D01*
X110014000Y987000D01*
X110031000Y962000D01*
X110042000Y926000D01*
X110050000Y879000D01*
X110055000Y815000D01*
X110058000Y731000D01*
X110059000Y675000D01*
X110064000Y433000D01*
X109993000Y433000D01*
X109951000Y434000D01*
X109929000Y441000D01*
X109923000Y451000D01*
X109920000Y462000D01*
X109907000Y460000D01*
X109889000Y451000D01*
X109843000Y437000D01*
X109785000Y434000D01*
X109723000Y440000D01*
X109668000Y455000D01*
X109663000Y457000D01*
X109613000Y492000D01*
X109580000Y541000D01*
X109565000Y598000D01*
X109566000Y619000D01*
X109690000Y619000D01*
X109701000Y591000D01*
X109733000Y571000D01*
X109785000Y561000D01*
X109813000Y559000D01*
X109860000Y563000D01*
X109891000Y577000D01*
X109898000Y584000D01*
X109919000Y620000D01*
X109923000Y653000D01*
X109923000Y697000D01*
X109862000Y697000D01*
X109791000Y693000D01*
X109741000Y682000D01*
X109709000Y662000D01*
X109702000Y653000D01*
X109690000Y619000D01*
X109566000Y619000D01*
X109568000Y658000D01*
X109591000Y715000D01*
X109622000Y754000D01*
X109641000Y771000D01*
X109659000Y782000D01*
X109683000Y788000D01*
X109718000Y792000D01*
X109771000Y795000D01*
X109792000Y795000D01*
X109923000Y800000D01*
X109923000Y839000D01*
X109918000Y881000D01*
X109900000Y906000D01*
X109863000Y922000D01*
X109862000Y923000D01*
X109809000Y929000D01*
X109757000Y921000D01*
X109719000Y901000D01*
X109704000Y891000D01*
X109687000Y892000D01*
X109662000Y907000D01*
X109647000Y917000D01*
X109618000Y938000D01*
X109599000Y955000D01*
X109597000Y959000D01*
X109609000Y983000D01*
X109644000Y1012000D01*
X109659000Y1022000D01*
X109703000Y1039000D01*
X109763000Y1048000D01*
X109829000Y1050000D01*
X109893000Y1045000D01*
G37*
X107470000Y1044000D02*
X107529000Y1028000D01*
X107574000Y1000000D01*
X107606000Y962000D01*
X107616000Y946000D01*
X107623000Y929000D01*
X107629000Y908000D01*
X107632000Y878000D01*
X107634000Y835000D01*
X107635000Y776000D01*
X107635000Y697000D01*
X107635000Y676000D01*
X107635000Y433000D01*
X107574000Y433000D01*
X107536000Y435000D01*
X107507000Y442000D01*
X107500000Y446000D01*
X107481000Y454000D01*
X107461000Y446000D01*
X107428000Y437000D01*
X107381000Y434000D01*
X107328000Y435000D01*
X107279000Y442000D01*
X107251000Y450000D01*
X107197000Y485000D01*
X107163000Y534000D01*
X107147000Y599000D01*
X107147000Y600000D01*
X107149000Y629000D01*
X107270000Y629000D01*
X107281000Y596000D01*
X107298000Y578000D01*
X107333000Y564000D01*
X107379000Y559000D01*
X107426000Y561000D01*
X107463000Y572000D01*
X107473000Y579000D01*
X107492000Y612000D01*
X107496000Y648000D01*
X107496000Y697000D01*
X107427000Y697000D01*
X107361000Y692000D01*
X107311000Y677000D01*
X107280000Y655000D01*
X107270000Y629000D01*
X107149000Y629000D01*
X107151000Y671000D01*
X107174000Y727000D01*
X107218000Y769000D01*
X107224000Y773000D01*
X107250000Y785000D01*
X107282000Y793000D01*
X107327000Y796000D01*
X107380000Y797000D01*
X107496000Y797000D01*
X107496000Y846000D01*
X107492000Y884000D01*
X107479000Y909000D01*
X107477000Y911000D01*
X107449000Y922000D01*
X107407000Y926000D01*
X107360000Y924000D01*
X107319000Y916000D01*
X107295000Y904000D01*
X107281000Y894000D01*
X107267000Y892000D01*
X107248000Y900000D01*
X107219000Y920000D01*
X107175000Y953000D01*
X107171000Y957000D01*
X107173000Y968000D01*
X107190000Y988000D01*
X107216000Y1009000D01*
X107245000Y1027000D01*
X107254000Y1032000D01*
X107287000Y1040000D01*
X107336000Y1046000D01*
X107390000Y1049000D01*
X107392000Y1049000D01*
X107470000Y1044000D01*
G36*
X107470000Y1044000D02*
G01*
X107529000Y1028000D01*
X107574000Y1000000D01*
X107606000Y962000D01*
X107616000Y946000D01*
X107623000Y929000D01*
X107629000Y908000D01*
X107632000Y878000D01*
X107634000Y835000D01*
X107635000Y776000D01*
X107635000Y697000D01*
X107635000Y676000D01*
X107635000Y433000D01*
X107574000Y433000D01*
X107536000Y435000D01*
X107507000Y442000D01*
X107500000Y446000D01*
X107481000Y454000D01*
X107461000Y446000D01*
X107428000Y437000D01*
X107381000Y434000D01*
X107328000Y435000D01*
X107279000Y442000D01*
X107251000Y450000D01*
X107197000Y485000D01*
X107163000Y534000D01*
X107147000Y599000D01*
X107147000Y600000D01*
X107149000Y629000D01*
X107270000Y629000D01*
X107281000Y596000D01*
X107298000Y578000D01*
X107333000Y564000D01*
X107379000Y559000D01*
X107426000Y561000D01*
X107463000Y572000D01*
X107473000Y579000D01*
X107492000Y612000D01*
X107496000Y648000D01*
X107496000Y697000D01*
X107427000Y697000D01*
X107361000Y692000D01*
X107311000Y677000D01*
X107280000Y655000D01*
X107270000Y629000D01*
X107149000Y629000D01*
X107151000Y671000D01*
X107174000Y727000D01*
X107218000Y769000D01*
X107224000Y773000D01*
X107250000Y785000D01*
X107282000Y793000D01*
X107327000Y796000D01*
X107380000Y797000D01*
X107496000Y797000D01*
X107496000Y846000D01*
X107492000Y884000D01*
X107479000Y909000D01*
X107477000Y911000D01*
X107449000Y922000D01*
X107407000Y926000D01*
X107360000Y924000D01*
X107319000Y916000D01*
X107295000Y904000D01*
X107281000Y894000D01*
X107267000Y892000D01*
X107248000Y900000D01*
X107219000Y920000D01*
X107175000Y953000D01*
X107171000Y957000D01*
X107173000Y968000D01*
X107190000Y988000D01*
X107216000Y1009000D01*
X107245000Y1027000D01*
X107254000Y1032000D01*
X107287000Y1040000D01*
X107336000Y1046000D01*
X107390000Y1049000D01*
X107392000Y1049000D01*
X107470000Y1044000D01*
G37*
X106946000Y1981000D02*
X106972000Y1968000D01*
X107005000Y1945000D01*
X107029000Y1921000D01*
X107045000Y1889000D01*
X107055000Y1847000D01*
X107061000Y1790000D01*
X107063000Y1714000D01*
X107063000Y1682000D01*
X107062000Y1610000D01*
X107061000Y1559000D01*
X107058000Y1523000D01*
X107053000Y1499000D01*
X107045000Y1481000D01*
X107037000Y1469000D01*
X106984000Y1417000D01*
X106923000Y1385000D01*
X106856000Y1376000D01*
X106789000Y1390000D01*
X106768000Y1399000D01*
X106717000Y1426000D01*
X106717000Y1010000D01*
X106754000Y1030000D01*
X106803000Y1044000D01*
X106863000Y1048000D01*
X106923000Y1041000D01*
X106968000Y1025000D01*
X107006000Y995000D01*
X107038000Y952000D01*
X107040000Y948000D01*
X107051000Y927000D01*
X107058000Y906000D01*
X107063000Y881000D01*
X107066000Y847000D01*
X107068000Y800000D01*
X107069000Y736000D01*
X107069000Y663000D01*
X107069000Y433000D01*
X106931000Y433000D01*
X106931000Y858000D01*
X106892000Y891000D01*
X106852000Y917000D01*
X106814000Y921000D01*
X106775000Y909000D01*
X106755000Y897000D01*
X106740000Y880000D01*
X106729000Y855000D01*
X106722000Y817000D01*
X106717000Y763000D01*
X106715000Y689000D01*
X106714000Y640000D01*
X106711000Y439000D01*
X106645000Y435000D01*
X106579000Y431000D01*
X106579000Y1680000D01*
X106717000Y1680000D01*
X106720000Y1610000D01*
X106732000Y1562000D01*
X106754000Y1532000D01*
X106789000Y1517000D01*
X106824000Y1514000D01*
X106863000Y1517000D01*
X106889000Y1531000D01*
X106906000Y1549000D01*
X106919000Y1568000D01*
X106926000Y1589000D01*
X106930000Y1619000D01*
X106930000Y1663000D01*
X106929000Y1701000D01*
X106926000Y1757000D01*
X106922000Y1794000D01*
X106915000Y1817000D01*
X106905000Y1833000D01*
X106895000Y1842000D01*
X106853000Y1862000D01*
X106803000Y1865000D01*
X106774000Y1858000D01*
X106746000Y1834000D01*
X106727000Y1787000D01*
X106718000Y1717000D01*
X106717000Y1680000D01*
X106579000Y1680000D01*
X106579000Y1992000D01*
X106648000Y1992000D01*
X106689000Y1990000D01*
X106711000Y1984000D01*
X106717000Y1973000D01*
X106720000Y1962000D01*
X106732000Y1963000D01*
X106758000Y1975000D01*
X106817000Y1994000D01*
X106883000Y1996000D01*
X106946000Y1981000D01*
G36*
X106946000Y1981000D02*
G01*
X106972000Y1968000D01*
X107005000Y1945000D01*
X107029000Y1921000D01*
X107045000Y1889000D01*
X107055000Y1847000D01*
X107061000Y1790000D01*
X107063000Y1714000D01*
X107063000Y1682000D01*
X107062000Y1610000D01*
X107061000Y1559000D01*
X107058000Y1523000D01*
X107053000Y1499000D01*
X107045000Y1481000D01*
X107037000Y1469000D01*
X106984000Y1417000D01*
X106923000Y1385000D01*
X106856000Y1376000D01*
X106789000Y1390000D01*
X106768000Y1399000D01*
X106717000Y1426000D01*
X106717000Y1010000D01*
X106754000Y1030000D01*
X106803000Y1044000D01*
X106863000Y1048000D01*
X106923000Y1041000D01*
X106968000Y1025000D01*
X107006000Y995000D01*
X107038000Y952000D01*
X107040000Y948000D01*
X107051000Y927000D01*
X107058000Y906000D01*
X107063000Y881000D01*
X107066000Y847000D01*
X107068000Y800000D01*
X107069000Y736000D01*
X107069000Y663000D01*
X107069000Y433000D01*
X106931000Y433000D01*
X106931000Y858000D01*
X106892000Y891000D01*
X106852000Y917000D01*
X106814000Y921000D01*
X106775000Y909000D01*
X106755000Y897000D01*
X106740000Y880000D01*
X106729000Y855000D01*
X106722000Y817000D01*
X106717000Y763000D01*
X106715000Y689000D01*
X106714000Y640000D01*
X106711000Y439000D01*
X106645000Y435000D01*
X106579000Y431000D01*
X106579000Y1680000D01*
X106717000Y1680000D01*
X106720000Y1610000D01*
X106732000Y1562000D01*
X106754000Y1532000D01*
X106789000Y1517000D01*
X106824000Y1514000D01*
X106863000Y1517000D01*
X106889000Y1531000D01*
X106906000Y1549000D01*
X106919000Y1568000D01*
X106926000Y1589000D01*
X106930000Y1619000D01*
X106930000Y1663000D01*
X106929000Y1701000D01*
X106926000Y1757000D01*
X106922000Y1794000D01*
X106915000Y1817000D01*
X106905000Y1833000D01*
X106895000Y1842000D01*
X106853000Y1862000D01*
X106803000Y1865000D01*
X106774000Y1858000D01*
X106746000Y1834000D01*
X106727000Y1787000D01*
X106718000Y1717000D01*
X106717000Y1680000D01*
X106579000Y1680000D01*
X106579000Y1992000D01*
X106648000Y1992000D01*
X106689000Y1990000D01*
X106711000Y1984000D01*
X106717000Y1973000D01*
X106720000Y1962000D01*
X106732000Y1963000D01*
X106758000Y1975000D01*
X106817000Y1994000D01*
X106883000Y1996000D01*
X106946000Y1981000D01*
G37*
X109231000Y6160000D02*
X109288000Y5859000D01*
X109708000Y5686000D01*
X109959000Y5857000D01*
X110030000Y5905000D01*
X110094000Y5947000D01*
X110148000Y5983000D01*
X110189000Y6009000D01*
X110214000Y6025000D01*
X110221000Y6028000D01*
X110234000Y6020000D01*
X110261000Y5996000D01*
X110299000Y5960000D01*
X110345000Y5914000D01*
X110397000Y5863000D01*
X110450000Y5809000D01*
X110503000Y5754000D01*
X110553000Y5703000D01*
X110595000Y5658000D01*
X110628000Y5622000D01*
X110648000Y5598000D01*
X110653000Y5590000D01*
X110646000Y5576000D01*
X110627000Y5543000D01*
X110597000Y5497000D01*
X110559000Y5439000D01*
X110515000Y5374000D01*
X110489000Y5336000D01*
X110442000Y5268000D01*
X110401000Y5206000D01*
X110367000Y5154000D01*
X110342000Y5115000D01*
X110328000Y5092000D01*
X110326000Y5087000D01*
X110330000Y5073000D01*
X110343000Y5040000D01*
X110362000Y4994000D01*
X110386000Y4938000D01*
X110411000Y4878000D01*
X110437000Y4817000D01*
X110461000Y4760000D01*
X110482000Y4713000D01*
X110498000Y4678000D01*
X110506000Y4662000D01*
X110506000Y4661000D01*
X110519000Y4658000D01*
X110553000Y4651000D01*
X110605000Y4641000D01*
X110671000Y4628000D01*
X110747000Y4614000D01*
X110792000Y4606000D01*
X110874000Y4590000D01*
X110947000Y4575000D01*
X111010000Y4562000D01*
X111056000Y4551000D01*
X111084000Y4544000D01*
X111090000Y4541000D01*
X111095000Y4525000D01*
X111099000Y4487000D01*
X111103000Y4434000D01*
X111105000Y4368000D01*
X111106000Y4294000D01*
X111107000Y4218000D01*
X111106000Y4142000D01*
X111104000Y4072000D01*
X111101000Y4011000D01*
X111097000Y3964000D01*
X111092000Y3936000D01*
X111089000Y3931000D01*
X111071000Y3924000D01*
X111034000Y3914000D01*
X110981000Y3902000D01*
X110919000Y3889000D01*
X110897000Y3885000D01*
X110793000Y3866000D01*
X110710000Y3851000D01*
X110646000Y3838000D01*
X110599000Y3828000D01*
X110566000Y3820000D01*
X110544000Y3814000D01*
X110530000Y3808000D01*
X110522000Y3802000D01*
X110521000Y3801000D01*
X110509000Y3782000D01*
X110492000Y3745000D01*
X110471000Y3695000D01*
X110446000Y3635000D01*
X110422000Y3572000D01*
X110398000Y3509000D01*
X110376000Y3450000D01*
X110360000Y3400000D01*
X110349000Y3364000D01*
X110346000Y3347000D01*
X110346000Y3346000D01*
X110356000Y3332000D01*
X110377000Y3300000D01*
X110409000Y3254000D01*
X110447000Y3197000D01*
X110491000Y3133000D01*
X110504000Y3115000D01*
X110548000Y3049000D01*
X110588000Y2988000D01*
X110620000Y2937000D01*
X110642000Y2899000D01*
X110652000Y2877000D01*
X110653000Y2874000D01*
X110644000Y2860000D01*
X110620000Y2831000D01*
X110583000Y2792000D01*
X110538000Y2745000D01*
X110486000Y2693000D01*
X110432000Y2639000D01*
X110377000Y2586000D01*
X110326000Y2537000D01*
X110281000Y2496000D01*
X110246000Y2465000D01*
X110222000Y2447000D01*
X110216000Y2445000D01*
X110201000Y2451000D01*
X110171000Y2470000D01*
X110130000Y2496000D01*
X110098000Y2518000D01*
X110041000Y2557000D01*
X109973000Y2603000D01*
X109905000Y2650000D01*
X109869000Y2674000D01*
X109745000Y2758000D01*
X109641000Y2702000D01*
X109594000Y2677000D01*
X109554000Y2658000D01*
X109527000Y2647000D01*
X109520000Y2646000D01*
X109512000Y2657000D01*
X109495000Y2689000D01*
X109472000Y2738000D01*
X109443000Y2801000D01*
X109410000Y2877000D01*
X109373000Y2961000D01*
X109334000Y3051000D01*
X109295000Y3144000D01*
X109256000Y3237000D01*
X109219000Y3327000D01*
X109185000Y3412000D01*
X109155000Y3487000D01*
X109131000Y3551000D01*
X109113000Y3600000D01*
X109102000Y3632000D01*
X109101000Y3643000D01*
X109114000Y3657000D01*
X109142000Y3680000D01*
X109180000Y3706000D01*
X109183000Y3708000D01*
X109281000Y3786000D01*
X109359000Y3878000D01*
X109418000Y3979000D01*
X109457000Y4087000D01*
X109475000Y4200000D01*
X109471000Y4314000D01*
X109445000Y4426000D01*
X109396000Y4535000D01*
X109382000Y4558000D01*
X109307000Y4654000D01*
X109218000Y4730000D01*
X109119000Y4788000D01*
X109012000Y4826000D01*
X108901000Y4843000D01*
X108789000Y4841000D01*
X108678000Y4818000D01*
X108572000Y4773000D01*
X108474000Y4707000D01*
X108444000Y4680000D01*
X108367000Y4596000D01*
X108311000Y4508000D01*
X108272000Y4408000D01*
X108251000Y4310000D01*
X108245000Y4200000D01*
X108263000Y4089000D01*
X108302000Y3981000D01*
X108360000Y3880000D01*
X108436000Y3790000D01*
X108528000Y3715000D01*
X108540000Y3707000D01*
X108578000Y3681000D01*
X108607000Y3658000D01*
X108621000Y3643000D01*
X108618000Y3627000D01*
X108606000Y3592000D01*
X108587000Y3540000D01*
X108561000Y3473000D01*
X108530000Y3396000D01*
X108495000Y3310000D01*
X108458000Y3219000D01*
X108419000Y3126000D01*
X108379000Y3033000D01*
X108341000Y2944000D01*
X108305000Y2861000D01*
X108273000Y2788000D01*
X108245000Y2727000D01*
X108223000Y2681000D01*
X108208000Y2653000D01*
X108202000Y2646000D01*
X108183000Y2651000D01*
X108149000Y2667000D01*
X108105000Y2689000D01*
X108080000Y2702000D01*
X107976000Y2758000D01*
X107853000Y2674000D01*
X107790000Y2632000D01*
X107721000Y2584000D01*
X107656000Y2540000D01*
X107623000Y2518000D01*
X107578000Y2487000D01*
X107539000Y2463000D01*
X107513000Y2448000D01*
X107504000Y2445000D01*
X107491000Y2453000D01*
X107464000Y2477000D01*
X107423000Y2513000D01*
X107373000Y2560000D01*
X107316000Y2614000D01*
X107279000Y2649000D01*
X107216000Y2712000D01*
X107161000Y2767000D01*
X107117000Y2814000D01*
X107086000Y2850000D01*
X107070000Y2871000D01*
X107069000Y2876000D01*
X107076000Y2893000D01*
X107095000Y2926000D01*
X107124000Y2974000D01*
X107162000Y3032000D01*
X107205000Y3097000D01*
X107218000Y3115000D01*
X107263000Y3180000D01*
X107303000Y3239000D01*
X107337000Y3288000D01*
X107361000Y3324000D01*
X107374000Y3344000D01*
X107375000Y3346000D01*
X107373000Y3362000D01*
X107363000Y3396000D01*
X107347000Y3444000D01*
X107326000Y3502000D01*
X107303000Y3565000D01*
X107278000Y3629000D01*
X107253000Y3689000D01*
X107232000Y3740000D01*
X107214000Y3779000D01*
X107202000Y3800000D01*
X107201000Y3801000D01*
X107193000Y3807000D01*
X107181000Y3813000D01*
X107161000Y3819000D01*
X107130000Y3827000D01*
X107086000Y3836000D01*
X107025000Y3848000D01*
X106946000Y3863000D01*
X106846000Y3881000D01*
X106824000Y3885000D01*
X106760000Y3898000D01*
X106703000Y3910000D01*
X106661000Y3921000D01*
X106636000Y3929000D01*
X106632000Y3931000D01*
X106627000Y3947000D01*
X106622000Y3985000D01*
X106619000Y4039000D01*
X106617000Y4105000D01*
X106615000Y4178000D01*
X106615000Y4255000D01*
X106616000Y4331000D01*
X106617000Y4401000D01*
X106620000Y4461000D01*
X106624000Y4508000D01*
X106629000Y4535000D01*
X106632000Y4541000D01*
X106648000Y4547000D01*
X106686000Y4556000D01*
X106741000Y4568000D01*
X106809000Y4582000D01*
X106887000Y4598000D01*
X106930000Y4606000D01*
X107011000Y4621000D01*
X107083000Y4634000D01*
X107142000Y4646000D01*
X107186000Y4655000D01*
X107211000Y4660000D01*
X107215000Y4661000D01*
X107222000Y4675000D01*
X107237000Y4706000D01*
X107257000Y4752000D01*
X107281000Y4808000D01*
X107307000Y4869000D01*
X107332000Y4930000D01*
X107356000Y4986000D01*
X107376000Y5034000D01*
X107390000Y5069000D01*
X107396000Y5086000D01*
X107396000Y5087000D01*
X107389000Y5101000D01*
X107370000Y5132000D01*
X107340000Y5177000D01*
X107302000Y5234000D01*
X107258000Y5299000D01*
X107232000Y5337000D01*
X107186000Y5405000D01*
X107144000Y5468000D01*
X107110000Y5520000D01*
X107085000Y5561000D01*
X107071000Y5585000D01*
X107069000Y5590000D01*
X107077000Y5603000D01*
X107101000Y5630000D01*
X107137000Y5669000D01*
X107181000Y5716000D01*
X107232000Y5768000D01*
X107285000Y5823000D01*
X107339000Y5877000D01*
X107389000Y5927000D01*
X107434000Y5970000D01*
X107469000Y6003000D01*
X107493000Y6023000D01*
X107500000Y6028000D01*
X107513000Y6021000D01*
X107544000Y6002000D01*
X107589000Y5973000D01*
X107646000Y5935000D01*
X107712000Y5891000D01*
X107762000Y5857000D01*
X108014000Y5686000D01*
X108223000Y5772000D01*
X108433000Y5859000D01*
X108490000Y6160000D01*
X108547000Y6462000D01*
X109175000Y6462000D01*
X109231000Y6160000D01*
G36*
X109231000Y6160000D02*
G01*
X109288000Y5859000D01*
X109708000Y5686000D01*
X109959000Y5857000D01*
X110030000Y5905000D01*
X110094000Y5947000D01*
X110148000Y5983000D01*
X110189000Y6009000D01*
X110214000Y6025000D01*
X110221000Y6028000D01*
X110234000Y6020000D01*
X110261000Y5996000D01*
X110299000Y5960000D01*
X110345000Y5914000D01*
X110397000Y5863000D01*
X110450000Y5809000D01*
X110503000Y5754000D01*
X110553000Y5703000D01*
X110595000Y5658000D01*
X110628000Y5622000D01*
X110648000Y5598000D01*
X110653000Y5590000D01*
X110646000Y5576000D01*
X110627000Y5543000D01*
X110597000Y5497000D01*
X110559000Y5439000D01*
X110515000Y5374000D01*
X110489000Y5336000D01*
X110442000Y5268000D01*
X110401000Y5206000D01*
X110367000Y5154000D01*
X110342000Y5115000D01*
X110328000Y5092000D01*
X110326000Y5087000D01*
X110330000Y5073000D01*
X110343000Y5040000D01*
X110362000Y4994000D01*
X110386000Y4938000D01*
X110411000Y4878000D01*
X110437000Y4817000D01*
X110461000Y4760000D01*
X110482000Y4713000D01*
X110498000Y4678000D01*
X110506000Y4662000D01*
X110506000Y4661000D01*
X110519000Y4658000D01*
X110553000Y4651000D01*
X110605000Y4641000D01*
X110671000Y4628000D01*
X110747000Y4614000D01*
X110792000Y4606000D01*
X110874000Y4590000D01*
X110947000Y4575000D01*
X111010000Y4562000D01*
X111056000Y4551000D01*
X111084000Y4544000D01*
X111090000Y4541000D01*
X111095000Y4525000D01*
X111099000Y4487000D01*
X111103000Y4434000D01*
X111105000Y4368000D01*
X111106000Y4294000D01*
X111107000Y4218000D01*
X111106000Y4142000D01*
X111104000Y4072000D01*
X111101000Y4011000D01*
X111097000Y3964000D01*
X111092000Y3936000D01*
X111089000Y3931000D01*
X111071000Y3924000D01*
X111034000Y3914000D01*
X110981000Y3902000D01*
X110919000Y3889000D01*
X110897000Y3885000D01*
X110793000Y3866000D01*
X110710000Y3851000D01*
X110646000Y3838000D01*
X110599000Y3828000D01*
X110566000Y3820000D01*
X110544000Y3814000D01*
X110530000Y3808000D01*
X110522000Y3802000D01*
X110521000Y3801000D01*
X110509000Y3782000D01*
X110492000Y3745000D01*
X110471000Y3695000D01*
X110446000Y3635000D01*
X110422000Y3572000D01*
X110398000Y3509000D01*
X110376000Y3450000D01*
X110360000Y3400000D01*
X110349000Y3364000D01*
X110346000Y3347000D01*
X110346000Y3346000D01*
X110356000Y3332000D01*
X110377000Y3300000D01*
X110409000Y3254000D01*
X110447000Y3197000D01*
X110491000Y3133000D01*
X110504000Y3115000D01*
X110548000Y3049000D01*
X110588000Y2988000D01*
X110620000Y2937000D01*
X110642000Y2899000D01*
X110652000Y2877000D01*
X110653000Y2874000D01*
X110644000Y2860000D01*
X110620000Y2831000D01*
X110583000Y2792000D01*
X110538000Y2745000D01*
X110486000Y2693000D01*
X110432000Y2639000D01*
X110377000Y2586000D01*
X110326000Y2537000D01*
X110281000Y2496000D01*
X110246000Y2465000D01*
X110222000Y2447000D01*
X110216000Y2445000D01*
X110201000Y2451000D01*
X110171000Y2470000D01*
X110130000Y2496000D01*
X110098000Y2518000D01*
X110041000Y2557000D01*
X109973000Y2603000D01*
X109905000Y2650000D01*
X109869000Y2674000D01*
X109745000Y2758000D01*
X109641000Y2702000D01*
X109594000Y2677000D01*
X109554000Y2658000D01*
X109527000Y2647000D01*
X109520000Y2646000D01*
X109512000Y2657000D01*
X109495000Y2689000D01*
X109472000Y2738000D01*
X109443000Y2801000D01*
X109410000Y2877000D01*
X109373000Y2961000D01*
X109334000Y3051000D01*
X109295000Y3144000D01*
X109256000Y3237000D01*
X109219000Y3327000D01*
X109185000Y3412000D01*
X109155000Y3487000D01*
X109131000Y3551000D01*
X109113000Y3600000D01*
X109102000Y3632000D01*
X109101000Y3643000D01*
X109114000Y3657000D01*
X109142000Y3680000D01*
X109180000Y3706000D01*
X109183000Y3708000D01*
X109281000Y3786000D01*
X109359000Y3878000D01*
X109418000Y3979000D01*
X109457000Y4087000D01*
X109475000Y4200000D01*
X109471000Y4314000D01*
X109445000Y4426000D01*
X109396000Y4535000D01*
X109382000Y4558000D01*
X109307000Y4654000D01*
X109218000Y4730000D01*
X109119000Y4788000D01*
X109012000Y4826000D01*
X108901000Y4843000D01*
X108789000Y4841000D01*
X108678000Y4818000D01*
X108572000Y4773000D01*
X108474000Y4707000D01*
X108444000Y4680000D01*
X108367000Y4596000D01*
X108311000Y4508000D01*
X108272000Y4408000D01*
X108251000Y4310000D01*
X108245000Y4200000D01*
X108263000Y4089000D01*
X108302000Y3981000D01*
X108360000Y3880000D01*
X108436000Y3790000D01*
X108528000Y3715000D01*
X108540000Y3707000D01*
X108578000Y3681000D01*
X108607000Y3658000D01*
X108621000Y3643000D01*
X108618000Y3627000D01*
X108606000Y3592000D01*
X108587000Y3540000D01*
X108561000Y3473000D01*
X108530000Y3396000D01*
X108495000Y3310000D01*
X108458000Y3219000D01*
X108419000Y3126000D01*
X108379000Y3033000D01*
X108341000Y2944000D01*
X108305000Y2861000D01*
X108273000Y2788000D01*
X108245000Y2727000D01*
X108223000Y2681000D01*
X108208000Y2653000D01*
X108202000Y2646000D01*
X108183000Y2651000D01*
X108149000Y2667000D01*
X108105000Y2689000D01*
X108080000Y2702000D01*
X107976000Y2758000D01*
X107853000Y2674000D01*
X107790000Y2632000D01*
X107721000Y2584000D01*
X107656000Y2540000D01*
X107623000Y2518000D01*
X107578000Y2487000D01*
X107539000Y2463000D01*
X107513000Y2448000D01*
X107504000Y2445000D01*
X107491000Y2453000D01*
X107464000Y2477000D01*
X107423000Y2513000D01*
X107373000Y2560000D01*
X107316000Y2614000D01*
X107279000Y2649000D01*
X107216000Y2712000D01*
X107161000Y2767000D01*
X107117000Y2814000D01*
X107086000Y2850000D01*
X107070000Y2871000D01*
X107069000Y2876000D01*
X107076000Y2893000D01*
X107095000Y2926000D01*
X107124000Y2974000D01*
X107162000Y3032000D01*
X107205000Y3097000D01*
X107218000Y3115000D01*
X107263000Y3180000D01*
X107303000Y3239000D01*
X107337000Y3288000D01*
X107361000Y3324000D01*
X107374000Y3344000D01*
X107375000Y3346000D01*
X107373000Y3362000D01*
X107363000Y3396000D01*
X107347000Y3444000D01*
X107326000Y3502000D01*
X107303000Y3565000D01*
X107278000Y3629000D01*
X107253000Y3689000D01*
X107232000Y3740000D01*
X107214000Y3779000D01*
X107202000Y3800000D01*
X107201000Y3801000D01*
X107193000Y3807000D01*
X107181000Y3813000D01*
X107161000Y3819000D01*
X107130000Y3827000D01*
X107086000Y3836000D01*
X107025000Y3848000D01*
X106946000Y3863000D01*
X106846000Y3881000D01*
X106824000Y3885000D01*
X106760000Y3898000D01*
X106703000Y3910000D01*
X106661000Y3921000D01*
X106636000Y3929000D01*
X106632000Y3931000D01*
X106627000Y3947000D01*
X106622000Y3985000D01*
X106619000Y4039000D01*
X106617000Y4105000D01*
X106615000Y4178000D01*
X106615000Y4255000D01*
X106616000Y4331000D01*
X106617000Y4401000D01*
X106620000Y4461000D01*
X106624000Y4508000D01*
X106629000Y4535000D01*
X106632000Y4541000D01*
X106648000Y4547000D01*
X106686000Y4556000D01*
X106741000Y4568000D01*
X106809000Y4582000D01*
X106887000Y4598000D01*
X106930000Y4606000D01*
X107011000Y4621000D01*
X107083000Y4634000D01*
X107142000Y4646000D01*
X107186000Y4655000D01*
X107211000Y4660000D01*
X107215000Y4661000D01*
X107222000Y4675000D01*
X107237000Y4706000D01*
X107257000Y4752000D01*
X107281000Y4808000D01*
X107307000Y4869000D01*
X107332000Y4930000D01*
X107356000Y4986000D01*
X107376000Y5034000D01*
X107390000Y5069000D01*
X107396000Y5086000D01*
X107396000Y5087000D01*
X107389000Y5101000D01*
X107370000Y5132000D01*
X107340000Y5177000D01*
X107302000Y5234000D01*
X107258000Y5299000D01*
X107232000Y5337000D01*
X107186000Y5405000D01*
X107144000Y5468000D01*
X107110000Y5520000D01*
X107085000Y5561000D01*
X107071000Y5585000D01*
X107069000Y5590000D01*
X107077000Y5603000D01*
X107101000Y5630000D01*
X107137000Y5669000D01*
X107181000Y5716000D01*
X107232000Y5768000D01*
X107285000Y5823000D01*
X107339000Y5877000D01*
X107389000Y5927000D01*
X107434000Y5970000D01*
X107469000Y6003000D01*
X107493000Y6023000D01*
X107500000Y6028000D01*
X107513000Y6021000D01*
X107544000Y6002000D01*
X107589000Y5973000D01*
X107646000Y5935000D01*
X107712000Y5891000D01*
X107762000Y5857000D01*
X108014000Y5686000D01*
X108223000Y5772000D01*
X108433000Y5859000D01*
X108490000Y6160000D01*
X108547000Y6462000D01*
X109175000Y6462000D01*
X109231000Y6160000D01*
G37*
%TD*%
D13*
%TO.C,R154*%
X2400000Y23070000D03*
X2400000Y24030000D03*
%TD*%
D14*
%TO.C,R115*%
X74920000Y23700000D03*
X75880000Y23700000D03*
%TD*%
D15*
%TO.C,R240*%
X51480000Y40100000D03*
X51480000Y39140000D03*
%TD*%
D16*
%TO.C,C74*%
X73900000Y5800000D03*
X72500000Y5800000D03*
%TD*%
D13*
%TO.C,R223*%
X104950000Y7170000D03*
X104950000Y8130000D03*
%TD*%
D17*
%TO.C,R233*%
X106750000Y18450000D03*
X108150000Y18450000D03*
%TD*%
D15*
%TO.C,C57*%
X38850000Y10230000D03*
X38850000Y9270000D03*
%TD*%
D16*
%TO.C,R235*%
X108150000Y14350000D03*
X106750000Y14350000D03*
%TD*%
D18*
%TO.C,U13*%
X39250000Y16995531D03*
X39750000Y16995531D03*
D19*
X40250000Y16995531D03*
D18*
X40748000Y16995531D03*
X41248000Y16995531D03*
X41248000Y17767531D03*
X40748000Y17767531D03*
D19*
X40250000Y17767531D03*
D18*
X39750000Y17767531D03*
X39250000Y17767531D03*
%TD*%
D20*
%TO.C,D61*%
X57550000Y1349000D03*
X57550000Y2049000D03*
%TD*%
D21*
%TO.C,C120*%
X26890000Y33420000D03*
X26890000Y34820000D03*
%TD*%
D22*
%TO.C,D40*%
X117700000Y40901000D03*
X117700000Y40201000D03*
%TD*%
D15*
%TO.C,R47*%
X73200000Y39430000D03*
X73200000Y38470000D03*
%TD*%
D23*
%TO.C,R53*%
X108100000Y30228000D03*
X108100000Y30758000D03*
X108100000Y31300000D03*
X108100000Y31830000D03*
X107198000Y31830000D03*
X107198000Y31300000D03*
X107198000Y30758000D03*
X107198000Y30228000D03*
%TD*%
D18*
%TO.C,U15*%
X41250000Y12863000D03*
X41750000Y12863000D03*
D19*
X42250000Y12863000D03*
D18*
X42748000Y12863000D03*
X43248000Y12863000D03*
X43248000Y13635000D03*
X42748000Y13635000D03*
D19*
X42250000Y13635000D03*
D18*
X41750000Y13635000D03*
X41250000Y13635000D03*
%TD*%
D17*
%TO.C,R248*%
X113400000Y9450000D03*
X114800000Y9450000D03*
%TD*%
D15*
%TO.C,R232*%
X70300000Y14580000D03*
X70300000Y13620000D03*
%TD*%
D14*
%TO.C,C36*%
X49670000Y22500000D03*
X50630000Y22500000D03*
%TD*%
D15*
%TO.C,C75*%
X71450000Y6830000D03*
X71450000Y5870000D03*
%TD*%
D13*
%TO.C,C73*%
X71450000Y12470000D03*
X71450000Y13430000D03*
%TD*%
D24*
%TO.C,L4*%
X29150000Y29265000D03*
X25100000Y29265000D03*
%TD*%
D25*
%TO.C,Q17*%
X13009000Y23065000D03*
X13009000Y24063000D03*
X11707000Y23565000D03*
%TD*%
D23*
%TO.C,R26*%
X108100000Y33238000D03*
X108100000Y33768000D03*
X108100000Y34310000D03*
X108100000Y34840000D03*
X107198000Y34840000D03*
X107198000Y34310000D03*
X107198000Y33768000D03*
X107198000Y33238000D03*
%TD*%
D25*
%TO.C,Q2*%
X57100000Y29050000D03*
X57100000Y28052000D03*
X58402000Y28550000D03*
%TD*%
D15*
%TO.C,R125*%
X80050000Y26580000D03*
X80050000Y25620000D03*
%TD*%
D14*
%TO.C,R173*%
X45190000Y44410000D03*
X46150000Y44410000D03*
%TD*%
D26*
%TO.C,C152*%
X31830000Y35800000D03*
X34030000Y35800000D03*
%TD*%
D18*
%TO.C,U46*%
X59850000Y8463000D03*
X60350000Y8463000D03*
D19*
X60850000Y8463000D03*
D18*
X61348000Y8463000D03*
X61848000Y8463000D03*
X61848000Y9235000D03*
X61348000Y9235000D03*
D19*
X60850000Y9235000D03*
D18*
X60350000Y9235000D03*
X59850000Y9235000D03*
%TD*%
D14*
%TO.C,R55*%
X108870000Y21150000D03*
X109830000Y21150000D03*
%TD*%
D15*
%TO.C,R242*%
X69300000Y14580000D03*
X69300000Y13620000D03*
%TD*%
D13*
%TO.C,C71*%
X82050000Y16520000D03*
X82050000Y17480000D03*
%TD*%
D27*
%TO.C,D38*%
X58651000Y9250000D03*
X57251000Y9250000D03*
%TD*%
D28*
%TO.C,R336*%
X118730000Y17250000D03*
X117770000Y17250000D03*
%TD*%
D29*
%TO.C,R100*%
X117650000Y30152000D03*
X117650000Y29622000D03*
X117650000Y29080000D03*
X117650000Y28550000D03*
X118552000Y28550000D03*
X118552000Y29080000D03*
X118552000Y29622000D03*
X118552000Y30152000D03*
%TD*%
D15*
%TO.C,C102*%
X36000000Y33410000D03*
X36000000Y32450000D03*
%TD*%
D22*
%TO.C,D46*%
X117700000Y43501000D03*
X117700000Y42801000D03*
%TD*%
D30*
%TO.C,D53*%
X29550000Y4650000D03*
X29550000Y6050000D03*
%TD*%
D31*
%TO.C,C66*%
X75300000Y25750000D03*
X75300000Y27150000D03*
%TD*%
D32*
%TO.C,H2*%
X94775000Y10637500D03*
%TD*%
D15*
%TO.C,R250*%
X26350000Y19980000D03*
X26350000Y19020000D03*
%TD*%
D33*
%TO.C,Q3*%
X63600000Y35500000D03*
X62602000Y35500000D03*
X63100000Y34198000D03*
%TD*%
D34*
%TO.C,TP35*%
X74350000Y46500000D03*
%TD*%
D20*
%TO.C,D56*%
X100440000Y5059000D03*
X100440000Y5759000D03*
%TD*%
D35*
%TO.C,D28*%
X24413000Y11350000D03*
X23539000Y11350000D03*
%TD*%
D13*
%TO.C,R177*%
X49480000Y42390000D03*
X49480000Y43350000D03*
%TD*%
D28*
%TO.C,C9*%
X97780000Y34550000D03*
X96820000Y34550000D03*
%TD*%
D18*
%TO.C,U45*%
X62875000Y8463000D03*
X63375000Y8463000D03*
D19*
X63875000Y8463000D03*
D18*
X64373000Y8463000D03*
X64873000Y8463000D03*
X64873000Y9235000D03*
X64373000Y9235000D03*
D19*
X63875000Y9235000D03*
D18*
X63375000Y9235000D03*
X62875000Y9235000D03*
%TD*%
D34*
%TO.C,TP28*%
X35730000Y6265000D03*
%TD*%
D15*
%TO.C,C37*%
X48870000Y18890000D03*
X48870000Y17930000D03*
%TD*%
%TO.C,C121*%
X44320000Y39790000D03*
X44320000Y38830000D03*
%TD*%
D26*
%TO.C,FB4*%
X55400000Y10800000D03*
X57600000Y10800000D03*
%TD*%
D36*
%TO.C,S2*%
X95198000Y2050000D03*
X91100000Y2050000D03*
X95198000Y3652000D03*
X91100000Y3652000D03*
%TD*%
D14*
%TO.C,R200*%
X74924938Y18750000D03*
X75884938Y18750000D03*
%TD*%
%TO.C,C114*%
X117770000Y15960000D03*
X118730000Y15960000D03*
%TD*%
D15*
%TO.C,R186*%
X98150000Y21330000D03*
X98150000Y20370000D03*
%TD*%
D37*
%TO.C,FID4*%
X118500000Y1500000D03*
%TD*%
D38*
%TO.C,J15*%
X28550000Y52653500D03*
D39*
X97351000Y52653500D03*
D40*
X96325000Y56753500D03*
X96075000Y48553500D03*
X95825000Y56753500D03*
X95575000Y48553500D03*
X95325000Y56753500D03*
X95075000Y48553500D03*
X94826000Y56753500D03*
X94576000Y48553500D03*
X94326000Y56753500D03*
X94076000Y48553500D03*
X93826000Y56753500D03*
X93576000Y48553500D03*
X93326000Y56753500D03*
X93076000Y48553500D03*
X92826000Y56753500D03*
X92576000Y48553500D03*
X92326000Y56753500D03*
X92076000Y48553500D03*
X91826000Y56753500D03*
X91576000Y48553500D03*
X91326000Y56753500D03*
X91076000Y48553500D03*
X90826000Y56753500D03*
X90576000Y48553500D03*
X90326000Y56753500D03*
X90076000Y48553500D03*
X89826000Y56753500D03*
X89576000Y48553500D03*
X89326000Y56753500D03*
X89076000Y48553500D03*
X88826000Y56753500D03*
X88576000Y48553500D03*
X88326000Y56753500D03*
X88076000Y48553500D03*
X87826000Y56753500D03*
X87576000Y48553500D03*
X87326000Y56753500D03*
X87076000Y48553500D03*
X86826000Y56753500D03*
X86576000Y48553500D03*
X86326000Y56753500D03*
X86076000Y48553500D03*
X85826000Y56753500D03*
X85576000Y48553500D03*
X85326000Y56753500D03*
X85076000Y48553500D03*
X84826000Y56753500D03*
X84576000Y48553500D03*
X84326000Y56753500D03*
X84076000Y48553500D03*
X83826000Y56753500D03*
X83576000Y48553500D03*
X83326000Y56753500D03*
X83076000Y48553500D03*
X82826000Y56753500D03*
X82576000Y48553500D03*
X82326000Y56753500D03*
X82076000Y48553500D03*
X81826000Y56753500D03*
X81576000Y48553500D03*
X81326000Y56753500D03*
X81076000Y48553500D03*
X80826000Y56753500D03*
X80576000Y48553500D03*
X80326000Y56753500D03*
X80076000Y48553500D03*
X79826000Y56753500D03*
X79576000Y48553500D03*
X79326000Y56753500D03*
X79076000Y48553500D03*
X78826000Y56753500D03*
X78576000Y48553500D03*
X78326000Y56753500D03*
X78076000Y48553500D03*
X77826000Y56753500D03*
X77576000Y48553500D03*
X77326000Y56753500D03*
X77076000Y48553500D03*
X76826000Y56753500D03*
X76576000Y48553500D03*
X76326000Y56753500D03*
X76076000Y48553500D03*
X75826000Y56753500D03*
X75576000Y48553500D03*
X75326000Y56753500D03*
X75076000Y48553500D03*
X74826000Y56753500D03*
X74576000Y48553500D03*
X74326000Y56753500D03*
X74076000Y48553500D03*
X73826000Y56753500D03*
X73576000Y48553500D03*
X73326000Y56753500D03*
X73076000Y48553500D03*
X72826000Y56753500D03*
X72576000Y48553500D03*
X72326000Y56753500D03*
X72076000Y48553500D03*
X71826000Y56753500D03*
X71576000Y48553500D03*
X71326000Y56753500D03*
X71076000Y48553500D03*
X70825000Y56753500D03*
X70575000Y48553500D03*
X70325000Y56753500D03*
X70075000Y48553500D03*
X69825000Y56753500D03*
X69575000Y48553500D03*
X69325000Y56753500D03*
X69075000Y48553500D03*
X68825000Y56753500D03*
X68575000Y48553500D03*
X68325000Y56753500D03*
X68076000Y48553500D03*
X67826000Y56753500D03*
X67576000Y48553500D03*
X67326000Y56753500D03*
X67076000Y48553500D03*
X66826000Y56753500D03*
X66576000Y48553500D03*
X66326000Y56753500D03*
X66076000Y48553500D03*
X65826000Y56753500D03*
X65576000Y48553500D03*
X65326000Y56753500D03*
X65076000Y48553500D03*
X64826000Y56753500D03*
X64576000Y48553500D03*
X64326000Y56753500D03*
X64076000Y48553500D03*
X63825000Y56753500D03*
X63575000Y48553500D03*
X63325000Y56753500D03*
X63075000Y48553500D03*
X62825000Y56753500D03*
X62576000Y48553500D03*
X62326000Y56753500D03*
X62076000Y48553500D03*
X61825000Y56753500D03*
X61575000Y48553500D03*
X61325000Y56753500D03*
X61075000Y48553500D03*
X60826000Y56753500D03*
X60576000Y48553500D03*
X58326000Y56753500D03*
X58076000Y48553500D03*
X57826000Y56753500D03*
X57576000Y48553500D03*
X57326000Y56753500D03*
X57076000Y48553500D03*
X56826000Y56753500D03*
X56576000Y48553500D03*
X56326000Y56753500D03*
X56076000Y48553500D03*
X55826000Y56753500D03*
X55576000Y48553500D03*
X55326000Y56753500D03*
X55076000Y48553500D03*
X54825000Y56753500D03*
X54575000Y48553500D03*
X54325000Y56753500D03*
X54075000Y48553500D03*
X53825000Y56753500D03*
X53575000Y48553500D03*
X53325000Y56753500D03*
X53075000Y48553500D03*
X52825000Y56753500D03*
X52575000Y48553500D03*
X52325000Y56753500D03*
X52075000Y48553500D03*
X51825000Y56753500D03*
X51575000Y48553500D03*
X51325000Y56753500D03*
X51075000Y48553500D03*
X50825000Y56753500D03*
X50575000Y48553500D03*
X50325000Y56753500D03*
X50075000Y48553500D03*
X49825000Y56753500D03*
X49575000Y48553500D03*
X49325000Y56753500D03*
X49075000Y48553500D03*
X48825000Y56753500D03*
X48575000Y48553500D03*
X48325000Y56753500D03*
X48075000Y48553500D03*
X47825000Y56753500D03*
X47575000Y48553500D03*
X47325000Y56753500D03*
X47075000Y48553500D03*
X46826000Y56753500D03*
X46576000Y48553500D03*
X46326000Y56753500D03*
X46076000Y48553500D03*
X45826000Y56753500D03*
X45576000Y48553500D03*
X45326000Y56753500D03*
X45076000Y48553500D03*
X44826000Y56753500D03*
X44576000Y48553500D03*
X44326000Y56753500D03*
X44076000Y48553500D03*
X43826000Y56753500D03*
X43576000Y48553500D03*
X43326000Y56753500D03*
X43076000Y48553500D03*
X42826000Y56753500D03*
X42576000Y48553500D03*
X42326000Y56753500D03*
X42076000Y48553500D03*
X41826000Y56753500D03*
X41576000Y48553500D03*
X41326000Y56753500D03*
X41076000Y48553500D03*
X40826000Y56753500D03*
X40576000Y48553500D03*
X40326000Y56753500D03*
X40076000Y48553500D03*
X39826000Y56753500D03*
X39576000Y48553500D03*
X39326000Y56753500D03*
X39076000Y48553500D03*
X38826000Y56753500D03*
X38576000Y48553500D03*
X38326000Y56753500D03*
X38076000Y48553500D03*
X37826000Y56753500D03*
X37576000Y48553500D03*
X37326000Y56753500D03*
X37076000Y48553500D03*
X36826000Y56753500D03*
X36576000Y48553500D03*
X36326000Y56753500D03*
X36076000Y48553500D03*
X35826000Y56753500D03*
X35576000Y48553500D03*
X35326000Y56753500D03*
X35076000Y48553500D03*
X34826000Y56753500D03*
X34576000Y48553500D03*
X34326000Y56753500D03*
X34076000Y48553500D03*
X33826000Y56753500D03*
X33576000Y48553500D03*
X33326000Y56753500D03*
X33076000Y48553500D03*
X32826000Y56753500D03*
X32576000Y48553500D03*
X32326000Y56753500D03*
X32076000Y48553500D03*
X31826000Y56753500D03*
X31576000Y48553500D03*
X31326000Y56753500D03*
X31076000Y48553500D03*
X30825000Y56753500D03*
X30575000Y48553500D03*
X30325000Y56753500D03*
X30075000Y48553500D03*
X29825000Y56753500D03*
X29575000Y48553500D03*
D41*
X25200000Y44654500D03*
X100700000Y40654500D03*
%TD*%
D25*
%TO.C,Q1*%
X72200000Y38500000D03*
X72200000Y39498000D03*
X70898000Y39000000D03*
%TD*%
D22*
%TO.C,D48*%
X108050000Y44951000D03*
X108050000Y44251000D03*
%TD*%
D14*
%TO.C,R49*%
X71120000Y37350000D03*
X72080000Y37350000D03*
%TD*%
D34*
%TO.C,TP5*%
X67200000Y45650000D03*
%TD*%
D14*
%TO.C,R237*%
X35680000Y34400000D03*
X36640000Y34400000D03*
%TD*%
D28*
%TO.C,C35*%
X33280000Y25825000D03*
X32320000Y25825000D03*
%TD*%
D32*
%TO.C,SP7*%
X49500000Y33600000D03*
%TD*%
D14*
%TO.C,C125*%
X45190000Y42410000D03*
X46150000Y42410000D03*
%TD*%
D20*
%TO.C,D19*%
X106520000Y37139000D03*
X106520000Y37839000D03*
%TD*%
D28*
%TO.C,C112*%
X107080000Y45800000D03*
X106120000Y45800000D03*
%TD*%
D42*
%TO.C,C126*%
X41500000Y37780000D03*
X41500000Y36380000D03*
%TD*%
D28*
%TO.C,C55*%
X40630000Y20050000D03*
X39670000Y20050000D03*
%TD*%
D43*
%TO.C,J5*%
X83650080Y5970000D03*
X83650080Y2870000D03*
D44*
X80900080Y10550000D03*
X81400080Y10550000D03*
X81900080Y10550000D03*
X82400080Y10550000D03*
X82900080Y10550000D03*
X83400080Y10550000D03*
X83900080Y10550000D03*
X84400080Y10550000D03*
X84900080Y10550000D03*
X85400080Y10550000D03*
X85900080Y10550000D03*
X86400080Y10550000D03*
D45*
X86450080Y9300000D03*
X86050080Y8600000D03*
X85250080Y8600000D03*
X84850080Y9300000D03*
X84450080Y8600000D03*
X84050080Y9300000D03*
X83250080Y9300000D03*
X82850080Y8600000D03*
X82450080Y9300000D03*
X82050080Y8600000D03*
X81250080Y8600000D03*
X80850080Y9300000D03*
D46*
X79380080Y8150000D03*
X79380080Y3420000D03*
D45*
X81650080Y9300000D03*
X85650080Y9300000D03*
D46*
X87920080Y8150000D03*
X87920080Y3420000D03*
%TD*%
D13*
%TO.C,C164*%
X59550000Y10320000D03*
X59550000Y11280000D03*
%TD*%
D37*
%TO.C,FID2*%
X1850000Y58400000D03*
%TD*%
D13*
%TO.C,R137*%
X73450000Y12470000D03*
X73450000Y13430000D03*
%TD*%
D15*
%TO.C,R39*%
X100150000Y21330000D03*
X100150000Y20370000D03*
%TD*%
D28*
%TO.C,R116*%
X75880000Y24650000D03*
X74920000Y24650000D03*
%TD*%
D15*
%TO.C,C61*%
X46850000Y18230000D03*
X46850000Y17270000D03*
%TD*%
D42*
%TO.C,C128*%
X42825000Y37780000D03*
X42825000Y36380000D03*
%TD*%
D15*
%TO.C,R277*%
X60200000Y40530000D03*
X60200000Y39570000D03*
%TD*%
%TO.C,R2*%
X38990000Y46920000D03*
X38990000Y45960000D03*
%TD*%
D28*
%TO.C,R14*%
X97780000Y29200000D03*
X96820000Y29200000D03*
%TD*%
%TO.C,R52*%
X100030000Y36550000D03*
X99070000Y36550000D03*
%TD*%
D14*
%TO.C,R120*%
X117770000Y20250000D03*
X118730000Y20250000D03*
%TD*%
D28*
%TO.C,R20*%
X100030000Y37500000D03*
X99070000Y37500000D03*
%TD*%
%TO.C,C113*%
X105440000Y37440000D03*
X104480000Y37440000D03*
%TD*%
D14*
%TO.C,R27*%
X84170000Y30750000D03*
X85130000Y30750000D03*
%TD*%
%TO.C,R62*%
X108870000Y20150000D03*
X109830000Y20150000D03*
%TD*%
D28*
%TO.C,C141*%
X52630000Y23150000D03*
X51670000Y23150000D03*
%TD*%
D22*
%TO.C,D42*%
X108050000Y41651000D03*
X108050000Y40951000D03*
%TD*%
D28*
%TO.C,R31*%
X85130000Y27950000D03*
X84170000Y27950000D03*
%TD*%
D47*
%TO.C,U30*%
X101563000Y21100000D03*
X101563000Y20600000D03*
D48*
X101563000Y20100000D03*
D47*
X101563000Y19602000D03*
X101563000Y19102000D03*
X102335000Y19102000D03*
X102335000Y19602000D03*
D48*
X102335000Y20100000D03*
D47*
X102335000Y20600000D03*
X102335000Y21100000D03*
%TD*%
D49*
%TO.C,Q13*%
X27402000Y20302000D03*
D50*
X27402000Y19552000D03*
D49*
X27402000Y18805000D03*
X29301000Y18805000D03*
D50*
X29301000Y19552000D03*
D49*
X29301000Y20302000D03*
%TD*%
D15*
%TO.C,C155*%
X50480000Y38190000D03*
X50480000Y37230000D03*
%TD*%
%TO.C,C157*%
X38920000Y29810000D03*
X38920000Y28850000D03*
%TD*%
D16*
%TO.C,C11*%
X84900000Y42100000D03*
X83500000Y42100000D03*
%TD*%
D13*
%TO.C,C67*%
X76550000Y25620000D03*
X76550000Y26580000D03*
%TD*%
D28*
%TO.C,C110*%
X107080000Y44800000D03*
X106120000Y44800000D03*
%TD*%
D14*
%TO.C,R228*%
X62570000Y36550000D03*
X63530000Y36550000D03*
%TD*%
D36*
%TO.C,S3*%
X101198000Y2050000D03*
X97100000Y2050000D03*
X101198000Y3652000D03*
X97100000Y3652000D03*
%TD*%
D34*
%TO.C,TP8*%
X98155000Y15530000D03*
%TD*%
D15*
%TO.C,R264*%
X48420000Y43350000D03*
X48420000Y42390000D03*
%TD*%
%TO.C,R144*%
X30400000Y22680000D03*
X30400000Y21720000D03*
%TD*%
D20*
%TO.C,D45*%
X117700000Y44099000D03*
X117700000Y44799000D03*
%TD*%
D28*
%TO.C,C143*%
X52630000Y21750000D03*
X51670000Y21750000D03*
%TD*%
%TO.C,R163*%
X67380000Y30700000D03*
X66420000Y30700000D03*
%TD*%
D22*
%TO.C,D21*%
X106520000Y36471000D03*
X106520000Y35771000D03*
%TD*%
D51*
%TO.C,R21*%
X89996800Y16252000D03*
X90394800Y16252000D03*
X90796800Y16252000D03*
X91194800Y16252000D03*
X91194800Y16850000D03*
X90796800Y16850000D03*
X90394800Y16850000D03*
X89996800Y16850000D03*
%TD*%
D13*
%TO.C,C44*%
X28430000Y23060000D03*
X28430000Y24020000D03*
%TD*%
D14*
%TO.C,R269*%
X35980000Y28760000D03*
X36940000Y28760000D03*
%TD*%
D28*
%TO.C,R32*%
X85130000Y38350000D03*
X84170000Y38350000D03*
%TD*%
D52*
%TO.C,U12*%
X38967000Y14551000D03*
X38016000Y14551000D03*
X37066000Y14551000D03*
X37066000Y11951000D03*
X38016000Y11951000D03*
X38967000Y11951000D03*
%TD*%
D23*
%TO.C,R63*%
X109950000Y22348000D03*
X109950000Y22878000D03*
X109950000Y23420000D03*
X109950000Y23950000D03*
X109048000Y23950000D03*
X109048000Y23420000D03*
X109048000Y22878000D03*
X109048000Y22348000D03*
%TD*%
D31*
%TO.C,D1*%
X102250000Y27500000D03*
X102250000Y26100000D03*
%TD*%
D36*
%TO.C,S1*%
X72202000Y3650000D03*
X76300000Y3650000D03*
X72202000Y2048000D03*
X76300000Y2048000D03*
%TD*%
%TO.C,S5*%
X52102000Y3650000D03*
X56200000Y3650000D03*
X52102000Y2048000D03*
X56200000Y2048000D03*
%TD*%
D28*
%TO.C,C93*%
X34040000Y28230000D03*
X33080000Y28230000D03*
%TD*%
D31*
%TO.C,D52*%
X100800000Y27500000D03*
X100800000Y26100000D03*
%TD*%
D53*
%TO.C,U1*%
X33745000Y33255000D03*
X33295000Y33255000D03*
X32395000Y33255000D03*
X31945000Y33255000D03*
D54*
X30980000Y32790000D03*
D55*
X30980000Y32340000D03*
X30980000Y31890000D03*
X30980000Y31190000D03*
X30980000Y30740000D03*
X30985000Y30290000D03*
D53*
X31495000Y29375000D03*
X31945000Y29375000D03*
X32395000Y29375000D03*
X32845000Y29375000D03*
X33295000Y29375000D03*
X33745000Y29375000D03*
X34195000Y29375000D03*
D55*
X34860000Y29840000D03*
X34860000Y30290000D03*
X34860000Y30740000D03*
X34860000Y31190000D03*
X34860000Y31890000D03*
X34860000Y32340000D03*
X34860000Y32790000D03*
D56*
X33670000Y30825000D03*
D57*
X33670000Y32490000D03*
D58*
X32145000Y32065000D03*
D59*
X31930000Y30330000D03*
%TD*%
D60*
%TO.C,U43*%
X61300000Y11000000D03*
D61*
X61300000Y11500000D03*
X61300000Y12000000D03*
D60*
X61300000Y12500000D03*
X60400000Y12500000D03*
D61*
X60400000Y12000000D03*
X60400000Y11500000D03*
D60*
X60400000Y11000000D03*
%TD*%
D62*
%TO.C,U23*%
X4298000Y29258855D03*
D63*
X11918000Y29258855D03*
X19538000Y29258855D03*
X19538000Y57198855D03*
X15728000Y57198855D03*
X11918000Y57198855D03*
X8108000Y57198855D03*
X4298000Y57198855D03*
%TD*%
D15*
%TO.C,C63*%
X45850000Y18262531D03*
X45850000Y17302531D03*
%TD*%
%TO.C,R66*%
X105100000Y16930000D03*
X105100000Y15970000D03*
%TD*%
D64*
%TO.C,D63*%
X53259000Y6350000D03*
X54659000Y6350000D03*
%TD*%
D65*
%TO.C,R220*%
X61609411Y25809411D03*
X60930589Y25130589D03*
%TD*%
D13*
%TO.C,R118*%
X78425000Y17645000D03*
X78425000Y18605000D03*
%TD*%
D21*
%TO.C,C129*%
X28250000Y33420000D03*
X28250000Y34820000D03*
%TD*%
D18*
%TO.C,U19*%
X85800000Y12184251D03*
X86300000Y12184251D03*
D19*
X86800000Y12184251D03*
D18*
X87298000Y12184251D03*
X87798000Y12184251D03*
X87798000Y12956251D03*
X87298000Y12956251D03*
D19*
X86800000Y12956251D03*
D18*
X86300000Y12956251D03*
X85800000Y12956251D03*
%TD*%
D32*
%TO.C,H1*%
X31175000Y10650000D03*
%TD*%
D14*
%TO.C,R76*%
X31370000Y23750000D03*
X32330000Y23750000D03*
%TD*%
D15*
%TO.C,R185*%
X14391000Y24836000D03*
X14391000Y23876000D03*
%TD*%
D18*
%TO.C,U44*%
X65925000Y8463000D03*
X66425000Y8463000D03*
D19*
X66925000Y8463000D03*
D18*
X67423000Y8463000D03*
X67923000Y8463000D03*
X67923000Y9235000D03*
X67423000Y9235000D03*
D19*
X66925000Y9235000D03*
D18*
X66425000Y9235000D03*
X65925000Y9235000D03*
%TD*%
D14*
%TO.C,R159*%
X32090000Y27230000D03*
X33050000Y27230000D03*
%TD*%
D15*
%TO.C,R158*%
X35300000Y16130000D03*
X35300000Y15170000D03*
%TD*%
D34*
%TO.C,TP58*%
X62350000Y10150000D03*
%TD*%
D66*
%TO.C,R209*%
X62500589Y23000589D03*
X63179411Y23679411D03*
%TD*%
D14*
%TO.C,R203*%
X74924938Y22705000D03*
X75884938Y22705000D03*
%TD*%
D67*
%TO.C,U17*%
X77907938Y24014000D03*
D68*
X77936938Y23615000D03*
X77936938Y23215000D03*
X77936938Y22814000D03*
X77936938Y22415000D03*
X77936938Y22014000D03*
X77936938Y21615000D03*
X77936938Y21215000D03*
X77936938Y20814000D03*
D67*
X77907938Y20415000D03*
D69*
X78335938Y20014000D03*
D70*
X78736938Y20014000D03*
X79136938Y20014000D03*
X79535938Y20014000D03*
D69*
X79936938Y20014000D03*
D67*
X80361938Y20415000D03*
D68*
X80335938Y20814000D03*
X80335938Y21215000D03*
X80335938Y21615000D03*
X80335938Y22014000D03*
X80335938Y22415000D03*
X80335938Y22814000D03*
X80335938Y23215000D03*
X80335938Y23615000D03*
D67*
X80361938Y24014000D03*
D69*
X79936938Y24415000D03*
D70*
X79535938Y24415000D03*
X79136938Y24415000D03*
X78736938Y24415000D03*
D69*
X78335938Y24415000D03*
D71*
X79136938Y22215000D03*
%TD*%
D15*
%TO.C,C123*%
X50480000Y40100000D03*
X50480000Y39140000D03*
%TD*%
%TO.C,R139*%
X72450000Y13430000D03*
X72450000Y12470000D03*
%TD*%
D17*
%TO.C,R172*%
X24890000Y36160000D03*
X26290000Y36160000D03*
%TD*%
D60*
%TO.C,U33*%
X27600000Y22900000D03*
D61*
X27600000Y23400000D03*
X27600000Y23900000D03*
D60*
X27600000Y24400000D03*
X26700000Y24400000D03*
D61*
X26700000Y23900000D03*
X26700000Y23400000D03*
D60*
X26700000Y22900000D03*
%TD*%
D28*
%TO.C,C109*%
X107080000Y41500000D03*
X106120000Y41500000D03*
%TD*%
D31*
%TO.C,D27*%
X103050000Y2250000D03*
X103050000Y850000D03*
%TD*%
D72*
%TO.C,C2*%
X30505000Y40320000D03*
X37005000Y40320000D03*
%TD*%
D23*
%TO.C,R54*%
X110000000Y25648000D03*
X110000000Y26178000D03*
X110000000Y26720000D03*
X110000000Y27250000D03*
X109098000Y27250000D03*
X109098000Y26720000D03*
X109098000Y26178000D03*
X109098000Y25648000D03*
%TD*%
D28*
%TO.C,R208*%
X57280000Y24950000D03*
X56320000Y24950000D03*
%TD*%
D34*
%TO.C,TP9*%
X98155000Y16540000D03*
%TD*%
D14*
%TO.C,R138*%
X74920000Y8000000D03*
X75880000Y8000000D03*
%TD*%
D28*
%TO.C,R229*%
X12845000Y25209000D03*
X11885000Y25209000D03*
%TD*%
%TO.C,R29*%
X85130000Y31750000D03*
X84170000Y31750000D03*
%TD*%
D14*
%TO.C,R201*%
X74924938Y19750000D03*
X75884938Y19750000D03*
%TD*%
D28*
%TO.C,C140*%
X52630000Y20750000D03*
X51670000Y20750000D03*
%TD*%
D20*
%TO.C,D41*%
X108050000Y42329000D03*
X108050000Y43029000D03*
%TD*%
D31*
%TO.C,D51*%
X99350000Y27500000D03*
X99350000Y26100000D03*
%TD*%
D21*
%TO.C,C103*%
X25530000Y33420000D03*
X25530000Y34820000D03*
%TD*%
D15*
%TO.C,C107*%
X110250000Y15745000D03*
X110250000Y14785000D03*
%TD*%
D20*
%TO.C,D39*%
X117700000Y41499000D03*
X117700000Y42199000D03*
%TD*%
D51*
%TO.C,R35*%
X66325000Y10152000D03*
X66723000Y10152000D03*
X67125000Y10152000D03*
X67523000Y10152000D03*
X67523000Y10750000D03*
X67125000Y10750000D03*
X66723000Y10750000D03*
X66325000Y10750000D03*
%TD*%
D52*
%TO.C,U18*%
X71653000Y8199000D03*
X72604000Y8199000D03*
X73554000Y8199000D03*
X73554000Y10799000D03*
X72604000Y10799000D03*
X71653000Y10799000D03*
%TD*%
D14*
%TO.C,R78*%
X31370000Y21750000D03*
X32330000Y21750000D03*
%TD*%
D30*
%TO.C,R182*%
X29340000Y38250000D03*
X29340000Y36850000D03*
%TD*%
D73*
%TO.C,D33*%
X39150000Y40387000D03*
X39150000Y41261000D03*
%TD*%
D74*
%TO.C,J6*%
X3685000Y11233603D03*
X15114000Y11233603D03*
D75*
X3685000Y20133603D03*
X4954000Y17594603D03*
X6224000Y20133603D03*
X7494000Y17594603D03*
X8763000Y20133603D03*
X10034000Y17594603D03*
X11303000Y20133603D03*
X12575000Y17594603D03*
X13844000Y20133603D03*
X15114000Y17594603D03*
X3685000Y15055603D03*
X6224000Y13794603D03*
X12575000Y13794603D03*
X15114000Y15063603D03*
D76*
X2758000Y7175603D03*
X5299000Y7175603D03*
X13499000Y7175603D03*
X16040000Y7175603D03*
D77*
X1549000Y14283603D03*
D78*
X17248000Y14283603D03*
%TD*%
D16*
%TO.C,R247*%
X108150000Y12850000D03*
X106750000Y12850000D03*
%TD*%
D15*
%TO.C,R4*%
X39940000Y46920000D03*
X39940000Y45960000D03*
%TD*%
D26*
%TO.C,C122*%
X40730000Y41930000D03*
X42930000Y41930000D03*
%TD*%
D28*
%TO.C,R335*%
X118730000Y18250000D03*
X117770000Y18250000D03*
%TD*%
%TO.C,C144*%
X52630000Y24150000D03*
X51670000Y24150000D03*
%TD*%
D14*
%TO.C,C106*%
X107170000Y15650000D03*
X108130000Y15650000D03*
%TD*%
D25*
%TO.C,Q4*%
X76300000Y9400000D03*
X76300000Y10398000D03*
X74998000Y9900000D03*
%TD*%
D31*
%TO.C,D15*%
X1025000Y24425000D03*
X1025000Y23025000D03*
%TD*%
D14*
%TO.C,R176*%
X45190000Y43410000D03*
X46150000Y43410000D03*
%TD*%
D79*
%TO.C,Q15*%
X29401000Y17250000D03*
X27501000Y17250000D03*
X28450500Y15050000D03*
%TD*%
D29*
%TO.C,R101*%
X117650000Y26432000D03*
X117650000Y25902000D03*
X117650000Y25360000D03*
X117650000Y24830000D03*
X118552000Y24830000D03*
X118552000Y25360000D03*
X118552000Y25902000D03*
X118552000Y26432000D03*
%TD*%
D20*
%TO.C,D43*%
X105350000Y39929000D03*
X105350000Y40629000D03*
%TD*%
D80*
%TO.C,U7*%
X53020000Y14623000D03*
X52520000Y14623000D03*
X52022000Y14623000D03*
X51522000Y14623000D03*
X51522000Y12074000D03*
X52022000Y12074000D03*
X52520000Y12074000D03*
X53020000Y12074000D03*
D81*
X52270000Y13350000D03*
%TD*%
D34*
%TO.C,TP27*%
X34725000Y6265000D03*
%TD*%
%TO.C,TP6*%
X98155000Y13515000D03*
%TD*%
D15*
%TO.C,R119*%
X77550000Y26580000D03*
X77550000Y25620000D03*
%TD*%
%TO.C,R293*%
X57300000Y15030000D03*
X57300000Y14070000D03*
%TD*%
D14*
%TO.C,C105*%
X106885000Y19700000D03*
X107845000Y19700000D03*
%TD*%
D13*
%TO.C,R169*%
X37920000Y28850000D03*
X37920000Y29810000D03*
%TD*%
D18*
%TO.C,U21*%
X82800000Y12184251D03*
X83300000Y12184251D03*
D19*
X83800000Y12184251D03*
D18*
X84298000Y12184251D03*
X84798000Y12184251D03*
X84798000Y12956251D03*
X84298000Y12956251D03*
D19*
X83800000Y12956251D03*
D18*
X83300000Y12956251D03*
X82800000Y12956251D03*
%TD*%
D13*
%TO.C,R99*%
X36750000Y9270000D03*
X36750000Y10230000D03*
%TD*%
D15*
%TO.C,R124*%
X81050000Y26580000D03*
X81050000Y25620000D03*
%TD*%
D14*
%TO.C,C115*%
X117070000Y9450000D03*
X118030000Y9450000D03*
%TD*%
D13*
%TO.C,R140*%
X77890000Y3470000D03*
X77890000Y4430000D03*
%TD*%
D15*
%TO.C,C45*%
X30950000Y19830000D03*
X30950000Y18870000D03*
%TD*%
D34*
%TO.C,TP21*%
X73200000Y41825000D03*
%TD*%
D30*
%TO.C,D9*%
X39050000Y900000D03*
X39050000Y2300000D03*
%TD*%
D15*
%TO.C,R136*%
X74450000Y13430000D03*
X74450000Y12470000D03*
%TD*%
D33*
%TO.C,Q10*%
X102850000Y8060000D03*
X101852000Y8060000D03*
X102350000Y6758000D03*
%TD*%
D18*
%TO.C,U14*%
X47250000Y12863000D03*
X47750000Y12863000D03*
D19*
X48250000Y12863000D03*
D18*
X48748000Y12863000D03*
X49248000Y12863000D03*
X49248000Y13635000D03*
X48748000Y13635000D03*
D19*
X48250000Y13635000D03*
D18*
X47750000Y13635000D03*
X47250000Y13635000D03*
%TD*%
D22*
%TO.C,D50*%
X117700000Y38301000D03*
X117700000Y37601000D03*
%TD*%
D20*
%TO.C,D57*%
X101650000Y5059000D03*
X101650000Y5759000D03*
%TD*%
D28*
%TO.C,C108*%
X107080000Y42500000D03*
X106120000Y42500000D03*
%TD*%
D15*
%TO.C,C62*%
X44850000Y18262531D03*
X44850000Y17302531D03*
%TD*%
D28*
%TO.C,R5*%
X39000000Y43250000D03*
X38040000Y43250000D03*
%TD*%
D20*
%TO.C,D49*%
X117700000Y38899000D03*
X117700000Y39599000D03*
%TD*%
D31*
%TO.C,R178*%
X38775000Y36375000D03*
X38775000Y37775000D03*
%TD*%
D14*
%TO.C,R202*%
X74924938Y21705000D03*
X75884938Y21705000D03*
%TD*%
D72*
%TO.C,C1*%
X30505000Y45160000D03*
X37005000Y45160000D03*
%TD*%
D14*
%TO.C,R227*%
X55170000Y12950000D03*
X56130000Y12950000D03*
%TD*%
D33*
%TO.C,Q9*%
X107050000Y8060000D03*
X106052000Y8060000D03*
X106550000Y6758000D03*
%TD*%
D82*
%TO.C,J10*%
X23930000Y20675000D03*
X23930000Y19425000D03*
X23930000Y18177000D03*
X23930000Y16926000D03*
D83*
X21182000Y23225000D03*
X21182000Y14376000D03*
%TD*%
D14*
%TO.C,R254*%
X27570000Y21650000D03*
X28530000Y21650000D03*
%TD*%
D28*
%TO.C,R199*%
X8930000Y25050000D03*
X7970000Y25050000D03*
%TD*%
D15*
%TO.C,R184*%
X75450000Y13430000D03*
X75450000Y12470000D03*
%TD*%
D13*
%TO.C,R238*%
X50480000Y41050000D03*
X50480000Y42010000D03*
%TD*%
D31*
%TO.C,C12*%
X84950000Y25200000D03*
X84950000Y26600000D03*
%TD*%
D14*
%TO.C,R226*%
X55170000Y13950000D03*
X56130000Y13950000D03*
%TD*%
D84*
%TO.C,D32*%
X30737000Y37350000D03*
X31611000Y37350000D03*
%TD*%
D28*
%TO.C,C156*%
X32120000Y28230000D03*
X31160000Y28230000D03*
%TD*%
D15*
%TO.C,R278*%
X59200000Y40530000D03*
X59200000Y39570000D03*
%TD*%
D22*
%TO.C,D44*%
X105350000Y39260000D03*
X105350000Y38560000D03*
%TD*%
D14*
%TO.C,R77*%
X31370000Y22750000D03*
X32330000Y22750000D03*
%TD*%
D20*
%TO.C,D47*%
X108050000Y45599000D03*
X108050000Y46299000D03*
%TD*%
D21*
%TO.C,C153*%
X29610000Y33420000D03*
X29610000Y34820000D03*
%TD*%
D52*
%TO.C,U9*%
X32303000Y17399000D03*
X33254000Y17399000D03*
X34204000Y17399000D03*
X34204000Y19999000D03*
X33254000Y19999000D03*
X32303000Y19999000D03*
%TD*%
D37*
%TO.C,FID3*%
X118850000Y58850000D03*
%TD*%
D42*
%TO.C,C154*%
X44140000Y37780000D03*
X44140000Y36380000D03*
%TD*%
D15*
%TO.C,R126*%
X77450000Y18605000D03*
X77450000Y17645000D03*
%TD*%
D28*
%TO.C,R162*%
X66880000Y27350000D03*
X65920000Y27350000D03*
%TD*%
D85*
%TO.C,R50*%
X67673546Y25134982D03*
X67392118Y24853553D03*
X67107861Y24569296D03*
X66826432Y24287868D03*
X67249282Y23865018D03*
X67530711Y24146447D03*
X67814968Y24430704D03*
X68096396Y24712132D03*
%TD*%
D28*
%TO.C,R170*%
X36940000Y29820000D03*
X35980000Y29820000D03*
%TD*%
D36*
%TO.C,S4*%
X32402000Y3650000D03*
X36500000Y3650000D03*
X32402000Y2048000D03*
X36500000Y2048000D03*
%TD*%
D13*
%TO.C,R106*%
X39100000Y3470000D03*
X39100000Y4430000D03*
%TD*%
D86*
%TO.C,U10*%
X47900000Y20481531D03*
X47900000Y20882531D03*
X47900000Y21282531D03*
X47900000Y21680531D03*
X47900000Y22082531D03*
X47900000Y22480531D03*
X47900000Y22880531D03*
X47900000Y23280531D03*
D87*
X47202000Y23780531D03*
X46801000Y23780531D03*
X46401000Y23780531D03*
X46000000Y23780531D03*
X45600000Y23780531D03*
X45202000Y23780531D03*
X44800000Y23780531D03*
X44402000Y23780531D03*
X44002000Y23780531D03*
X43602000Y23780531D03*
X43200000Y23780531D03*
X42800000Y23780531D03*
D88*
X42102000Y23280531D03*
X42102000Y22880531D03*
X42102000Y22480531D03*
X42102000Y22082531D03*
X42102000Y21680531D03*
X42102000Y21282531D03*
X42102000Y20882531D03*
X42102000Y20481531D03*
D89*
X42800000Y19981531D03*
X43200000Y19981531D03*
X43602000Y19981531D03*
X44002000Y19981531D03*
X44402000Y19981531D03*
X44800000Y19981531D03*
X45202000Y19981531D03*
X45600000Y19981531D03*
X46000000Y19981531D03*
X46401000Y19981531D03*
X46801000Y19981531D03*
X47202000Y19981531D03*
D90*
X46500000Y21230531D03*
X46500000Y22630531D03*
D91*
X45000000Y21882531D03*
D90*
X44950000Y21230531D03*
X44950000Y22630531D03*
X43501000Y21230531D03*
X43501000Y22630531D03*
%TD*%
D15*
%TO.C,R241*%
X10665000Y24239000D03*
X10665000Y23279000D03*
%TD*%
D18*
%TO.C,U20*%
X79800000Y12184251D03*
X80300000Y12184251D03*
D19*
X80800000Y12184251D03*
D18*
X81298000Y12184251D03*
X81798000Y12184251D03*
X81798000Y12956251D03*
X81298000Y12956251D03*
D19*
X80800000Y12956251D03*
D18*
X80300000Y12956251D03*
X79800000Y12956251D03*
%TD*%
D15*
%TO.C,C48*%
X25790000Y24360000D03*
X25790000Y23400000D03*
%TD*%
D28*
%TO.C,R161*%
X66880000Y28350000D03*
X65920000Y28350000D03*
%TD*%
D13*
%TO.C,C70*%
X81050000Y16520000D03*
X81050000Y17480000D03*
%TD*%
D92*
%TO.C,J13*%
X67790000Y6840000D03*
X67390000Y6840000D03*
X66988000Y6840000D03*
X66588000Y6840000D03*
X66189000Y6840000D03*
X65790000Y6840000D03*
X65389000Y6840000D03*
X64990000Y6840000D03*
X64590000Y6840000D03*
X64190000Y6840000D03*
X63788000Y6840000D03*
X63388000Y6840000D03*
X62990000Y6840000D03*
X62589000Y6840000D03*
X62190000Y6840000D03*
X61790000Y6840000D03*
X61389000Y6840000D03*
X60988000Y6840000D03*
X60589000Y6840000D03*
D93*
X58765000Y5790000D03*
D94*
X58765000Y1290000D03*
D93*
X69614000Y5790000D03*
D94*
X69614000Y1290000D03*
%TD*%
D28*
%TO.C,C68*%
X75884938Y20750000D03*
X74924938Y20750000D03*
%TD*%
D14*
%TO.C,R272*%
X27280000Y35980000D03*
X28240000Y35980000D03*
%TD*%
%TO.C,R230*%
X101855000Y9050000D03*
X102815000Y9050000D03*
%TD*%
D28*
%TO.C,R131*%
X51430000Y15950000D03*
X50470000Y15950000D03*
%TD*%
D37*
%TO.C,FID1*%
X2550000Y1600000D03*
%TD*%
D95*
%TO.C,J11*%
X115499000Y47400000D03*
X115499000Y12601000D03*
D96*
X111751000Y45599000D03*
X116249000Y45599000D03*
X111751000Y44801000D03*
X116249000Y44801000D03*
X111751000Y44000000D03*
X116249000Y44000000D03*
X111751000Y43199000D03*
X116249000Y43199000D03*
X111751000Y42401000D03*
X116249000Y42401000D03*
X111751000Y41599000D03*
X116249000Y41599000D03*
X111751000Y40801000D03*
X116249000Y40801000D03*
X111751000Y40000000D03*
X116249000Y40000000D03*
X111751000Y39199000D03*
X116249000Y39199000D03*
X111751000Y38401000D03*
X116249000Y38401000D03*
X111751000Y37600000D03*
X116249000Y37600000D03*
X111751000Y36800000D03*
X116249000Y36800000D03*
X111751000Y35999000D03*
X116249000Y35999000D03*
X111751000Y35201000D03*
X116249000Y35201000D03*
X111751000Y34401000D03*
X116249000Y34401000D03*
X111751000Y33601000D03*
X116249000Y33601000D03*
X111751000Y32799000D03*
X116249000Y32799000D03*
X111751000Y32000000D03*
X116249000Y32000000D03*
X111751000Y31200000D03*
X116249000Y31200000D03*
X111751000Y30401000D03*
X116249000Y30401000D03*
X111751000Y29599000D03*
X116249000Y29599000D03*
X111751000Y28801000D03*
X116249000Y28801000D03*
X111751000Y28001000D03*
X116249000Y28001000D03*
X111751000Y27201000D03*
X116249000Y27201000D03*
X111751000Y26400000D03*
X116249000Y26400000D03*
X111751000Y25600000D03*
X116249000Y25600000D03*
X111751000Y24800000D03*
X116249000Y24800000D03*
X111751000Y24001000D03*
X116249000Y24001000D03*
X111751000Y23201000D03*
X116249000Y23201000D03*
X111751000Y22401000D03*
X116249000Y22401000D03*
X111751000Y21600000D03*
X116249000Y21600000D03*
X111751000Y20801000D03*
X116249000Y20801000D03*
X111751000Y20001000D03*
X116249000Y20001000D03*
X111751000Y19200000D03*
X116249000Y19200000D03*
X111751000Y18401000D03*
X116249000Y18401000D03*
X111751000Y17600000D03*
X116249000Y17600000D03*
X111751000Y16801000D03*
X116249000Y16801000D03*
X111751000Y16001000D03*
X116249000Y16001000D03*
X111751000Y15200000D03*
X116249000Y15200000D03*
X111751000Y14401000D03*
X116249000Y14401000D03*
%TD*%
D31*
%TO.C,D26*%
X104950000Y2250000D03*
X104950000Y850000D03*
%TD*%
D97*
%TO.C,R51*%
X77822000Y31110000D03*
X77822000Y30712000D03*
X77822000Y30310000D03*
X77822000Y29912000D03*
X78420000Y29912000D03*
X78420000Y30310000D03*
X78420000Y30712000D03*
X78420000Y31110000D03*
%TD*%
D43*
%TO.C,J4*%
X45000000Y6055000D03*
X45000000Y2955000D03*
D44*
X42250000Y10635000D03*
X42750000Y10635000D03*
X43250000Y10635000D03*
X43750000Y10635000D03*
X44250000Y10635000D03*
X44750000Y10635000D03*
X45250000Y10635000D03*
X45750000Y10635000D03*
X46250000Y10635000D03*
X46750000Y10635000D03*
X47250000Y10635000D03*
X47750000Y10635000D03*
D45*
X47800000Y9385000D03*
X47400000Y8685000D03*
X46600000Y8685000D03*
X46200000Y9385000D03*
X45800000Y8685000D03*
X45400000Y9385000D03*
X44600000Y9385000D03*
X44200000Y8685000D03*
X43800000Y9385000D03*
X43400000Y8685000D03*
X42600000Y8685000D03*
X42200000Y9385000D03*
D46*
X40730000Y8235000D03*
X40730000Y3505000D03*
D45*
X43000000Y9385000D03*
X47000000Y9385000D03*
D46*
X49270000Y8235000D03*
X49270000Y3505000D03*
%TD*%
D13*
%TO.C,C161*%
X25060000Y38645000D03*
X25060000Y39605000D03*
%TD*%
D20*
%TO.C,D60*%
X37850000Y2449000D03*
X37850000Y3149000D03*
%TD*%
D98*
%TO.C,J12*%
X25393000Y9440500D03*
X22895000Y9440500D03*
D99*
X20325000Y4510500D03*
X27364000Y4510500D03*
%TD*%
D97*
%TO.C,R22*%
X84502000Y35100000D03*
X84502000Y34702000D03*
X84502000Y34300000D03*
X84502000Y33902000D03*
X85100000Y33902000D03*
X85100000Y34300000D03*
X85100000Y34702000D03*
X85100000Y35100000D03*
%TD*%
D100*
%TO.C,U40*%
X45460000Y40160000D03*
X45460000Y39710000D03*
X45460000Y38810000D03*
X45460000Y38360000D03*
D101*
X45925000Y37395000D03*
D53*
X46375000Y37395000D03*
X46825000Y37395000D03*
X47525000Y37395000D03*
X47975000Y37395000D03*
X48425000Y37400000D03*
D100*
X49340000Y37910000D03*
X49340000Y38360000D03*
X49340000Y38810000D03*
X49340000Y39260000D03*
X49340000Y39710000D03*
X49340000Y40160000D03*
X49340000Y40610000D03*
D53*
X48875000Y41275000D03*
X48425000Y41275000D03*
X47975000Y41275000D03*
X47525000Y41275000D03*
X46825000Y41275000D03*
X46375000Y41275000D03*
X45925000Y41275000D03*
D102*
X47890000Y40085000D03*
D103*
X46225000Y40085000D03*
D104*
X46650000Y38560000D03*
D105*
X48385000Y38345000D03*
%TD*%
D106*
%TO.C,L1*%
X45120000Y32780000D03*
X41870000Y32780000D03*
%TD*%
D29*
%TO.C,R102*%
X117650000Y23412000D03*
X117650000Y22882000D03*
X117650000Y22340000D03*
X117650000Y21810000D03*
X118552000Y21810000D03*
X118552000Y22340000D03*
X118552000Y22882000D03*
X118552000Y23412000D03*
%TD*%
D13*
%TO.C,R104*%
X37750000Y9270000D03*
X37750000Y10230000D03*
%TD*%
D66*
%TO.C,R214*%
X59610589Y23810589D03*
X60289411Y24489411D03*
%TD*%
D15*
%TO.C,R187*%
X99150000Y21330000D03*
X99150000Y20370000D03*
%TD*%
D28*
%TO.C,R28*%
X97780000Y30150000D03*
X96820000Y30150000D03*
%TD*%
%TO.C,R3*%
X39000000Y42280000D03*
X38040000Y42280000D03*
%TD*%
D29*
%TO.C,R64*%
X117600000Y34052000D03*
X117600000Y33522000D03*
X117600000Y32980000D03*
X117600000Y32450000D03*
X118502000Y32450000D03*
X118502000Y32980000D03*
X118502000Y33522000D03*
X118502000Y34052000D03*
%TD*%
D28*
%TO.C,R30*%
X85130000Y28950000D03*
X84170000Y28950000D03*
%TD*%
D34*
%TO.C,TP4*%
X65800000Y46550000D03*
%TD*%
D13*
%TO.C,C49*%
X37450000Y20070000D03*
X37450000Y21030000D03*
%TD*%
D15*
%TO.C,C33*%
X50330000Y13920000D03*
X50330000Y12960000D03*
%TD*%
%TO.C,R74*%
X34300000Y16115000D03*
X34300000Y15155000D03*
%TD*%
D14*
%TO.C,R239*%
X35680000Y35400000D03*
X36640000Y35400000D03*
%TD*%
D15*
%TO.C,R84*%
X35785000Y12930000D03*
X35785000Y11970000D03*
%TD*%
D28*
%TO.C,C6*%
X33420000Y34400000D03*
X32460000Y34400000D03*
%TD*%
%TO.C,C111*%
X105440000Y36450000D03*
X104480000Y36450000D03*
%TD*%
D42*
%TO.C,C127*%
X40175000Y37780000D03*
X40175000Y36380000D03*
%TD*%
D28*
%TO.C,C10*%
X97780000Y33550000D03*
X96820000Y33550000D03*
%TD*%
D107*
%TO.C,J1*%
X89481000Y43629000D03*
D108*
X89481000Y23631000D03*
D109*
X94729000Y42879000D03*
X87231000Y42631000D03*
X94729000Y42381000D03*
X87231000Y42131000D03*
X94729000Y41881000D03*
X87231000Y41630000D03*
X94729000Y41380000D03*
X87231000Y41130000D03*
X94729000Y40880000D03*
X87231000Y40630000D03*
X94729000Y40380000D03*
X87231000Y40130000D03*
X94729000Y39880000D03*
X87231000Y39630000D03*
X94729000Y39380000D03*
X87231000Y39130000D03*
X94729000Y38880000D03*
X87231000Y38631000D03*
X94729000Y38381000D03*
X87231000Y38131000D03*
X94729000Y37881000D03*
X87231000Y37631000D03*
X94729000Y37380000D03*
X87231000Y35130000D03*
X94729000Y34880000D03*
X87231000Y34630000D03*
X94729000Y34380000D03*
X87231000Y34130000D03*
X94729000Y33880000D03*
X87231000Y33630000D03*
X94729000Y33380000D03*
X87231000Y33130000D03*
X94729000Y32880000D03*
X87231000Y32630000D03*
X94729000Y32380000D03*
X87231000Y32130000D03*
X94729000Y31880000D03*
X87231000Y31630000D03*
X94729000Y31380000D03*
X87231000Y31130000D03*
X94729000Y30880000D03*
X87231000Y30630000D03*
X94729000Y30380000D03*
X87231000Y30130000D03*
X94729000Y29880000D03*
X87231000Y29630000D03*
X94729000Y29380000D03*
X87231000Y29130000D03*
X94729000Y28880000D03*
X87231000Y28630000D03*
X94729000Y28380000D03*
X87231000Y28130000D03*
X94729000Y27880000D03*
X87231000Y27630000D03*
X94729000Y27380000D03*
X87231000Y27130000D03*
X94729000Y26880000D03*
X87231000Y26631000D03*
X94729000Y26381000D03*
X87231000Y26131000D03*
X94729000Y25881000D03*
X87231000Y25631000D03*
X94729000Y25381000D03*
X87231000Y25131000D03*
X94729000Y24881000D03*
X87231000Y24631000D03*
X94729000Y24381000D03*
D110*
X93981000Y43980000D03*
X93981000Y23279000D03*
%TD*%
D34*
%TO.C,TP7*%
X98155000Y14525000D03*
%TD*%
D111*
%TO.C,U29*%
X27880000Y38000000D03*
D112*
X27705000Y37825000D03*
D113*
X27880000Y38475000D03*
X27880000Y38925000D03*
D111*
X27880000Y39400000D03*
D112*
X27705000Y39575000D03*
D114*
X27230000Y38700000D03*
X26730000Y38700000D03*
D112*
X26255000Y39575000D03*
D115*
X26080000Y39400000D03*
D116*
X26080000Y38925000D03*
X26080000Y38475000D03*
D112*
X26255000Y37825000D03*
D115*
X26080000Y38000000D03*
%TD*%
D117*
%TO.C,FB1*%
X25225000Y41299000D03*
X28225000Y41299000D03*
%TD*%
D13*
%TO.C,R263*%
X38920000Y30770000D03*
X38920000Y31730000D03*
%TD*%
D28*
%TO.C,R198*%
X8930000Y24050000D03*
X7970000Y24050000D03*
%TD*%
D13*
%TO.C,C54*%
X41950000Y24920000D03*
X41950000Y25880000D03*
%TD*%
D18*
%TO.C,U16*%
X44250000Y12863000D03*
X44750000Y12863000D03*
D19*
X45250000Y12863000D03*
D18*
X45748000Y12863000D03*
X46248000Y12863000D03*
X46248000Y13635000D03*
X45748000Y13635000D03*
D19*
X45250000Y13635000D03*
D18*
X44750000Y13635000D03*
X44250000Y13635000D03*
%TD*%
D15*
%TO.C,C60*%
X43850000Y18230000D03*
X43850000Y17270000D03*
%TD*%
D13*
%TO.C,C72*%
X88050000Y16520000D03*
X88050000Y17480000D03*
%TD*%
D25*
%TO.C,Q12*%
X56300000Y15100000D03*
X56300000Y16098000D03*
X54998000Y15600000D03*
%TD*%
D14*
%TO.C,R121*%
X117770000Y19250000D03*
X118730000Y19250000D03*
%TD*%
D13*
%TO.C,R231*%
X103950000Y7170000D03*
X103950000Y8130000D03*
%TD*%
%TO.C,C69*%
X87050000Y16520000D03*
X87050000Y17480000D03*
%TD*%
D17*
%TO.C,R234*%
X106750000Y16950000D03*
X108150000Y16950000D03*
%TD*%
D13*
%TO.C,R67*%
X65750000Y43620000D03*
X65750000Y44580000D03*
%TD*%
D26*
%TO.C,C151*%
X40730000Y40120000D03*
X42930000Y40120000D03*
%TD*%
D30*
%TO.C,D11*%
X77850000Y850000D03*
X77850000Y2250000D03*
%TD*%
D65*
%TO.C,R210*%
X64509411Y25009411D03*
X63830589Y24330589D03*
%TD*%
D14*
%TO.C,R188*%
X30770000Y6850000D03*
X31730000Y6850000D03*
%TD*%
%TO.C,R222*%
X106070000Y9050000D03*
X107030000Y9050000D03*
%TD*%
D13*
%TO.C,R40*%
X72200000Y40620000D03*
X72200000Y41580000D03*
%TD*%
D15*
%TO.C,C163*%
X59550000Y13180000D03*
X59550000Y12220000D03*
%TD*%
D16*
%TO.C,C51*%
X58700000Y7950000D03*
X57300000Y7950000D03*
%TD*%
D51*
%TO.C,R34*%
X63275000Y10152000D03*
X63673000Y10152000D03*
X64075000Y10152000D03*
X64473000Y10152000D03*
X64473000Y10750000D03*
X64075000Y10750000D03*
X63673000Y10750000D03*
X63275000Y10750000D03*
%TD*%
D32*
%TO.C,H3*%
X115000000Y5000000D03*
%TD*%
%TO.C,H4*%
X10000000Y5000000D03*
%TD*%
D118*
%TO.C,J9*%
X57969000Y3495500D03*
X50350000Y2480500D03*
X50350000Y4511500D03*
%TD*%
D32*
%TO.C,H5*%
X115000000Y56500000D03*
%TD*%
D45*
%TO.C,J3*%
X26731000Y6436000D03*
X20950000Y6436000D03*
D119*
X28161000Y2755000D03*
D120*
X28161000Y6936000D03*
D119*
X19520000Y2755000D03*
D120*
X19520000Y6936000D03*
%TD*%
D121*
%TO.C,SW1*%
X24137500Y56003000D03*
X27138500Y56003000D03*
%TD*%
D107*
%TO.C,J2*%
X89342000Y31999000D03*
D108*
X89342000Y51996000D03*
%TD*%
D32*
%TO.C,SP8*%
X11000000Y42000000D03*
%TD*%
%TO.C,H6*%
X7500000Y52500000D03*
%TD*%
M02*
