M48
; DRILL file {KiCad 8.0.8} date 2025-02-13T16:32:35+1100
; FORMAT={-:-/ absolute / inch / decimal}
; #@! TF.CreationDate,2025-02-13T16:32:35+11:00
; #@! TF.GenerationSoftware,Kicad,Pcbnew,8.0.8
; #@! TF.FileFunction,Plated,1,8,PTH
FMAT,2
INCH
; #@! TA.AperFunction,Plated,PTH,ViaDrill
T1C0.0039
; #@! TA.AperFunction,Plated,PTH,ComponentDrill
T2C0.0039
; #@! TA.AperFunction,Plated,PTH,ComponentDrill
T3C0.0118
; #@! TA.AperFunction,Plated,PTH,ComponentDrill
T4C0.0236
; #@! TA.AperFunction,Plated,PTH,ComponentDrill
T5C0.0350
; #@! TA.AperFunction,Plated,PTH,ComponentDrill
T6C0.0400
; #@! TA.AperFunction,Plated,PTH,ComponentDrill
T7C0.0551
; #@! TA.AperFunction,Plated,PTH,ComponentDrill
T8C0.0630
; #@! TA.AperFunction,Plated,PTH,ComponentDrill
T9C0.0630
; #@! TA.AperFunction,Plated,PTH,ComponentDrill
T10C0.0770
; #@! TA.AperFunction,Plated,PTH,ComponentDrill
T11C0.1457
%
G90
G05
T1
X0.061Y2.25
X0.1398Y1.935
X0.1673Y1.061
X0.1673Y1.0138
X0.1673Y0.9665
X0.1978Y1.3199
X0.1988Y2.3366
X0.2146Y1.061
X0.2146Y1.0138
X0.2146Y0.9665
X0.2618Y1.061
X0.2618Y1.0138
X0.2618Y0.9665
X0.3209Y0.4075
X0.3366Y0.561
X0.4154Y0.4075
X0.4311Y1.8327
X0.4429Y0.4154
X0.5Y0.4173
X0.563Y1.8858
X0.563Y1.8563
X0.563Y1.8268
X0.5866Y0.3209
X0.5925Y1.8858
X0.5925Y1.8563
X0.5925Y1.8268
X0.6122Y0.1083
X0.6398Y0.1083
X0.6559Y0.5083
X0.6642Y0.3499
X0.6697Y0.4783
X0.6789Y0.6229
X0.7126Y0.4012
X0.7132Y0.3571
X0.7224Y0.2539
X0.7295Y0.6862
X0.7303Y1.8012
X0.7312Y0.7109
X0.7323Y0.6614
X0.7333Y0.1892
X0.752Y0.437
X0.7781Y0.6211
X0.78Y0.7243
X0.7933Y0.4154
X0.7933Y0.3917
X0.7933Y0.3681
X0.8Y1.8689
X0.8006Y0.6231
X0.8009Y0.6484
X0.8035Y1.8311
X0.8043Y0.7254
X0.8114Y1.8508
X0.8126Y1.0236
X0.8134Y1.811
X0.8169Y0.4154
X0.8169Y0.3917
X0.8169Y0.3681
X0.8233Y1.8685
X0.826Y1.8307
X0.8268Y0.622
X0.8299Y1.8902
X0.8346Y1.9803
X0.8346Y1.8512
X0.8378Y0.4421
X0.8381Y0.6616
X0.8406Y0.3917
X0.8406Y0.3681
X0.8406Y0.3465
X0.8433Y0.7172
X0.846Y0.6837
X0.8461Y1.8682
X0.8465Y2.0257
X0.8465Y2.0021
X0.8504Y0.4232
X0.8516Y1.8902
X0.8543Y0.4764
X0.8547Y2.0984
X0.8563Y1.9803
X0.8602Y2.2776
X0.8642Y0.3917
X0.8642Y0.3681
X0.8642Y0.3465
X0.8701Y2.0257
X0.8701Y2.0021
X0.8979Y1.9732
X0.9094Y0.2598
X0.9114Y2.0689
X0.913Y1.8
X0.9173Y1.5394
X0.9173Y1.5157
X0.9239Y1.9929
X0.9331Y0.3406
X0.935Y1.5039
X0.9354Y1.5512
X0.9354Y1.5276
X0.9469Y0.2598
X0.9658Y2.1447
X0.9734Y2.166
X0.9736Y1.8676
X0.9902Y2.0768
X0.9902Y1.5217
X0.9902Y0.8287
X0.9902Y0.5079
X0.9921Y0.7421
X0.9921Y0.7224
X0.9921Y0.7028
X0.9921Y0.6831
X0.9941Y0.5369
X1.0051Y1.9677
X1.0118Y0.7224
X1.0118Y0.7028
X1.0118Y0.6831
X1.0118Y0.4705
X1.0179Y0.9848
X1.0226Y1.8563
X1.0256Y0.7894
X1.0315Y0.7224
X1.0315Y0.7028
X1.0315Y0.6831
X1.0403Y2.0442
X1.0409Y1.2717
X1.0433Y0.6407
X1.0441Y0.6048
X1.0476Y0.9933
X1.0492Y1.2881
X1.0492Y1.126
X1.0492Y0.7126
X1.0492Y0.6929
X1.0492Y0.6732
X1.0522Y1.747
X1.0531Y1.7224
X1.0596Y1.1024
X1.0634Y1.7988
X1.0713Y0.9929
X1.0714Y1.6555
X1.0714Y1.6329
X1.0714Y1.6112
X1.0714Y1.5896
X1.0745Y1.5034
X1.0791Y1.7449
X1.0791Y1.7236
X1.0807Y2.0955
X1.0839Y1.4626
X1.0876Y1.6732
X1.0906Y1.8091
X1.0937Y1.2717
X1.1Y1.289
X1.1028Y1.5567
X1.1055Y1.7217
X1.1083Y0.8799
X1.1118Y1.4382
X1.1122Y0.8248
X1.1133Y0.7829
X1.1152Y2.2431
X1.1181Y0.9695
X1.122Y2.1732
X1.1224Y1.5213
X1.1233Y0.8051
X1.1241Y1.546
X1.1272Y1.7783
X1.128Y1.9587
X1.128Y0.7173
X1.128Y0.6811
X1.1299Y1.9862
X1.1398Y1.439
X1.1398Y1.4075
X1.1398Y1.2969
X1.1437Y1.4803
X1.1457Y0.9272
X1.1516Y1.4232
X1.1543Y1.5
X1.1545Y1.6467
X1.1634Y1.4803
X1.1634Y1.4388
X1.1634Y1.4075
X1.1685Y1.5142
X1.1686Y0.9057
X1.1717Y1.3512
X1.1746Y2.0872
X1.1752Y1.4232
X1.185Y0.6516
X1.185Y0.6299
X1.185Y0.6083
X1.187Y1.4388
X1.187Y1.4075
X1.1874Y0.9183
X1.1909Y0.8283
X1.1909Y0.8091
X1.1988Y1.0936
X1.1989Y1.1162
X1.2035Y1.3201
X1.2047Y0.6516
X1.2047Y0.6299
X1.2047Y0.6083
X1.2066Y0.9303
X1.2079Y1.137
X1.2087Y1.5128
X1.2087Y1.4931
X1.2087Y1.4715
X1.2106Y0.8287
X1.2106Y0.8091
X1.2119Y1.1593
X1.2205Y1.0802
X1.2244Y1.0572
X1.2244Y1.0265
X1.2343Y0.8287
X1.237Y1.3201
X1.2421Y0.7303
X1.2425Y1.0437
X1.252Y0.6378
X1.252Y0.6181
X1.2571Y1.2906
X1.2571Y1.2654
X1.2638Y1.5157
X1.2642Y1.5346
X1.265Y1.5539
X1.2657Y2.0177
X1.2657Y1.9941
X1.2657Y1.5752
X1.2716Y0.6184
X1.2717Y0.6378
X1.2795Y1.8676
X1.2803Y1.8484
X1.2827Y1.2654
X1.2831Y1.2906
X1.2835Y1.5945
X1.2835Y1.5354
X1.2835Y1.5157
X1.2846Y1.5547
X1.285Y1.5748
X1.2913Y2.1811
X1.2913Y2.1614
X1.2913Y2.1417
X1.2913Y0.6378
X1.2913Y0.6177
X1.2992Y1.8676
X1.3Y1.8484
X1.311Y2.1811
X1.311Y2.1614
X1.311Y2.1417
X1.3188Y1.9883
X1.3189Y1.8676
X1.3197Y1.8484
X1.3224Y1.7736
X1.3272Y1.7201
X1.3272Y1.7004
X1.3272Y1.6807
X1.3301Y0.065
X1.3307Y2.1811
X1.3307Y2.1614
X1.3307Y2.1417
X1.334Y0.6115
X1.3524Y1.4665
X1.3524Y1.4469
X1.3593Y1.3711
X1.3606Y1.7968
X1.3673Y1.3161
X1.3691Y1.8642
X1.3701Y2.2943
X1.3705Y1.961
X1.372Y2.0295
X1.372Y1.9862
X1.372Y1.4665
X1.372Y1.4469
X1.372Y1.4272
X1.372Y1.4075
X1.372Y1.3878
X1.3827Y1.8017
X1.3829Y1.8462
X1.3884Y0.5551
X1.3901Y1.9726
X1.3937Y0.124
X1.3957Y2.1437
X1.3961Y1.8654
X1.3996Y1.9941
X1.4035Y0.1004
X1.4047Y1.3748
X1.4101Y1.9593
X1.4114Y2.3091
X1.4118Y1.6957
X1.4154Y0.8504
X1.4236Y1.6756
X1.4242Y0.7718
X1.4272Y1.7157
X1.435Y2.0689
X1.4385Y1.9902
X1.4402Y1.6957
X1.4425Y1.3327
X1.4488Y2.0256
X1.4504Y2.1843
X1.4508Y0.687
X1.4591Y1.2012
X1.4611Y1.8504
X1.4626Y0.3189
X1.4646Y0.6299
X1.465Y1.224
X1.4691Y0.0785
X1.472Y2.0428
X1.4724Y0.8495
X1.4813Y2.0197
X1.4828Y1.372
X1.4831Y1.9971
X1.4874Y1.3484
X1.489Y1.2264
X1.4921Y1.3236
X1.4941Y1.4882
X1.4961Y0.7697
X1.499Y1.5108
X1.5Y0.6083
X1.5059Y0.5335
X1.5059Y0.5118
X1.5098Y2.3287
X1.5197Y1.5315
X1.5197Y1.5118
X1.5209Y1.5508
X1.5213Y1.5717
X1.5295Y2.314
X1.5295Y0.5335
X1.5295Y0.5118
X1.5394Y1.5315
X1.5394Y1.5118
X1.5402Y1.5512
X1.5409Y1.572
X1.5434Y0.6201
X1.5492Y2.3287
X1.5531Y0.5335
X1.5531Y0.5118
X1.561Y0.4323
X1.561Y0.4126
X1.561Y0.3929
X1.5622Y1.7469
X1.5624Y0.3183
X1.563Y1.7035
X1.565Y1.5157
X1.5668Y0.6201
X1.5669Y0.7604
X1.5689Y2.313
X1.5785Y0.0902
X1.5812Y1.1526
X1.5827Y0.863
X1.5846Y0.4323
X1.5846Y0.4126
X1.5846Y0.3929
X1.5862Y1.5354
X1.5862Y1.5157
X1.5925Y0.5689
X1.5947Y2.1657
X1.5965Y0.6201
X1.5984Y2.2969
X1.5984Y0.7618
X1.6004Y0.9423
X1.6014Y1.0443
X1.6022Y0.9656
X1.6033Y0.8747
X1.6033Y0.8483
X1.6043Y1.1526
X1.6043Y1.0886
X1.6059Y1.5354
X1.6059Y1.5157
X1.6079Y2.185
X1.6079Y1.0661
X1.608Y0.908
X1.6083Y1.0217
X1.6083Y0.9941
X1.6122Y1.8504
X1.6122Y2.0669
X1.6122Y1.7859
X1.6191Y2.0404
X1.6201Y1.9675
X1.624Y0.8878
X1.6256Y1.5354
X1.6256Y1.5157
X1.628Y1.8302
X1.628Y1.8031
X1.6298Y1.7256
X1.6319Y0.9258
X1.6406Y2.0283
X1.6476Y2.315
X1.6633Y2.0285
X1.6661Y0.7437
X1.6689Y0.4803
X1.6717Y1.0276
X1.6732Y0.9815
X1.6752Y2.1831
X1.6772Y1.9567
X1.6801Y2.0098
X1.6811Y1.7264
X1.6827Y1.0058
X1.6886Y2.1461
X1.6894Y1.7979
X1.6894Y1.7714
X1.6969Y2.0453
X1.6985Y0.2847
X1.7008Y1.7047
X1.7008Y1.685
X1.7028Y2.126
X1.7028Y2.1024
X1.7028Y2.0197
X1.7028Y1.5354
X1.7028Y1.5157
X1.7067Y2.3209
X1.7072Y1.0058
X1.7106Y1.9626
X1.7114Y1.4059
X1.7149Y0.3011
X1.7186Y1.0288
X1.7205Y1.7047
X1.7205Y1.685
X1.7205Y1.6654
X1.7205Y1.6457
X1.722Y0.2791
X1.7224Y1.5354
X1.7224Y1.5157
X1.7264Y2.3346
X1.7303Y0.7628
X1.7329Y0.9587
X1.7382Y0.8209
X1.7402Y1.6654
X1.7402Y1.6457
X1.745Y0.6024
X1.7461Y2.3209
X1.75Y1.8524
X1.7579Y0.8209
X1.7618Y0.8846
X1.7618Y0.4882
X1.7657Y2.3346
X1.7703Y2.0712
X1.7717Y0.3406
X1.7795Y0.9604
X1.7795Y0.7618
X1.7811Y2.1831
X1.7815Y0.5571
X1.7819Y1.14
X1.7844Y0.8852
X1.7854Y2.3209
X1.7854Y0.6181
X1.7879Y1.1176
X1.7988Y0.6516
X1.8012Y0.4547
X1.8035Y0.6031
X1.8051Y2.3346
X1.8066Y1.0989
X1.8169Y0.4744
X1.8189Y1.5315
X1.8189Y1.5118
X1.8209Y0.5571
X1.8248Y2.3209
X1.8268Y1.0866
X1.8268Y0.9606
X1.8278Y0.7677
X1.828Y2.0577
X1.8307Y2.0274
X1.8307Y2.0041
X1.8317Y2.1132
X1.8327Y1.8445
X1.8335Y2.1327
X1.8339Y0.6102
X1.8343Y2.0843
X1.8386Y1.5315
X1.8386Y1.5118
X1.8402Y0.2858
X1.8465Y2.0472
X1.8492Y1.0941
X1.8499Y1.9921
X1.8507Y2.1007
X1.8543Y1.8514
X1.8543Y1.6638
X1.8575Y0.7516
X1.8583Y1.5315
X1.8583Y1.5118
X1.8583Y0.6122
X1.8587Y1.8134
X1.8602Y2.3346
X1.8635Y0.2839
X1.8669Y1.0772
X1.8737Y0.7674
X1.878Y1.5315
X1.878Y1.5118
X1.8809Y0.6122
X1.8819Y1.8146
X1.8839Y1.061
X1.8858Y2.313
X1.8858Y2.1339
X1.8866Y1.037
X1.8869Y0.2839
X1.8898Y0.4587
X1.8957Y0.7598
X1.8996Y0.5561
X1.9016Y2.3346
X1.9028Y1.0205
X1.905Y0.6071
X1.9063Y1.7492
X1.9075Y0.8853
X1.913Y0.6732
X1.9193Y0.7677
X1.9213Y0.8238
X1.9213Y0.8012
X1.9244Y1.7335
X1.9252Y1.0157
X1.9287Y2.0386
X1.9291Y2.0618
X1.9295Y1.4603
X1.9537Y1.4615
X1.9547Y0.7047
X1.9618Y1.7331
X1.9705Y1.8327
X1.972Y1.8594
X1.9809Y0.8853
X1.9809Y0.4268
X1.9823Y2.2835
X1.9854Y1.7335
X1.9911Y0.5757
X1.9941Y1.9626
X1.9947Y1.8602
X1.9949Y0.685
X1.9961Y2.1161
X2.0087Y2.135
X2.01Y0.1348
X2.0125Y2.0997
X2.0211Y1.6192
X2.0307Y2.1161
X2.0378Y2.1343
X2.0417Y2.2846
X2.048Y0.6051
X2.0481Y0.4461
X2.052Y1.9626
X2.0548Y1.8653
X2.0551Y1.6594
X2.0598Y0.1902
X2.063Y0.4193
X2.0636Y1.4297
X2.0677Y0.628
X2.0711Y1.6398
X2.0735Y1.7271
X2.0817Y1.7028
X2.0862Y2.2835
X2.0874Y0.6051
X2.0899Y1.7434
X2.0943Y1.6398
X2.0969Y0.1902
X2.1008Y0.4461
X2.1014Y2.0344
X2.1063Y0.0807
X2.1075Y2.2921
X2.1083Y2.011
X2.1083Y1.2303
X2.1089Y1.1681
X2.1102Y1.9606
X2.1103Y1.8663
X2.1142Y1.7402
X2.1142Y1.6555
X2.1152Y0.7677
X2.1153Y0.4193
X2.1161Y2.1457
X2.1186Y0.8913
X2.1202Y1.25
X2.122Y0.6909
X2.1238Y0.1982
X2.1248Y2.3071
X2.1248Y2.0276
X2.1319Y2.1161
X2.1323Y0.0796
X2.1329Y1.1732
X2.1373Y0.8725
X2.1378Y2.3264
X2.1407Y1.5886
X2.1413Y2.0437
X2.1436Y1.25
X2.1483Y1.6143
X2.1485Y0.4787
X2.1498Y1.1575
X2.1506Y1.1323
X2.1516Y2.1278
X2.1516Y2.1044
X2.1555Y1.2307
X2.1575Y0.0846
X2.1591Y2.3181
X2.1594Y2.2854
X2.1622Y2.0248
X2.1643Y1.5983
X2.1646Y2.048
X2.1685Y1.961
X2.1693Y1.8657
X2.1752Y2.1457
X2.1756Y0.2276
X2.1783Y2.3047
X2.1835Y1.5772
X2.1839Y2.2827
X2.1867Y1.7005
X2.1883Y0.1877
X2.1886Y0.7565
X2.1886Y0.7333
X2.1908Y1.5554
X2.1925Y1.6783
X2.1999Y0.2276
X2.2031Y1.7168
X2.2035Y2.0835
X2.2068Y1.5714
X2.2106Y0.4744
X2.2126Y0.311
X2.2165Y0.4016
X2.2177Y2.2827
X2.2244Y0.2276
X2.2254Y1.7215
X2.2259Y1.5289
X2.2274Y0.7077
X2.228Y1.961
X2.2291Y0.2894
X2.2323Y0.4606
X2.2329Y1.5074
X2.2343Y0.8913
X2.2382Y1.0484
X2.2421Y0.5256
X2.2451Y0.4803
X2.2461Y1.3791
X2.2489Y1.5234
X2.2528Y1.0677
X2.2539Y0.7827
X2.2549Y2.0443
X2.2551Y2.1343
X2.2559Y0.2461
X2.2669Y1.3912
X2.2669Y1.3686
X2.2673Y1.6878
X2.2677Y1.0315
X2.2776Y2.2815
X2.2776Y2.0256
X2.2776Y0.8077
X2.2874Y1.9626
X2.2891Y1.6808
X2.2913Y0.5472
X2.2937Y1.8661
X2.2953Y1.4528
X2.2972Y0.8913
X2.2997Y1.2752
X2.3026Y1.4745
X2.3054Y1.6972
X2.3106Y1.2551
X2.313Y0.5315
X2.3143Y2.1058
X2.315Y0.3839
X2.3169Y2.0657
X2.3173Y2.2531
X2.3186Y1.4585
X2.3189Y2.2248
X2.3197Y1.7161
X2.3209Y1.8653
X2.3223Y1.2752
X2.3306Y2.0895
X2.3366Y1.6299
X2.3366Y0.3642
X2.3406Y0.9961
X2.3406Y0.5413
X2.3445Y0.3878
X2.3447Y2.2254
X2.3488Y0.5937
X2.3602Y1.6363
X2.3622Y1.8681
X2.3661Y1.7372
X2.3679Y2.2272
X2.3681Y0.2028
X2.372Y1.2248
X2.376Y0.3858
X2.378Y2.2854
X2.3819Y0.5394
X2.389Y1.7399
X2.389Y1.7168
X2.3902Y2.0389
X2.3957Y2.063
X2.3957Y0.3996
X2.3957Y0.2028
X2.3969Y1.1654
X2.3996Y1.6959
X2.3996Y1.5325
X2.4001Y2.1184
X2.4035Y0.6142
X2.4066Y2.0225
X2.4075Y1.3327
X2.4094Y1.0413
X2.4094Y0.5394
X2.4154Y0.3858
X2.4165Y2.1021
X2.4173Y2.3228
X2.4183Y2.002
X2.4185Y1.435
X2.4272Y0.8209
X2.4276Y0.6004
X2.4283Y0.9138
X2.4291Y1.0394
X2.4376Y0.8917
X2.4376Y0.8583
X2.4398Y2.1039
X2.4409Y1.124
X2.4409Y0.7854
X2.4421Y1.1476
X2.4487Y0.4302
X2.4496Y1.1693
X2.4548Y0.8406
X2.4562Y0.4525
X2.4567Y0.8745
X2.4597Y2.3012
X2.4615Y0.6122
X2.4643Y1.9976
X2.4705Y0.7835
X2.4722Y0.4365
X2.4744Y2.0412
X2.4744Y2.0178
X2.4803Y0.2323
X2.4823Y2.2961
X2.4949Y2.0535
X2.5Y2.3118
X2.5029Y1.234
X2.5073Y1.8661
X2.5158Y1.9685
X2.5276Y1.2559
X2.5276Y0.2323
X2.5335Y1.4449
X2.5374Y2.2974
X2.5531Y1.752
X2.559Y1.6004
X2.5591Y1.9665
X2.5591Y1.6575
X2.561Y1.7056
X2.561Y1.6831
X2.5669Y1.0502
X2.5674Y0.4348
X2.5728Y2.2984
X2.5732Y1.1654
X2.5739Y0.4572
X2.5748Y0.2323
X2.5749Y1.7608
X2.5787Y1.6115
X2.5807Y1.7056
X2.5807Y1.6831
X2.5808Y1.9783
X2.5813Y1.1871
X2.5828Y1.1414
X2.5896Y1.0492
X2.5899Y0.4412
X2.5925Y0.6043
X2.5965Y0.6594
X2.5973Y1.027
X2.5994Y1.6006
X2.6042Y1.9783
X2.6122Y0.621
X2.6125Y1.0455
X2.6201Y0.5807
X2.6201Y0.5571
X2.6201Y0.5335
X2.622Y0.2323
X2.6292Y1.1713
X2.6335Y1.0362
X2.6339Y2.2795
X2.6378Y2.0354
X2.6398Y0.5807
X2.6398Y0.5571
X2.6398Y0.5335
X2.6408Y0.9176
X2.652Y1.6614
X2.6526Y1.6811
X2.6526Y1.7056
X2.6535Y1.0489
X2.6596Y1.9783
X2.6608Y1.084
X2.683Y1.9783
X2.687Y1.0571
X2.6883Y0.9161
X2.6909Y2.2805
X2.6923Y0.053
X2.6949Y2.0807
X2.6991Y0.8957
X2.7067Y1.0276
X2.7067Y1.9685
X2.7106Y0.874
X2.7124Y0.9154
X2.7306Y1.9744
X2.7343Y1.6861
X2.7343Y1.6596
X2.75Y2.2825
X2.7537Y1.9744
X2.7559Y0.502
X2.7579Y0.7047
X2.7657Y2.0787
X2.7756Y0.439
X2.7756Y0.3996
X2.7815Y1.9843
X2.7854Y0.4193
X2.7857Y1.2421
X2.7917Y0.9118
X2.7953Y0.439
X2.7953Y0.3996
X2.7993Y1.9704
X2.8071Y0.8933
X2.8088Y1.2421
X2.811Y1.7618
X2.813Y1.3406
X2.813Y0.5522
X2.8287Y1.9839
X2.8327Y0.2303
X2.8389Y1.3349
X2.8406Y0.2815
X2.8413Y2.3374
X2.8425Y1.31
X2.8455Y1.9685
X2.8465Y0.374
X2.8504Y0.2638
X2.8504Y0.189
X2.8551Y1.3512
X2.8602Y0.2815
X2.8671Y1.9793
X2.8681Y2.3374
X2.8701Y0.2638
X2.8752Y1.1097
X2.8799Y0.2815
X2.8898Y0.2638
X2.8937Y0.8091
X2.895Y1.3891
X2.8976Y1.9685
X2.8996Y1.689
X2.9035Y1.4291
X2.9114Y1.4051
X2.9127Y1.9866
X2.9183Y1.4823
X2.921Y1.5561
X2.9272Y0.9902
X2.9321Y0.5531
X2.9353Y1.9866
X2.937Y1.0689
X2.937Y0.0276
X2.9429Y0.3568
X2.9496Y1.9677
X2.9646Y1.5949
X2.9657Y2.2827
X2.9843Y0.2776
X2.9882Y0.3947
X2.9902Y1.0085
X2.9902Y0.4823
X2.9909Y1.6874
X2.9909Y1.4882
X2.9973Y1.9886
X3.009Y0.4697
X3.011Y1.8476
X3.0138Y1.4744
X3.02Y1.9886
X3.0213Y1.2031
X3.024Y1.1772
X3.025Y1.0872
X3.0256Y2.2843
X3.0256Y1.376
X3.0256Y0.7032
X3.0272Y2.1786
X3.0272Y2.1552
X3.0272Y2.1154
X3.0272Y1.6729
X3.028Y1.2327
X3.0287Y0.9555
X3.0295Y0.9311
X3.0303Y0.0287
X3.0309Y1.9627
X3.039Y2.1354
X3.0394Y0.8327
X3.0429Y1.6413
X3.0443Y1.0719
X3.0453Y0.8819
X3.0476Y1.1598
X3.0492Y1.7323
X3.0513Y1.9736
X3.065Y1.7098
X3.0693Y1.8622
X3.0739Y1.9736
X3.085Y2.18
X3.0906Y1.6772
X3.0925Y1.0059
X3.0965Y1.7618
X3.0965Y1.3917
X3.0984Y1.1102
X3.1024Y1.5797
X3.1063Y0.5571
X3.1073Y0.7032
X3.1142Y1.4689
X3.1144Y1.0942
X3.1148Y0.9827
X3.115Y2.0268
X3.1152Y2.05
X3.1161Y1.4409
X3.1161Y1.0059
X3.1169Y1.2441
X3.1217Y1.6429
X3.1243Y1.9671
X3.1247Y1.2148
X3.1252Y1.1921
X3.126Y1.1685
X3.1319Y1.7933
X3.1319Y1.0768
X3.1382Y1.8626
X3.1386Y1.9854
X3.1391Y2.1704
X3.1437Y1.5374
X3.1445Y2.011
X3.152Y1.7803
X3.1611Y0.9642
X3.1685Y1.7638
X3.1696Y2.0085
X3.1827Y1.9657
X3.1856Y2.0245
X3.1909Y2.1161
X3.1909Y1.7343
X3.1929Y1.8618
X3.1969Y2.3042
X3.1978Y2.1604
X3.1978Y2.1378
X3.1988Y0.9193
X3.2004Y2.0953
X3.2087Y0.8976
X3.2106Y0.9882
X3.2106Y0.815
X3.2189Y2.2949
X3.2193Y2.1728
X3.2295Y2.0051
X3.2343Y0.9685
X3.242Y2.2958
X3.2421Y1.8012
X3.2461Y1.9626
X3.2465Y1.989
X3.2471Y1.8618
X3.248Y2.1713
X3.2579Y1.4232
X3.2579Y1.4035
X3.2587Y1.6713
X3.2618Y2.2819
X3.2618Y0.5453
X3.2639Y0.7048
X3.2657Y1.5138
X3.268Y1.9567
X3.2717Y1.9843
X3.2799Y2.2961
X3.2835Y2.1752
X3.285Y2.0945
X3.2854Y1.4866
X3.2873Y0.7048
X3.2874Y1.092
X3.2911Y1.9567
X3.2913Y1.3004
X3.2927Y1.2657
X3.2972Y0.9094
X3.2992Y0.5433
X3.3016Y2.111
X3.3029Y2.2957
X3.3035Y2.1596
X3.3035Y2.1362
X3.3051Y1.0753
X3.3075Y1.9744
X3.3077Y0.9868
X3.3091Y0.4508
X3.311Y1.2825
X3.3114Y1.8618
X3.3124Y1.1736
X3.313Y1.5453
X3.3138Y1.8024
X3.3205Y2.2811
X3.3288Y1.9606
X3.3296Y1.8213
X3.3303Y2.1071
X3.3327Y0.8819
X3.3366Y0.5413
X3.3366Y0.4547
X3.3382Y2.298
X3.346Y1.8377
X3.3521Y1.9606
X3.361Y2.2972
X3.364Y1.8538
X3.3768Y1.9626
X3.3776Y2.2815
X3.3803Y2.1787
X3.3837Y1.5433
X3.3972Y2.1224
X3.3977Y2.2961
X3.4138Y2.139
X3.4193Y2.0791
X3.421Y2.2961
X3.4291Y1.8705
X3.4394Y2.068
X3.4394Y2.0446
X3.4406Y2.2839
X3.4547Y2.1236
X3.463Y2.1449
X3.4768Y1.7567
X3.4803Y1.6457
X3.4852Y1.7037
X3.4862Y1.7309
X3.4882Y1.9618
X3.4902Y0.998
X3.4902Y0.9744
X3.4932Y1.8592
X3.494Y1.6301
X3.4961Y2.2854
X3.5078Y1.7584
X3.5089Y1.6153
X3.5138Y0.9862
X3.5276Y1.673
X3.5315Y1.5335
X3.5315Y1.5079
X3.5354Y0.9961
X3.5394Y0.5571
X3.5444Y1.228
X3.5465Y0.9756
X3.5469Y1.8618
X3.548Y1.972
X3.5512Y0.0394
X3.5516Y1.8112
X3.5516Y1.788
X3.5587Y2.2969
X3.5589Y0.5375
X3.5591Y0.313
X3.5591Y0.2854
X3.565Y1.9571
X3.5666Y1.2326
X3.5748Y0.0394
X3.5751Y0.5571
X3.5787Y1.1921
X3.583Y1.2162
X3.5831Y2.1472
X3.5843Y1.7703
X3.5884Y1.9571
X3.5898Y2.1689
X3.5945Y0.5374
X3.597Y1.8644
X3.598Y1.5744
X3.5992Y1.1709
X3.6004Y1.6398
X3.6004Y1.468
X3.6004Y1.4454
X3.6004Y1.3524
X3.6004Y1.3248
X3.6008Y1.7868
X3.6012Y1.976
X3.6017Y1.1993
X3.6024Y1.811
X3.6142Y0.5571
X3.6157Y2.2874
X3.6158Y1.1543
X3.6189Y1.4295
X3.6193Y1.5865
X3.6193Y1.5631
X3.6197Y1.3661
X3.6201Y1.4823
X3.6213Y1.3087
X3.622Y1.8227
X3.622Y1.7993
X3.624Y1.9748
X3.626Y1.6447
X3.6265Y1.7046
X3.6265Y1.6812
X3.6276Y2.1256
X3.6287Y1.7287
X3.6327Y2.1031
X3.6354Y1.5453
X3.6397Y1.1564
X3.6474Y1.9748
X3.6504Y1.6697
X3.6526Y0.9801
X3.6614Y1.8583
X3.667Y1.963
X3.6673Y0.1457
X3.6705Y0.9957
X3.6717Y1.098
X3.6736Y2.2874
X3.6752Y2.185
X3.6752Y1.3114
X3.6764Y1.6283
X3.6772Y1.4232
X3.6772Y1.3701
X3.6791Y1.7815
X3.6791Y1.4882
X3.6791Y0.7677
X3.6807Y1.7224
X3.6807Y1.6642
X3.6811Y1.5457
X3.6823Y1.6043
X3.6839Y2.098
X3.6839Y1.1937
X3.6953Y2.2941
X3.698Y0.7803
X3.7181Y2.2945
X3.7244Y1.8661
X3.7339Y2.278
X3.7343Y2.1846
X3.7697Y1.7197
X3.7701Y1.4252
X3.772Y1.7791
X3.7724Y1.6831
X3.7728Y1.2567
X3.7732Y1.3165
X3.7736Y1.3685
X3.7748Y1.6004
X3.7748Y1.5587
X3.7756Y0.9429
X3.7764Y1.4724
X3.7791Y1.1059
X3.7818Y1.8645
X3.7819Y1.2102
X3.7835Y2.0581
X3.7835Y2.0362
X3.7835Y2.0138
X3.7854Y0.0413
X3.7874Y1.9598
X3.7909Y0.5752
X3.7925Y2.1815
X3.7933Y2.2874
X3.813Y0.0413
X3.8457Y1.859
X3.8504Y0.9035
X3.8591Y1.5746
X3.8593Y1.8407
X3.8602Y2.2303
X3.8602Y0.1457
X3.861Y1.1083
X3.8622Y1.879
X3.8636Y1.597
X3.8656Y1.5526
X3.8661Y1.2697
X3.8661Y1.2067
X3.8665Y1.4264
X3.8768Y1.4925
X3.878Y1.78
X3.8799Y1.7224
X3.8819Y1.3622
X3.8831Y2.2209
X3.8835Y1.2851
X3.8839Y1.4093
X3.8839Y1.3859
X3.8839Y1.0563
X3.8858Y1.6654
X3.8858Y1.6024
X3.8878Y1.5453
X3.8957Y1.7638
X3.8957Y1.7411
X3.8976Y1.6457
X3.8976Y1.623
X3.8999Y1.3015
X3.9024Y2.2354
X3.9035Y1.5274
X3.9035Y1.5041
X3.9075Y1.3228
X3.9244Y2.2138
X3.9272Y0.1969
X3.9365Y0.5862
X3.939Y0.6988
X3.939Y0.0689
X3.9417Y2.1961
X3.9547Y0.6044
X3.9587Y0.7185
X3.9587Y0.2461
X3.9665Y1.4704
X3.9665Y1.447
X3.9783Y0.6043
X3.9921Y0.9717
X3.998Y0.2461
X4.0004Y1.7597
X4.0004Y1.7363
X4.002Y0.6043
X4.0039Y1.3209
X4.0059Y0.7283
X4.0118Y0.9862
X4.0157Y1.4764
X4.022Y1.4531
X4.0232Y1.7248
X4.0256Y0.5925
X4.0354Y1.6652
X4.0354Y1.6419
X4.0371Y0.9859
X4.0394Y1.6929
X4.0394Y1.435
X4.0413Y0.408
X4.0472Y1.5197
X4.0472Y0.789
X4.0492Y1.622
X4.0535Y1.0023
X4.0551Y1.6772
X4.0627Y1.7005
X4.063Y0.7717
X4.063Y0.748
X4.065Y0.408
X4.0705Y1.524
X4.0728Y1.3129
X4.0728Y1.2895
X4.0791Y1.7168
X4.0858Y1.4831
X4.0862Y1.4236
X4.087Y1.5075
X4.0882Y1.3535
X4.0886Y0.408
X4.0894Y1.3886
X4.0906Y0.0246
X4.0921Y2.278
X4.1004Y0.7579
X4.1004Y0.7343
X4.1004Y0.5758
X4.1071Y1.7118
X4.1091Y0.3917
X4.1102Y1.5965
X4.1118Y1.5134
X4.1122Y1.3965
X4.1122Y1.3189
X4.1132Y1.0925
X4.1161Y0.7697
X4.1161Y0.7461
X4.1182Y1.2971
X4.1204Y1.0682
X4.122Y1.3602
X4.122Y0.4213
X4.122Y0.3701
X4.1299Y1.3386
X4.1378Y0.5965
X4.1437Y1.3189
X4.1476Y0.4075
X4.1484Y1.0921
X4.1693Y0.2343
X4.1713Y0.4075
X4.1772Y0.628
X4.1783Y1.0508
X4.1831Y1.3169
X4.1866Y0.9787
X4.1921Y1.2535
X4.1949Y0.4075
X4.1953Y1.0728
X4.1967Y0.3356
X4.2134Y0.9783
X4.2185Y0.4075
X4.226Y1.0291
X4.2283Y1.483
X4.2303Y1.4112
X4.2303Y0.8159
X4.2323Y0.5925
X4.2352Y0.9724
X4.2461Y1.111
X4.25Y0.4232
X4.25Y0.2657
X4.2509Y1.4326
X4.2559Y1.8406
X4.2672Y1.4162
X4.283Y1.7234
X4.2849Y1.2436
X4.2874Y1.6988
X4.2904Y1.0949
X4.2913Y1.6083
X4.3008Y1.2772
X4.3028Y1.3
X4.3063Y1.5835
X4.3071Y0.4705
X4.3146Y0.9772
X4.3154Y1.2551
X4.319Y1.4582
X4.3244Y1.5972
X4.3283Y1.3575
X4.3317Y1.1152
X4.3354Y1.4418
X4.3539Y1.1102
X4.3563Y0.8504
X4.3573Y1.6053
X4.3602Y1.5079
X4.3606Y0.3878
X4.3606Y0.3681
X4.3612Y1.7953
X4.3612Y1.7008
X4.3622Y1.3976
X4.3622Y1.2283
X4.3661Y0.626
X4.3799Y0.2579
X4.3803Y0.3878
X4.3803Y0.3681
X4.3917Y0.1083
X4.3996Y0.1492
X4.4331Y1.6063
X4.4343Y1.3083
X4.4354Y1.2496
X4.4358Y1.6638
X4.437Y1.4862
X4.4469Y0.6949
X4.5028Y1.3773
X4.5028Y1.3542
X4.5037Y0.9803
X4.5109Y1.3986
X4.5128Y1.9114
X4.5256Y0.6122
X4.5343Y1.3986
X4.5354Y1.5453
X4.5369Y0.9946
X4.5374Y0.8455
X4.5394Y1.374
X4.5413Y1.2244
X4.5413Y0.6949
X4.5429Y1.7874
X4.5443Y1.4813
X4.5453Y1.6683
X4.5463Y1.5748
X4.6102Y1.4793
X4.611Y1.7484
X4.6112Y1.6722
X4.6112Y1.5738
X4.6122Y1.7969
X4.6122Y1.376
X4.6142Y1.2248
X4.6378Y1.2215
X4.6437Y0.3445
X4.6467Y1.0778
X4.6486Y1.1004
X4.6622Y1.5323
X4.6622Y1.5087
X4.6673Y1.7361
X4.6673Y1.7127
X4.6673Y1.6337
X4.6673Y1.6104
X4.6732Y1.0728
X4.6732Y0.6555
X4.6756Y1.4866
X4.6791Y1.5488
X4.6801Y1.6929
X4.6801Y1.5915
X4.6811Y1.7549
X4.6811Y1.6526
X4.688Y1.2628
X4.6882Y1.3219
X4.689Y1.2953
X4.6909Y0.8858
X4.6909Y0.8602
X4.6939Y1.1811
X4.6949Y1.1575
X4.6949Y0.9661
X4.6958Y0.6083
X4.6961Y0.9902
X4.6972Y1.0134
X4.6978Y0.7195
X4.6988Y0.7972
X4.6988Y0.7579
T2
X1.3407Y1.0511
X1.3465Y0.9173
X1.3465Y0.9547
X1.3809Y0.9547
X1.3809Y0.9173
X1.3869Y1.0983
X1.3869Y1.0511
X1.3869Y1.0039
X1.4154Y0.9547
X1.4154Y0.9173
X1.439Y1.0512
X1.439Y1.0039
X1.439Y1.0983
X1.4617Y0.9173
X1.4617Y0.9547
X1.491Y1.0039
X1.4912Y1.0983
X1.4912Y1.0511
X1.4961Y0.9547
X1.4961Y0.9173
X1.5306Y0.9547
X1.5306Y0.9173
X1.5376Y1.0511
T3
X1.6614Y0.3695
X1.6772Y0.3419
X1.6929Y0.3695
X1.7087Y0.3419
X1.7244Y0.3695
X1.7402Y0.3419
X1.7559Y0.3695
X1.7874Y0.3695
X1.8031Y0.3419
X1.8189Y0.3695
X1.8346Y0.3419
X1.8504Y0.3695
X1.8661Y0.3419
X1.8819Y0.3695
X3.1831Y0.3661
X3.1988Y0.3386
X3.2146Y0.3661
X3.2303Y0.3386
X3.2461Y0.3661
X3.2618Y0.3386
X3.2776Y0.3661
X3.3091Y0.3661
X3.3248Y0.3386
X3.3406Y0.3661
X3.3563Y0.3386
X3.3721Y0.3661
X3.3878Y0.3386
X3.4035Y0.3661
T5
X0.1451Y0.7927
X0.1451Y0.5927
X0.195Y0.6927
X0.245Y0.7927
X0.245Y0.5431
X0.295Y0.6927
X0.345Y0.7927
X0.395Y0.6927
X0.445Y0.7927
X0.4951Y0.6927
X0.4951Y0.5431
X0.545Y0.7927
X0.595Y0.6927
X0.595Y0.5931
T6
X0.1086Y0.2825
X0.2086Y0.2825
X0.5315Y0.2825
X0.6315Y0.2825
T7
X0.1692Y1.1519
X0.3192Y2.2519
X0.4692Y2.2519
X0.4692Y1.1519
X0.6192Y2.2519
X0.7692Y1.1519
T8
X0.061Y0.5623
T9
X0.6791Y0.5623
T10
X0.1692Y2.2519
X0.7692Y2.2519
T11
X0.2953Y2.0669
X0.3937Y0.1969
X0.4331Y1.6535
X1.2274Y0.4193
X1.9488Y1.3228
X3.7313Y0.4188
X4.5276Y2.2244
X4.5276Y0.1969
T4
G00X0.7685Y0.2514
M15
G01X0.7685Y0.2947
M16
G05
G00X0.7685Y0.0927
M15
G01X0.7685Y0.1242
M16
G05
G00X1.1087Y0.2514
M15
G01X1.1087Y0.2947
M16
G05
G00X1.1087Y0.0927
M15
G01X1.1087Y0.1242
M16
G05
G00X1.6035Y0.336
M15
G01X1.6035Y0.3124
M16
G05
G00X1.6035Y0.1498
M15
G01X1.6035Y0.1262
M16
G05
G00X1.9398Y0.336
M15
G01X1.9398Y0.3124
M16
G05
G00X1.9398Y0.1498
M15
G01X1.9398Y0.1262
M16
G05
G00X2.3136Y0.2417
M15
G01X2.3136Y0.2142
M16
G05
G00X2.3136Y0.0646
M15
G01X2.3136Y0.037
M16
G05
G00X2.7407Y0.2417
M15
G01X2.7407Y0.2142
M16
G05
G00X2.7407Y0.0646
M15
G01X2.7407Y0.037
M16
G05
G00X3.1252Y0.3327
M15
G01X3.1252Y0.3091
M16
G05
G00X3.1252Y0.1465
M15
G01X3.1252Y0.1228
M16
G05
G00X3.4614Y0.3327
M15
G01X3.4614Y0.3091
M16
G05
G00X3.4614Y0.1465
M15
G01X3.4614Y0.1228
M16
G05
M30
